%TF.GenerationSoftware,KiCad,Pcbnew,(6.0.8)*%
%TF.CreationDate,2023-02-19T19:21:05+03:00*%
%TF.ProjectId,ESP32-GATEWAY_Rev_G,45535033-322d-4474-9154-455741595f52,0*%
%TF.SameCoordinates,PX4260300PY8558f68*%
%TF.FileFunction,Soldermask,Top*%
%TF.FilePolarity,Negative*%
%FSLAX46Y46*%
G04 Gerber Fmt 4.6, Leading zero omitted, Abs format (unit mm)*
G04 Created by KiCad (PCBNEW (6.0.8)) date 2023-02-19 19:21:05*
%MOMM*%
%LPD*%
G01*
G04 APERTURE LIST*
G04 Aperture macros list*
%AMRoundRect*
0 Rectangle with rounded corners*
0 $1 Rounding radius*
0 $2 $3 $4 $5 $6 $7 $8 $9 X,Y pos of 4 corners*
0 Add a 4 corners polygon primitive as box body*
4,1,4,$2,$3,$4,$5,$6,$7,$8,$9,$2,$3,0*
0 Add four circle primitives for the rounded corners*
1,1,$1+$1,$2,$3*
1,1,$1+$1,$4,$5*
1,1,$1+$1,$6,$7*
1,1,$1+$1,$8,$9*
0 Add four rect primitives between the rounded corners*
20,1,$1+$1,$2,$3,$4,$5,0*
20,1,$1+$1,$4,$5,$6,$7,0*
20,1,$1+$1,$6,$7,$8,$9,0*
20,1,$1+$1,$8,$9,$2,$3,0*%
G04 Aperture macros list end*
%TA.AperFunction,Profile*%
%ADD10C,0.254000*%
%TD*%
%ADD11C,1.600000*%
%ADD12C,6.700000*%
%ADD13RoundRect,0.101600X0.499110X-0.549910X0.499110X0.549910X-0.499110X0.549910X-0.499110X-0.549910X0*%
%ADD14RoundRect,0.101600X-0.398780X-0.599440X0.398780X-0.599440X0.398780X0.599440X-0.398780X0.599440X0*%
%ADD15RoundRect,0.101600X-0.499110X0.549910X-0.499110X-0.549910X0.499110X-0.549910X0.499110X0.549910X0*%
%ADD16RoundRect,0.101600X-0.549910X-0.499110X0.549910X-0.499110X0.549910X0.499110X-0.549910X0.499110X0*%
%ADD17RoundRect,0.101600X0.549910X0.499110X-0.549910X0.499110X-0.549910X-0.499110X0.549910X-0.499110X0*%
%ADD18RoundRect,0.050800X0.635000X-0.762000X0.635000X0.762000X-0.635000X0.762000X-0.635000X-0.762000X0*%
%ADD19RoundRect,0.050800X0.762000X0.635000X-0.762000X0.635000X-0.762000X-0.635000X0.762000X-0.635000X0*%
%ADD20RoundRect,0.050800X-0.400000X-0.400000X0.400000X-0.400000X0.400000X0.400000X-0.400000X0.400000X0*%
%ADD21RoundRect,0.050800X-0.317500X-0.508000X0.317500X-0.508000X0.317500X0.508000X-0.317500X0.508000X0*%
%ADD22RoundRect,0.050800X-0.190500X-0.508000X0.190500X-0.508000X0.190500X0.508000X-0.190500X0.508000X0*%
%ADD23RoundRect,0.050800X0.317500X0.508000X-0.317500X0.508000X-0.317500X-0.508000X0.317500X-0.508000X0*%
%ADD24RoundRect,0.050800X0.190500X0.508000X-0.190500X0.508000X-0.190500X-0.508000X0.190500X-0.508000X0*%
%ADD25RoundRect,0.050800X-1.000000X-0.450000X1.000000X-0.450000X1.000000X0.450000X-1.000000X0.450000X0*%
%ADD26RoundRect,0.050800X-0.450000X-1.000000X0.450000X-1.000000X0.450000X1.000000X-0.450000X1.000000X0*%
%ADD27RoundRect,0.050800X-2.500000X-2.500000X2.500000X-2.500000X2.500000X2.500000X-2.500000X2.500000X0*%
%ADD28C,2.101600*%
%ADD29RoundRect,0.050800X-0.400000X-0.125000X0.400000X-0.125000X0.400000X0.125000X-0.400000X0.125000X0*%
%ADD30RoundRect,0.050800X0.125000X-0.400000X0.125000X0.400000X-0.125000X0.400000X-0.125000X-0.400000X0*%
%ADD31RoundRect,0.050800X0.400000X0.125000X-0.400000X0.125000X-0.400000X-0.125000X0.400000X-0.125000X0*%
%ADD32RoundRect,0.050800X-0.125000X0.400000X-0.125000X-0.400000X0.125000X-0.400000X0.125000X0.400000X0*%
%ADD33RoundRect,0.200000X-0.200000X0.200000X-0.200000X-0.200000X0.200000X-0.200000X0.200000X0.200000X0*%
%ADD34RoundRect,0.050800X-1.800000X1.800000X-1.800000X-1.800000X1.800000X-1.800000X1.800000X1.800000X0*%
%ADD35RoundRect,0.200000X-0.711200X0.711200X-0.711200X-0.711200X0.711200X-0.711200X0.711200X0.711200X0*%
%ADD36RoundRect,0.050800X-0.750000X0.400000X-0.750000X-0.400000X0.750000X-0.400000X0.750000X0.400000X0*%
%ADD37C,0.800000*%
%ADD38RoundRect,0.050800X-0.750000X1.550000X-0.750000X-1.550000X0.750000X-1.550000X0.750000X1.550000X0*%
%ADD39RoundRect,0.050800X-0.762000X0.508000X-0.762000X-0.508000X0.762000X-0.508000X0.762000X0.508000X0*%
%ADD40C,3.600000*%
%ADD41C,1.810000*%
%ADD42C,2.050000*%
%ADD43C,3.100000*%
%ADD44RoundRect,0.101600X-0.899160X0.798830X-0.899160X-0.798830X0.899160X-0.798830X0.899160X0.798830X0*%
%ADD45RoundRect,0.101600X0.899160X-0.798830X0.899160X0.798830X-0.899160X0.798830X-0.899160X-0.798830X0*%
%ADD46RoundRect,0.050800X1.000000X0.850000X-1.000000X0.850000X-1.000000X-0.850000X1.000000X-0.850000X0*%
%ADD47RoundRect,0.050800X-0.500000X0.700000X-0.500000X-0.700000X0.500000X-0.700000X0.500000X0.700000X0*%
%ADD48RoundRect,0.050800X-2.413000X-0.550000X2.413000X-0.550000X2.413000X0.550000X-2.413000X0.550000X0*%
%ADD49RoundRect,0.050800X-0.700000X-0.500000X0.700000X-0.500000X0.700000X0.500000X-0.700000X0.500000X0*%
%ADD50RoundRect,0.050800X0.635000X-0.162500X0.635000X0.162500X-0.635000X0.162500X-0.635000X-0.162500X0*%
%ADD51RoundRect,0.050800X-0.889000X-0.889000X0.889000X-0.889000X0.889000X0.889000X-0.889000X0.889000X0*%
%ADD52C,1.879600*%
%ADD53RoundRect,0.050800X0.889000X1.143000X-0.889000X1.143000X-0.889000X-1.143000X0.889000X-1.143000X0*%
%ADD54RoundRect,0.050800X0.500000X-0.700000X0.500000X0.700000X-0.500000X0.700000X-0.500000X-0.700000X0*%
%ADD55RoundRect,0.050800X-0.762000X-0.635000X0.762000X-0.635000X0.762000X0.635000X-0.762000X0.635000X0*%
%ADD56RoundRect,0.050800X0.700000X0.500000X-0.700000X0.500000X-0.700000X-0.500000X0.700000X-0.500000X0*%
%ADD57RoundRect,0.050800X-0.700000X0.500000X-0.700000X-0.500000X0.700000X-0.500000X0.700000X0.500000X0*%
%ADD58RoundRect,0.050800X0.700000X-0.500000X0.700000X0.500000X-0.700000X0.500000X-0.700000X-0.500000X0*%
%ADD59C,1.254000*%
%ADD60RoundRect,0.350000X-0.150000X-0.625000X0.150000X-0.625000X0.150000X0.625000X-0.150000X0.625000X0*%
%ADD61RoundRect,0.450000X-0.350000X-0.650000X0.350000X-0.650000X0.350000X0.650000X-0.350000X0.650000X0*%
%ADD62RoundRect,0.101600X0.635000X1.029970X-0.635000X1.029970X-0.635000X-1.029970X0.635000X-1.029970X0*%
%ADD63RoundRect,0.200000X0.900000X-0.900000X0.900000X0.900000X-0.900000X0.900000X-0.900000X-0.900000X0*%
%ADD64C,2.200000*%
%ADD65RoundRect,0.200000X-1.250000X0.850000X-1.250000X-0.850000X1.250000X-0.850000X1.250000X0.850000X0*%
%ADD66O,2.900000X2.100000*%
%ADD67C,3.400000*%
%ADD68RoundRect,0.450001X-1.599999X1.099999X-1.599999X-1.099999X1.599999X-1.099999X1.599999X1.099999X0*%
%ADD69O,4.100000X3.100000*%
%ADD70RoundRect,0.300000X-0.637500X-0.100000X0.637500X-0.100000X0.637500X0.100000X-0.637500X0.100000X0*%
%ADD71C,0.701600*%
%ADD72RoundRect,0.050800X0.550000X1.000000X-0.550000X1.000000X-0.550000X-1.000000X0.550000X-1.000000X0*%
%ADD73O,1.301600X2.301600*%
%ADD74RoundRect,0.050800X0.550000X1.100000X-0.550000X1.100000X-0.550000X-1.100000X0.550000X-1.100000X0*%
%ADD75O,1.401600X2.101600*%
%ADD76RoundRect,0.050800X0.150000X0.575000X-0.150000X0.575000X-0.150000X-0.575000X0.150000X-0.575000X0*%
%ADD77RoundRect,0.050800X0.125000X0.575000X-0.125000X0.575000X-0.125000X-0.575000X0.125000X-0.575000X0*%
%ADD78C,1.101600*%
%ADD79RoundRect,0.101600X1.029970X-0.635000X1.029970X0.635000X-1.029970X0.635000X-1.029970X-0.635000X0*%
%ADD80RoundRect,0.450000X1.000000X-1.950000X1.000000X1.950000X-1.000000X1.950000X-1.000000X-1.950000X0*%
%ADD81C,1.300000*%
%ADD82C,1.100000*%
%ADD83C,1.150000*%
G04 APERTURE END LIST*
D10*
X48650000Y72773492D02*
X49770000Y71659000D01*
X48650000Y72773492D02*
X19554000Y72769000D01*
X-4000Y66673000D02*
X0Y0D01*
X61200000Y72675000D02*
X71675000Y72675000D01*
X19554000Y66673000D02*
X19554000Y72769000D01*
X60184000Y71659000D02*
X61200000Y72675000D01*
X49770000Y71659000D02*
X60184000Y71659000D01*
X71675000Y72675000D02*
X71675000Y0D01*
X-4000Y66673000D02*
X19554000Y66673000D01*
X0Y0D02*
X71675000Y0D01*
X48650000Y72773492D02*
X49770000Y71659000D01*
X48650000Y72773492D02*
X19554000Y72769000D01*
X-4000Y66673000D02*
X0Y0D01*
X61200000Y72675000D02*
X71675000Y72675000D01*
X19554000Y66673000D02*
X19554000Y72769000D01*
X60184000Y71659000D02*
X61200000Y72675000D01*
X49770000Y71659000D02*
X60184000Y71659000D01*
X71675000Y72675000D02*
X71675000Y0D01*
X-4000Y66673000D02*
X19554000Y66673000D01*
X0Y0D02*
X71675000Y0D01*
D11*
X5203000Y19175000D03*
X1901000Y15746000D03*
X5203000Y15873000D03*
X3552000Y15111000D03*
X1139000Y17524000D03*
X3552000Y19937000D03*
X5965000Y17524000D03*
X1901000Y19175000D03*
D12*
X3552000Y17524000D03*
D13*
X36064000Y34963640D03*
X36064000Y36660360D03*
X34540000Y34963640D03*
X34540000Y36660360D03*
D14*
X15733840Y27176000D03*
X17532160Y27176000D03*
D15*
X36826000Y48979360D03*
X36826000Y47282640D03*
X39874000Y36787360D03*
X39874000Y35090640D03*
X28190000Y36660360D03*
X28190000Y34963640D03*
D16*
X34072640Y45591000D03*
X35769360Y45591000D03*
D17*
X24847360Y44956000D03*
X23150640Y44956000D03*
X24847360Y40003000D03*
X23150640Y40003000D03*
X24847360Y41527000D03*
X23150640Y41527000D03*
X37166360Y41146000D03*
X35469640Y41146000D03*
D18*
X37969000Y35177000D03*
X37969000Y37209000D03*
D19*
X17649000Y25271000D03*
X15617000Y25271000D03*
D20*
X46461500Y54455000D03*
X44937500Y54455000D03*
D16*
X11847640Y44067000D03*
X13544360Y44067000D03*
D13*
X22094000Y66586640D03*
X22094000Y68283360D03*
D15*
X42033000Y63711360D03*
X42033000Y62014640D03*
X28952000Y48979360D03*
X28952000Y47282640D03*
X26666000Y48979360D03*
X26666000Y47282640D03*
X32762000Y48979360D03*
X32762000Y47282640D03*
X30476000Y48979360D03*
X30476000Y47282640D03*
D16*
X31278640Y15301500D03*
X32975360Y15301500D03*
X35469640Y39625000D03*
X37166360Y39625000D03*
D17*
X24847360Y46734000D03*
X23150640Y46734000D03*
D16*
X39406640Y20826000D03*
X41103360Y20826000D03*
D17*
X26117360Y22858000D03*
X24420640Y22858000D03*
D21*
X23745000Y35050000D03*
X23745000Y36574000D03*
D22*
X24634000Y35050000D03*
X24634000Y36574000D03*
X25396000Y35050000D03*
X25396000Y36574000D03*
D21*
X26285000Y35050000D03*
X26285000Y36574000D03*
D23*
X32635000Y36574000D03*
X32635000Y35050000D03*
D24*
X31746000Y36574000D03*
X31746000Y35050000D03*
X30984000Y36574000D03*
X30984000Y35050000D03*
D23*
X30095000Y36574000D03*
X30095000Y35050000D03*
D25*
X1910000Y65252000D03*
X1910000Y63982000D03*
X1910000Y62712000D03*
X1910000Y61442000D03*
X1910000Y60172000D03*
X1910000Y58902000D03*
X1910000Y57632000D03*
X1910000Y56362000D03*
X1910000Y55092000D03*
X1910000Y53822000D03*
X1910000Y52552000D03*
X1910000Y51282000D03*
X1910000Y50012000D03*
X1910000Y48742000D03*
D26*
X4710000Y47742000D03*
X5980000Y47742000D03*
X7250000Y47742000D03*
X8520000Y47742000D03*
X9790000Y47742000D03*
X11060000Y47742000D03*
X12330000Y47742000D03*
X13600000Y47742000D03*
X14870000Y47742000D03*
X16140000Y47742000D03*
D25*
X18910000Y48742000D03*
X18910000Y50012000D03*
X18910000Y51282000D03*
X18910000Y52552000D03*
X18910000Y53822000D03*
X18910000Y55092000D03*
X18910000Y56362000D03*
X18910000Y57632000D03*
X18910000Y58902000D03*
X18910000Y60172000D03*
X18910000Y61442000D03*
X18910000Y62712000D03*
X18910000Y63982000D03*
X18910000Y65252000D03*
D27*
X9410000Y57742000D03*
D28*
X9410000Y57742000D03*
D29*
X27899000Y43531000D03*
X27899000Y43031000D03*
X27899000Y42531000D03*
X27899000Y42031000D03*
X27899000Y41531000D03*
X27899000Y41031000D03*
X27899000Y40531000D03*
X27899000Y40031000D03*
D30*
X28599000Y39331000D03*
X29099000Y39331000D03*
X29599000Y39331000D03*
X30099000Y39331000D03*
X30599000Y39331000D03*
X31099000Y39331000D03*
X31599000Y39331000D03*
X32099000Y39331000D03*
D31*
X32799000Y40031000D03*
X32799000Y40531000D03*
X32799000Y41031000D03*
X32799000Y41531000D03*
X32799000Y42031000D03*
X32799000Y42531000D03*
X32799000Y43031000D03*
X32799000Y43531000D03*
D32*
X32099000Y44231000D03*
X31599000Y44231000D03*
X31099000Y44231000D03*
X30599000Y44231000D03*
X30099000Y44231000D03*
X29599000Y44231000D03*
X29099000Y44231000D03*
X28599000Y44231000D03*
D33*
X31649000Y42281000D03*
X30849000Y43081000D03*
X29849000Y43081000D03*
D34*
X30349000Y41781000D03*
D33*
X31649000Y41281000D03*
X29049000Y41281000D03*
X30849000Y40481000D03*
D35*
X30349000Y41781000D03*
D33*
X29049000Y42281000D03*
X29849000Y40481000D03*
D36*
X2727000Y24850000D03*
X2727000Y25950000D03*
X2727000Y27050000D03*
X2727000Y28150000D03*
X2727000Y29250000D03*
X2727000Y30350000D03*
X2727000Y31450000D03*
X2727000Y32550000D03*
D37*
X1007000Y21880000D03*
X12807000Y22970000D03*
X12807000Y34240000D03*
X1007000Y34240000D03*
D38*
X11977000Y31610000D03*
X11977000Y25550000D03*
D17*
X17481360Y28954000D03*
X15784640Y28954000D03*
D39*
X9521000Y42670000D03*
X1647000Y42670000D03*
X9521000Y36828000D03*
X1647000Y36828000D03*
D40*
X26285000Y61466000D03*
X37715000Y61466000D03*
D41*
X36455000Y54766000D03*
X35185000Y52226000D03*
X33915000Y54766000D03*
X32645000Y52226000D03*
X31375000Y54766000D03*
X30105000Y52226000D03*
X28835000Y54766000D03*
X27565000Y52226000D03*
D42*
X27930000Y66214500D03*
X38610000Y66214500D03*
D43*
X39800000Y58416000D03*
X24200000Y58416000D03*
D42*
X25390000Y66214500D03*
X36070000Y66214500D03*
D44*
X22475000Y56007540D03*
X22475000Y53208460D03*
D45*
X22475000Y60828460D03*
X22475000Y63627540D03*
D17*
X46547860Y52677000D03*
X44851140Y52677000D03*
X26117360Y25525000D03*
X24420640Y25525000D03*
D16*
X39914640Y25525000D03*
X41611360Y25525000D03*
D17*
X26117360Y18667000D03*
X24420640Y18667000D03*
D16*
X39406640Y22350000D03*
X41103360Y22350000D03*
D46*
X48470000Y33145000D03*
X43470000Y33145000D03*
D47*
X46798040Y35720560D03*
X48700500Y35720560D03*
X47745460Y37930360D03*
D48*
X28317000Y27430000D03*
X37715000Y27430000D03*
D49*
X22439440Y22670040D03*
X22439440Y24572500D03*
X20229640Y23617460D03*
D17*
X45040360Y35939000D03*
X43343640Y35939000D03*
X26117360Y21080000D03*
X24420640Y21080000D03*
X13544360Y42543000D03*
X11847640Y42543000D03*
D16*
X11847640Y41019000D03*
X13544360Y41019000D03*
D50*
X35746500Y17139000D03*
X35746500Y17789000D03*
X35746500Y18439000D03*
X35746500Y19089000D03*
X35746500Y19739000D03*
X35746500Y20389000D03*
X35746500Y21039000D03*
X35746500Y21689000D03*
X35746500Y22339000D03*
X35746500Y22989000D03*
X28507500Y22989000D03*
X28507500Y22339000D03*
X28507500Y21689000D03*
X28507500Y21039000D03*
X28507500Y20389000D03*
X28507500Y19739000D03*
X28507500Y19089000D03*
X28507500Y18439000D03*
X28507500Y17789000D03*
X28507500Y17139000D03*
D11*
X45081000Y70356000D03*
X45081000Y66927000D03*
X49145000Y68705000D03*
X48383000Y70356000D03*
X44319000Y68705000D03*
X48383000Y67054000D03*
X46732000Y71118000D03*
D12*
X46732000Y68705000D03*
D11*
X46732000Y66292000D03*
D51*
X1266000Y11809000D03*
D52*
X3806000Y11809000D03*
X6346000Y11809000D03*
X8886000Y11809000D03*
X11426000Y11809000D03*
X13966000Y11809000D03*
X16506000Y11809000D03*
X19046000Y11809000D03*
X21586000Y11809000D03*
X24126000Y11809000D03*
X26666000Y11809000D03*
X29206000Y11809000D03*
X31746000Y11809000D03*
X34286000Y11809000D03*
X36826000Y11809000D03*
X39366000Y11809000D03*
X41906000Y11809000D03*
X44446000Y11809000D03*
X46986000Y11809000D03*
X49526000Y11809000D03*
D20*
X46461500Y58900000D03*
X44937500Y58900000D03*
D16*
X44851140Y57122000D03*
X46547860Y57122000D03*
D17*
X12274360Y19937000D03*
X10577640Y19937000D03*
X17735360Y35177000D03*
X16038640Y35177000D03*
D53*
X48401000Y29843000D03*
X44047000Y29843000D03*
D54*
X21011960Y37427440D03*
X19109500Y37427440D03*
X20064540Y35217640D03*
D17*
X21037360Y42289000D03*
X19340640Y42289000D03*
D55*
X15490000Y37844000D03*
X17522000Y37844000D03*
D16*
X19340639Y39241000D03*
X21037359Y39241000D03*
D56*
X17684560Y45651960D03*
X17684560Y43749500D03*
X19894360Y44704540D03*
D16*
X19340639Y40765000D03*
X21037359Y40765000D03*
D17*
X9099360Y21461000D03*
X7402640Y21461000D03*
X17735360Y33653000D03*
X16038640Y33653000D03*
D57*
X15533000Y41207000D03*
X15533000Y39307000D03*
X17733000Y40257000D03*
D58*
X37842000Y15116000D03*
X37842000Y18916000D03*
D57*
X39874000Y18916000D03*
X39874000Y15116000D03*
D59*
X47825000Y63950000D03*
D13*
X35175000Y47282640D03*
X35175000Y48979360D03*
D16*
X16038640Y31875000D03*
X17735360Y31875000D03*
D17*
X12274360Y21461000D03*
X10577640Y21461000D03*
X9099360Y19937000D03*
X7402640Y19937000D03*
X19386360Y21715000D03*
X17689640Y21715000D03*
X17862360Y23366000D03*
X16165640Y23366000D03*
D49*
X22312440Y19114040D03*
X22312440Y21016500D03*
X20102640Y20061460D03*
D17*
X18497360Y20064000D03*
X16800640Y20064000D03*
X13544360Y39241000D03*
X11847640Y39241000D03*
X13544360Y35939000D03*
X11847640Y35939000D03*
D15*
X28170000Y9235081D03*
X28170000Y7538361D03*
D17*
X39473360Y9219180D03*
X37776640Y9219180D03*
D16*
X17076640Y7486829D03*
X18773360Y7486829D03*
D60*
X10430000Y5440000D03*
X11430000Y5440000D03*
X12430000Y5440000D03*
X13430000Y5440000D03*
D61*
X14730000Y1565000D03*
X9130000Y1565000D03*
D16*
X64978200Y7585000D03*
X66674920Y7585000D03*
D62*
X47977600Y26400000D03*
X44472400Y26400000D03*
D15*
X4560000Y9236720D03*
X4560000Y7540000D03*
D60*
X2560000Y5440000D03*
X3560000Y5440000D03*
X4560000Y5440000D03*
X5560000Y5440000D03*
D61*
X1260000Y1565000D03*
X6860000Y1565000D03*
D41*
X26300000Y54775000D03*
D63*
X51610000Y30925000D03*
D64*
X51610000Y28385000D03*
X51610000Y25845000D03*
D16*
X1436640Y7590000D03*
X3133360Y7590000D03*
D60*
X50360000Y5434115D03*
X51360000Y5434115D03*
X52360000Y5434115D03*
X53360000Y5434115D03*
D61*
X54660000Y1559115D03*
X49060000Y1559115D03*
D60*
X58230000Y5435112D03*
X59230000Y5435112D03*
X60230000Y5435112D03*
X61230000Y5435112D03*
D61*
X56930000Y1560112D03*
X62530000Y1560112D03*
D15*
X21775000Y9236009D03*
X21775000Y7539289D03*
D60*
X26170000Y5436721D03*
X27170000Y5436721D03*
X28170000Y5436721D03*
X29170000Y5436721D03*
D61*
X30470000Y1561721D03*
X24870000Y1561721D03*
D15*
X53835000Y9232475D03*
X53835000Y7535755D03*
D63*
X51610000Y18850000D03*
D64*
X51610000Y16310000D03*
X51610000Y13770000D03*
D16*
X50401640Y61350000D03*
X52098360Y61350000D03*
X57107480Y7585112D03*
X58804200Y7585112D03*
D65*
X57725000Y18875000D03*
D66*
X57725000Y16335000D03*
X57725000Y13795000D03*
D15*
X52360000Y9229195D03*
X52360000Y7532475D03*
X60230000Y9233472D03*
X60230000Y7536752D03*
D65*
X57717500Y30935000D03*
D66*
X57717500Y28395000D03*
X57717500Y25855000D03*
D15*
X6035000Y9238360D03*
X6035000Y7541640D03*
D17*
X36193360Y9220000D03*
X34496640Y9220000D03*
D15*
X29645000Y9235081D03*
X29645000Y7538361D03*
D16*
X49235800Y7584115D03*
X50932520Y7584115D03*
D60*
X42490000Y5433893D03*
X43490000Y5433893D03*
X44490000Y5433893D03*
X45490000Y5433893D03*
D61*
X46790000Y1558893D03*
X41190000Y1558893D03*
D15*
X68100720Y9236640D03*
X68100720Y7539920D03*
D67*
X64465000Y48800000D03*
D68*
X57165000Y50900000D03*
D69*
X57165000Y46700000D03*
X51665000Y50900000D03*
X51665000Y46700000D03*
D16*
X57476640Y61350000D03*
X59173360Y61350000D03*
D70*
X32987500Y7890000D03*
X32987500Y7240000D03*
X32987500Y6590000D03*
X32987500Y5940000D03*
X32987500Y5290000D03*
X32987500Y4640000D03*
X32987500Y3990000D03*
X32987500Y3340000D03*
X32987500Y2690000D03*
X32987500Y2040000D03*
X32987500Y1390000D03*
X32987500Y740000D03*
X38712500Y740000D03*
X38712500Y1390000D03*
X38712500Y2040000D03*
X38712500Y2690000D03*
X38712500Y3340000D03*
X38712500Y3990000D03*
X38712500Y4640000D03*
X38712500Y5290000D03*
X38712500Y5940000D03*
X38712500Y6590000D03*
X38712500Y7240000D03*
X38712500Y7890000D03*
D16*
X9307480Y7590000D03*
X11004200Y7590000D03*
D15*
X13905000Y9238360D03*
X13905000Y7541640D03*
D17*
X42948360Y8980000D03*
X41251640Y8980000D03*
D15*
X45965000Y9232253D03*
X45965000Y7535533D03*
X20300000Y9236009D03*
X20300000Y7539289D03*
D16*
X25047480Y7586721D03*
X26744200Y7586721D03*
D60*
X66110000Y5435000D03*
X67110000Y5435000D03*
X68110000Y5435000D03*
X69110000Y5435000D03*
D61*
X70410000Y1560000D03*
X64810000Y1560000D03*
D16*
X41367480Y7583893D03*
X43064200Y7583893D03*
D71*
X57865000Y65920000D03*
X52085000Y65920000D03*
D72*
X50047400Y69600000D03*
D73*
X59295000Y65420000D03*
D74*
X59902600Y65420000D03*
D75*
X59295000Y69600000D03*
D73*
X50655000Y65420000D03*
D72*
X59902600Y69600000D03*
D75*
X50655000Y69600000D03*
D74*
X50047400Y65420000D03*
D76*
X58300000Y64518000D03*
X57500000Y64518000D03*
D77*
X56225000Y64518000D03*
X55225000Y64518000D03*
X54725000Y64518000D03*
X53725000Y64518000D03*
D76*
X52450000Y64518000D03*
X51650000Y64518000D03*
X51900000Y64518000D03*
X52700000Y64518000D03*
D77*
X53225000Y64518000D03*
X54225000Y64518000D03*
X55725000Y64518000D03*
X56725000Y64518000D03*
D76*
X57250000Y64518000D03*
X58050000Y64518000D03*
D15*
X69575720Y9233360D03*
X69575720Y7536640D03*
D78*
X49225000Y61350000D03*
D15*
X12430000Y9236720D03*
X12430000Y7540000D03*
D79*
X46475000Y15975000D03*
X46475000Y19480200D03*
D41*
X37715000Y52225000D03*
D16*
X31221640Y9220000D03*
X32918360Y9220000D03*
D15*
X61705000Y9233472D03*
X61705000Y7536752D03*
X44490000Y9230613D03*
X44490000Y7533893D03*
D60*
X18300000Y5437649D03*
X19300000Y5437649D03*
X20300000Y5437649D03*
X21300000Y5437649D03*
D61*
X22600000Y1562649D03*
X17000000Y1562649D03*
D80*
X65810000Y61620000D03*
X65810000Y70020000D03*
D40*
X61365000Y42200000D03*
X61365000Y55400000D03*
D68*
X57165000Y50900000D03*
D69*
X57165000Y46700000D03*
X51665000Y50900000D03*
X51665000Y46700000D03*
D79*
X43425000Y15975000D03*
X43425000Y19480200D03*
D81*
X13760000Y26541000D03*
X13760000Y25525000D03*
X13760000Y24509000D03*
D82*
X35429000Y37590000D03*
X34540000Y37590000D03*
D81*
X39747000Y46734000D03*
X39747000Y47877000D03*
X39747000Y49020000D03*
X39747000Y42162000D03*
X39747000Y41019000D03*
X39747000Y39876000D03*
X39747000Y38733000D03*
X29587000Y30097000D03*
X32254000Y30097000D03*
X34032000Y30097000D03*
X35937000Y30097000D03*
X32254000Y28954000D03*
X30857000Y30097000D03*
X28317000Y30097000D03*
X29587000Y28954000D03*
X37715000Y30097000D03*
X25777000Y28954000D03*
X25777000Y30097000D03*
X27047000Y28954000D03*
X27047000Y30097000D03*
X45335000Y61085000D03*
X45335000Y62355000D03*
X45335000Y63625000D03*
X45335000Y64895000D03*
X38858000Y17016000D03*
X42795000Y64895000D03*
X44065000Y64895000D03*
X44065000Y63625000D03*
X44065000Y62355000D03*
X41652000Y65530000D03*
X41652000Y67435000D03*
X41652000Y69340000D03*
X41652000Y71245000D03*
X44050000Y61100000D03*
X46605000Y61085000D03*
X46605000Y62355000D03*
X37207000Y24382000D03*
X13585000Y61720000D03*
X20570000Y71626000D03*
X20570000Y70356000D03*
X20570000Y67816000D03*
X20570000Y69086000D03*
X20570000Y66546000D03*
X12442000Y37336000D03*
X11299000Y37336000D03*
X55150000Y28385000D03*
X13766000Y32622000D03*
X61490000Y30950000D03*
X60185000Y18845000D03*
X67805000Y17590000D03*
X65290000Y12515000D03*
X69090000Y11235000D03*
X69080000Y32220000D03*
X60205000Y16295000D03*
X4700000Y30350000D03*
X63985000Y20130000D03*
X12325000Y56625000D03*
X62760000Y12505000D03*
X65280000Y33500000D03*
X42895000Y48570000D03*
X8500000Y62945000D03*
X9770000Y62945000D03*
X5960000Y65485000D03*
X55185000Y23310000D03*
X60205000Y17565000D03*
X64005000Y15040000D03*
X64030000Y12505000D03*
X33524000Y37717000D03*
X14855000Y61720000D03*
X61455000Y21390000D03*
X24258000Y26561000D03*
X45650000Y44630000D03*
X43459261Y41080000D03*
X53915000Y23310000D03*
X13766000Y31606000D03*
X67830000Y29690000D03*
X8500000Y64215000D03*
X12305000Y65510000D03*
X45650000Y43360000D03*
X57655000Y21375000D03*
X39747000Y43305000D03*
X61490000Y29680000D03*
X20550000Y26550000D03*
X36826000Y44702000D03*
X69090000Y29680000D03*
X4568000Y37589848D03*
X61480000Y32220000D03*
X56400000Y21375000D03*
X27936000Y25652000D03*
D82*
X11426000Y45337000D03*
D81*
X69090000Y12505000D03*
X61490000Y13775000D03*
X12305000Y61700000D03*
X56430000Y11210000D03*
X35937000Y26033000D03*
X41450000Y41175000D03*
X64030000Y13775000D03*
X42895000Y51110000D03*
X62760000Y13775000D03*
X39747000Y44448000D03*
X13585000Y59165000D03*
D82*
X40174428Y9133880D03*
D81*
X31619000Y24382000D03*
X4695000Y45464000D03*
X17350000Y30575000D03*
X70355000Y33490000D03*
X69115000Y23335000D03*
X4695000Y49147000D03*
X61490000Y12505000D03*
X30349000Y25652000D03*
X56425000Y33475000D03*
X69090000Y28410000D03*
X66535000Y17590000D03*
X12305000Y62970000D03*
X43049000Y35050000D03*
X65290000Y13785000D03*
X69055000Y21390000D03*
X17776000Y42289000D03*
X67825000Y33510000D03*
X62735000Y16310000D03*
X42895000Y52375000D03*
X67855000Y24615000D03*
X35937000Y29081000D03*
X34032000Y28954000D03*
X64005000Y16310000D03*
X31492000Y22858000D03*
X70360000Y30950000D03*
X61465000Y16310000D03*
X16115000Y65500000D03*
X7230000Y65485000D03*
X65265000Y17590000D03*
X58220000Y4230000D03*
X13575000Y64240000D03*
X62755000Y32220000D03*
D82*
X12442010Y45337000D03*
D81*
X61515000Y25875000D03*
X61455000Y20120000D03*
X65315000Y23345000D03*
X70360000Y28410000D03*
X20550000Y28591000D03*
X60230000Y11220000D03*
X11035000Y61700000D03*
X4695000Y23874000D03*
X36826000Y45718000D03*
X58955000Y33475000D03*
X45650000Y42090000D03*
X39154589Y34345411D03*
X60230000Y28395000D03*
X64000000Y21400000D03*
X69055000Y20120000D03*
X65265000Y18860000D03*
X46920000Y40825000D03*
X14855000Y59165000D03*
X9765000Y65510000D03*
X66560000Y30960000D03*
X70385000Y24605000D03*
X70355000Y32220000D03*
X60230000Y27125000D03*
X46925000Y47165000D03*
D82*
X631000Y27557000D03*
D81*
X62755000Y33490000D03*
X64055000Y24605000D03*
X61515000Y24605000D03*
X67810000Y30970000D03*
X64030000Y28410000D03*
X64030000Y29680000D03*
X67810000Y32240000D03*
X14845000Y65500000D03*
X60210000Y30945000D03*
X10420000Y4215669D03*
X44700000Y28065000D03*
X8568500Y49401561D03*
X41625000Y53645000D03*
X25015000Y48067500D03*
X67830000Y11245000D03*
X66530000Y21400000D03*
X70330000Y21390000D03*
X70330000Y20120000D03*
X2560000Y4220000D03*
X24258000Y27577000D03*
X67855000Y23345000D03*
X63985000Y18860000D03*
X11035000Y62970000D03*
X55160000Y11210000D03*
X13575000Y65510000D03*
X70335000Y16310000D03*
X53890000Y11210000D03*
X57680000Y33475000D03*
X61515000Y23335000D03*
X42489227Y4220000D03*
X57690000Y11220000D03*
X11035000Y65510000D03*
X69065000Y18850000D03*
X66560000Y12515000D03*
X14855000Y60435000D03*
X66560000Y13785000D03*
X67785000Y18870000D03*
X13766000Y30590000D03*
X13585000Y55355000D03*
X65255000Y21400000D03*
X61490000Y27140000D03*
X13585000Y57895000D03*
X64030000Y27140000D03*
X62785000Y24605000D03*
X41450000Y39905000D03*
X13585000Y60435000D03*
X9765000Y64240000D03*
X23110000Y65149000D03*
X64025000Y33500000D03*
X69080000Y33490000D03*
X69090000Y27140000D03*
X57715000Y23320000D03*
X66535000Y16320000D03*
X66560000Y15055000D03*
X37715000Y29081000D03*
X55135000Y16285000D03*
X61465000Y18850000D03*
X8500000Y65485000D03*
X22957600Y51687000D03*
X65315000Y24615000D03*
X21332000Y35685000D03*
X61490000Y28410000D03*
X23070479Y45805479D03*
X35936992Y24382000D03*
X65290000Y29690000D03*
X70360000Y13775000D03*
X56455000Y23310000D03*
X62735000Y17580000D03*
X41625000Y52375000D03*
X62785000Y27145000D03*
X70335000Y17580000D03*
X17385000Y65500000D03*
X66585000Y25885000D03*
X66555000Y32230000D03*
X64005000Y17580000D03*
X22094000Y71626000D03*
X12325000Y55355000D03*
X60255000Y25860000D03*
X12315000Y60435000D03*
X60205000Y15025000D03*
X11035000Y64240000D03*
X12325000Y57895000D03*
X42895000Y47300000D03*
X34032000Y21334000D03*
D82*
X32761988Y44448000D03*
D81*
X43684000Y28065000D03*
X46920000Y44630000D03*
D82*
X33524000Y43940000D03*
D81*
X46470000Y51525000D03*
X62760000Y30950000D03*
X42895000Y53645000D03*
X62760000Y28410000D03*
X69090000Y30950000D03*
X12305000Y64240000D03*
X62785000Y23335000D03*
D82*
X631000Y23493000D03*
D81*
X16115000Y62975000D03*
X66530000Y20130000D03*
X45195000Y49010000D03*
X70360000Y12505000D03*
X42895000Y49840000D03*
X7489000Y49401000D03*
X20550000Y27575000D03*
X61480000Y33490000D03*
X41625000Y48570000D03*
X65255000Y20130000D03*
X43475000Y43575000D03*
X69115000Y25875000D03*
X61465000Y15040000D03*
X44812500Y56175000D03*
X50340000Y4230000D03*
X65280000Y32230000D03*
X43475000Y39825000D03*
X67830000Y12515000D03*
X62785000Y25875000D03*
X70360000Y29680000D03*
X21967000Y51687000D03*
X64030000Y11235000D03*
X29206000Y35177000D03*
X53880000Y28385000D03*
X60255000Y23320000D03*
X65290000Y11245000D03*
X60225000Y33485000D03*
X8500000Y61675000D03*
X46920000Y42090000D03*
X62760000Y11235000D03*
X67830000Y27150000D03*
X64010000Y30960000D03*
X70385000Y25875000D03*
X62760000Y15045000D03*
X33524000Y38860000D03*
X12325000Y59165000D03*
X16125000Y61705000D03*
X41625000Y51110000D03*
X66560000Y29690000D03*
X64010000Y32230000D03*
X65315000Y25885000D03*
X35774009Y5859842D03*
X65290000Y27150000D03*
X26170000Y4216721D03*
X24258000Y28593000D03*
X60230000Y29665000D03*
X37715000Y26098570D03*
X62730000Y21390000D03*
X14855000Y57895000D03*
X60200000Y21385000D03*
X14845000Y64250000D03*
X53880000Y33465000D03*
X67805000Y15050000D03*
X39747000Y45591000D03*
X69090000Y13775000D03*
X62760000Y29680000D03*
X60255000Y24590000D03*
X45200000Y51525000D03*
X62730000Y20120000D03*
X44940000Y20740000D03*
X67830000Y28420000D03*
X45650000Y39555000D03*
X69065000Y15040000D03*
X53855000Y21365000D03*
X58930000Y21375000D03*
X33143000Y27176000D03*
X69065000Y16310000D03*
X55130000Y21365000D03*
X70335000Y18850000D03*
X60230000Y13760000D03*
X55155000Y33465000D03*
X66555000Y33500000D03*
X60230000Y12490000D03*
X28317000Y28954000D03*
X41625000Y47300000D03*
X7230000Y61675000D03*
X20570000Y48131000D03*
X65290000Y28420000D03*
X41450000Y42445000D03*
X16115000Y64250000D03*
X70385000Y23335000D03*
X46920000Y45900000D03*
X61465000Y17580000D03*
X66585000Y24615000D03*
X66560000Y11245000D03*
X67830000Y13785000D03*
X67800000Y21410000D03*
X58960000Y11220000D03*
X69115000Y24605000D03*
X58985000Y23320000D03*
X66100000Y4230000D03*
X7230000Y64215000D03*
X60185000Y20115000D03*
X13585000Y56625000D03*
X45650000Y40825000D03*
X20323700Y65492519D03*
X14845000Y62975000D03*
X66585000Y27155000D03*
X70360000Y11235000D03*
X13575000Y62970000D03*
X67855000Y25885000D03*
X9765000Y61700000D03*
X7230000Y62945000D03*
X4680000Y65475000D03*
X46920000Y39555000D03*
X4695000Y44194000D03*
X61490000Y11235000D03*
X69065000Y17580000D03*
X64055000Y25875000D03*
X66535000Y18860000D03*
X22094000Y65149000D03*
X65265000Y16320000D03*
X67785000Y20140000D03*
X70360000Y15045000D03*
X66585000Y23345000D03*
X43459261Y42350000D03*
X67805000Y16320000D03*
X22094000Y70356000D03*
X62735000Y18850000D03*
X70385000Y27145000D03*
X18298234Y4212649D03*
X65290000Y30960000D03*
X41620000Y46035000D03*
X45650000Y45900000D03*
X64055000Y23335000D03*
X60210000Y32215000D03*
X45200000Y50275000D03*
X66560000Y28420000D03*
X46920000Y43360000D03*
X46470000Y50275000D03*
X30857000Y28954000D03*
D82*
X36318004Y37590000D03*
D81*
X65265000Y15050000D03*
X53865000Y16285000D03*
X41625000Y49840000D03*
X19173000Y25271000D03*
X14474000Y37082000D03*
D82*
X14474000Y42797000D03*
D81*
X40636000Y32256000D03*
X8180000Y50860000D03*
X19173000Y32256000D03*
X44300000Y13730000D03*
X19590000Y17440000D03*
X11545229Y18794000D03*
X19173000Y33272000D03*
X11540000Y16250000D03*
X43430000Y14603000D03*
D82*
X1373596Y35360000D03*
X7200000Y18910588D03*
X4550000Y62736000D03*
X36826000Y50544000D03*
X29714000Y49020000D03*
D81*
X33905000Y49020000D03*
X38477000Y49020000D03*
D83*
X25777000Y49274000D03*
D81*
X42159976Y37844020D03*
D82*
X57375000Y63700000D03*
D81*
X31870000Y17430000D03*
D82*
X52575000Y63700000D03*
X25559530Y50187798D03*
X24666301Y50321179D03*
X5107510Y31474918D03*
X5107510Y35406099D03*
X10029000Y40130000D03*
X12244828Y23431445D03*
X4550000Y57656000D03*
D81*
X45081000Y32764000D03*
X48775000Y17775000D03*
X45081000Y34796000D03*
X45081000Y33780000D03*
D82*
X12548555Y49657751D03*
X37630000Y7240000D03*
X32287950Y8614224D03*
X4550000Y60196000D03*
X10216058Y13140826D03*
X9313587Y13159216D03*
X4550000Y61466000D03*
X4550000Y56386000D03*
X35145630Y8547045D03*
D81*
X19046000Y35177000D03*
X17649000Y38987000D03*
D82*
X16633000Y39367980D03*
X16633000Y42289000D03*
X15620000Y17280000D03*
X10035100Y17276100D03*
X4550000Y58926000D03*
X27948670Y12640081D03*
X6746831Y42670000D03*
X2479143Y40610000D03*
X17014561Y46353561D03*
X28111100Y16449198D03*
X12401455Y50997029D03*
X11410000Y13987300D03*
X10600358Y51399500D03*
X13438190Y45337000D03*
X14452273Y35199848D03*
X7167885Y34790410D03*
X8249900Y33532100D03*
X9793926Y49269812D03*
X11397444Y51785274D03*
X12674333Y13641251D03*
X26284996Y37780500D03*
X5105254Y52853819D03*
X27174000Y37780500D03*
X5697844Y53500732D03*
X30692412Y37537485D03*
X4003187Y52061931D03*
X31566595Y37617220D03*
X16184289Y51771382D03*
X32443985Y37590000D03*
X7133800Y50463101D03*
X6154613Y29785387D03*
X8630900Y29790000D03*
X9394000Y45972000D03*
X9259800Y27241700D03*
X6600000Y23366000D03*
X9420000Y22310000D03*
X3622686Y48766000D03*
X5965000Y46226000D03*
X8630900Y24380000D03*
X5838000Y26540998D03*
X23110000Y31113000D03*
X38477000Y31113000D03*
X4550000Y55100000D03*
D81*
X43912500Y58900000D03*
D82*
X15427114Y55370000D03*
X35561367Y43637483D03*
X16150053Y52648526D03*
X34539439Y42796439D03*
X16116035Y53525679D03*
X35514546Y42711454D03*
X15418726Y56251734D03*
X36318000Y43178000D03*
X11808376Y50349872D03*
X22113803Y40711622D03*
X34090000Y5940000D03*
X4560000Y4290000D03*
X34790000Y5290000D03*
X5560000Y4290000D03*
X12430000Y4290000D03*
X34090000Y4640000D03*
X34790000Y3990000D03*
X13430000Y4290000D03*
X34090000Y3340000D03*
X20308234Y4290126D03*
X34790000Y2690000D03*
X21300000Y4290126D03*
X34090000Y2040000D03*
X28170000Y4286721D03*
X29170000Y4286721D03*
X34790000Y1390000D03*
X37600000Y740000D03*
X44490000Y4283893D03*
X36900000Y1390000D03*
X45490000Y4283893D03*
X52360000Y4284115D03*
X37600000Y2040000D03*
X53360000Y4284115D03*
X36900000Y2690000D03*
X37600000Y3340000D03*
X60230000Y4285112D03*
X61230000Y4285112D03*
X36900000Y3990000D03*
D81*
X33905000Y71245000D03*
X30095000Y71245000D03*
X28190000Y69340000D03*
X33905000Y67435000D03*
X33905000Y59815000D03*
X32000000Y69340000D03*
X30095000Y63625000D03*
X30095000Y67435000D03*
X32000000Y61720000D03*
X28190000Y57910000D03*
X35810000Y57910000D03*
X38350000Y69340000D03*
X32000000Y65530000D03*
X25650000Y69340000D03*
X36445000Y64260000D03*
X35810000Y69340000D03*
X32000000Y57910000D03*
X33905000Y63625000D03*
X27555000Y64260000D03*
X30095000Y59815000D03*
X26920000Y71245000D03*
X37080000Y71245000D03*
D82*
X34675000Y40000000D03*
X68110000Y4285000D03*
X37600000Y4640000D03*
X36900000Y5290000D03*
X69110000Y4285000D03*
X41993816Y44702000D03*
X42222957Y24410185D03*
X42032439Y43812439D03*
X41345655Y24408867D03*
D81*
X43912500Y54450000D03*
X47370700Y28090000D03*
D82*
X40366816Y6579635D03*
X34800000Y6590000D03*
G36*
X42991240Y4810463D02*
G01*
X42991979Y4809183D01*
X43006696Y4708915D01*
X43057063Y4606330D01*
X43137931Y4525604D01*
X43160151Y4514742D01*
X43161268Y4513083D01*
X43160390Y4511286D01*
X43159116Y4510951D01*
X43123523Y4513752D01*
X43095705Y4489993D01*
X43093580Y4451368D01*
X43092486Y4449694D01*
X43090489Y4449803D01*
X43089712Y4450771D01*
X43063473Y4520209D01*
X42975287Y4648522D01*
X42954396Y4667135D01*
X42953768Y4669034D01*
X42953929Y4669506D01*
X42973479Y4709500D01*
X42988021Y4809182D01*
X42989261Y4810751D01*
X42991240Y4810463D01*
G37*
G36*
X26671240Y4813291D02*
G01*
X26671979Y4812011D01*
X26686696Y4711743D01*
X26737063Y4609158D01*
X26817930Y4528432D01*
X26838156Y4518546D01*
X26839273Y4516887D01*
X26838395Y4515090D01*
X26837121Y4514755D01*
X26801622Y4517549D01*
X26773805Y4493790D01*
X26771679Y4455165D01*
X26770585Y4453491D01*
X26768588Y4453601D01*
X26767811Y4454568D01*
X26744246Y4516930D01*
X26656060Y4645243D01*
X26632551Y4666189D01*
X26631923Y4668088D01*
X26632084Y4668560D01*
X26653479Y4712328D01*
X26668021Y4812010D01*
X26669261Y4813579D01*
X26671240Y4813291D01*
G37*
G36*
X66611240Y4811570D02*
G01*
X66611979Y4810290D01*
X66626696Y4710022D01*
X66677063Y4607437D01*
X66757930Y4526711D01*
X66772519Y4519580D01*
X66773636Y4517921D01*
X66772758Y4516124D01*
X66771484Y4515789D01*
X66736257Y4518561D01*
X66708439Y4494802D01*
X66706314Y4456178D01*
X66705220Y4454504D01*
X66703223Y4454613D01*
X66702446Y4455581D01*
X66674246Y4530209D01*
X66586060Y4658522D01*
X66574625Y4668710D01*
X66573997Y4670609D01*
X66574158Y4671081D01*
X66593479Y4710607D01*
X66608021Y4810289D01*
X66609261Y4811858D01*
X66611240Y4811570D01*
G37*
G36*
X58731240Y4811682D02*
G01*
X58731979Y4810402D01*
X58746696Y4710134D01*
X58797063Y4607549D01*
X58877931Y4526823D01*
X58892465Y4519718D01*
X58893582Y4518059D01*
X58892704Y4516262D01*
X58891430Y4515927D01*
X58856205Y4518700D01*
X58828388Y4494941D01*
X58826262Y4456316D01*
X58825168Y4454642D01*
X58823171Y4454752D01*
X58822394Y4455719D01*
X58794246Y4530209D01*
X58706060Y4658522D01*
X58694587Y4668744D01*
X58693959Y4670643D01*
X58694120Y4671115D01*
X58713479Y4710719D01*
X58728021Y4810401D01*
X58729261Y4811970D01*
X58731240Y4811682D01*
G37*
G36*
X18801240Y4814219D02*
G01*
X18801979Y4812939D01*
X18816696Y4712671D01*
X18867063Y4610086D01*
X18947930Y4529360D01*
X18963399Y4521799D01*
X18964516Y4520140D01*
X18963638Y4518343D01*
X18962364Y4518008D01*
X18927095Y4520783D01*
X18899277Y4497024D01*
X18897152Y4458400D01*
X18896058Y4456726D01*
X18894061Y4456835D01*
X18893284Y4457803D01*
X18872480Y4512858D01*
X18784294Y4641171D01*
X18760313Y4662537D01*
X18759685Y4664436D01*
X18759846Y4664908D01*
X18783479Y4713256D01*
X18798021Y4812938D01*
X18799261Y4814507D01*
X18801240Y4814219D01*
G37*
G36*
X3061240Y4816570D02*
G01*
X3061979Y4815290D01*
X3076696Y4715022D01*
X3127063Y4612437D01*
X3207930Y4531711D01*
X3228156Y4521825D01*
X3229273Y4520166D01*
X3228395Y4518369D01*
X3227121Y4518034D01*
X3191622Y4520828D01*
X3163805Y4497069D01*
X3161679Y4458444D01*
X3160585Y4456770D01*
X3158588Y4456880D01*
X3157811Y4457847D01*
X3134246Y4520209D01*
X3046060Y4648522D01*
X3022551Y4669468D01*
X3021923Y4671367D01*
X3022084Y4671839D01*
X3043479Y4715607D01*
X3058021Y4815289D01*
X3059261Y4816858D01*
X3061240Y4816570D01*
G37*
G36*
X50861240Y4810685D02*
G01*
X50861979Y4809405D01*
X50876696Y4709137D01*
X50927063Y4606552D01*
X51007930Y4525826D01*
X51009945Y4524842D01*
X51011062Y4523183D01*
X51010184Y4521386D01*
X51008910Y4521051D01*
X50974287Y4523775D01*
X50946469Y4500016D01*
X50944344Y4461391D01*
X50943250Y4459717D01*
X50941253Y4459826D01*
X50940476Y4460794D01*
X50914246Y4530209D01*
X50826060Y4658522D01*
X50821893Y4662235D01*
X50821265Y4664134D01*
X50821426Y4664606D01*
X50843479Y4709722D01*
X50858021Y4809404D01*
X50859261Y4810973D01*
X50861240Y4810685D01*
G37*
G36*
X10931240Y4816570D02*
G01*
X10931979Y4815290D01*
X10946696Y4715022D01*
X10997063Y4612437D01*
X11077931Y4531711D01*
X11083016Y4529225D01*
X11084133Y4527566D01*
X11083255Y4525769D01*
X11081981Y4525434D01*
X11047212Y4528171D01*
X11019394Y4504412D01*
X11017268Y4465787D01*
X11016174Y4464113D01*
X11014177Y4464223D01*
X11013400Y4465190D01*
X10994246Y4515878D01*
X10906060Y4644191D01*
X10888043Y4660244D01*
X10887415Y4662143D01*
X10887576Y4662615D01*
X10913479Y4715607D01*
X10928021Y4815289D01*
X10929261Y4816858D01*
X10931240Y4816570D01*
G37*
G36*
X36402868Y5691434D02*
G01*
X36403274Y5689918D01*
X36403086Y5688596D01*
X36412298Y5652718D01*
X36443810Y5634082D01*
X36479547Y5643258D01*
X36486566Y5650202D01*
X36488501Y5650709D01*
X36489908Y5649287D01*
X36489560Y5647562D01*
X36425432Y5563990D01*
X36370690Y5431828D01*
X36369150Y5420134D01*
X36367932Y5418547D01*
X36365949Y5418808D01*
X36365235Y5419877D01*
X36355834Y5454961D01*
X36324129Y5473267D01*
X36288499Y5463720D01*
X36280439Y5455403D01*
X36278516Y5454855D01*
X36277079Y5456247D01*
X36277379Y5457962D01*
X36341842Y5547671D01*
X36399438Y5690946D01*
X36401012Y5692180D01*
X36402868Y5691434D01*
G37*
G36*
X35332215Y6447345D02*
G01*
X35332611Y6445866D01*
X35332498Y6445007D01*
X35342085Y6409227D01*
X35373758Y6390941D01*
X35401361Y6399274D01*
X35403308Y6398817D01*
X35403716Y6398276D01*
X35404343Y6397062D01*
X35406597Y6398225D01*
X35408595Y6398131D01*
X35409512Y6396354D01*
X35408829Y6394941D01*
X35292461Y6293428D01*
X35202937Y6166048D01*
X35163006Y6063630D01*
X35161446Y6062380D01*
X35159582Y6063107D01*
X35159143Y6064315D01*
X35158378Y6100800D01*
X35131955Y6126140D01*
X35095048Y6125366D01*
X35088227Y6121332D01*
X35086227Y6121312D01*
X35085209Y6123033D01*
X35085991Y6124641D01*
X35187482Y6202518D01*
X35274568Y6316010D01*
X35328780Y6446892D01*
X35330367Y6448110D01*
X35332215Y6447345D01*
G37*
G36*
X28486529Y12540199D02*
G01*
X28487243Y12539130D01*
X28496644Y12504046D01*
X28528338Y12485747D01*
X28564493Y12495876D01*
X28566431Y12495380D01*
X28566971Y12493454D01*
X28566519Y12492612D01*
X28447314Y12360220D01*
X28349287Y12190433D01*
X28299155Y12036142D01*
X28297669Y12034804D01*
X28295767Y12035422D01*
X28295347Y12037365D01*
X28324282Y12128577D01*
X28321119Y12165485D01*
X28293116Y12189066D01*
X28256301Y12185911D01*
X28253385Y12184057D01*
X28251387Y12183972D01*
X28250314Y12185660D01*
X28251094Y12187332D01*
X28336152Y12252599D01*
X28423238Y12366091D01*
X28477980Y12498253D01*
X28483328Y12538873D01*
X28484546Y12540460D01*
X28486529Y12540199D01*
G37*
G36*
X27416727Y12515254D02*
G01*
X27417270Y12514127D01*
X27419360Y12498253D01*
X27474102Y12366091D01*
X27561188Y12252599D01*
X27617143Y12209663D01*
X27617908Y12207815D01*
X27616690Y12206228D01*
X27615407Y12206144D01*
X27580325Y12215544D01*
X27548620Y12197239D01*
X27539055Y12161541D01*
X27540641Y12154174D01*
X27566116Y12069794D01*
X27565659Y12067847D01*
X27563744Y12067269D01*
X27562299Y12068598D01*
X27522713Y12190433D01*
X27424686Y12360220D01*
X27311230Y12486227D01*
X27310814Y12488183D01*
X27312300Y12489521D01*
X27313991Y12489106D01*
X27335108Y12471636D01*
X27370512Y12460745D01*
X27402849Y12477865D01*
X27413365Y12514419D01*
X27414805Y12515807D01*
X27416727Y12515254D01*
G37*
G36*
X6661655Y18990367D02*
G01*
X6662292Y18988627D01*
X6652017Y18910588D01*
X6670690Y18768760D01*
X6725432Y18636598D01*
X6812518Y18523106D01*
X6847656Y18496143D01*
X6848421Y18494295D01*
X6847203Y18492708D01*
X6845920Y18492624D01*
X6810837Y18502025D01*
X6779132Y18483719D01*
X6769564Y18448011D01*
X6770650Y18442671D01*
X6770015Y18440774D01*
X6768055Y18440375D01*
X6766763Y18441738D01*
X6725126Y18591876D01*
X6591240Y18928317D01*
X6566016Y18975956D01*
X6566090Y18977955D01*
X6567857Y18978891D01*
X6569059Y18978433D01*
X6597761Y18954688D01*
X6634209Y18958134D01*
X6657765Y18986607D01*
X6658355Y18989314D01*
X6659701Y18990793D01*
X6661655Y18990367D01*
G37*
G36*
X18463648Y25488950D02*
G01*
X18477974Y25454363D01*
X18511798Y25440353D01*
X18545817Y25454443D01*
X18555745Y25469644D01*
X18557529Y25470547D01*
X18559203Y25469453D01*
X18559282Y25467823D01*
X18545373Y25432148D01*
X18525051Y25277786D01*
X18542136Y25123031D01*
X18559990Y25074241D01*
X18559646Y25072271D01*
X18557768Y25071584D01*
X18556640Y25072200D01*
X18531939Y25099063D01*
X18495361Y25100596D01*
X18468265Y25075681D01*
X18463753Y25055244D01*
X18462403Y25053768D01*
X18460450Y25054199D01*
X18459800Y25055675D01*
X18459800Y25488185D01*
X18460800Y25489917D01*
X18462800Y25489917D01*
X18463648Y25488950D01*
G37*
G36*
X37859592Y26830200D02*
G01*
X37859592Y26828200D01*
X37858625Y26827352D01*
X37824038Y26813026D01*
X37810028Y26779202D01*
X37824092Y26745248D01*
X37845482Y26733121D01*
X37846496Y26731397D01*
X37845510Y26729657D01*
X37844009Y26729441D01*
X37796214Y26741446D01*
X37640524Y26742261D01*
X37586102Y26729195D01*
X37584184Y26729763D01*
X37583717Y26731708D01*
X37584459Y26732758D01*
X37613982Y26754209D01*
X37619709Y26790367D01*
X37598109Y26820095D01*
X37572653Y26827275D01*
X37571258Y26828708D01*
X37571800Y26830633D01*
X37573196Y26831200D01*
X37857860Y26831200D01*
X37859592Y26830200D01*
G37*
G36*
X38074726Y30744795D02*
G01*
X38089516Y30725519D01*
X38203010Y30638432D01*
X38243462Y30621677D01*
X38244680Y30620090D01*
X38243915Y30618242D01*
X38242697Y30617829D01*
X38206374Y30617829D01*
X38180487Y30591942D01*
X38180487Y30555140D01*
X38192109Y30538786D01*
X38192297Y30536794D01*
X38190667Y30535636D01*
X38189149Y30536134D01*
X38084818Y30629090D01*
X38008969Y30669250D01*
X38007906Y30670945D01*
X38008842Y30672712D01*
X38010093Y30673009D01*
X38046424Y30669575D01*
X38074634Y30692912D01*
X38078102Y30729602D01*
X38071362Y30742661D01*
X38071456Y30744659D01*
X38073233Y30745576D01*
X38074726Y30744795D01*
G37*
G36*
X4727017Y31082073D02*
G01*
X4833520Y31000350D01*
X4965682Y30945608D01*
X5107510Y30926935D01*
X5141558Y30931418D01*
X5143406Y30930653D01*
X5143667Y30928670D01*
X5142819Y30927703D01*
X5111363Y30909542D01*
X5101877Y30874138D01*
X5117333Y30844945D01*
X5117259Y30842946D01*
X5115492Y30842010D01*
X5114235Y30842516D01*
X5069818Y30882090D01*
X4932216Y30954946D01*
X4781214Y30992876D01*
X4691236Y30993347D01*
X4689509Y30994356D01*
X4689519Y30996356D01*
X4690490Y30997199D01*
X4724279Y31010988D01*
X4738466Y31044737D01*
X4724497Y31078968D01*
X4724476Y31078986D01*
X4724414Y31079171D01*
X4724320Y31079401D01*
X4724335Y31079407D01*
X4723839Y31080882D01*
X4725162Y31082382D01*
X4727017Y31082073D01*
G37*
G36*
X17185649Y31276290D02*
G01*
X17608815Y31276290D01*
X17610547Y31275290D01*
X17610547Y31273290D01*
X17609580Y31272442D01*
X17574991Y31258115D01*
X17560981Y31224291D01*
X17575095Y31190215D01*
X17584642Y31183163D01*
X17585441Y31181329D01*
X17584253Y31179721D01*
X17582517Y31179787D01*
X17582217Y31179946D01*
X17431214Y31217876D01*
X17275524Y31218691D01*
X17139888Y31186127D01*
X17137970Y31186695D01*
X17137503Y31188640D01*
X17138245Y31189690D01*
X17167770Y31211142D01*
X17173499Y31247323D01*
X17153334Y31276254D01*
X17147921Y31279871D01*
X17147036Y31281665D01*
X17148147Y31283328D01*
X17149422Y31283496D01*
X17185649Y31276290D01*
G37*
G36*
X18388718Y35519618D02*
G01*
X18403044Y35485031D01*
X18436868Y35471021D01*
X18471006Y35485161D01*
X18473545Y35488181D01*
X18475425Y35488863D01*
X18476956Y35487576D01*
X18476712Y35485744D01*
X18474928Y35483206D01*
X18418373Y35338148D01*
X18398051Y35183786D01*
X18415136Y35029031D01*
X18468641Y34882820D01*
X18479241Y34867045D01*
X18479377Y34865050D01*
X18477717Y34863935D01*
X18476474Y34864264D01*
X18446078Y34884459D01*
X18410189Y34877223D01*
X18389748Y34846455D01*
X18388861Y34837327D01*
X18387698Y34835699D01*
X18385707Y34835893D01*
X18384870Y34837520D01*
X18384870Y35518853D01*
X18385870Y35520585D01*
X18387870Y35520585D01*
X18388718Y35519618D01*
G37*
G36*
X20617188Y35888945D02*
G01*
X20631514Y35854358D01*
X20665338Y35840348D01*
X20699356Y35854438D01*
X20709283Y35869638D01*
X20711068Y35870541D01*
X20712742Y35869447D01*
X20712821Y35867817D01*
X20704373Y35846148D01*
X20684051Y35691786D01*
X20701136Y35537031D01*
X20713530Y35503162D01*
X20713186Y35501192D01*
X20711308Y35500505D01*
X20710180Y35501121D01*
X20685477Y35527984D01*
X20648899Y35529517D01*
X20621804Y35504601D01*
X20617293Y35484170D01*
X20615943Y35482694D01*
X20613990Y35483125D01*
X20613340Y35484601D01*
X20613340Y35888180D01*
X20614340Y35889912D01*
X20616340Y35889912D01*
X20617188Y35888945D01*
G37*
G36*
X31161682Y37252454D02*
G01*
X31179113Y37229738D01*
X31292336Y37142859D01*
X31293101Y37141011D01*
X31291883Y37139424D01*
X31291118Y37139272D01*
X31254392Y37139272D01*
X31228424Y37113305D01*
X31225973Y37088426D01*
X31224808Y37086800D01*
X31222818Y37086996D01*
X31222021Y37088232D01*
X31219548Y37100661D01*
X31208979Y37116479D01*
X31193161Y37127048D01*
X31174301Y37130800D01*
X31060761Y37130800D01*
X31059029Y37131800D01*
X31059029Y37133800D01*
X31059543Y37134387D01*
X31079894Y37150003D01*
X31158508Y37252454D01*
X31160356Y37253219D01*
X31161682Y37252454D01*
G37*
G36*
X17839096Y39707200D02*
G01*
X17839096Y39705200D01*
X17838129Y39704352D01*
X17803542Y39690026D01*
X17789532Y39656202D01*
X17803596Y39622248D01*
X17824987Y39610120D01*
X17826001Y39608396D01*
X17825015Y39606656D01*
X17823514Y39606440D01*
X17730214Y39629876D01*
X17574524Y39630691D01*
X17472493Y39606195D01*
X17470575Y39606763D01*
X17470108Y39608708D01*
X17470850Y39609758D01*
X17500373Y39631208D01*
X17506100Y39667367D01*
X17484501Y39697095D01*
X17459310Y39704200D01*
X17157891Y39704200D01*
X17123669Y39690025D01*
X17109574Y39655997D01*
X17112834Y39639609D01*
X17112191Y39637715D01*
X17110229Y39637325D01*
X17109024Y39638454D01*
X17107568Y39641970D01*
X17059217Y39704982D01*
X17058956Y39706965D01*
X17060543Y39708183D01*
X17060804Y39708200D01*
X17837364Y39708200D01*
X17839096Y39707200D01*
G37*
G36*
X34828922Y40607033D02*
G01*
X34849330Y40576490D01*
X34881628Y40554909D01*
X34919929Y40547290D01*
X35006698Y40547290D01*
X35008430Y40546290D01*
X35008430Y40544290D01*
X35007463Y40543442D01*
X34972874Y40529115D01*
X34958864Y40495291D01*
X34973190Y40460703D01*
X34972929Y40458720D01*
X34971081Y40457955D01*
X34970124Y40458351D01*
X34948990Y40474568D01*
X34816828Y40529310D01*
X34775908Y40534698D01*
X34774321Y40535916D01*
X34774582Y40537899D01*
X34775651Y40538613D01*
X34810737Y40548014D01*
X34829061Y40579752D01*
X34824854Y40597797D01*
X34825435Y40599711D01*
X34826360Y40600186D01*
X34825297Y40605532D01*
X34825940Y40607426D01*
X34827902Y40607816D01*
X34828922Y40607033D01*
G37*
G36*
X25136092Y47434259D02*
G01*
X25136539Y47432310D01*
X25135786Y47431268D01*
X25106039Y47410129D01*
X25099933Y47374030D01*
X25121215Y47344083D01*
X25147113Y47336632D01*
X25148501Y47335192D01*
X25147948Y47333270D01*
X25146560Y47332710D01*
X24879096Y47332710D01*
X24877364Y47333710D01*
X24877364Y47335710D01*
X24878331Y47336558D01*
X24912920Y47350885D01*
X24926930Y47384709D01*
X24912864Y47418669D01*
X24891993Y47430645D01*
X24890988Y47432375D01*
X24891983Y47434109D01*
X24893495Y47434315D01*
X24927059Y47425510D01*
X25082732Y47423065D01*
X25134180Y47434848D01*
X25136092Y47434259D01*
G37*
G36*
X4174130Y48768755D02*
G01*
X4204478Y48723593D01*
X4210546Y48718072D01*
X4211200Y48716593D01*
X4211200Y48506803D01*
X4210200Y48505071D01*
X4208200Y48505071D01*
X4207352Y48506038D01*
X4193025Y48540627D01*
X4159201Y48554637D01*
X4125172Y48540542D01*
X4115890Y48526650D01*
X4114096Y48525765D01*
X4112433Y48526876D01*
X4112379Y48528526D01*
X4151996Y48624172D01*
X4170669Y48766000D01*
X4170487Y48767379D01*
X4171252Y48769227D01*
X4173235Y48769488D01*
X4174130Y48768755D01*
G37*
G36*
X34575444Y49347469D02*
G01*
X34576290Y49345836D01*
X34576290Y48697396D01*
X34575290Y48695664D01*
X34573290Y48695664D01*
X34572442Y48696631D01*
X34558116Y48731218D01*
X34524292Y48745228D01*
X34490268Y48731135D01*
X34480565Y48716446D01*
X34478776Y48715552D01*
X34477107Y48716654D01*
X34477040Y48718294D01*
X34530906Y48852291D01*
X34552858Y49006538D01*
X34552999Y49019887D01*
X34534280Y49174568D01*
X34479696Y49319019D01*
X34480019Y49320993D01*
X34481890Y49321700D01*
X34483215Y49320859D01*
X34484509Y49318976D01*
X34515573Y49298802D01*
X34551385Y49306415D01*
X34571506Y49337397D01*
X34572298Y49346019D01*
X34573453Y49347652D01*
X34575444Y49347469D01*
G37*
G36*
X9206626Y49515060D02*
G01*
X9224541Y49483267D01*
X9259803Y49473422D01*
X9291948Y49491535D01*
X9296932Y49500064D01*
X9298669Y49501055D01*
X9300396Y49500046D01*
X9300507Y49498290D01*
X9264616Y49411640D01*
X9245943Y49269812D01*
X9262337Y49145289D01*
X9261572Y49143441D01*
X9259589Y49143180D01*
X9258622Y49144028D01*
X9240460Y49175485D01*
X9205097Y49184961D01*
X9173143Y49166512D01*
X9168008Y49157510D01*
X9166281Y49156501D01*
X9164544Y49157492D01*
X9164415Y49159247D01*
X9194406Y49233852D01*
X9216358Y49388099D01*
X9216499Y49401448D01*
X9202898Y49513838D01*
X9203683Y49515677D01*
X9205669Y49515918D01*
X9206626Y49515060D01*
G37*
G36*
X58764028Y49351001D02*
G01*
X58764028Y49349001D01*
X58762517Y49348013D01*
X58762508Y49348012D01*
X58762287Y49348000D01*
X55567713Y49348000D01*
X55565981Y49349000D01*
X55565981Y49351000D01*
X55567713Y49352000D01*
X58762296Y49352001D01*
X58764028Y49351001D01*
G37*
G36*
X58764019Y52451000D02*
G01*
X58764019Y52449000D01*
X58762287Y52448000D01*
X55567704Y52447999D01*
X55565972Y52448999D01*
X55565972Y52450999D01*
X55567483Y52451987D01*
X55567492Y52451988D01*
X55567713Y52452000D01*
X58762287Y52452000D01*
X58764019Y52451000D01*
G37*
G36*
X43295676Y54262555D02*
G01*
X43296438Y54261582D01*
X43335141Y54155820D01*
X43421978Y54026593D01*
X43537133Y53921810D01*
X43584102Y53896308D01*
X43585147Y53894602D01*
X43584193Y53892845D01*
X43582939Y53892561D01*
X43546646Y53896375D01*
X43518227Y53873363D01*
X43515514Y53833568D01*
X43514399Y53831908D01*
X43512404Y53832044D01*
X43511648Y53832997D01*
X43469246Y53945209D01*
X43381060Y54073522D01*
X43264818Y54177090D01*
X43224276Y54198556D01*
X43223213Y54200251D01*
X43224149Y54202018D01*
X43225400Y54202315D01*
X43261731Y54198880D01*
X43289916Y54222198D01*
X43292565Y54261031D01*
X43293680Y54262691D01*
X43295676Y54262555D01*
G37*
G36*
X10006326Y63640183D02*
G01*
X10007225Y63638396D01*
X10006742Y63637204D01*
X9982897Y63609578D01*
X9985584Y63572970D01*
X10005513Y63552620D01*
X10006010Y63550683D01*
X10004581Y63549284D01*
X10003148Y63549453D01*
X10002216Y63549946D01*
X9851214Y63587876D01*
X9695524Y63588691D01*
X9544128Y63552344D01*
X9529607Y63544849D01*
X9527610Y63544943D01*
X9526692Y63546720D01*
X9527162Y63547917D01*
X9550717Y63575790D01*
X9547644Y63612380D01*
X9527786Y63632659D01*
X9526233Y63633503D01*
X9525189Y63635208D01*
X9526143Y63636965D01*
X9527696Y63637195D01*
X9677060Y63598010D01*
X9832732Y63595565D01*
X9984498Y63630324D01*
X10004329Y63640298D01*
X10006326Y63640183D01*
G37*
G36*
X42290045Y65426294D02*
G01*
X42290748Y65425217D01*
X42299824Y65389869D01*
X42331298Y65371256D01*
X42369544Y65382586D01*
X42371489Y65382119D01*
X42372057Y65380201D01*
X42371427Y65379161D01*
X42313452Y65328586D01*
X42223928Y65201206D01*
X42167373Y65056148D01*
X42160020Y65000301D01*
X42158802Y64998714D01*
X42156819Y64998975D01*
X42156105Y65000044D01*
X42146660Y65035294D01*
X42114982Y65053584D01*
X42077661Y65042530D01*
X42075716Y65042997D01*
X42075148Y65044915D01*
X42075794Y65045969D01*
X42128981Y65091396D01*
X42219833Y65217829D01*
X42277906Y65362291D01*
X42286831Y65425002D01*
X42288065Y65426576D01*
X42290045Y65426294D01*
G37*
G36*
X45401471Y65636554D02*
G01*
X45477817Y65600792D01*
X45772626Y65499856D01*
X45773941Y65498349D01*
X45773293Y65496457D01*
X45772104Y65495968D01*
X45734927Y65493629D01*
X45710716Y65466167D01*
X45713029Y65429404D01*
X45723166Y65416049D01*
X45723417Y65414065D01*
X45721824Y65412856D01*
X45720243Y65413347D01*
X45704818Y65427090D01*
X45567216Y65499946D01*
X45416214Y65537876D01*
X45379674Y65538067D01*
X45377947Y65539076D01*
X45377957Y65541076D01*
X45378928Y65541919D01*
X45412716Y65555708D01*
X45426903Y65589457D01*
X45412978Y65623580D01*
X45399470Y65633109D01*
X45398631Y65634924D01*
X45399784Y65636559D01*
X45401471Y65636554D01*
G37*
M02*
