%TF.GenerationSoftware,KiCad,Pcbnew,(6.0.8)*%
%TF.CreationDate,2023-02-19T19:21:05+03:00*%
%TF.ProjectId,ESP32-GATEWAY_Rev_G,45535033-322d-4474-9154-455741595f52,0*%
%TF.SameCoordinates,PX4260300PY8558f68*%
%TF.FileFunction,Legend,Top*%
%TF.FilePolarity,Positive*%
%FSLAX46Y46*%
G04 Gerber Fmt 4.6, Leading zero omitted, Abs format (unit mm)*
G04 Created by KiCad (PCBNEW (6.0.8)) date 2023-02-19 19:21:05*
%MOMM*%
%LPD*%
G01*
G04 APERTURE LIST*
G04 Aperture macros list*
%AMRoundRect*
0 Rectangle with rounded corners*
0 $1 Rounding radius*
0 $2 $3 $4 $5 $6 $7 $8 $9 X,Y pos of 4 corners*
0 Add a 4 corners polygon primitive as box body*
4,1,4,$2,$3,$4,$5,$6,$7,$8,$9,$2,$3,0*
0 Add four circle primitives for the rounded corners*
1,1,$1+$1,$2,$3*
1,1,$1+$1,$4,$5*
1,1,$1+$1,$6,$7*
1,1,$1+$1,$8,$9*
0 Add four rect primitives between the rounded corners*
20,1,$1+$1,$2,$3,$4,$5,0*
20,1,$1+$1,$4,$5,$6,$7,0*
20,1,$1+$1,$6,$7,$8,$9,0*
20,1,$1+$1,$8,$9,$2,$3,0*%
G04 Aperture macros list end*
%TA.AperFunction,Profile*%
%ADD10C,0.254000*%
%TD*%
%ADD11C,0.254000*%
%ADD12C,0.381000*%
%ADD13C,0.190500*%
%ADD14C,0.300000*%
%ADD15C,0.150000*%
%ADD16C,0.127000*%
%ADD17C,0.066040*%
%ADD18C,0.050000*%
%ADD19C,0.100000*%
%ADD20C,0.200000*%
%ADD21C,0.400000*%
%ADD22C,0.120000*%
%ADD23R,1.800000X1.800000*%
%ADD24C,1.800000*%
%ADD25C,1.600000*%
%ADD26C,6.700000*%
%ADD27RoundRect,0.101600X0.499110X-0.549910X0.499110X0.549910X-0.499110X0.549910X-0.499110X-0.549910X0*%
%ADD28RoundRect,0.101600X-0.398780X-0.599440X0.398780X-0.599440X0.398780X0.599440X-0.398780X0.599440X0*%
%ADD29RoundRect,0.101600X-0.499110X0.549910X-0.499110X-0.549910X0.499110X-0.549910X0.499110X0.549910X0*%
%ADD30RoundRect,0.101600X-0.549910X-0.499110X0.549910X-0.499110X0.549910X0.499110X-0.549910X0.499110X0*%
%ADD31RoundRect,0.101600X0.549910X0.499110X-0.549910X0.499110X-0.549910X-0.499110X0.549910X-0.499110X0*%
%ADD32RoundRect,0.050800X0.635000X-0.762000X0.635000X0.762000X-0.635000X0.762000X-0.635000X-0.762000X0*%
%ADD33RoundRect,0.050800X0.762000X0.635000X-0.762000X0.635000X-0.762000X-0.635000X0.762000X-0.635000X0*%
%ADD34RoundRect,0.050800X-0.400000X-0.400000X0.400000X-0.400000X0.400000X0.400000X-0.400000X0.400000X0*%
%ADD35RoundRect,0.050800X-0.317500X-0.508000X0.317500X-0.508000X0.317500X0.508000X-0.317500X0.508000X0*%
%ADD36RoundRect,0.050800X-0.190500X-0.508000X0.190500X-0.508000X0.190500X0.508000X-0.190500X0.508000X0*%
%ADD37RoundRect,0.050800X0.317500X0.508000X-0.317500X0.508000X-0.317500X-0.508000X0.317500X-0.508000X0*%
%ADD38RoundRect,0.050800X0.190500X0.508000X-0.190500X0.508000X-0.190500X-0.508000X0.190500X-0.508000X0*%
%ADD39RoundRect,0.050800X-1.000000X-0.450000X1.000000X-0.450000X1.000000X0.450000X-1.000000X0.450000X0*%
%ADD40RoundRect,0.050800X-0.450000X-1.000000X0.450000X-1.000000X0.450000X1.000000X-0.450000X1.000000X0*%
%ADD41RoundRect,0.050800X-2.500000X-2.500000X2.500000X-2.500000X2.500000X2.500000X-2.500000X2.500000X0*%
%ADD42C,2.101600*%
%ADD43RoundRect,0.050800X-0.400000X-0.125000X0.400000X-0.125000X0.400000X0.125000X-0.400000X0.125000X0*%
%ADD44RoundRect,0.050800X0.125000X-0.400000X0.125000X0.400000X-0.125000X0.400000X-0.125000X-0.400000X0*%
%ADD45RoundRect,0.050800X0.400000X0.125000X-0.400000X0.125000X-0.400000X-0.125000X0.400000X-0.125000X0*%
%ADD46RoundRect,0.050800X-0.125000X0.400000X-0.125000X-0.400000X0.125000X-0.400000X0.125000X0.400000X0*%
%ADD47RoundRect,0.200000X-0.200000X0.200000X-0.200000X-0.200000X0.200000X-0.200000X0.200000X0.200000X0*%
%ADD48RoundRect,0.050800X-1.800000X1.800000X-1.800000X-1.800000X1.800000X-1.800000X1.800000X1.800000X0*%
%ADD49RoundRect,0.200000X-0.711200X0.711200X-0.711200X-0.711200X0.711200X-0.711200X0.711200X0.711200X0*%
%ADD50RoundRect,0.050800X-0.750000X0.400000X-0.750000X-0.400000X0.750000X-0.400000X0.750000X0.400000X0*%
%ADD51C,0.800000*%
%ADD52RoundRect,0.050800X-0.750000X1.550000X-0.750000X-1.550000X0.750000X-1.550000X0.750000X1.550000X0*%
%ADD53RoundRect,0.050800X-0.762000X0.508000X-0.762000X-0.508000X0.762000X-0.508000X0.762000X0.508000X0*%
%ADD54C,3.600000*%
%ADD55C,1.810000*%
%ADD56C,2.050000*%
%ADD57C,3.100000*%
%ADD58RoundRect,0.101600X-0.899160X0.798830X-0.899160X-0.798830X0.899160X-0.798830X0.899160X0.798830X0*%
%ADD59RoundRect,0.101600X0.899160X-0.798830X0.899160X0.798830X-0.899160X0.798830X-0.899160X-0.798830X0*%
%ADD60RoundRect,0.050800X1.000000X0.850000X-1.000000X0.850000X-1.000000X-0.850000X1.000000X-0.850000X0*%
%ADD61RoundRect,0.050800X-0.500000X0.700000X-0.500000X-0.700000X0.500000X-0.700000X0.500000X0.700000X0*%
%ADD62RoundRect,0.050800X-2.413000X-0.550000X2.413000X-0.550000X2.413000X0.550000X-2.413000X0.550000X0*%
%ADD63RoundRect,0.050800X-0.700000X-0.500000X0.700000X-0.500000X0.700000X0.500000X-0.700000X0.500000X0*%
%ADD64RoundRect,0.050800X0.635000X-0.162500X0.635000X0.162500X-0.635000X0.162500X-0.635000X-0.162500X0*%
%ADD65RoundRect,0.050800X-0.889000X-0.889000X0.889000X-0.889000X0.889000X0.889000X-0.889000X0.889000X0*%
%ADD66C,1.879600*%
%ADD67RoundRect,0.050800X0.889000X1.143000X-0.889000X1.143000X-0.889000X-1.143000X0.889000X-1.143000X0*%
%ADD68RoundRect,0.050800X0.500000X-0.700000X0.500000X0.700000X-0.500000X0.700000X-0.500000X-0.700000X0*%
%ADD69RoundRect,0.050800X-0.762000X-0.635000X0.762000X-0.635000X0.762000X0.635000X-0.762000X0.635000X0*%
%ADD70RoundRect,0.050800X0.700000X0.500000X-0.700000X0.500000X-0.700000X-0.500000X0.700000X-0.500000X0*%
%ADD71RoundRect,0.050800X-0.700000X0.500000X-0.700000X-0.500000X0.700000X-0.500000X0.700000X0.500000X0*%
%ADD72RoundRect,0.050800X0.700000X-0.500000X0.700000X0.500000X-0.700000X0.500000X-0.700000X-0.500000X0*%
%ADD73C,1.254000*%
%ADD74RoundRect,0.350000X-0.150000X-0.625000X0.150000X-0.625000X0.150000X0.625000X-0.150000X0.625000X0*%
%ADD75RoundRect,0.450000X-0.350000X-0.650000X0.350000X-0.650000X0.350000X0.650000X-0.350000X0.650000X0*%
%ADD76RoundRect,0.101600X0.635000X1.029970X-0.635000X1.029970X-0.635000X-1.029970X0.635000X-1.029970X0*%
%ADD77RoundRect,0.200000X0.900000X-0.900000X0.900000X0.900000X-0.900000X0.900000X-0.900000X-0.900000X0*%
%ADD78C,2.200000*%
%ADD79RoundRect,0.200000X-1.250000X0.850000X-1.250000X-0.850000X1.250000X-0.850000X1.250000X0.850000X0*%
%ADD80O,2.900000X2.100000*%
%ADD81C,3.400000*%
%ADD82RoundRect,0.450001X-1.599999X1.099999X-1.599999X-1.099999X1.599999X-1.099999X1.599999X1.099999X0*%
%ADD83O,4.100000X3.100000*%
%ADD84RoundRect,0.300000X-0.637500X-0.100000X0.637500X-0.100000X0.637500X0.100000X-0.637500X0.100000X0*%
%ADD85C,0.701600*%
%ADD86RoundRect,0.050800X0.550000X1.000000X-0.550000X1.000000X-0.550000X-1.000000X0.550000X-1.000000X0*%
%ADD87O,1.301600X2.301600*%
%ADD88RoundRect,0.050800X0.550000X1.100000X-0.550000X1.100000X-0.550000X-1.100000X0.550000X-1.100000X0*%
%ADD89O,1.401600X2.101600*%
%ADD90RoundRect,0.050800X0.150000X0.575000X-0.150000X0.575000X-0.150000X-0.575000X0.150000X-0.575000X0*%
%ADD91RoundRect,0.050800X0.125000X0.575000X-0.125000X0.575000X-0.125000X-0.575000X0.125000X-0.575000X0*%
%ADD92C,1.101600*%
%ADD93RoundRect,0.101600X1.029970X-0.635000X1.029970X0.635000X-1.029970X0.635000X-1.029970X-0.635000X0*%
%ADD94RoundRect,0.450000X1.000000X-1.950000X1.000000X1.950000X-1.000000X1.950000X-1.000000X-1.950000X0*%
%ADD95C,1.300000*%
%ADD96C,1.100000*%
%ADD97C,1.150000*%
G04 APERTURE END LIST*
D10*
X48650000Y72773492D02*
X49770000Y71659000D01*
X48650000Y72773492D02*
X19554000Y72769000D01*
X-4000Y66673000D02*
X0Y0D01*
X61200000Y72675000D02*
X71675000Y72675000D01*
X19554000Y66673000D02*
X19554000Y72769000D01*
X60184000Y71659000D02*
X61200000Y72675000D01*
X49770000Y71659000D02*
X60184000Y71659000D01*
X71675000Y72675000D02*
X71675000Y0D01*
X-4000Y66673000D02*
X19554000Y66673000D01*
X0Y0D02*
X71675000Y0D01*
D11*
X21786285Y14770381D02*
X21447619Y15254191D01*
X21205714Y14770381D02*
X21205714Y15786381D01*
X21592761Y15786381D01*
X21689523Y15738000D01*
X21737904Y15689620D01*
X21786285Y15592858D01*
X21786285Y15447715D01*
X21737904Y15350953D01*
X21689523Y15302572D01*
X21592761Y15254191D01*
X21205714Y15254191D01*
X22608761Y14818762D02*
X22512000Y14770381D01*
X22318476Y14770381D01*
X22221714Y14818762D01*
X22173333Y14915524D01*
X22173333Y15302572D01*
X22221714Y15399334D01*
X22318476Y15447715D01*
X22512000Y15447715D01*
X22608761Y15399334D01*
X22657142Y15302572D01*
X22657142Y15205810D01*
X22173333Y15109048D01*
X22995809Y15447715D02*
X23237714Y14770381D01*
X23479619Y15447715D01*
X23866666Y14867143D02*
X23915047Y14818762D01*
X23866666Y14770381D01*
X23818285Y14818762D01*
X23866666Y14867143D01*
X23866666Y14770381D01*
X24544000Y15786381D02*
X24640761Y15786381D01*
X24737523Y15738000D01*
X24785904Y15689620D01*
X24834285Y15592858D01*
X24882666Y15399334D01*
X24882666Y15157429D01*
X24834285Y14963905D01*
X24785904Y14867143D01*
X24737523Y14818762D01*
X24640761Y14770381D01*
X24544000Y14770381D01*
X24447238Y14818762D01*
X24398857Y14867143D01*
X24350476Y14963905D01*
X24302095Y15157429D01*
X24302095Y15399334D01*
X24350476Y15592858D01*
X24398857Y15689620D01*
X24447238Y15738000D01*
X24544000Y15786381D01*
D12*
X51838571Y36778858D02*
X52346571Y36778858D01*
X52564285Y35980572D02*
X51838571Y35980572D01*
X51838571Y37504572D01*
X52564285Y37504572D01*
X53144857Y36053143D02*
X53362571Y35980572D01*
X53725428Y35980572D01*
X53870571Y36053143D01*
X53943142Y36125715D01*
X54015714Y36270858D01*
X54015714Y36416000D01*
X53943142Y36561143D01*
X53870571Y36633715D01*
X53725428Y36706286D01*
X53435142Y36778858D01*
X53290000Y36851429D01*
X53217428Y36924000D01*
X53144857Y37069143D01*
X53144857Y37214286D01*
X53217428Y37359429D01*
X53290000Y37432000D01*
X53435142Y37504572D01*
X53798000Y37504572D01*
X54015714Y37432000D01*
X54668857Y35980572D02*
X54668857Y37504572D01*
X55249428Y37504572D01*
X55394571Y37432000D01*
X55467142Y37359429D01*
X55539714Y37214286D01*
X55539714Y36996572D01*
X55467142Y36851429D01*
X55394571Y36778858D01*
X55249428Y36706286D01*
X54668857Y36706286D01*
X56047714Y37504572D02*
X56991142Y37504572D01*
X56483142Y36924000D01*
X56700857Y36924000D01*
X56846000Y36851429D01*
X56918571Y36778858D01*
X56991142Y36633715D01*
X56991142Y36270858D01*
X56918571Y36125715D01*
X56846000Y36053143D01*
X56700857Y35980572D01*
X56265428Y35980572D01*
X56120285Y36053143D01*
X56047714Y36125715D01*
X57571714Y37359429D02*
X57644285Y37432000D01*
X57789428Y37504572D01*
X58152285Y37504572D01*
X58297428Y37432000D01*
X58370000Y37359429D01*
X58442571Y37214286D01*
X58442571Y37069143D01*
X58370000Y36851429D01*
X57499142Y35980572D01*
X58442571Y35980572D01*
X59095714Y36561143D02*
X60256857Y36561143D01*
X61780857Y37432000D02*
X61635714Y37504572D01*
X61418000Y37504572D01*
X61200285Y37432000D01*
X61055142Y37286858D01*
X60982571Y37141715D01*
X60910000Y36851429D01*
X60910000Y36633715D01*
X60982571Y36343429D01*
X61055142Y36198286D01*
X61200285Y36053143D01*
X61418000Y35980572D01*
X61563142Y35980572D01*
X61780857Y36053143D01*
X61853428Y36125715D01*
X61853428Y36633715D01*
X61563142Y36633715D01*
X62434000Y36416000D02*
X63159714Y36416000D01*
X62288857Y35980572D02*
X62796857Y37504572D01*
X63304857Y35980572D01*
X63595142Y37504572D02*
X64466000Y37504572D01*
X64030571Y35980572D02*
X64030571Y37504572D01*
X64974000Y36778858D02*
X65482000Y36778858D01*
X65699714Y35980572D02*
X64974000Y35980572D01*
X64974000Y37504572D01*
X65699714Y37504572D01*
X66207714Y37504572D02*
X66570571Y35980572D01*
X66860857Y37069143D01*
X67151142Y35980572D01*
X67514000Y37504572D01*
X68022000Y36416000D02*
X68747714Y36416000D01*
X67876857Y35980572D02*
X68384857Y37504572D01*
X68892857Y35980572D01*
X69691142Y36706286D02*
X69691142Y35980572D01*
X69183142Y37504572D02*
X69691142Y36706286D01*
X70199142Y37504572D01*
D11*
X1556285Y13635381D02*
X975714Y13635381D01*
X1266000Y13635381D02*
X1266000Y14651381D01*
X1169238Y14506239D01*
X1072476Y14409477D01*
X975714Y14361096D01*
D13*
X45348428Y13375000D02*
X45312142Y13411286D01*
X45239571Y13520143D01*
X45203285Y13592715D01*
X45167000Y13701572D01*
X45130714Y13883000D01*
X45130714Y14028143D01*
X45167000Y14209572D01*
X45203285Y14318429D01*
X45239571Y14391000D01*
X45312142Y14499858D01*
X45348428Y14536143D01*
X46074142Y13737858D02*
X46037857Y13701572D01*
X45929000Y13665286D01*
X45856428Y13665286D01*
X45747571Y13701572D01*
X45675000Y13774143D01*
X45638714Y13846715D01*
X45602428Y13991858D01*
X45602428Y14100715D01*
X45638714Y14245858D01*
X45675000Y14318429D01*
X45747571Y14391000D01*
X45856428Y14427286D01*
X45929000Y14427286D01*
X46037857Y14391000D01*
X46074142Y14354715D01*
X46328142Y13375000D02*
X46364428Y13411286D01*
X46437000Y13520143D01*
X46473285Y13592715D01*
X46509571Y13701572D01*
X46545857Y13883000D01*
X46545857Y14028143D01*
X46509571Y14209572D01*
X46473285Y14318429D01*
X46437000Y14391000D01*
X46364428Y14499858D01*
X46328142Y14536143D01*
X47453000Y14354715D02*
X47489285Y14391000D01*
X47561857Y14427286D01*
X47743285Y14427286D01*
X47815857Y14391000D01*
X47852142Y14354715D01*
X47888428Y14282143D01*
X47888428Y14209572D01*
X47852142Y14100715D01*
X47416714Y13665286D01*
X47888428Y13665286D01*
X48360142Y14427286D02*
X48432714Y14427286D01*
X48505285Y14391000D01*
X48541571Y14354715D01*
X48577857Y14282143D01*
X48614142Y14137000D01*
X48614142Y13955572D01*
X48577857Y13810429D01*
X48541571Y13737858D01*
X48505285Y13701572D01*
X48432714Y13665286D01*
X48360142Y13665286D01*
X48287571Y13701572D01*
X48251285Y13737858D01*
X48215000Y13810429D01*
X48178714Y13955572D01*
X48178714Y14137000D01*
X48215000Y14282143D01*
X48251285Y14354715D01*
X48287571Y14391000D01*
X48360142Y14427286D01*
X48904428Y14354715D02*
X48940714Y14391000D01*
X49013285Y14427286D01*
X49194714Y14427286D01*
X49267285Y14391000D01*
X49303571Y14354715D01*
X49339857Y14282143D01*
X49339857Y14209572D01*
X49303571Y14100715D01*
X48868142Y13665286D01*
X49339857Y13665286D01*
X49593857Y14427286D02*
X50065571Y14427286D01*
X49811571Y14137000D01*
X49920428Y14137000D01*
X49993000Y14100715D01*
X50029285Y14064429D01*
X50065571Y13991858D01*
X50065571Y13810429D01*
X50029285Y13737858D01*
X49993000Y13701572D01*
X49920428Y13665286D01*
X49702714Y13665286D01*
X49630142Y13701572D01*
X49593857Y13737858D01*
D14*
X48827142Y46057143D02*
X48827142Y47200000D01*
X49398571Y46628572D02*
X48255714Y46628572D01*
X49398571Y48700000D02*
X49398571Y47842858D01*
X49398571Y48271429D02*
X47898571Y48271429D01*
X48112857Y48128572D01*
X48255714Y47985715D01*
X48327142Y47842858D01*
X48041428Y49271429D02*
X47970000Y49342858D01*
X47898571Y49485715D01*
X47898571Y49842858D01*
X47970000Y49985715D01*
X48041428Y50057143D01*
X48184285Y50128572D01*
X48327142Y50128572D01*
X48541428Y50057143D01*
X49398571Y49200000D01*
X49398571Y50128572D01*
X47898571Y50557143D02*
X49398571Y51057143D01*
X47898571Y51557143D01*
D15*
X2472666Y21262620D02*
X2472666Y22262620D01*
X2806000Y21548334D01*
X3139333Y22262620D01*
X3139333Y21262620D01*
X3615523Y21262620D02*
X3615523Y22262620D01*
X3615523Y21786429D02*
X4186952Y21786429D01*
X4186952Y21262620D02*
X4186952Y22262620D01*
X4615523Y22167381D02*
X4663142Y22215000D01*
X4758380Y22262620D01*
X4996476Y22262620D01*
X5091714Y22215000D01*
X5139333Y22167381D01*
X5186952Y22072143D01*
X5186952Y21976905D01*
X5139333Y21834048D01*
X4567904Y21262620D01*
X5186952Y21262620D01*
D13*
X35943000Y33397858D02*
X35906714Y33361572D01*
X35797857Y33325286D01*
X35725285Y33325286D01*
X35616428Y33361572D01*
X35543857Y33434143D01*
X35507571Y33506715D01*
X35471285Y33651858D01*
X35471285Y33760715D01*
X35507571Y33905858D01*
X35543857Y33978429D01*
X35616428Y34051000D01*
X35725285Y34087286D01*
X35797857Y34087286D01*
X35906714Y34051000D01*
X35943000Y34014715D01*
X36632428Y34087286D02*
X36269571Y34087286D01*
X36233285Y33724429D01*
X36269571Y33760715D01*
X36342142Y33797000D01*
X36523571Y33797000D01*
X36596142Y33760715D01*
X36632428Y33724429D01*
X36668714Y33651858D01*
X36668714Y33470429D01*
X36632428Y33397858D01*
X36596142Y33361572D01*
X36523571Y33325286D01*
X36342142Y33325286D01*
X36269571Y33361572D01*
X36233285Y33397858D01*
X34413000Y33397858D02*
X34376714Y33361572D01*
X34267857Y33325286D01*
X34195285Y33325286D01*
X34086428Y33361572D01*
X34013857Y33434143D01*
X33977571Y33506715D01*
X33941285Y33651858D01*
X33941285Y33760715D01*
X33977571Y33905858D01*
X34013857Y33978429D01*
X34086428Y34051000D01*
X34195285Y34087286D01*
X34267857Y34087286D01*
X34376714Y34051000D01*
X34413000Y34014715D01*
X35066142Y34087286D02*
X34921000Y34087286D01*
X34848428Y34051000D01*
X34812142Y34014715D01*
X34739571Y33905858D01*
X34703285Y33760715D01*
X34703285Y33470429D01*
X34739571Y33397858D01*
X34775857Y33361572D01*
X34848428Y33325286D01*
X34993571Y33325286D01*
X35066142Y33361572D01*
X35102428Y33397858D01*
X35138714Y33470429D01*
X35138714Y33651858D01*
X35102428Y33724429D01*
X35066142Y33760715D01*
X34993571Y33797000D01*
X34848428Y33797000D01*
X34775857Y33760715D01*
X34739571Y33724429D01*
X34703285Y33651858D01*
X18730142Y26907858D02*
X18693857Y26871572D01*
X18585000Y26835286D01*
X18512428Y26835286D01*
X18403571Y26871572D01*
X18331000Y26944143D01*
X18294714Y27016715D01*
X18258428Y27161858D01*
X18258428Y27270715D01*
X18294714Y27415858D01*
X18331000Y27488429D01*
X18403571Y27561000D01*
X18512428Y27597286D01*
X18585000Y27597286D01*
X18693857Y27561000D01*
X18730142Y27524715D01*
X19020428Y27524715D02*
X19056714Y27561000D01*
X19129285Y27597286D01*
X19310714Y27597286D01*
X19383285Y27561000D01*
X19419571Y27524715D01*
X19455857Y27452143D01*
X19455857Y27379572D01*
X19419571Y27270715D01*
X18984142Y26835286D01*
X19455857Y26835286D01*
X20109000Y27343286D02*
X20109000Y26835286D01*
X19927571Y27633572D02*
X19746142Y27089286D01*
X20217857Y27089286D01*
X38342142Y47020143D02*
X38378428Y46983858D01*
X38414714Y46875000D01*
X38414714Y46802429D01*
X38378428Y46693572D01*
X38305857Y46621000D01*
X38233285Y46584715D01*
X38088142Y46548429D01*
X37979285Y46548429D01*
X37834142Y46584715D01*
X37761571Y46621000D01*
X37689000Y46693572D01*
X37652714Y46802429D01*
X37652714Y46875000D01*
X37689000Y46983858D01*
X37725285Y47020143D01*
X38414714Y47745858D02*
X38414714Y47310429D01*
X38414714Y47528143D02*
X37652714Y47528143D01*
X37761571Y47455572D01*
X37834142Y47383000D01*
X37870428Y47310429D01*
X37725285Y48036143D02*
X37689000Y48072429D01*
X37652714Y48145000D01*
X37652714Y48326429D01*
X37689000Y48399000D01*
X37725285Y48435286D01*
X37797857Y48471572D01*
X37870428Y48471572D01*
X37979285Y48435286D01*
X38414714Y47999858D01*
X38414714Y48471572D01*
X41402142Y35450143D02*
X41438428Y35413858D01*
X41474714Y35305000D01*
X41474714Y35232429D01*
X41438428Y35123572D01*
X41365857Y35051000D01*
X41293285Y35014715D01*
X41148142Y34978429D01*
X41039285Y34978429D01*
X40894142Y35014715D01*
X40821571Y35051000D01*
X40749000Y35123572D01*
X40712714Y35232429D01*
X40712714Y35305000D01*
X40749000Y35413858D01*
X40785285Y35450143D01*
X41474714Y36175858D02*
X41474714Y35740429D01*
X41474714Y35958143D02*
X40712714Y35958143D01*
X40821571Y35885572D01*
X40894142Y35813000D01*
X40930428Y35740429D01*
X40712714Y36429858D02*
X40712714Y36901572D01*
X41003000Y36647572D01*
X41003000Y36756429D01*
X41039285Y36829000D01*
X41075571Y36865286D01*
X41148142Y36901572D01*
X41329571Y36901572D01*
X41402142Y36865286D01*
X41438428Y36829000D01*
X41474714Y36756429D01*
X41474714Y36538715D01*
X41438428Y36466143D01*
X41402142Y36429858D01*
X27700142Y33367858D02*
X27663857Y33331572D01*
X27555000Y33295286D01*
X27482428Y33295286D01*
X27373571Y33331572D01*
X27301000Y33404143D01*
X27264714Y33476715D01*
X27228428Y33621858D01*
X27228428Y33730715D01*
X27264714Y33875858D01*
X27301000Y33948429D01*
X27373571Y34021000D01*
X27482428Y34057286D01*
X27555000Y34057286D01*
X27663857Y34021000D01*
X27700142Y33984715D01*
X28425857Y33295286D02*
X27990428Y33295286D01*
X28208142Y33295286D02*
X28208142Y34057286D01*
X28135571Y33948429D01*
X28063000Y33875858D01*
X27990428Y33839572D01*
X29079000Y33803286D02*
X29079000Y33295286D01*
X28897571Y34093572D02*
X28716142Y33549286D01*
X29187857Y33549286D01*
X31730142Y45317858D02*
X31693857Y45281572D01*
X31585000Y45245286D01*
X31512428Y45245286D01*
X31403571Y45281572D01*
X31331000Y45354143D01*
X31294714Y45426715D01*
X31258428Y45571858D01*
X31258428Y45680715D01*
X31294714Y45825858D01*
X31331000Y45898429D01*
X31403571Y45971000D01*
X31512428Y46007286D01*
X31585000Y46007286D01*
X31693857Y45971000D01*
X31730142Y45934715D01*
X32455857Y45245286D02*
X32020428Y45245286D01*
X32238142Y45245286D02*
X32238142Y46007286D01*
X32165571Y45898429D01*
X32093000Y45825858D01*
X32020428Y45789572D01*
X33145285Y46007286D02*
X32782428Y46007286D01*
X32746142Y45644429D01*
X32782428Y45680715D01*
X32855000Y45717000D01*
X33036428Y45717000D01*
X33109000Y45680715D01*
X33145285Y45644429D01*
X33181571Y45571858D01*
X33181571Y45390429D01*
X33145285Y45317858D01*
X33109000Y45281572D01*
X33036428Y45245286D01*
X32855000Y45245286D01*
X32782428Y45281572D01*
X32746142Y45317858D01*
X23509142Y43437858D02*
X23472857Y43401572D01*
X23364000Y43365286D01*
X23291428Y43365286D01*
X23182571Y43401572D01*
X23110000Y43474143D01*
X23073714Y43546715D01*
X23037428Y43691858D01*
X23037428Y43800715D01*
X23073714Y43945858D01*
X23110000Y44018429D01*
X23182571Y44091000D01*
X23291428Y44127286D01*
X23364000Y44127286D01*
X23472857Y44091000D01*
X23509142Y44054715D01*
X24234857Y43365286D02*
X23799428Y43365286D01*
X24017142Y43365286D02*
X24017142Y44127286D01*
X23944571Y44018429D01*
X23872000Y43945858D01*
X23799428Y43909572D01*
X24888000Y44127286D02*
X24742857Y44127286D01*
X24670285Y44091000D01*
X24634000Y44054715D01*
X24561428Y43945858D01*
X24525142Y43800715D01*
X24525142Y43510429D01*
X24561428Y43437858D01*
X24597714Y43401572D01*
X24670285Y43365286D01*
X24815428Y43365286D01*
X24888000Y43401572D01*
X24924285Y43437858D01*
X24960571Y43510429D01*
X24960571Y43691858D01*
X24924285Y43764429D01*
X24888000Y43800715D01*
X24815428Y43837000D01*
X24670285Y43837000D01*
X24597714Y43800715D01*
X24561428Y43764429D01*
X24525142Y43691858D01*
X24030142Y38487858D02*
X23993857Y38451572D01*
X23885000Y38415286D01*
X23812428Y38415286D01*
X23703571Y38451572D01*
X23631000Y38524143D01*
X23594714Y38596715D01*
X23558428Y38741858D01*
X23558428Y38850715D01*
X23594714Y38995858D01*
X23631000Y39068429D01*
X23703571Y39141000D01*
X23812428Y39177286D01*
X23885000Y39177286D01*
X23993857Y39141000D01*
X24030142Y39104715D01*
X24755857Y38415286D02*
X24320428Y38415286D01*
X24538142Y38415286D02*
X24538142Y39177286D01*
X24465571Y39068429D01*
X24393000Y38995858D01*
X24320428Y38959572D01*
X25009857Y39177286D02*
X25517857Y39177286D01*
X25191285Y38415286D01*
X23509142Y42427858D02*
X23472857Y42391572D01*
X23364000Y42355286D01*
X23291428Y42355286D01*
X23182571Y42391572D01*
X23110000Y42464143D01*
X23073714Y42536715D01*
X23037428Y42681858D01*
X23037428Y42790715D01*
X23073714Y42935858D01*
X23110000Y43008429D01*
X23182571Y43081000D01*
X23291428Y43117286D01*
X23364000Y43117286D01*
X23472857Y43081000D01*
X23509142Y43044715D01*
X24234857Y42355286D02*
X23799428Y42355286D01*
X24017142Y42355286D02*
X24017142Y43117286D01*
X23944571Y43008429D01*
X23872000Y42935858D01*
X23799428Y42899572D01*
X24670285Y42790715D02*
X24597714Y42827000D01*
X24561428Y42863286D01*
X24525142Y42935858D01*
X24525142Y42972143D01*
X24561428Y43044715D01*
X24597714Y43081000D01*
X24670285Y43117286D01*
X24815428Y43117286D01*
X24888000Y43081000D01*
X24924285Y43044715D01*
X24960571Y42972143D01*
X24960571Y42935858D01*
X24924285Y42863286D01*
X24888000Y42827000D01*
X24815428Y42790715D01*
X24670285Y42790715D01*
X24597714Y42754429D01*
X24561428Y42718143D01*
X24525142Y42645572D01*
X24525142Y42500429D01*
X24561428Y42427858D01*
X24597714Y42391572D01*
X24670285Y42355286D01*
X24815428Y42355286D01*
X24888000Y42391572D01*
X24924285Y42427858D01*
X24960571Y42500429D01*
X24960571Y42645572D01*
X24924285Y42718143D01*
X24888000Y42754429D01*
X24815428Y42790715D01*
X36360142Y42037858D02*
X36323857Y42001572D01*
X36215000Y41965286D01*
X36142428Y41965286D01*
X36033571Y42001572D01*
X35961000Y42074143D01*
X35924714Y42146715D01*
X35888428Y42291858D01*
X35888428Y42400715D01*
X35924714Y42545858D01*
X35961000Y42618429D01*
X36033571Y42691000D01*
X36142428Y42727286D01*
X36215000Y42727286D01*
X36323857Y42691000D01*
X36360142Y42654715D01*
X36650428Y42654715D02*
X36686714Y42691000D01*
X36759285Y42727286D01*
X36940714Y42727286D01*
X37013285Y42691000D01*
X37049571Y42654715D01*
X37085857Y42582143D01*
X37085857Y42509572D01*
X37049571Y42400715D01*
X36614142Y41965286D01*
X37085857Y41965286D01*
X37557571Y42727286D02*
X37630142Y42727286D01*
X37702714Y42691000D01*
X37739000Y42654715D01*
X37775285Y42582143D01*
X37811571Y42437000D01*
X37811571Y42255572D01*
X37775285Y42110429D01*
X37739000Y42037858D01*
X37702714Y42001572D01*
X37630142Y41965286D01*
X37557571Y41965286D01*
X37485000Y42001572D01*
X37448714Y42037858D01*
X37412428Y42110429D01*
X37376142Y42255572D01*
X37376142Y42437000D01*
X37412428Y42582143D01*
X37448714Y42654715D01*
X37485000Y42691000D01*
X37557571Y42727286D01*
X37843000Y33375286D02*
X37480142Y33375286D01*
X37480142Y34137286D01*
X38060714Y34064715D02*
X38097000Y34101000D01*
X38169571Y34137286D01*
X38351000Y34137286D01*
X38423571Y34101000D01*
X38459857Y34064715D01*
X38496142Y33992143D01*
X38496142Y33919572D01*
X38459857Y33810715D01*
X38024428Y33375286D01*
X38496142Y33375286D01*
X19103000Y25815286D02*
X18740142Y25815286D01*
X18740142Y26577286D01*
X19284428Y26577286D02*
X19756142Y26577286D01*
X19502142Y26287000D01*
X19611000Y26287000D01*
X19683571Y26250715D01*
X19719857Y26214429D01*
X19756142Y26141858D01*
X19756142Y25960429D01*
X19719857Y25887858D01*
X19683571Y25851572D01*
X19611000Y25815286D01*
X19393285Y25815286D01*
X19320714Y25851572D01*
X19284428Y25887858D01*
X47562000Y54105286D02*
X47562000Y54867286D01*
X47852285Y54867286D01*
X47924857Y54831000D01*
X47961142Y54794715D01*
X47997428Y54722143D01*
X47997428Y54613286D01*
X47961142Y54540715D01*
X47924857Y54504429D01*
X47852285Y54468143D01*
X47562000Y54468143D01*
X48251428Y54867286D02*
X48432857Y54105286D01*
X48578000Y54649572D01*
X48723142Y54105286D01*
X48904571Y54867286D01*
X49630285Y54105286D02*
X49376285Y54468143D01*
X49194857Y54105286D02*
X49194857Y54867286D01*
X49485142Y54867286D01*
X49557714Y54831000D01*
X49594000Y54794715D01*
X49630285Y54722143D01*
X49630285Y54613286D01*
X49594000Y54540715D01*
X49557714Y54504429D01*
X49485142Y54468143D01*
X49194857Y54468143D01*
X50319714Y54105286D02*
X49956857Y54105286D01*
X49956857Y54867286D01*
X50573714Y54504429D02*
X50827714Y54504429D01*
X50936571Y54105286D02*
X50573714Y54105286D01*
X50573714Y54867286D01*
X50936571Y54867286D01*
X51263142Y54105286D02*
X51263142Y54867286D01*
X51444571Y54867286D01*
X51553428Y54831000D01*
X51626000Y54758429D01*
X51662285Y54685858D01*
X51698571Y54540715D01*
X51698571Y54431858D01*
X51662285Y54286715D01*
X51626000Y54214143D01*
X51553428Y54141572D01*
X51444571Y54105286D01*
X51263142Y54105286D01*
X52424285Y54105286D02*
X51988857Y54105286D01*
X52206571Y54105286D02*
X52206571Y54867286D01*
X52134000Y54758429D01*
X52061428Y54685858D01*
X51988857Y54649572D01*
X9520142Y43695286D02*
X9266142Y44058143D01*
X9084714Y43695286D02*
X9084714Y44457286D01*
X9375000Y44457286D01*
X9447571Y44421000D01*
X9483857Y44384715D01*
X9520142Y44312143D01*
X9520142Y44203286D01*
X9483857Y44130715D01*
X9447571Y44094429D01*
X9375000Y44058143D01*
X9084714Y44058143D01*
X10209571Y44457286D02*
X9846714Y44457286D01*
X9810428Y44094429D01*
X9846714Y44130715D01*
X9919285Y44167000D01*
X10100714Y44167000D01*
X10173285Y44130715D01*
X10209571Y44094429D01*
X10245857Y44021858D01*
X10245857Y43840429D01*
X10209571Y43767858D01*
X10173285Y43731572D01*
X10100714Y43695286D01*
X9919285Y43695286D01*
X9846714Y43731572D01*
X9810428Y43767858D01*
X10717571Y44457286D02*
X10790142Y44457286D01*
X10862714Y44421000D01*
X10899000Y44384715D01*
X10935285Y44312143D01*
X10971571Y44167000D01*
X10971571Y43985572D01*
X10935285Y43840429D01*
X10899000Y43767858D01*
X10862714Y43731572D01*
X10790142Y43695286D01*
X10717571Y43695286D01*
X10645000Y43731572D01*
X10608714Y43767858D01*
X10572428Y43840429D01*
X10536142Y43985572D01*
X10536142Y44167000D01*
X10572428Y44312143D01*
X10608714Y44384715D01*
X10645000Y44421000D01*
X10717571Y44457286D01*
X21168714Y67308000D02*
X20805857Y67054000D01*
X21168714Y66872572D02*
X20406714Y66872572D01*
X20406714Y67162858D01*
X20443000Y67235429D01*
X20479285Y67271715D01*
X20551857Y67308000D01*
X20660714Y67308000D01*
X20733285Y67271715D01*
X20769571Y67235429D01*
X20805857Y67162858D01*
X20805857Y66872572D01*
X20660714Y67961143D02*
X21168714Y67961143D01*
X20370428Y67779715D02*
X20914714Y67598286D01*
X20914714Y68070000D01*
X41903000Y60375286D02*
X41649000Y60738143D01*
X41467571Y60375286D02*
X41467571Y61137286D01*
X41757857Y61137286D01*
X41830428Y61101000D01*
X41866714Y61064715D01*
X41903000Y60992143D01*
X41903000Y60883286D01*
X41866714Y60810715D01*
X41830428Y60774429D01*
X41757857Y60738143D01*
X41467571Y60738143D01*
X42592428Y61137286D02*
X42229571Y61137286D01*
X42193285Y60774429D01*
X42229571Y60810715D01*
X42302142Y60847000D01*
X42483571Y60847000D01*
X42556142Y60810715D01*
X42592428Y60774429D01*
X42628714Y60701858D01*
X42628714Y60520429D01*
X42592428Y60447858D01*
X42556142Y60411572D01*
X42483571Y60375286D01*
X42302142Y60375286D01*
X42229571Y60411572D01*
X42193285Y60447858D01*
X28823000Y45635286D02*
X28569000Y45998143D01*
X28387571Y45635286D02*
X28387571Y46397286D01*
X28677857Y46397286D01*
X28750428Y46361000D01*
X28786714Y46324715D01*
X28823000Y46252143D01*
X28823000Y46143286D01*
X28786714Y46070715D01*
X28750428Y46034429D01*
X28677857Y45998143D01*
X28387571Y45998143D01*
X29476142Y46397286D02*
X29331000Y46397286D01*
X29258428Y46361000D01*
X29222142Y46324715D01*
X29149571Y46215858D01*
X29113285Y46070715D01*
X29113285Y45780429D01*
X29149571Y45707858D01*
X29185857Y45671572D01*
X29258428Y45635286D01*
X29403571Y45635286D01*
X29476142Y45671572D01*
X29512428Y45707858D01*
X29548714Y45780429D01*
X29548714Y45961858D01*
X29512428Y46034429D01*
X29476142Y46070715D01*
X29403571Y46107000D01*
X29258428Y46107000D01*
X29185857Y46070715D01*
X29149571Y46034429D01*
X29113285Y45961858D01*
X26543000Y45635286D02*
X26289000Y45998143D01*
X26107571Y45635286D02*
X26107571Y46397286D01*
X26397857Y46397286D01*
X26470428Y46361000D01*
X26506714Y46324715D01*
X26543000Y46252143D01*
X26543000Y46143286D01*
X26506714Y46070715D01*
X26470428Y46034429D01*
X26397857Y45998143D01*
X26107571Y45998143D01*
X26797000Y46397286D02*
X27305000Y46397286D01*
X26978428Y45635286D01*
X32004714Y48003000D02*
X31641857Y47749000D01*
X32004714Y47567572D02*
X31242714Y47567572D01*
X31242714Y47857858D01*
X31279000Y47930429D01*
X31315285Y47966715D01*
X31387857Y48003000D01*
X31496714Y48003000D01*
X31569285Y47966715D01*
X31605571Y47930429D01*
X31641857Y47857858D01*
X31641857Y47567572D01*
X31569285Y48438429D02*
X31533000Y48365858D01*
X31496714Y48329572D01*
X31424142Y48293286D01*
X31387857Y48293286D01*
X31315285Y48329572D01*
X31279000Y48365858D01*
X31242714Y48438429D01*
X31242714Y48583572D01*
X31279000Y48656143D01*
X31315285Y48692429D01*
X31387857Y48728715D01*
X31424142Y48728715D01*
X31496714Y48692429D01*
X31533000Y48656143D01*
X31569285Y48583572D01*
X31569285Y48438429D01*
X31605571Y48365858D01*
X31641857Y48329572D01*
X31714428Y48293286D01*
X31859571Y48293286D01*
X31932142Y48329572D01*
X31968428Y48365858D01*
X32004714Y48438429D01*
X32004714Y48583572D01*
X31968428Y48656143D01*
X31932142Y48692429D01*
X31859571Y48728715D01*
X31714428Y48728715D01*
X31641857Y48692429D01*
X31605571Y48656143D01*
X31569285Y48583572D01*
X30353000Y45635286D02*
X30099000Y45998143D01*
X29917571Y45635286D02*
X29917571Y46397286D01*
X30207857Y46397286D01*
X30280428Y46361000D01*
X30316714Y46324715D01*
X30353000Y46252143D01*
X30353000Y46143286D01*
X30316714Y46070715D01*
X30280428Y46034429D01*
X30207857Y45998143D01*
X29917571Y45998143D01*
X30715857Y45635286D02*
X30861000Y45635286D01*
X30933571Y45671572D01*
X30969857Y45707858D01*
X31042428Y45816715D01*
X31078714Y45961858D01*
X31078714Y46252143D01*
X31042428Y46324715D01*
X31006142Y46361000D01*
X30933571Y46397286D01*
X30788428Y46397286D01*
X30715857Y46361000D01*
X30679571Y46324715D01*
X30643285Y46252143D01*
X30643285Y46070715D01*
X30679571Y45998143D01*
X30715857Y45961858D01*
X30788428Y45925572D01*
X30933571Y45925572D01*
X31006142Y45961858D01*
X31042428Y45998143D01*
X31078714Y46070715D01*
X31637142Y13715286D02*
X31383142Y14078143D01*
X31201714Y13715286D02*
X31201714Y14477286D01*
X31492000Y14477286D01*
X31564571Y14441000D01*
X31600857Y14404715D01*
X31637142Y14332143D01*
X31637142Y14223286D01*
X31600857Y14150715D01*
X31564571Y14114429D01*
X31492000Y14078143D01*
X31201714Y14078143D01*
X32362857Y13715286D02*
X31927428Y13715286D01*
X32145142Y13715286D02*
X32145142Y14477286D01*
X32072571Y14368429D01*
X32000000Y14295858D01*
X31927428Y14259572D01*
X32834571Y14477286D02*
X32907142Y14477286D01*
X32979714Y14441000D01*
X33016000Y14404715D01*
X33052285Y14332143D01*
X33088571Y14187000D01*
X33088571Y14005572D01*
X33052285Y13860429D01*
X33016000Y13787858D01*
X32979714Y13751572D01*
X32907142Y13715286D01*
X32834571Y13715286D01*
X32762000Y13751572D01*
X32725714Y13787858D01*
X32689428Y13860429D01*
X32653142Y14005572D01*
X32653142Y14187000D01*
X32689428Y14332143D01*
X32725714Y14404715D01*
X32762000Y14441000D01*
X32834571Y14477286D01*
X35830142Y38035286D02*
X35576142Y38398143D01*
X35394714Y38035286D02*
X35394714Y38797286D01*
X35685000Y38797286D01*
X35757571Y38761000D01*
X35793857Y38724715D01*
X35830142Y38652143D01*
X35830142Y38543286D01*
X35793857Y38470715D01*
X35757571Y38434429D01*
X35685000Y38398143D01*
X35394714Y38398143D01*
X36555857Y38035286D02*
X36120428Y38035286D01*
X36338142Y38035286D02*
X36338142Y38797286D01*
X36265571Y38688429D01*
X36193000Y38615858D01*
X36120428Y38579572D01*
X36809857Y38797286D02*
X37317857Y38797286D01*
X36991285Y38035286D01*
X23130142Y47555286D02*
X22876142Y47918143D01*
X22694714Y47555286D02*
X22694714Y48317286D01*
X22985000Y48317286D01*
X23057571Y48281000D01*
X23093857Y48244715D01*
X23130142Y48172143D01*
X23130142Y48063286D01*
X23093857Y47990715D01*
X23057571Y47954429D01*
X22985000Y47918143D01*
X22694714Y47918143D01*
X23855857Y47555286D02*
X23420428Y47555286D01*
X23638142Y47555286D02*
X23638142Y48317286D01*
X23565571Y48208429D01*
X23493000Y48135858D01*
X23420428Y48099572D01*
X24291285Y47990715D02*
X24218714Y48027000D01*
X24182428Y48063286D01*
X24146142Y48135858D01*
X24146142Y48172143D01*
X24182428Y48244715D01*
X24218714Y48281000D01*
X24291285Y48317286D01*
X24436428Y48317286D01*
X24509000Y48281000D01*
X24545285Y48244715D01*
X24581571Y48172143D01*
X24581571Y48135858D01*
X24545285Y48063286D01*
X24509000Y48027000D01*
X24436428Y47990715D01*
X24291285Y47990715D01*
X24218714Y47954429D01*
X24182428Y47918143D01*
X24146142Y47845572D01*
X24146142Y47700429D01*
X24182428Y47627858D01*
X24218714Y47591572D01*
X24291285Y47555286D01*
X24436428Y47555286D01*
X24509000Y47591572D01*
X24545285Y47627858D01*
X24581571Y47700429D01*
X24581571Y47845572D01*
X24545285Y47918143D01*
X24509000Y47954429D01*
X24436428Y47990715D01*
X37120142Y20485286D02*
X36866142Y20848143D01*
X36684714Y20485286D02*
X36684714Y21247286D01*
X36975000Y21247286D01*
X37047571Y21211000D01*
X37083857Y21174715D01*
X37120142Y21102143D01*
X37120142Y20993286D01*
X37083857Y20920715D01*
X37047571Y20884429D01*
X36975000Y20848143D01*
X36684714Y20848143D01*
X37845857Y20485286D02*
X37410428Y20485286D01*
X37628142Y20485286D02*
X37628142Y21247286D01*
X37555571Y21138429D01*
X37483000Y21065858D01*
X37410428Y21029572D01*
X38571571Y20485286D02*
X38136142Y20485286D01*
X38353857Y20485286D02*
X38353857Y21247286D01*
X38281285Y21138429D01*
X38208714Y21065858D01*
X38136142Y21029572D01*
X24780142Y23685286D02*
X24526142Y24048143D01*
X24344714Y23685286D02*
X24344714Y24447286D01*
X24635000Y24447286D01*
X24707571Y24411000D01*
X24743857Y24374715D01*
X24780142Y24302143D01*
X24780142Y24193286D01*
X24743857Y24120715D01*
X24707571Y24084429D01*
X24635000Y24048143D01*
X24344714Y24048143D01*
X25505857Y23685286D02*
X25070428Y23685286D01*
X25288142Y23685286D02*
X25288142Y24447286D01*
X25215571Y24338429D01*
X25143000Y24265858D01*
X25070428Y24229572D01*
X26159000Y24193286D02*
X26159000Y23685286D01*
X25977571Y24483572D02*
X25796142Y23939286D01*
X26267857Y23939286D01*
X24452571Y33054286D02*
X24198571Y33417143D01*
X24017142Y33054286D02*
X24017142Y33816286D01*
X24307428Y33816286D01*
X24380000Y33780000D01*
X24416285Y33743715D01*
X24452571Y33671143D01*
X24452571Y33562286D01*
X24416285Y33489715D01*
X24380000Y33453429D01*
X24307428Y33417143D01*
X24017142Y33417143D01*
X24779142Y33054286D02*
X24779142Y33816286D01*
X25033142Y33272000D01*
X25287142Y33816286D01*
X25287142Y33054286D01*
X25613714Y33743715D02*
X25650000Y33780000D01*
X25722571Y33816286D01*
X25904000Y33816286D01*
X25976571Y33780000D01*
X26012857Y33743715D01*
X26049142Y33671143D01*
X26049142Y33598572D01*
X26012857Y33489715D01*
X25577428Y33054286D01*
X26049142Y33054286D01*
X30802571Y33054286D02*
X30548571Y33417143D01*
X30367142Y33054286D02*
X30367142Y33816286D01*
X30657428Y33816286D01*
X30730000Y33780000D01*
X30766285Y33743715D01*
X30802571Y33671143D01*
X30802571Y33562286D01*
X30766285Y33489715D01*
X30730000Y33453429D01*
X30657428Y33417143D01*
X30367142Y33417143D01*
X31129142Y33054286D02*
X31129142Y33816286D01*
X31383142Y33272000D01*
X31637142Y33816286D01*
X31637142Y33054286D01*
X32399142Y33054286D02*
X31963714Y33054286D01*
X32181428Y33054286D02*
X32181428Y33816286D01*
X32108857Y33707429D01*
X32036285Y33634858D01*
X31963714Y33598572D01*
D11*
X20049904Y47544381D02*
X20049904Y46721905D01*
X20098285Y46625143D01*
X20146666Y46576762D01*
X20243428Y46528381D01*
X20436952Y46528381D01*
X20533714Y46576762D01*
X20582095Y46625143D01*
X20630476Y46721905D01*
X20630476Y47544381D01*
X21549714Y47544381D02*
X21356190Y47544381D01*
X21259428Y47496000D01*
X21211047Y47447620D01*
X21114285Y47302477D01*
X21065904Y47108953D01*
X21065904Y46721905D01*
X21114285Y46625143D01*
X21162666Y46576762D01*
X21259428Y46528381D01*
X21452952Y46528381D01*
X21549714Y46576762D01*
X21598095Y46625143D01*
X21646476Y46721905D01*
X21646476Y46963810D01*
X21598095Y47060572D01*
X21549714Y47108953D01*
X21452952Y47157334D01*
X21259428Y47157334D01*
X21162666Y47108953D01*
X21114285Y47060572D01*
X21065904Y46963810D01*
X5154619Y49813477D02*
X5154619Y49232905D01*
X5154619Y49523191D02*
X4138619Y49523191D01*
X4283761Y49426429D01*
X4380523Y49329667D01*
X4428904Y49232905D01*
X4138619Y50732715D02*
X4138619Y50248905D01*
X4622428Y50200524D01*
X4574047Y50248905D01*
X4525666Y50345667D01*
X4525666Y50587572D01*
X4574047Y50684334D01*
X4622428Y50732715D01*
X4719190Y50781096D01*
X4961095Y50781096D01*
X5057857Y50732715D01*
X5106238Y50684334D01*
X5154619Y50587572D01*
X5154619Y50345667D01*
X5106238Y50248905D01*
X5057857Y50200524D01*
X1078523Y66201286D02*
X1018047Y66080334D01*
X957571Y66019858D01*
X836619Y65959381D01*
X473761Y65959381D01*
X352809Y66019858D01*
X292333Y66080334D01*
X231857Y66201286D01*
X231857Y66382715D01*
X292333Y66503667D01*
X352809Y66564143D01*
X473761Y66624620D01*
X836619Y66624620D01*
X957571Y66564143D01*
X1018047Y66503667D01*
X1078523Y66382715D01*
X1078523Y66201286D01*
X4891428Y54432572D02*
X5230095Y54432572D01*
X5375238Y53900381D02*
X4891428Y53900381D01*
X4891428Y54916381D01*
X5375238Y54916381D01*
X5762285Y53948762D02*
X5907428Y53900381D01*
X6149333Y53900381D01*
X6246095Y53948762D01*
X6294476Y53997143D01*
X6342857Y54093905D01*
X6342857Y54190667D01*
X6294476Y54287429D01*
X6246095Y54335810D01*
X6149333Y54384191D01*
X5955809Y54432572D01*
X5859047Y54480953D01*
X5810666Y54529334D01*
X5762285Y54626096D01*
X5762285Y54722858D01*
X5810666Y54819620D01*
X5859047Y54868000D01*
X5955809Y54916381D01*
X6197714Y54916381D01*
X6342857Y54868000D01*
X6778285Y53900381D02*
X6778285Y54916381D01*
X7165333Y54916381D01*
X7262095Y54868000D01*
X7310476Y54819620D01*
X7358857Y54722858D01*
X7358857Y54577715D01*
X7310476Y54480953D01*
X7262095Y54432572D01*
X7165333Y54384191D01*
X6778285Y54384191D01*
X7794285Y54287429D02*
X8568380Y54287429D01*
X8955428Y54916381D02*
X9197333Y53900381D01*
X9390857Y54626096D01*
X9584380Y53900381D01*
X9826285Y54916381D01*
X10793904Y53900381D02*
X10455238Y54384191D01*
X10213333Y53900381D02*
X10213333Y54916381D01*
X10600380Y54916381D01*
X10697142Y54868000D01*
X10745523Y54819620D01*
X10793904Y54722858D01*
X10793904Y54577715D01*
X10745523Y54480953D01*
X10697142Y54432572D01*
X10600380Y54384191D01*
X10213333Y54384191D01*
X11422857Y54916381D02*
X11616380Y54916381D01*
X11713142Y54868000D01*
X11809904Y54771239D01*
X11858285Y54577715D01*
X11858285Y54239048D01*
X11809904Y54045524D01*
X11713142Y53948762D01*
X11616380Y53900381D01*
X11422857Y53900381D01*
X11326095Y53948762D01*
X11229333Y54045524D01*
X11180952Y54239048D01*
X11180952Y54577715D01*
X11229333Y54771239D01*
X11326095Y54868000D01*
X11422857Y54916381D01*
X12487238Y54916381D02*
X12680761Y54916381D01*
X12777523Y54868000D01*
X12874285Y54771239D01*
X12922666Y54577715D01*
X12922666Y54239048D01*
X12874285Y54045524D01*
X12777523Y53948762D01*
X12680761Y53900381D01*
X12487238Y53900381D01*
X12390476Y53948762D01*
X12293714Y54045524D01*
X12245333Y54239048D01*
X12245333Y54577715D01*
X12293714Y54771239D01*
X12390476Y54868000D01*
X12487238Y54916381D01*
X13358095Y53900381D02*
X13358095Y54916381D01*
X13696761Y54190667D01*
X14035428Y54916381D01*
X14035428Y53900381D01*
X14519238Y54287429D02*
X15293333Y54287429D01*
X15680380Y54916381D02*
X16309333Y54916381D01*
X15970666Y54529334D01*
X16115809Y54529334D01*
X16212571Y54480953D01*
X16260952Y54432572D01*
X16309333Y54335810D01*
X16309333Y54093905D01*
X16260952Y53997143D01*
X16212571Y53948762D01*
X16115809Y53900381D01*
X15825523Y53900381D01*
X15728761Y53948762D01*
X15680380Y53997143D01*
X16696380Y54819620D02*
X16744761Y54868000D01*
X16841523Y54916381D01*
X17083428Y54916381D01*
X17180190Y54868000D01*
X17228571Y54819620D01*
X17276952Y54722858D01*
X17276952Y54626096D01*
X17228571Y54480953D01*
X16648000Y53900381D01*
X17276952Y53900381D01*
X6902380Y69480334D02*
X7507142Y69480334D01*
X6781428Y69117477D02*
X7204761Y70387477D01*
X7628095Y69117477D01*
X8051428Y69964143D02*
X8051428Y69117477D01*
X8051428Y69843191D02*
X8111904Y69903667D01*
X8232857Y69964143D01*
X8414285Y69964143D01*
X8535238Y69903667D01*
X8595714Y69782715D01*
X8595714Y69117477D01*
X9019047Y69964143D02*
X9502857Y69964143D01*
X9200476Y70387477D02*
X9200476Y69298905D01*
X9260952Y69177953D01*
X9381904Y69117477D01*
X9502857Y69117477D01*
X10410000Y69177953D02*
X10289047Y69117477D01*
X10047142Y69117477D01*
X9926190Y69177953D01*
X9865714Y69298905D01*
X9865714Y69782715D01*
X9926190Y69903667D01*
X10047142Y69964143D01*
X10289047Y69964143D01*
X10410000Y69903667D01*
X10470476Y69782715D01*
X10470476Y69661762D01*
X9865714Y69540810D01*
X11014761Y69964143D02*
X11014761Y69117477D01*
X11014761Y69843191D02*
X11075238Y69903667D01*
X11196190Y69964143D01*
X11377619Y69964143D01*
X11498571Y69903667D01*
X11559047Y69782715D01*
X11559047Y69117477D01*
X12163809Y69964143D02*
X12163809Y69117477D01*
X12163809Y69843191D02*
X12224285Y69903667D01*
X12345238Y69964143D01*
X12526666Y69964143D01*
X12647619Y69903667D01*
X12708095Y69782715D01*
X12708095Y69117477D01*
X13857142Y69117477D02*
X13857142Y69782715D01*
X13796666Y69903667D01*
X13675714Y69964143D01*
X13433809Y69964143D01*
X13312857Y69903667D01*
X13857142Y69177953D02*
X13736190Y69117477D01*
X13433809Y69117477D01*
X13312857Y69177953D01*
X13252380Y69298905D01*
X13252380Y69419858D01*
X13312857Y69540810D01*
X13433809Y69601286D01*
X13736190Y69601286D01*
X13857142Y69661762D01*
X15665380Y49232905D02*
X15617000Y49281286D01*
X15568619Y49378048D01*
X15568619Y49619953D01*
X15617000Y49716715D01*
X15665380Y49765096D01*
X15762142Y49813477D01*
X15858904Y49813477D01*
X16004047Y49765096D01*
X16584619Y49184524D01*
X16584619Y49813477D01*
X15907285Y50684334D02*
X16584619Y50684334D01*
X15520238Y50442429D02*
X16245952Y50200524D01*
X16245952Y50829477D01*
X4350285Y64054381D02*
X3769714Y64054381D01*
X4060000Y64054381D02*
X4060000Y65070381D01*
X3963238Y64925239D01*
X3866476Y64828477D01*
X3769714Y64780096D01*
X15556523Y65070381D02*
X16185476Y65070381D01*
X15846809Y64683334D01*
X15991952Y64683334D01*
X16088714Y64634953D01*
X16137095Y64586572D01*
X16185476Y64489810D01*
X16185476Y64247905D01*
X16137095Y64151143D01*
X16088714Y64102762D01*
X15991952Y64054381D01*
X15701666Y64054381D01*
X15604904Y64102762D01*
X15556523Y64151143D01*
X16766047Y64634953D02*
X16669285Y64683334D01*
X16620904Y64731715D01*
X16572523Y64828477D01*
X16572523Y64876858D01*
X16620904Y64973620D01*
X16669285Y65022000D01*
X16766047Y65070381D01*
X16959571Y65070381D01*
X17056333Y65022000D01*
X17104714Y64973620D01*
X17153095Y64876858D01*
X17153095Y64828477D01*
X17104714Y64731715D01*
X17056333Y64683334D01*
X16959571Y64634953D01*
X16766047Y64634953D01*
X16669285Y64586572D01*
X16620904Y64538191D01*
X16572523Y64441429D01*
X16572523Y64247905D01*
X16620904Y64151143D01*
X16669285Y64102762D01*
X16766047Y64054381D01*
X16959571Y64054381D01*
X17056333Y64102762D01*
X17104714Y64151143D01*
X17153095Y64247905D01*
X17153095Y64441429D01*
X17104714Y64538191D01*
X17056333Y64586572D01*
X16959571Y64634953D01*
X25510904Y44115381D02*
X25510904Y43292905D01*
X25559285Y43196143D01*
X25607666Y43147762D01*
X25704428Y43099381D01*
X25897952Y43099381D01*
X25994714Y43147762D01*
X26043095Y43196143D01*
X26091476Y43292905D01*
X26091476Y44115381D01*
X26478523Y44115381D02*
X27107476Y44115381D01*
X26768809Y43728334D01*
X26913952Y43728334D01*
X27010714Y43679953D01*
X27059095Y43631572D01*
X27107476Y43534810D01*
X27107476Y43292905D01*
X27059095Y43196143D01*
X27010714Y43147762D01*
X26913952Y43099381D01*
X26623666Y43099381D01*
X26526904Y43147762D01*
X26478523Y43196143D01*
X7319619Y24688572D02*
X6303619Y24688572D01*
X7029333Y25027239D01*
X6303619Y25365905D01*
X7319619Y25365905D01*
X7319619Y25849715D02*
X6303619Y25849715D01*
X7222857Y26914096D02*
X7271238Y26865715D01*
X7319619Y26720572D01*
X7319619Y26623810D01*
X7271238Y26478667D01*
X7174476Y26381905D01*
X7077714Y26333524D01*
X6884190Y26285143D01*
X6739047Y26285143D01*
X6545523Y26333524D01*
X6448761Y26381905D01*
X6352000Y26478667D01*
X6303619Y26623810D01*
X6303619Y26720572D01*
X6352000Y26865715D01*
X6400380Y26914096D01*
X7319619Y27930096D02*
X6835809Y27591429D01*
X7319619Y27349524D02*
X6303619Y27349524D01*
X6303619Y27736572D01*
X6352000Y27833334D01*
X6400380Y27881715D01*
X6497142Y27930096D01*
X6642285Y27930096D01*
X6739047Y27881715D01*
X6787428Y27833334D01*
X6835809Y27736572D01*
X6835809Y27349524D01*
X6303619Y28559048D02*
X6303619Y28752572D01*
X6352000Y28849334D01*
X6448761Y28946096D01*
X6642285Y28994477D01*
X6980952Y28994477D01*
X7174476Y28946096D01*
X7271238Y28849334D01*
X7319619Y28752572D01*
X7319619Y28559048D01*
X7271238Y28462286D01*
X7174476Y28365524D01*
X6980952Y28317143D01*
X6642285Y28317143D01*
X6448761Y28365524D01*
X6352000Y28462286D01*
X6303619Y28559048D01*
X7416380Y29188000D02*
X7416380Y29962096D01*
X7271238Y30155620D02*
X7319619Y30300762D01*
X7319619Y30542667D01*
X7271238Y30639429D01*
X7222857Y30687810D01*
X7126095Y30736191D01*
X7029333Y30736191D01*
X6932571Y30687810D01*
X6884190Y30639429D01*
X6835809Y30542667D01*
X6787428Y30349143D01*
X6739047Y30252381D01*
X6690666Y30204000D01*
X6593904Y30155620D01*
X6497142Y30155620D01*
X6400380Y30204000D01*
X6352000Y30252381D01*
X6303619Y30349143D01*
X6303619Y30591048D01*
X6352000Y30736191D01*
X7319619Y31171620D02*
X6303619Y31171620D01*
X6303619Y31413524D01*
X6352000Y31558667D01*
X6448761Y31655429D01*
X6545523Y31703810D01*
X6739047Y31752191D01*
X6884190Y31752191D01*
X7077714Y31703810D01*
X7174476Y31655429D01*
X7271238Y31558667D01*
X7319619Y31413524D01*
X7319619Y31171620D01*
X7319619Y32719810D02*
X7319619Y32139239D01*
X7319619Y32429524D02*
X6303619Y32429524D01*
X6448761Y32332762D01*
X6545523Y32236000D01*
X6593904Y32139239D01*
D13*
X18790142Y28615286D02*
X18536142Y28978143D01*
X18354714Y28615286D02*
X18354714Y29377286D01*
X18645000Y29377286D01*
X18717571Y29341000D01*
X18753857Y29304715D01*
X18790142Y29232143D01*
X18790142Y29123286D01*
X18753857Y29050715D01*
X18717571Y29014429D01*
X18645000Y28978143D01*
X18354714Y28978143D01*
X19443285Y29123286D02*
X19443285Y28615286D01*
X19261857Y29413572D02*
X19080428Y28869286D01*
X19552142Y28869286D01*
X19987571Y29377286D02*
X20060142Y29377286D01*
X20132714Y29341000D01*
X20169000Y29304715D01*
X20205285Y29232143D01*
X20241571Y29087000D01*
X20241571Y28905572D01*
X20205285Y28760429D01*
X20169000Y28687858D01*
X20132714Y28651572D01*
X20060142Y28615286D01*
X19987571Y28615286D01*
X19915000Y28651572D01*
X19878714Y28687858D01*
X19842428Y28760429D01*
X19806142Y28905572D01*
X19806142Y29087000D01*
X19842428Y29232143D01*
X19878714Y29304715D01*
X19915000Y29341000D01*
X19987571Y29377286D01*
D11*
X1066428Y43752524D02*
X1114809Y43897667D01*
X1163190Y43946048D01*
X1259952Y43994429D01*
X1405095Y43994429D01*
X1501857Y43946048D01*
X1550238Y43897667D01*
X1598619Y43800905D01*
X1598619Y43413858D01*
X582619Y43413858D01*
X582619Y43752524D01*
X631000Y43849286D01*
X679380Y43897667D01*
X776142Y43946048D01*
X872904Y43946048D01*
X969666Y43897667D01*
X1018047Y43849286D01*
X1066428Y43752524D01*
X1066428Y43413858D01*
X582619Y44429858D02*
X1405095Y44429858D01*
X1501857Y44478239D01*
X1550238Y44526620D01*
X1598619Y44623381D01*
X1598619Y44816905D01*
X1550238Y44913667D01*
X1501857Y44962048D01*
X1405095Y45010429D01*
X582619Y45010429D01*
X582619Y45349096D02*
X582619Y45929667D01*
X1598619Y45639381D02*
X582619Y45639381D01*
X1598619Y46800524D02*
X1598619Y46219953D01*
X1598619Y46510239D02*
X582619Y46510239D01*
X727761Y46413477D01*
X824523Y46316715D01*
X872904Y46219953D01*
X1598619Y38327810D02*
X1114809Y37989143D01*
X1598619Y37747239D02*
X582619Y37747239D01*
X582619Y38134286D01*
X631000Y38231048D01*
X679380Y38279429D01*
X776142Y38327810D01*
X921285Y38327810D01*
X1018047Y38279429D01*
X1066428Y38231048D01*
X1114809Y38134286D01*
X1114809Y37747239D01*
X1550238Y38714858D02*
X1598619Y38860000D01*
X1598619Y39101905D01*
X1550238Y39198667D01*
X1501857Y39247048D01*
X1405095Y39295429D01*
X1308333Y39295429D01*
X1211571Y39247048D01*
X1163190Y39198667D01*
X1114809Y39101905D01*
X1066428Y38908381D01*
X1018047Y38811620D01*
X969666Y38763239D01*
X872904Y38714858D01*
X776142Y38714858D01*
X679380Y38763239D01*
X631000Y38811620D01*
X582619Y38908381D01*
X582619Y39150286D01*
X631000Y39295429D01*
X582619Y39585715D02*
X582619Y40166286D01*
X1598619Y39876000D02*
X582619Y39876000D01*
X1598619Y41037143D02*
X1598619Y40456572D01*
X1598619Y40746858D02*
X582619Y40746858D01*
X727761Y40650096D01*
X824523Y40553334D01*
X872904Y40456572D01*
D13*
X41024714Y51215286D02*
X41024714Y50852429D01*
X40262714Y50852429D01*
X40807000Y51433000D02*
X40807000Y51795858D01*
X41024714Y51360429D02*
X40262714Y51614429D01*
X41024714Y51868429D01*
X41024714Y52122429D02*
X40262714Y52122429D01*
X41024714Y52557858D01*
X40262714Y52557858D01*
X41024714Y53319858D02*
X41024714Y52884429D01*
X41024714Y53102143D02*
X40262714Y53102143D01*
X40371571Y53029572D01*
X40444142Y52957000D01*
X40480428Y52884429D01*
D16*
X24216714Y54506400D02*
X24245742Y54477372D01*
X24274771Y54390286D01*
X24274771Y54332229D01*
X24245742Y54245143D01*
X24187685Y54187086D01*
X24129628Y54158058D01*
X24013514Y54129029D01*
X23926428Y54129029D01*
X23810314Y54158058D01*
X23752257Y54187086D01*
X23694200Y54245143D01*
X23665171Y54332229D01*
X23665171Y54390286D01*
X23694200Y54477372D01*
X23723228Y54506400D01*
X23665171Y54709600D02*
X23665171Y55086972D01*
X23897400Y54883772D01*
X23897400Y54970858D01*
X23926428Y55028915D01*
X23955457Y55057943D01*
X24013514Y55086972D01*
X24158657Y55086972D01*
X24216714Y55057943D01*
X24245742Y55028915D01*
X24274771Y54970858D01*
X24274771Y54796686D01*
X24245742Y54738629D01*
X24216714Y54709600D01*
D13*
X21223142Y62101000D02*
X21259428Y62064715D01*
X21295714Y61955858D01*
X21295714Y61883286D01*
X21259428Y61774429D01*
X21186857Y61701858D01*
X21114285Y61665572D01*
X20969142Y61629286D01*
X20860285Y61629286D01*
X20715142Y61665572D01*
X20642571Y61701858D01*
X20570000Y61774429D01*
X20533714Y61883286D01*
X20533714Y61955858D01*
X20570000Y62064715D01*
X20606285Y62101000D01*
X20787714Y62754143D02*
X21295714Y62754143D01*
X20497428Y62572715D02*
X21041714Y62391286D01*
X21041714Y62863000D01*
X47860142Y52335286D02*
X47606142Y52698143D01*
X47424714Y52335286D02*
X47424714Y53097286D01*
X47715000Y53097286D01*
X47787571Y53061000D01*
X47823857Y53024715D01*
X47860142Y52952143D01*
X47860142Y52843286D01*
X47823857Y52770715D01*
X47787571Y52734429D01*
X47715000Y52698143D01*
X47424714Y52698143D01*
X48585857Y52335286D02*
X48150428Y52335286D01*
X48368142Y52335286D02*
X48368142Y53097286D01*
X48295571Y52988429D01*
X48223000Y52915858D01*
X48150428Y52879572D01*
X48839857Y53097286D02*
X49311571Y53097286D01*
X49057571Y52807000D01*
X49166428Y52807000D01*
X49239000Y52770715D01*
X49275285Y52734429D01*
X49311571Y52661858D01*
X49311571Y52480429D01*
X49275285Y52407858D01*
X49239000Y52371572D01*
X49166428Y52335286D01*
X48948714Y52335286D01*
X48876142Y52371572D01*
X48839857Y52407858D01*
X25143000Y26427858D02*
X25106714Y26391572D01*
X24997857Y26355286D01*
X24925285Y26355286D01*
X24816428Y26391572D01*
X24743857Y26464143D01*
X24707571Y26536715D01*
X24671285Y26681858D01*
X24671285Y26790715D01*
X24707571Y26935858D01*
X24743857Y27008429D01*
X24816428Y27081000D01*
X24925285Y27117286D01*
X24997857Y27117286D01*
X25106714Y27081000D01*
X25143000Y27044715D01*
X25505857Y26355286D02*
X25651000Y26355286D01*
X25723571Y26391572D01*
X25759857Y26427858D01*
X25832428Y26536715D01*
X25868714Y26681858D01*
X25868714Y26972143D01*
X25832428Y27044715D01*
X25796142Y27081000D01*
X25723571Y27117286D01*
X25578428Y27117286D01*
X25505857Y27081000D01*
X25469571Y27044715D01*
X25433285Y26972143D01*
X25433285Y26790715D01*
X25469571Y26718143D01*
X25505857Y26681858D01*
X25578428Y26645572D01*
X25723571Y26645572D01*
X25796142Y26681858D01*
X25832428Y26718143D01*
X25868714Y26790715D01*
X40760142Y26377858D02*
X40723857Y26341572D01*
X40615000Y26305286D01*
X40542428Y26305286D01*
X40433571Y26341572D01*
X40361000Y26414143D01*
X40324714Y26486715D01*
X40288428Y26631858D01*
X40288428Y26740715D01*
X40324714Y26885858D01*
X40361000Y26958429D01*
X40433571Y27031000D01*
X40542428Y27067286D01*
X40615000Y27067286D01*
X40723857Y27031000D01*
X40760142Y26994715D01*
X41485857Y26305286D02*
X41050428Y26305286D01*
X41268142Y26305286D02*
X41268142Y27067286D01*
X41195571Y26958429D01*
X41123000Y26885858D01*
X41050428Y26849572D01*
X41957571Y27067286D02*
X42030142Y27067286D01*
X42102714Y27031000D01*
X42139000Y26994715D01*
X42175285Y26922143D01*
X42211571Y26777000D01*
X42211571Y26595572D01*
X42175285Y26450429D01*
X42139000Y26377858D01*
X42102714Y26341572D01*
X42030142Y26305286D01*
X41957571Y26305286D01*
X41885000Y26341572D01*
X41848714Y26377858D01*
X41812428Y26450429D01*
X41776142Y26595572D01*
X41776142Y26777000D01*
X41812428Y26922143D01*
X41848714Y26994715D01*
X41885000Y27031000D01*
X41957571Y27067286D01*
X22773000Y17757858D02*
X22736714Y17721572D01*
X22627857Y17685286D01*
X22555285Y17685286D01*
X22446428Y17721572D01*
X22373857Y17794143D01*
X22337571Y17866715D01*
X22301285Y18011858D01*
X22301285Y18120715D01*
X22337571Y18265858D01*
X22373857Y18338429D01*
X22446428Y18411000D01*
X22555285Y18447286D01*
X22627857Y18447286D01*
X22736714Y18411000D01*
X22773000Y18374715D01*
X23027000Y18447286D02*
X23535000Y18447286D01*
X23208428Y17685286D01*
X40133000Y23197858D02*
X40096714Y23161572D01*
X39987857Y23125286D01*
X39915285Y23125286D01*
X39806428Y23161572D01*
X39733857Y23234143D01*
X39697571Y23306715D01*
X39661285Y23451858D01*
X39661285Y23560715D01*
X39697571Y23705858D01*
X39733857Y23778429D01*
X39806428Y23851000D01*
X39915285Y23887286D01*
X39987857Y23887286D01*
X40096714Y23851000D01*
X40133000Y23814715D01*
X40568428Y23560715D02*
X40495857Y23597000D01*
X40459571Y23633286D01*
X40423285Y23705858D01*
X40423285Y23742143D01*
X40459571Y23814715D01*
X40495857Y23851000D01*
X40568428Y23887286D01*
X40713571Y23887286D01*
X40786142Y23851000D01*
X40822428Y23814715D01*
X40858714Y23742143D01*
X40858714Y23705858D01*
X40822428Y23633286D01*
X40786142Y23597000D01*
X40713571Y23560715D01*
X40568428Y23560715D01*
X40495857Y23524429D01*
X40459571Y23488143D01*
X40423285Y23415572D01*
X40423285Y23270429D01*
X40459571Y23197858D01*
X40495857Y23161572D01*
X40568428Y23125286D01*
X40713571Y23125286D01*
X40786142Y23161572D01*
X40822428Y23197858D01*
X40858714Y23270429D01*
X40858714Y23415572D01*
X40822428Y23488143D01*
X40786142Y23524429D01*
X40713571Y23560715D01*
X41037571Y32805286D02*
X41037571Y33567286D01*
X41219000Y33567286D01*
X41327857Y33531000D01*
X41400428Y33458429D01*
X41436714Y33385858D01*
X41473000Y33240715D01*
X41473000Y33131858D01*
X41436714Y32986715D01*
X41400428Y32914143D01*
X41327857Y32841572D01*
X41219000Y32805286D01*
X41037571Y32805286D01*
X42198714Y32805286D02*
X41763285Y32805286D01*
X41981000Y32805286D02*
X41981000Y33567286D01*
X41908428Y33458429D01*
X41835857Y33385858D01*
X41763285Y33349572D01*
X44821000Y38254429D02*
X44567000Y38254429D01*
X44567000Y37855286D02*
X44567000Y38617286D01*
X44929857Y38617286D01*
X45220142Y38254429D02*
X45474142Y38254429D01*
X45583000Y37855286D02*
X45220142Y37855286D01*
X45220142Y38617286D01*
X45583000Y38617286D01*
X45800714Y38617286D02*
X46236142Y38617286D01*
X46018428Y37855286D02*
X46018428Y38617286D01*
X46453857Y38544715D02*
X46490142Y38581000D01*
X46562714Y38617286D01*
X46744142Y38617286D01*
X46816714Y38581000D01*
X46853000Y38544715D01*
X46889285Y38472143D01*
X46889285Y38399572D01*
X46853000Y38290715D01*
X46417571Y37855286D01*
X46889285Y37855286D01*
D11*
X39723238Y28783620D02*
X39626476Y28832000D01*
X39529714Y28928762D01*
X39384571Y29073905D01*
X39287809Y29122286D01*
X39191047Y29122286D01*
X39239428Y28880381D02*
X39142666Y28928762D01*
X39045904Y29025524D01*
X38997523Y29219048D01*
X38997523Y29557715D01*
X39045904Y29751239D01*
X39142666Y29848000D01*
X39239428Y29896381D01*
X39432952Y29896381D01*
X39529714Y29848000D01*
X39626476Y29751239D01*
X39674857Y29557715D01*
X39674857Y29219048D01*
X39626476Y29025524D01*
X39529714Y28928762D01*
X39432952Y28880381D01*
X39239428Y28880381D01*
X40642476Y28880381D02*
X40061904Y28880381D01*
X40352190Y28880381D02*
X40352190Y29896381D01*
X40255428Y29751239D01*
X40158666Y29654477D01*
X40061904Y29606096D01*
X21870238Y25476620D02*
X21773476Y25525000D01*
X21676714Y25621762D01*
X21531571Y25766905D01*
X21434809Y25815286D01*
X21338047Y25815286D01*
X21386428Y25573381D02*
X21289666Y25621762D01*
X21192904Y25718524D01*
X21144523Y25912048D01*
X21144523Y26250715D01*
X21192904Y26444239D01*
X21289666Y26541000D01*
X21386428Y26589381D01*
X21579952Y26589381D01*
X21676714Y26541000D01*
X21773476Y26444239D01*
X21821857Y26250715D01*
X21821857Y25912048D01*
X21773476Y25718524D01*
X21676714Y25621762D01*
X21579952Y25573381D01*
X21386428Y25573381D01*
X22208904Y26492620D02*
X22257285Y26541000D01*
X22354047Y26589381D01*
X22595952Y26589381D01*
X22692714Y26541000D01*
X22741095Y26492620D01*
X22789476Y26395858D01*
X22789476Y26299096D01*
X22741095Y26153953D01*
X22160523Y25573381D01*
X22789476Y25573381D01*
D13*
X43700142Y36765286D02*
X43446142Y37128143D01*
X43264714Y36765286D02*
X43264714Y37527286D01*
X43555000Y37527286D01*
X43627571Y37491000D01*
X43663857Y37454715D01*
X43700142Y37382143D01*
X43700142Y37273286D01*
X43663857Y37200715D01*
X43627571Y37164429D01*
X43555000Y37128143D01*
X43264714Y37128143D01*
X44425857Y36765286D02*
X43990428Y36765286D01*
X44208142Y36765286D02*
X44208142Y37527286D01*
X44135571Y37418429D01*
X44063000Y37345858D01*
X43990428Y37309572D01*
X44716142Y37454715D02*
X44752428Y37491000D01*
X44825000Y37527286D01*
X45006428Y37527286D01*
X45079000Y37491000D01*
X45115285Y37454715D01*
X45151571Y37382143D01*
X45151571Y37309572D01*
X45115285Y37200715D01*
X44679857Y36765286D01*
X45151571Y36765286D01*
X24779142Y19495286D02*
X24525142Y19858143D01*
X24343714Y19495286D02*
X24343714Y20257286D01*
X24634000Y20257286D01*
X24706571Y20221000D01*
X24742857Y20184715D01*
X24779142Y20112143D01*
X24779142Y20003286D01*
X24742857Y19930715D01*
X24706571Y19894429D01*
X24634000Y19858143D01*
X24343714Y19858143D01*
X25504857Y19495286D02*
X25069428Y19495286D01*
X25287142Y19495286D02*
X25287142Y20257286D01*
X25214571Y20148429D01*
X25142000Y20075858D01*
X25069428Y20039572D01*
X26194285Y20257286D02*
X25831428Y20257286D01*
X25795142Y19894429D01*
X25831428Y19930715D01*
X25904000Y19967000D01*
X26085428Y19967000D01*
X26158000Y19930715D01*
X26194285Y19894429D01*
X26230571Y19821858D01*
X26230571Y19640429D01*
X26194285Y19567858D01*
X26158000Y19531572D01*
X26085428Y19495286D01*
X25904000Y19495286D01*
X25831428Y19531572D01*
X25795142Y19567858D01*
X14860142Y43105286D02*
X14606142Y43468143D01*
X14424714Y43105286D02*
X14424714Y43867286D01*
X14715000Y43867286D01*
X14787571Y43831000D01*
X14823857Y43794715D01*
X14860142Y43722143D01*
X14860142Y43613286D01*
X14823857Y43540715D01*
X14787571Y43504429D01*
X14715000Y43468143D01*
X14424714Y43468143D01*
X15549571Y43867286D02*
X15186714Y43867286D01*
X15150428Y43504429D01*
X15186714Y43540715D01*
X15259285Y43577000D01*
X15440714Y43577000D01*
X15513285Y43540715D01*
X15549571Y43504429D01*
X15585857Y43431858D01*
X15585857Y43250429D01*
X15549571Y43177858D01*
X15513285Y43141572D01*
X15440714Y43105286D01*
X15259285Y43105286D01*
X15186714Y43141572D01*
X15150428Y43177858D01*
X16311571Y43105286D02*
X15876142Y43105286D01*
X16093857Y43105286D02*
X16093857Y43867286D01*
X16021285Y43758429D01*
X15948714Y43685858D01*
X15876142Y43649572D01*
X9520142Y40675286D02*
X9266142Y41038143D01*
X9084714Y40675286D02*
X9084714Y41437286D01*
X9375000Y41437286D01*
X9447571Y41401000D01*
X9483857Y41364715D01*
X9520142Y41292143D01*
X9520142Y41183286D01*
X9483857Y41110715D01*
X9447571Y41074429D01*
X9375000Y41038143D01*
X9084714Y41038143D01*
X10209571Y41437286D02*
X9846714Y41437286D01*
X9810428Y41074429D01*
X9846714Y41110715D01*
X9919285Y41147000D01*
X10100714Y41147000D01*
X10173285Y41110715D01*
X10209571Y41074429D01*
X10245857Y41001858D01*
X10245857Y40820429D01*
X10209571Y40747858D01*
X10173285Y40711572D01*
X10100714Y40675286D01*
X9919285Y40675286D01*
X9846714Y40711572D01*
X9810428Y40747858D01*
X10536142Y41364715D02*
X10572428Y41401000D01*
X10645000Y41437286D01*
X10826428Y41437286D01*
X10899000Y41401000D01*
X10935285Y41364715D01*
X10971571Y41292143D01*
X10971571Y41219572D01*
X10935285Y41110715D01*
X10499857Y40675286D01*
X10971571Y40675286D01*
D11*
X33905904Y15976381D02*
X33905904Y15153905D01*
X33954285Y15057143D01*
X34002666Y15008762D01*
X34099428Y14960381D01*
X34292952Y14960381D01*
X34389714Y15008762D01*
X34438095Y15057143D01*
X34486476Y15153905D01*
X34486476Y15976381D01*
X34921904Y15879620D02*
X34970285Y15928000D01*
X35067047Y15976381D01*
X35308952Y15976381D01*
X35405714Y15928000D01*
X35454095Y15879620D01*
X35502476Y15782858D01*
X35502476Y15686096D01*
X35454095Y15540953D01*
X34873523Y14960381D01*
X35502476Y14960381D01*
D15*
X45652666Y72443620D02*
X45652666Y73443620D01*
X45986000Y72729334D01*
X46319333Y73443620D01*
X46319333Y72443620D01*
X46795523Y72443620D02*
X46795523Y73443620D01*
X46795523Y72967429D02*
X47366952Y72967429D01*
X47366952Y72443620D02*
X47366952Y73443620D01*
X48366952Y72443620D02*
X47795523Y72443620D01*
X48081238Y72443620D02*
X48081238Y73443620D01*
X47986000Y73300762D01*
X47890761Y73205524D01*
X47795523Y73157905D01*
D11*
X6255285Y13605143D02*
X6206904Y13556762D01*
X6061761Y13508381D01*
X5965000Y13508381D01*
X5819857Y13556762D01*
X5723095Y13653524D01*
X5674714Y13750286D01*
X5626333Y13943810D01*
X5626333Y14088953D01*
X5674714Y14282477D01*
X5723095Y14379239D01*
X5819857Y14476000D01*
X5965000Y14524381D01*
X6061761Y14524381D01*
X6206904Y14476000D01*
X6255285Y14427620D01*
X6884238Y14524381D02*
X7077761Y14524381D01*
X7174523Y14476000D01*
X7271285Y14379239D01*
X7319666Y14185715D01*
X7319666Y13847048D01*
X7271285Y13653524D01*
X7174523Y13556762D01*
X7077761Y13508381D01*
X6884238Y13508381D01*
X6787476Y13556762D01*
X6690714Y13653524D01*
X6642333Y13847048D01*
X6642333Y14185715D01*
X6690714Y14379239D01*
X6787476Y14476000D01*
X6884238Y14524381D01*
X7755095Y13508381D02*
X7755095Y14524381D01*
X8335666Y13508381D01*
X8335666Y14524381D01*
X9351666Y13508381D02*
X8771095Y13508381D01*
X9061380Y13508381D02*
X9061380Y14524381D01*
X8964619Y14379239D01*
X8867857Y14282477D01*
X8771095Y14234096D01*
D13*
X47947285Y58555286D02*
X47584428Y58555286D01*
X47584428Y59317286D01*
X48201285Y58954429D02*
X48455285Y58954429D01*
X48564142Y58555286D02*
X48201285Y58555286D01*
X48201285Y59317286D01*
X48564142Y59317286D01*
X48890714Y58555286D02*
X48890714Y59317286D01*
X49072142Y59317286D01*
X49181000Y59281000D01*
X49253571Y59208429D01*
X49289857Y59135858D01*
X49326142Y58990715D01*
X49326142Y58881858D01*
X49289857Y58736715D01*
X49253571Y58664143D01*
X49181000Y58591572D01*
X49072142Y58555286D01*
X48890714Y58555286D01*
X50051857Y58555286D02*
X49616428Y58555286D01*
X49834142Y58555286D02*
X49834142Y59317286D01*
X49761571Y59208429D01*
X49689000Y59135858D01*
X49616428Y59099572D01*
X47870142Y56775286D02*
X47616142Y57138143D01*
X47434714Y56775286D02*
X47434714Y57537286D01*
X47725000Y57537286D01*
X47797571Y57501000D01*
X47833857Y57464715D01*
X47870142Y57392143D01*
X47870142Y57283286D01*
X47833857Y57210715D01*
X47797571Y57174429D01*
X47725000Y57138143D01*
X47434714Y57138143D01*
X48160428Y57464715D02*
X48196714Y57501000D01*
X48269285Y57537286D01*
X48450714Y57537286D01*
X48523285Y57501000D01*
X48559571Y57464715D01*
X48595857Y57392143D01*
X48595857Y57319572D01*
X48559571Y57210715D01*
X48124142Y56775286D01*
X48595857Y56775286D01*
X49031285Y57210715D02*
X48958714Y57247000D01*
X48922428Y57283286D01*
X48886142Y57355858D01*
X48886142Y57392143D01*
X48922428Y57464715D01*
X48958714Y57501000D01*
X49031285Y57537286D01*
X49176428Y57537286D01*
X49249000Y57501000D01*
X49285285Y57464715D01*
X49321571Y57392143D01*
X49321571Y57355858D01*
X49285285Y57283286D01*
X49249000Y57247000D01*
X49176428Y57210715D01*
X49031285Y57210715D01*
X48958714Y57174429D01*
X48922428Y57138143D01*
X48886142Y57065572D01*
X48886142Y56920429D01*
X48922428Y56847858D01*
X48958714Y56811572D01*
X49031285Y56775286D01*
X49176428Y56775286D01*
X49249000Y56811572D01*
X49285285Y56847858D01*
X49321571Y56920429D01*
X49321571Y57065572D01*
X49285285Y57138143D01*
X49249000Y57174429D01*
X49176428Y57210715D01*
X13580142Y19595286D02*
X13326142Y19958143D01*
X13144714Y19595286D02*
X13144714Y20357286D01*
X13435000Y20357286D01*
X13507571Y20321000D01*
X13543857Y20284715D01*
X13580142Y20212143D01*
X13580142Y20103286D01*
X13543857Y20030715D01*
X13507571Y19994429D01*
X13435000Y19958143D01*
X13144714Y19958143D01*
X13870428Y20284715D02*
X13906714Y20321000D01*
X13979285Y20357286D01*
X14160714Y20357286D01*
X14233285Y20321000D01*
X14269571Y20284715D01*
X14305857Y20212143D01*
X14305857Y20139572D01*
X14269571Y20030715D01*
X13834142Y19595286D01*
X14305857Y19595286D01*
X14777571Y20357286D02*
X14850142Y20357286D01*
X14922714Y20321000D01*
X14959000Y20284715D01*
X14995285Y20212143D01*
X15031571Y20067000D01*
X15031571Y19885572D01*
X14995285Y19740429D01*
X14959000Y19667858D01*
X14922714Y19631572D01*
X14850142Y19595286D01*
X14777571Y19595286D01*
X14705000Y19631572D01*
X14668714Y19667858D01*
X14632428Y19740429D01*
X14596142Y19885572D01*
X14596142Y20067000D01*
X14632428Y20212143D01*
X14668714Y20284715D01*
X14705000Y20321000D01*
X14777571Y20357286D01*
X16390142Y35995286D02*
X16136142Y36358143D01*
X15954714Y35995286D02*
X15954714Y36757286D01*
X16245000Y36757286D01*
X16317571Y36721000D01*
X16353857Y36684715D01*
X16390142Y36612143D01*
X16390142Y36503286D01*
X16353857Y36430715D01*
X16317571Y36394429D01*
X16245000Y36358143D01*
X15954714Y36358143D01*
X16680428Y36684715D02*
X16716714Y36721000D01*
X16789285Y36757286D01*
X16970714Y36757286D01*
X17043285Y36721000D01*
X17079571Y36684715D01*
X17115857Y36612143D01*
X17115857Y36539572D01*
X17079571Y36430715D01*
X16644142Y35995286D01*
X17115857Y35995286D01*
X17406142Y36684715D02*
X17442428Y36721000D01*
X17515000Y36757286D01*
X17696428Y36757286D01*
X17769000Y36721000D01*
X17805285Y36684715D01*
X17841571Y36612143D01*
X17841571Y36539572D01*
X17805285Y36430715D01*
X17369857Y35995286D01*
X17841571Y35995286D01*
X41470571Y29498286D02*
X41470571Y30260286D01*
X41652000Y30260286D01*
X41760857Y30224000D01*
X41833428Y30151429D01*
X41869714Y30078858D01*
X41906000Y29933715D01*
X41906000Y29824858D01*
X41869714Y29679715D01*
X41833428Y29607143D01*
X41760857Y29534572D01*
X41652000Y29498286D01*
X41470571Y29498286D01*
X42196285Y30187715D02*
X42232571Y30224000D01*
X42305142Y30260286D01*
X42486571Y30260286D01*
X42559142Y30224000D01*
X42595428Y30187715D01*
X42631714Y30115143D01*
X42631714Y30042572D01*
X42595428Y29933715D01*
X42160000Y29498286D01*
X42631714Y29498286D01*
X22293571Y35431000D02*
X22293571Y35177000D01*
X22692714Y35177000D02*
X21930714Y35177000D01*
X21930714Y35539858D01*
X22293571Y35830143D02*
X22293571Y36084143D01*
X22692714Y36193000D02*
X22692714Y35830143D01*
X21930714Y35830143D01*
X21930714Y36193000D01*
X21930714Y36410715D02*
X21930714Y36846143D01*
X22692714Y36628429D02*
X21930714Y36628429D01*
X22692714Y37499286D02*
X22692714Y37063858D01*
X22692714Y37281572D02*
X21930714Y37281572D01*
X22039571Y37209000D01*
X22112142Y37136429D01*
X22148428Y37063858D01*
X20103000Y43115286D02*
X19849000Y43478143D01*
X19667571Y43115286D02*
X19667571Y43877286D01*
X19957857Y43877286D01*
X20030428Y43841000D01*
X20066714Y43804715D01*
X20103000Y43732143D01*
X20103000Y43623286D01*
X20066714Y43550715D01*
X20030428Y43514429D01*
X19957857Y43478143D01*
X19667571Y43478143D01*
X20828714Y43115286D02*
X20393285Y43115286D01*
X20611000Y43115286D02*
X20611000Y43877286D01*
X20538428Y43768429D01*
X20465857Y43695858D01*
X20393285Y43659572D01*
X13948000Y37655286D02*
X13585142Y37655286D01*
X13585142Y38417286D01*
X14601142Y37655286D02*
X14165714Y37655286D01*
X14383428Y37655286D02*
X14383428Y38417286D01*
X14310857Y38308429D01*
X14238285Y38235858D01*
X14165714Y38199572D01*
X22353000Y38415286D02*
X22099000Y38778143D01*
X21917571Y38415286D02*
X21917571Y39177286D01*
X22207857Y39177286D01*
X22280428Y39141000D01*
X22316714Y39104715D01*
X22353000Y39032143D01*
X22353000Y38923286D01*
X22316714Y38850715D01*
X22280428Y38814429D01*
X22207857Y38778143D01*
X21917571Y38778143D01*
X22643285Y39104715D02*
X22679571Y39141000D01*
X22752142Y39177286D01*
X22933571Y39177286D01*
X23006142Y39141000D01*
X23042428Y39104715D01*
X23078714Y39032143D01*
X23078714Y38959572D01*
X23042428Y38850715D01*
X22607000Y38415286D01*
X23078714Y38415286D01*
X15544428Y45119286D02*
X15979857Y45119286D01*
X15762142Y44357286D02*
X15762142Y45119286D01*
X16633000Y44357286D02*
X16197571Y44357286D01*
X16415285Y44357286D02*
X16415285Y45119286D01*
X16342714Y45010429D01*
X16270142Y44937858D01*
X16197571Y44901572D01*
X17993000Y41027858D02*
X17956714Y40991572D01*
X17847857Y40955286D01*
X17775285Y40955286D01*
X17666428Y40991572D01*
X17593857Y41064143D01*
X17557571Y41136715D01*
X17521285Y41281858D01*
X17521285Y41390715D01*
X17557571Y41535858D01*
X17593857Y41608429D01*
X17666428Y41681000D01*
X17775285Y41717286D01*
X17847857Y41717286D01*
X17956714Y41681000D01*
X17993000Y41644715D01*
X18283285Y41644715D02*
X18319571Y41681000D01*
X18392142Y41717286D01*
X18573571Y41717286D01*
X18646142Y41681000D01*
X18682428Y41644715D01*
X18718714Y41572143D01*
X18718714Y41499572D01*
X18682428Y41390715D01*
X18247000Y40955286D01*
X18718714Y40955286D01*
X5080142Y20855286D02*
X4826142Y21218143D01*
X4644714Y20855286D02*
X4644714Y21617286D01*
X4935000Y21617286D01*
X5007571Y21581000D01*
X5043857Y21544715D01*
X5080142Y21472143D01*
X5080142Y21363286D01*
X5043857Y21290715D01*
X5007571Y21254429D01*
X4935000Y21218143D01*
X4644714Y21218143D01*
X5334142Y21617286D02*
X5805857Y21617286D01*
X5551857Y21327000D01*
X5660714Y21327000D01*
X5733285Y21290715D01*
X5769571Y21254429D01*
X5805857Y21181858D01*
X5805857Y21000429D01*
X5769571Y20927858D01*
X5733285Y20891572D01*
X5660714Y20855286D01*
X5443000Y20855286D01*
X5370428Y20891572D01*
X5334142Y20927858D01*
X6495285Y21617286D02*
X6132428Y21617286D01*
X6096142Y21254429D01*
X6132428Y21290715D01*
X6205000Y21327000D01*
X6386428Y21327000D01*
X6459000Y21290715D01*
X6495285Y21254429D01*
X6531571Y21181858D01*
X6531571Y21000429D01*
X6495285Y20927858D01*
X6459000Y20891572D01*
X6386428Y20855286D01*
X6205000Y20855286D01*
X6132428Y20891572D01*
X6096142Y20927858D01*
X13700142Y33305286D02*
X13446142Y33668143D01*
X13264714Y33305286D02*
X13264714Y34067286D01*
X13555000Y34067286D01*
X13627571Y34031000D01*
X13663857Y33994715D01*
X13700142Y33922143D01*
X13700142Y33813286D01*
X13663857Y33740715D01*
X13627571Y33704429D01*
X13555000Y33668143D01*
X13264714Y33668143D01*
X13990428Y33994715D02*
X14026714Y34031000D01*
X14099285Y34067286D01*
X14280714Y34067286D01*
X14353285Y34031000D01*
X14389571Y33994715D01*
X14425857Y33922143D01*
X14425857Y33849572D01*
X14389571Y33740715D01*
X13954142Y33305286D01*
X14425857Y33305286D01*
X14679857Y34067286D02*
X15151571Y34067286D01*
X14897571Y33777000D01*
X15006428Y33777000D01*
X15079000Y33740715D01*
X15115285Y33704429D01*
X15151571Y33631858D01*
X15151571Y33450429D01*
X15115285Y33377858D01*
X15079000Y33341572D01*
X15006428Y33305286D01*
X14788714Y33305286D01*
X14716142Y33341572D01*
X14679857Y33377858D01*
X15027571Y41865286D02*
X15027571Y42627286D01*
X15209000Y42627286D01*
X15317857Y42591000D01*
X15390428Y42518429D01*
X15426714Y42445858D01*
X15463000Y42300715D01*
X15463000Y42191858D01*
X15426714Y42046715D01*
X15390428Y41974143D01*
X15317857Y41901572D01*
X15209000Y41865286D01*
X15027571Y41865286D01*
X16152428Y42627286D02*
X15789571Y42627286D01*
X15753285Y42264429D01*
X15789571Y42300715D01*
X15862142Y42337000D01*
X16043571Y42337000D01*
X16116142Y42300715D01*
X16152428Y42264429D01*
X16188714Y42191858D01*
X16188714Y42010429D01*
X16152428Y41937858D01*
X16116142Y41901572D01*
X16043571Y41865286D01*
X15862142Y41865286D01*
X15789571Y41901572D01*
X15753285Y41937858D01*
X37287571Y13495286D02*
X37287571Y14257286D01*
X37469000Y14257286D01*
X37577857Y14221000D01*
X37650428Y14148429D01*
X37686714Y14075858D01*
X37723000Y13930715D01*
X37723000Y13821858D01*
X37686714Y13676715D01*
X37650428Y13604143D01*
X37577857Y13531572D01*
X37469000Y13495286D01*
X37287571Y13495286D01*
X38376142Y14003286D02*
X38376142Y13495286D01*
X38194714Y14293572D02*
X38013285Y13749286D01*
X38485000Y13749286D01*
X39312571Y13496286D02*
X39312571Y14258286D01*
X39494000Y14258286D01*
X39602857Y14222000D01*
X39675428Y14149429D01*
X39711714Y14076858D01*
X39748000Y13931715D01*
X39748000Y13822858D01*
X39711714Y13677715D01*
X39675428Y13605143D01*
X39602857Y13532572D01*
X39494000Y13496286D01*
X39312571Y13496286D01*
X40002000Y14258286D02*
X40473714Y14258286D01*
X40219714Y13968000D01*
X40328571Y13968000D01*
X40401142Y13931715D01*
X40437428Y13895429D01*
X40473714Y13822858D01*
X40473714Y13641429D01*
X40437428Y13568858D01*
X40401142Y13532572D01*
X40328571Y13496286D01*
X40110857Y13496286D01*
X40038285Y13532572D01*
X40002000Y13568858D01*
D15*
X46753571Y61021429D02*
X46420238Y61021429D01*
X46420238Y60497620D02*
X46420238Y61497620D01*
X46896428Y61497620D01*
X47277380Y60497620D02*
X47277380Y61497620D01*
X47753571Y60497620D02*
X47753571Y61497620D01*
X47991666Y61497620D01*
X48134523Y61450000D01*
X48229761Y61354762D01*
X48277380Y61259524D01*
X48325000Y61069048D01*
X48325000Y60926191D01*
X48277380Y60735715D01*
X48229761Y60640477D01*
X48134523Y60545239D01*
X47991666Y60497620D01*
X47753571Y60497620D01*
X48658333Y61497620D02*
X49277380Y61497620D01*
X48944047Y61116667D01*
X49086904Y61116667D01*
X49182142Y61069048D01*
X49229761Y61021429D01*
X49277380Y60926191D01*
X49277380Y60688096D01*
X49229761Y60592858D01*
X49182142Y60545239D01*
X49086904Y60497620D01*
X48801190Y60497620D01*
X48705952Y60545239D01*
X48658333Y60592858D01*
D13*
X34344714Y47693000D02*
X33981857Y47439000D01*
X34344714Y47257572D02*
X33582714Y47257572D01*
X33582714Y47547858D01*
X33619000Y47620429D01*
X33655285Y47656715D01*
X33727857Y47693000D01*
X33836714Y47693000D01*
X33909285Y47656715D01*
X33945571Y47620429D01*
X33981857Y47547858D01*
X33981857Y47257572D01*
X33582714Y47947000D02*
X33582714Y48418715D01*
X33873000Y48164715D01*
X33873000Y48273572D01*
X33909285Y48346143D01*
X33945571Y48382429D01*
X34018142Y48418715D01*
X34199571Y48418715D01*
X34272142Y48382429D01*
X34308428Y48346143D01*
X34344714Y48273572D01*
X34344714Y48055858D01*
X34308428Y47983286D01*
X34272142Y47947000D01*
X15440142Y30245286D02*
X15186142Y30608143D01*
X15004714Y30245286D02*
X15004714Y31007286D01*
X15295000Y31007286D01*
X15367571Y30971000D01*
X15403857Y30934715D01*
X15440142Y30862143D01*
X15440142Y30753286D01*
X15403857Y30680715D01*
X15367571Y30644429D01*
X15295000Y30608143D01*
X15004714Y30608143D01*
X15694142Y31007286D02*
X16165857Y31007286D01*
X15911857Y30717000D01*
X16020714Y30717000D01*
X16093285Y30680715D01*
X16129571Y30644429D01*
X16165857Y30571858D01*
X16165857Y30390429D01*
X16129571Y30317858D01*
X16093285Y30281572D01*
X16020714Y30245286D01*
X15803000Y30245286D01*
X15730428Y30281572D01*
X15694142Y30317858D01*
X16819000Y30753286D02*
X16819000Y30245286D01*
X16637571Y31043572D02*
X16456142Y30499286D01*
X16927857Y30499286D01*
X13590142Y21325286D02*
X13336142Y21688143D01*
X13154714Y21325286D02*
X13154714Y22087286D01*
X13445000Y22087286D01*
X13517571Y22051000D01*
X13553857Y22014715D01*
X13590142Y21942143D01*
X13590142Y21833286D01*
X13553857Y21760715D01*
X13517571Y21724429D01*
X13445000Y21688143D01*
X13154714Y21688143D01*
X13844142Y22087286D02*
X14315857Y22087286D01*
X14061857Y21797000D01*
X14170714Y21797000D01*
X14243285Y21760715D01*
X14279571Y21724429D01*
X14315857Y21651858D01*
X14315857Y21470429D01*
X14279571Y21397858D01*
X14243285Y21361572D01*
X14170714Y21325286D01*
X13953000Y21325286D01*
X13880428Y21361572D01*
X13844142Y21397858D01*
X14569857Y22087286D02*
X15041571Y22087286D01*
X14787571Y21797000D01*
X14896428Y21797000D01*
X14969000Y21760715D01*
X15005285Y21724429D01*
X15041571Y21651858D01*
X15041571Y21470429D01*
X15005285Y21397858D01*
X14969000Y21361572D01*
X14896428Y21325286D01*
X14678714Y21325286D01*
X14606142Y21361572D01*
X14569857Y21397858D01*
X8510142Y18345286D02*
X8256142Y18708143D01*
X8074714Y18345286D02*
X8074714Y19107286D01*
X8365000Y19107286D01*
X8437571Y19071000D01*
X8473857Y19034715D01*
X8510142Y18962143D01*
X8510142Y18853286D01*
X8473857Y18780715D01*
X8437571Y18744429D01*
X8365000Y18708143D01*
X8074714Y18708143D01*
X8800428Y19034715D02*
X8836714Y19071000D01*
X8909285Y19107286D01*
X9090714Y19107286D01*
X9163285Y19071000D01*
X9199571Y19034715D01*
X9235857Y18962143D01*
X9235857Y18889572D01*
X9199571Y18780715D01*
X8764142Y18345286D01*
X9235857Y18345286D01*
X9889000Y18853286D02*
X9889000Y18345286D01*
X9707571Y19143572D02*
X9526142Y18599286D01*
X9997857Y18599286D01*
X16252142Y21150143D02*
X16288428Y21113858D01*
X16324714Y21005000D01*
X16324714Y20932429D01*
X16288428Y20823572D01*
X16215857Y20751000D01*
X16143285Y20714715D01*
X15998142Y20678429D01*
X15889285Y20678429D01*
X15744142Y20714715D01*
X15671571Y20751000D01*
X15599000Y20823572D01*
X15562714Y20932429D01*
X15562714Y21005000D01*
X15599000Y21113858D01*
X15635285Y21150143D01*
X15635285Y21440429D02*
X15599000Y21476715D01*
X15562714Y21549286D01*
X15562714Y21730715D01*
X15599000Y21803286D01*
X15635285Y21839572D01*
X15707857Y21875858D01*
X15780428Y21875858D01*
X15889285Y21839572D01*
X16324714Y21404143D01*
X16324714Y21875858D01*
X15635285Y22166143D02*
X15599000Y22202429D01*
X15562714Y22275000D01*
X15562714Y22456429D01*
X15599000Y22529000D01*
X15635285Y22565286D01*
X15707857Y22601572D01*
X15780428Y22601572D01*
X15889285Y22565286D01*
X16324714Y22129858D01*
X16324714Y22601572D01*
X13830142Y23025286D02*
X13576142Y23388143D01*
X13394714Y23025286D02*
X13394714Y23787286D01*
X13685000Y23787286D01*
X13757571Y23751000D01*
X13793857Y23714715D01*
X13830142Y23642143D01*
X13830142Y23533286D01*
X13793857Y23460715D01*
X13757571Y23424429D01*
X13685000Y23388143D01*
X13394714Y23388143D01*
X14120428Y23714715D02*
X14156714Y23751000D01*
X14229285Y23787286D01*
X14410714Y23787286D01*
X14483285Y23751000D01*
X14519571Y23714715D01*
X14555857Y23642143D01*
X14555857Y23569572D01*
X14519571Y23460715D01*
X14084142Y23025286D01*
X14555857Y23025286D01*
X15281571Y23025286D02*
X14846142Y23025286D01*
X15063857Y23025286D02*
X15063857Y23787286D01*
X14991285Y23678429D01*
X14918714Y23605858D01*
X14846142Y23569572D01*
X19602428Y18482715D02*
X19529857Y18519000D01*
X19457285Y18591572D01*
X19348428Y18700429D01*
X19275857Y18736715D01*
X19203285Y18736715D01*
X19239571Y18555286D02*
X19167000Y18591572D01*
X19094428Y18664143D01*
X19058142Y18809286D01*
X19058142Y19063286D01*
X19094428Y19208429D01*
X19167000Y19281000D01*
X19239571Y19317286D01*
X19384714Y19317286D01*
X19457285Y19281000D01*
X19529857Y19208429D01*
X19566142Y19063286D01*
X19566142Y18809286D01*
X19529857Y18664143D01*
X19457285Y18591572D01*
X19384714Y18555286D01*
X19239571Y18555286D01*
X19820142Y19317286D02*
X20291857Y19317286D01*
X20037857Y19027000D01*
X20146714Y19027000D01*
X20219285Y18990715D01*
X20255571Y18954429D01*
X20291857Y18881858D01*
X20291857Y18700429D01*
X20255571Y18627858D01*
X20219285Y18591572D01*
X20146714Y18555286D01*
X19929000Y18555286D01*
X19856428Y18591572D01*
X19820142Y18627858D01*
X17159142Y18449286D02*
X16905142Y18812143D01*
X16723714Y18449286D02*
X16723714Y19211286D01*
X17014000Y19211286D01*
X17086571Y19175000D01*
X17122857Y19138715D01*
X17159142Y19066143D01*
X17159142Y18957286D01*
X17122857Y18884715D01*
X17086571Y18848429D01*
X17014000Y18812143D01*
X16723714Y18812143D01*
X17884857Y18449286D02*
X17449428Y18449286D01*
X17667142Y18449286D02*
X17667142Y19211286D01*
X17594571Y19102429D01*
X17522000Y19029858D01*
X17449428Y18993572D01*
X18538000Y19211286D02*
X18392857Y19211286D01*
X18320285Y19175000D01*
X18284000Y19138715D01*
X18211428Y19029858D01*
X18175142Y18884715D01*
X18175142Y18594429D01*
X18211428Y18521858D01*
X18247714Y18485572D01*
X18320285Y18449286D01*
X18465428Y18449286D01*
X18538000Y18485572D01*
X18574285Y18521858D01*
X18610571Y18594429D01*
X18610571Y18775858D01*
X18574285Y18848429D01*
X18538000Y18884715D01*
X18465428Y18921000D01*
X18320285Y18921000D01*
X18247714Y18884715D01*
X18211428Y18848429D01*
X18175142Y18775858D01*
X9520142Y38895286D02*
X9266142Y39258143D01*
X9084714Y38895286D02*
X9084714Y39657286D01*
X9375000Y39657286D01*
X9447571Y39621000D01*
X9483857Y39584715D01*
X9520142Y39512143D01*
X9520142Y39403286D01*
X9483857Y39330715D01*
X9447571Y39294429D01*
X9375000Y39258143D01*
X9084714Y39258143D01*
X10245857Y38895286D02*
X9810428Y38895286D01*
X10028142Y38895286D02*
X10028142Y39657286D01*
X9955571Y39548429D01*
X9883000Y39475858D01*
X9810428Y39439572D01*
X10608714Y38895286D02*
X10753857Y38895286D01*
X10826428Y38931572D01*
X10862714Y38967858D01*
X10935285Y39076715D01*
X10971571Y39221858D01*
X10971571Y39512143D01*
X10935285Y39584715D01*
X10899000Y39621000D01*
X10826428Y39657286D01*
X10681285Y39657286D01*
X10608714Y39621000D01*
X10572428Y39584715D01*
X10536142Y39512143D01*
X10536142Y39330715D01*
X10572428Y39258143D01*
X10608714Y39221858D01*
X10681285Y39185572D01*
X10826428Y39185572D01*
X10899000Y39221858D01*
X10935285Y39258143D01*
X10971571Y39330715D01*
X9510142Y35275286D02*
X9256142Y35638143D01*
X9074714Y35275286D02*
X9074714Y36037286D01*
X9365000Y36037286D01*
X9437571Y36001000D01*
X9473857Y35964715D01*
X9510142Y35892143D01*
X9510142Y35783286D01*
X9473857Y35710715D01*
X9437571Y35674429D01*
X9365000Y35638143D01*
X9074714Y35638143D01*
X10163285Y35783286D02*
X10163285Y35275286D01*
X9981857Y36073572D02*
X9800428Y35529286D01*
X10272142Y35529286D01*
X10961571Y35275286D02*
X10526142Y35275286D01*
X10743857Y35275286D02*
X10743857Y36037286D01*
X10671285Y35928429D01*
X10598714Y35855858D01*
X10526142Y35819572D01*
X25860142Y9495286D02*
X25606142Y9858143D01*
X25424714Y9495286D02*
X25424714Y10257286D01*
X25715000Y10257286D01*
X25787571Y10221000D01*
X25823857Y10184715D01*
X25860142Y10112143D01*
X25860142Y10003286D01*
X25823857Y9930715D01*
X25787571Y9894429D01*
X25715000Y9858143D01*
X25424714Y9858143D01*
X26513285Y10003286D02*
X26513285Y9495286D01*
X26331857Y10293572D02*
X26150428Y9749286D01*
X26622142Y9749286D01*
X26839857Y10257286D02*
X27311571Y10257286D01*
X27057571Y9967000D01*
X27166428Y9967000D01*
X27239000Y9930715D01*
X27275285Y9894429D01*
X27311571Y9821858D01*
X27311571Y9640429D01*
X27275285Y9567858D01*
X27239000Y9531572D01*
X27166428Y9495286D01*
X26948714Y9495286D01*
X26876142Y9531572D01*
X26839857Y9567858D01*
X38130142Y9627858D02*
X38093857Y9591572D01*
X37985000Y9555286D01*
X37912428Y9555286D01*
X37803571Y9591572D01*
X37731000Y9664143D01*
X37694714Y9736715D01*
X37658428Y9881858D01*
X37658428Y9990715D01*
X37694714Y10135858D01*
X37731000Y10208429D01*
X37803571Y10281000D01*
X37912428Y10317286D01*
X37985000Y10317286D01*
X38093857Y10281000D01*
X38130142Y10244715D01*
X38420428Y10244715D02*
X38456714Y10281000D01*
X38529285Y10317286D01*
X38710714Y10317286D01*
X38783285Y10281000D01*
X38819571Y10244715D01*
X38855857Y10172143D01*
X38855857Y10099572D01*
X38819571Y9990715D01*
X38384142Y9555286D01*
X38855857Y9555286D01*
X39109857Y10317286D02*
X39581571Y10317286D01*
X39327571Y10027000D01*
X39436428Y10027000D01*
X39509000Y9990715D01*
X39545285Y9954429D01*
X39581571Y9881858D01*
X39581571Y9700429D01*
X39545285Y9627858D01*
X39509000Y9591572D01*
X39436428Y9555286D01*
X39218714Y9555286D01*
X39146142Y9591572D01*
X39109857Y9627858D01*
X17440142Y8487858D02*
X17403857Y8451572D01*
X17295000Y8415286D01*
X17222428Y8415286D01*
X17113571Y8451572D01*
X17041000Y8524143D01*
X17004714Y8596715D01*
X16968428Y8741858D01*
X16968428Y8850715D01*
X17004714Y8995858D01*
X17041000Y9068429D01*
X17113571Y9141000D01*
X17222428Y9177286D01*
X17295000Y9177286D01*
X17403857Y9141000D01*
X17440142Y9104715D01*
X17730428Y9104715D02*
X17766714Y9141000D01*
X17839285Y9177286D01*
X18020714Y9177286D01*
X18093285Y9141000D01*
X18129571Y9104715D01*
X18165857Y9032143D01*
X18165857Y8959572D01*
X18129571Y8850715D01*
X17694142Y8415286D01*
X18165857Y8415286D01*
X18819000Y9177286D02*
X18673857Y9177286D01*
X18601285Y9141000D01*
X18565000Y9104715D01*
X18492428Y8995858D01*
X18456142Y8850715D01*
X18456142Y8560429D01*
X18492428Y8487858D01*
X18528714Y8451572D01*
X18601285Y8415286D01*
X18746428Y8415286D01*
X18819000Y8451572D01*
X18855285Y8487858D01*
X18891571Y8560429D01*
X18891571Y8741858D01*
X18855285Y8814429D01*
X18819000Y8850715D01*
X18746428Y8887000D01*
X18601285Y8887000D01*
X18528714Y8850715D01*
X18492428Y8814429D01*
X18456142Y8741858D01*
X65336702Y8582858D02*
X65300417Y8546572D01*
X65191560Y8510286D01*
X65118988Y8510286D01*
X65010131Y8546572D01*
X64937560Y8619143D01*
X64901274Y8691715D01*
X64864988Y8836858D01*
X64864988Y8945715D01*
X64901274Y9090858D01*
X64937560Y9163429D01*
X65010131Y9236000D01*
X65118988Y9272286D01*
X65191560Y9272286D01*
X65300417Y9236000D01*
X65336702Y9199715D01*
X65590702Y9272286D02*
X66062417Y9272286D01*
X65808417Y8982000D01*
X65917274Y8982000D01*
X65989845Y8945715D01*
X66026131Y8909429D01*
X66062417Y8836858D01*
X66062417Y8655429D01*
X66026131Y8582858D01*
X65989845Y8546572D01*
X65917274Y8510286D01*
X65699560Y8510286D01*
X65626988Y8546572D01*
X65590702Y8582858D01*
X66352702Y9199715D02*
X66388988Y9236000D01*
X66461560Y9272286D01*
X66642988Y9272286D01*
X66715560Y9236000D01*
X66751845Y9199715D01*
X66788131Y9127143D01*
X66788131Y9054572D01*
X66751845Y8945715D01*
X66316417Y8510286D01*
X66788131Y8510286D01*
X45735142Y24349858D02*
X45698857Y24313572D01*
X45590000Y24277286D01*
X45517428Y24277286D01*
X45408571Y24313572D01*
X45336000Y24386143D01*
X45299714Y24458715D01*
X45263428Y24603858D01*
X45263428Y24712715D01*
X45299714Y24857858D01*
X45336000Y24930429D01*
X45408571Y25003000D01*
X45517428Y25039286D01*
X45590000Y25039286D01*
X45698857Y25003000D01*
X45735142Y24966715D01*
X46460857Y24277286D02*
X46025428Y24277286D01*
X46243142Y24277286D02*
X46243142Y25039286D01*
X46170571Y24930429D01*
X46098000Y24857858D01*
X46025428Y24821572D01*
X46823714Y24277286D02*
X46968857Y24277286D01*
X47041428Y24313572D01*
X47077714Y24349858D01*
X47150285Y24458715D01*
X47186571Y24603858D01*
X47186571Y24894143D01*
X47150285Y24966715D01*
X47114000Y25003000D01*
X47041428Y25039286D01*
X46896285Y25039286D01*
X46823714Y25003000D01*
X46787428Y24966715D01*
X46751142Y24894143D01*
X46751142Y24712715D01*
X46787428Y24640143D01*
X46823714Y24603858D01*
X46896285Y24567572D01*
X47041428Y24567572D01*
X47114000Y24603858D01*
X47150285Y24640143D01*
X47186571Y24712715D01*
X2270142Y9519466D02*
X2016142Y9882323D01*
X1834714Y9519466D02*
X1834714Y10281466D01*
X2125000Y10281466D01*
X2197571Y10245180D01*
X2233857Y10208895D01*
X2270142Y10136323D01*
X2270142Y10027466D01*
X2233857Y9954895D01*
X2197571Y9918609D01*
X2125000Y9882323D01*
X1834714Y9882323D01*
X2560428Y10208895D02*
X2596714Y10245180D01*
X2669285Y10281466D01*
X2850714Y10281466D01*
X2923285Y10245180D01*
X2959571Y10208895D01*
X2995857Y10136323D01*
X2995857Y10063752D01*
X2959571Y9954895D01*
X2524142Y9519466D01*
X2995857Y9519466D01*
X3358714Y9519466D02*
X3503857Y9519466D01*
X3576428Y9555752D01*
X3612714Y9592038D01*
X3685285Y9700895D01*
X3721571Y9846038D01*
X3721571Y10136323D01*
X3685285Y10208895D01*
X3649000Y10245180D01*
X3576428Y10281466D01*
X3431285Y10281466D01*
X3358714Y10245180D01*
X3322428Y10208895D01*
X3286142Y10136323D01*
X3286142Y9954895D01*
X3322428Y9882323D01*
X3358714Y9846038D01*
X3431285Y9809752D01*
X3576428Y9809752D01*
X3649000Y9846038D01*
X3685285Y9882323D01*
X3721571Y9954895D01*
D15*
D11*
X48742380Y23925477D02*
X48742380Y22897381D01*
X48802857Y22776429D01*
X48863333Y22715953D01*
X48984285Y22655477D01*
X49226190Y22655477D01*
X49347142Y22715953D01*
X49407619Y22776429D01*
X49468095Y22897381D01*
X49468095Y23925477D01*
X50738095Y22655477D02*
X50012380Y22655477D01*
X50375238Y22655477D02*
X50375238Y23925477D01*
X50254285Y23744048D01*
X50133333Y23623096D01*
X50012380Y23562620D01*
D13*
X1795142Y8587858D02*
X1758857Y8551572D01*
X1650000Y8515286D01*
X1577428Y8515286D01*
X1468571Y8551572D01*
X1396000Y8624143D01*
X1359714Y8696715D01*
X1323428Y8841858D01*
X1323428Y8950715D01*
X1359714Y9095858D01*
X1396000Y9168429D01*
X1468571Y9241000D01*
X1577428Y9277286D01*
X1650000Y9277286D01*
X1758857Y9241000D01*
X1795142Y9204715D01*
X2085428Y9204715D02*
X2121714Y9241000D01*
X2194285Y9277286D01*
X2375714Y9277286D01*
X2448285Y9241000D01*
X2484571Y9204715D01*
X2520857Y9132143D01*
X2520857Y9059572D01*
X2484571Y8950715D01*
X2049142Y8515286D01*
X2520857Y8515286D01*
X3210285Y9277286D02*
X2847428Y9277286D01*
X2811142Y8914429D01*
X2847428Y8950715D01*
X2920000Y8987000D01*
X3101428Y8987000D01*
X3174000Y8950715D01*
X3210285Y8914429D01*
X3246571Y8841858D01*
X3246571Y8660429D01*
X3210285Y8587858D01*
X3174000Y8551572D01*
X3101428Y8515286D01*
X2920000Y8515286D01*
X2847428Y8551572D01*
X2811142Y8587858D01*
X23399714Y7296972D02*
X23036857Y7042972D01*
X23399714Y6861544D02*
X22637714Y6861544D01*
X22637714Y7151829D01*
X22674000Y7224401D01*
X22710285Y7260687D01*
X22782857Y7296972D01*
X22891714Y7296972D01*
X22964285Y7260687D01*
X23000571Y7224401D01*
X23036857Y7151829D01*
X23036857Y6861544D01*
X22637714Y7550972D02*
X22637714Y8022687D01*
X22928000Y7768687D01*
X22928000Y7877544D01*
X22964285Y7950115D01*
X23000571Y7986401D01*
X23073142Y8022687D01*
X23254571Y8022687D01*
X23327142Y7986401D01*
X23363428Y7950115D01*
X23399714Y7877544D01*
X23399714Y7659829D01*
X23363428Y7587258D01*
X23327142Y7550972D01*
X22637714Y8276687D02*
X22637714Y8784687D01*
X23399714Y8458115D01*
X55130142Y9505286D02*
X54876142Y9868143D01*
X54694714Y9505286D02*
X54694714Y10267286D01*
X54985000Y10267286D01*
X55057571Y10231000D01*
X55093857Y10194715D01*
X55130142Y10122143D01*
X55130142Y10013286D01*
X55093857Y9940715D01*
X55057571Y9904429D01*
X54985000Y9868143D01*
X54694714Y9868143D01*
X55783285Y10013286D02*
X55783285Y9505286D01*
X55601857Y10303572D02*
X55420428Y9759286D01*
X55892142Y9759286D01*
X56218714Y9505286D02*
X56363857Y9505286D01*
X56436428Y9541572D01*
X56472714Y9577858D01*
X56545285Y9686715D01*
X56581571Y9831858D01*
X56581571Y10122143D01*
X56545285Y10194715D01*
X56509000Y10231000D01*
X56436428Y10267286D01*
X56291285Y10267286D01*
X56218714Y10231000D01*
X56182428Y10194715D01*
X56146142Y10122143D01*
X56146142Y9940715D01*
X56182428Y9868143D01*
X56218714Y9831858D01*
X56291285Y9795572D01*
X56436428Y9795572D01*
X56509000Y9831858D01*
X56545285Y9868143D01*
X56581571Y9940715D01*
D11*
X48742380Y21985477D02*
X48742380Y20957381D01*
X48802857Y20836429D01*
X48863333Y20775953D01*
X48984285Y20715477D01*
X49226190Y20715477D01*
X49347142Y20775953D01*
X49407619Y20836429D01*
X49468095Y20957381D01*
X49468095Y21985477D01*
X50617142Y21562143D02*
X50617142Y20715477D01*
X50314761Y22045953D02*
X50012380Y21138810D01*
X50798571Y21138810D01*
D13*
X50760142Y59765286D02*
X50506142Y60128143D01*
X50324714Y59765286D02*
X50324714Y60527286D01*
X50615000Y60527286D01*
X50687571Y60491000D01*
X50723857Y60454715D01*
X50760142Y60382143D01*
X50760142Y60273286D01*
X50723857Y60200715D01*
X50687571Y60164429D01*
X50615000Y60128143D01*
X50324714Y60128143D01*
X51449571Y60527286D02*
X51086714Y60527286D01*
X51050428Y60164429D01*
X51086714Y60200715D01*
X51159285Y60237000D01*
X51340714Y60237000D01*
X51413285Y60200715D01*
X51449571Y60164429D01*
X51485857Y60091858D01*
X51485857Y59910429D01*
X51449571Y59837858D01*
X51413285Y59801572D01*
X51340714Y59765286D01*
X51159285Y59765286D01*
X51086714Y59801572D01*
X51050428Y59837858D01*
X51739857Y60527286D02*
X52211571Y60527286D01*
X51957571Y60237000D01*
X52066428Y60237000D01*
X52139000Y60200715D01*
X52175285Y60164429D01*
X52211571Y60091858D01*
X52211571Y59910429D01*
X52175285Y59837858D01*
X52139000Y59801572D01*
X52066428Y59765286D01*
X51848714Y59765286D01*
X51776142Y59801572D01*
X51739857Y59837858D01*
X57465982Y8582970D02*
X57429697Y8546684D01*
X57320840Y8510398D01*
X57248268Y8510398D01*
X57139411Y8546684D01*
X57066840Y8619255D01*
X57030554Y8691827D01*
X56994268Y8836970D01*
X56994268Y8945827D01*
X57030554Y9090970D01*
X57066840Y9163541D01*
X57139411Y9236112D01*
X57248268Y9272398D01*
X57320840Y9272398D01*
X57429697Y9236112D01*
X57465982Y9199827D01*
X57756268Y9199827D02*
X57792554Y9236112D01*
X57865125Y9272398D01*
X58046554Y9272398D01*
X58119125Y9236112D01*
X58155411Y9199827D01*
X58191697Y9127255D01*
X58191697Y9054684D01*
X58155411Y8945827D01*
X57719982Y8510398D01*
X58191697Y8510398D01*
X58627125Y8945827D02*
X58554554Y8982112D01*
X58518268Y9018398D01*
X58481982Y9090970D01*
X58481982Y9127255D01*
X58518268Y9199827D01*
X58554554Y9236112D01*
X58627125Y9272398D01*
X58772268Y9272398D01*
X58844840Y9236112D01*
X58881125Y9199827D01*
X58917411Y9127255D01*
X58917411Y9090970D01*
X58881125Y9018398D01*
X58844840Y8982112D01*
X58772268Y8945827D01*
X58627125Y8945827D01*
X58554554Y8909541D01*
X58518268Y8873255D01*
X58481982Y8800684D01*
X58481982Y8655541D01*
X58518268Y8582970D01*
X58554554Y8546684D01*
X58627125Y8510398D01*
X58772268Y8510398D01*
X58844840Y8546684D01*
X58881125Y8582970D01*
X58917411Y8655541D01*
X58917411Y8800684D01*
X58881125Y8873255D01*
X58844840Y8909541D01*
X58772268Y8945827D01*
D15*
X61237380Y15001667D02*
X60761190Y14668334D01*
X61237380Y14430239D02*
X60237380Y14430239D01*
X60237380Y14811191D01*
X60285000Y14906429D01*
X60332619Y14954048D01*
X60427857Y15001667D01*
X60570714Y15001667D01*
X60665952Y14954048D01*
X60713571Y14906429D01*
X60761190Y14811191D01*
X60761190Y14430239D01*
X60713571Y15430239D02*
X60713571Y15763572D01*
X61237380Y15906429D02*
X61237380Y15430239D01*
X60237380Y15430239D01*
X60237380Y15906429D01*
X60713571Y16668334D02*
X60713571Y16335000D01*
X61237380Y16335000D02*
X60237380Y16335000D01*
X60237380Y16811191D01*
X60237380Y17335000D02*
X60475476Y17335000D01*
X60380238Y17096905D02*
X60475476Y17335000D01*
X60380238Y17573096D01*
X60665952Y17192143D02*
X60475476Y17335000D01*
X60665952Y17477858D01*
X60237380Y18096905D02*
X60475476Y18096905D01*
X60380238Y17858810D02*
X60475476Y18096905D01*
X60380238Y18335000D01*
X60665952Y17954048D02*
X60475476Y18096905D01*
X60665952Y18239762D01*
D13*
X50030142Y9495286D02*
X49776142Y9858143D01*
X49594714Y9495286D02*
X49594714Y10257286D01*
X49885000Y10257286D01*
X49957571Y10221000D01*
X49993857Y10184715D01*
X50030142Y10112143D01*
X50030142Y10003286D01*
X49993857Y9930715D01*
X49957571Y9894429D01*
X49885000Y9858143D01*
X49594714Y9858143D01*
X50683285Y10003286D02*
X50683285Y9495286D01*
X50501857Y10293572D02*
X50320428Y9749286D01*
X50792142Y9749286D01*
X51409000Y10003286D02*
X51409000Y9495286D01*
X51227571Y10293572D02*
X51046142Y9749286D01*
X51517857Y9749286D01*
X57940142Y9514578D02*
X57686142Y9877435D01*
X57504714Y9514578D02*
X57504714Y10276578D01*
X57795000Y10276578D01*
X57867571Y10240292D01*
X57903857Y10204007D01*
X57940142Y10131435D01*
X57940142Y10022578D01*
X57903857Y9950007D01*
X57867571Y9913721D01*
X57795000Y9877435D01*
X57504714Y9877435D01*
X58194142Y10276578D02*
X58665857Y10276578D01*
X58411857Y9986292D01*
X58520714Y9986292D01*
X58593285Y9950007D01*
X58629571Y9913721D01*
X58665857Y9841150D01*
X58665857Y9659721D01*
X58629571Y9587150D01*
X58593285Y9550864D01*
X58520714Y9514578D01*
X58303000Y9514578D01*
X58230428Y9550864D01*
X58194142Y9587150D01*
X58956142Y10204007D02*
X58992428Y10240292D01*
X59065000Y10276578D01*
X59246428Y10276578D01*
X59319000Y10240292D01*
X59355285Y10204007D01*
X59391571Y10131435D01*
X59391571Y10058864D01*
X59355285Y9950007D01*
X58919857Y9514578D01*
X59391571Y9514578D01*
D15*
X61229880Y27061667D02*
X60753690Y26728334D01*
X61229880Y26490239D02*
X60229880Y26490239D01*
X60229880Y26871191D01*
X60277500Y26966429D01*
X60325119Y27014048D01*
X60420357Y27061667D01*
X60563214Y27061667D01*
X60658452Y27014048D01*
X60706071Y26966429D01*
X60753690Y26871191D01*
X60753690Y26490239D01*
X60706071Y27490239D02*
X60706071Y27823572D01*
X61229880Y27966429D02*
X61229880Y27490239D01*
X60229880Y27490239D01*
X60229880Y27966429D01*
X60706071Y28728334D02*
X60706071Y28395000D01*
X61229880Y28395000D02*
X60229880Y28395000D01*
X60229880Y28871191D01*
X60229880Y29395000D02*
X60467976Y29395000D01*
X60372738Y29156905D02*
X60467976Y29395000D01*
X60372738Y29633096D01*
X60658452Y29252143D02*
X60467976Y29395000D01*
X60658452Y29537858D01*
X60229880Y30156905D02*
X60467976Y30156905D01*
X60372738Y29918810D02*
X60467976Y30156905D01*
X60372738Y30395000D01*
X60658452Y30014048D02*
X60467976Y30156905D01*
X60658452Y30299762D01*
D13*
X7320142Y9494466D02*
X7066142Y9857323D01*
X6884714Y9494466D02*
X6884714Y10256466D01*
X7175000Y10256466D01*
X7247571Y10220180D01*
X7283857Y10183895D01*
X7320142Y10111323D01*
X7320142Y10002466D01*
X7283857Y9929895D01*
X7247571Y9893609D01*
X7175000Y9857323D01*
X6884714Y9857323D01*
X7574142Y10256466D02*
X8045857Y10256466D01*
X7791857Y9966180D01*
X7900714Y9966180D01*
X7973285Y9929895D01*
X8009571Y9893609D01*
X8045857Y9821038D01*
X8045857Y9639609D01*
X8009571Y9567038D01*
X7973285Y9530752D01*
X7900714Y9494466D01*
X7683000Y9494466D01*
X7610428Y9530752D01*
X7574142Y9567038D01*
X8699000Y10256466D02*
X8553857Y10256466D01*
X8481285Y10220180D01*
X8445000Y10183895D01*
X8372428Y10075038D01*
X8336142Y9929895D01*
X8336142Y9639609D01*
X8372428Y9567038D01*
X8408714Y9530752D01*
X8481285Y9494466D01*
X8626428Y9494466D01*
X8699000Y9530752D01*
X8735285Y9567038D01*
X8771571Y9639609D01*
X8771571Y9821038D01*
X8735285Y9893609D01*
X8699000Y9929895D01*
X8626428Y9966180D01*
X8481285Y9966180D01*
X8408714Y9929895D01*
X8372428Y9893609D01*
X8336142Y9821038D01*
X34860142Y9555286D02*
X34606142Y9918143D01*
X34424714Y9555286D02*
X34424714Y10317286D01*
X34715000Y10317286D01*
X34787571Y10281000D01*
X34823857Y10244715D01*
X34860142Y10172143D01*
X34860142Y10063286D01*
X34823857Y9990715D01*
X34787571Y9954429D01*
X34715000Y9918143D01*
X34424714Y9918143D01*
X35150428Y10244715D02*
X35186714Y10281000D01*
X35259285Y10317286D01*
X35440714Y10317286D01*
X35513285Y10281000D01*
X35549571Y10244715D01*
X35585857Y10172143D01*
X35585857Y10099572D01*
X35549571Y9990715D01*
X35114142Y9555286D01*
X35585857Y9555286D01*
X35839857Y10317286D02*
X36347857Y10317286D01*
X36021285Y9555286D01*
X31244714Y7200143D02*
X30881857Y6946143D01*
X31244714Y6764715D02*
X30482714Y6764715D01*
X30482714Y7055000D01*
X30519000Y7127572D01*
X30555285Y7163858D01*
X30627857Y7200143D01*
X30736714Y7200143D01*
X30809285Y7163858D01*
X30845571Y7127572D01*
X30881857Y7055000D01*
X30881857Y6764715D01*
X30736714Y7853286D02*
X31244714Y7853286D01*
X30446428Y7671858D02*
X30990714Y7490429D01*
X30990714Y7962143D01*
X30809285Y8361286D02*
X30773000Y8288715D01*
X30736714Y8252429D01*
X30664142Y8216143D01*
X30627857Y8216143D01*
X30555285Y8252429D01*
X30519000Y8288715D01*
X30482714Y8361286D01*
X30482714Y8506429D01*
X30519000Y8579000D01*
X30555285Y8615286D01*
X30627857Y8651572D01*
X30664142Y8651572D01*
X30736714Y8615286D01*
X30773000Y8579000D01*
X30809285Y8506429D01*
X30809285Y8361286D01*
X30845571Y8288715D01*
X30881857Y8252429D01*
X30954428Y8216143D01*
X31099571Y8216143D01*
X31172142Y8252429D01*
X31208428Y8288715D01*
X31244714Y8361286D01*
X31244714Y8506429D01*
X31208428Y8579000D01*
X31172142Y8615286D01*
X31099571Y8651572D01*
X30954428Y8651572D01*
X30881857Y8615286D01*
X30845571Y8579000D01*
X30809285Y8506429D01*
X49600142Y8537858D02*
X49563857Y8501572D01*
X49455000Y8465286D01*
X49382428Y8465286D01*
X49273571Y8501572D01*
X49201000Y8574143D01*
X49164714Y8646715D01*
X49128428Y8791858D01*
X49128428Y8900715D01*
X49164714Y9045858D01*
X49201000Y9118429D01*
X49273571Y9191000D01*
X49382428Y9227286D01*
X49455000Y9227286D01*
X49563857Y9191000D01*
X49600142Y9154715D01*
X49854142Y9227286D02*
X50325857Y9227286D01*
X50071857Y8937000D01*
X50180714Y8937000D01*
X50253285Y8900715D01*
X50289571Y8864429D01*
X50325857Y8791858D01*
X50325857Y8610429D01*
X50289571Y8537858D01*
X50253285Y8501572D01*
X50180714Y8465286D01*
X49963000Y8465286D01*
X49890428Y8501572D01*
X49854142Y8537858D01*
X51051571Y8465286D02*
X50616142Y8465286D01*
X50833857Y8465286D02*
X50833857Y9227286D01*
X50761285Y9118429D01*
X50688714Y9045858D01*
X50616142Y9009572D01*
X65810862Y9514466D02*
X65556862Y9877323D01*
X65375434Y9514466D02*
X65375434Y10276466D01*
X65665720Y10276466D01*
X65738291Y10240180D01*
X65774577Y10203895D01*
X65810862Y10131323D01*
X65810862Y10022466D01*
X65774577Y9949895D01*
X65738291Y9913609D01*
X65665720Y9877323D01*
X65375434Y9877323D01*
X66464005Y10022466D02*
X66464005Y9514466D01*
X66282577Y10312752D02*
X66101148Y9768466D01*
X66572862Y9768466D01*
X67226005Y10276466D02*
X66863148Y10276466D01*
X66826862Y9913609D01*
X66863148Y9949895D01*
X66935720Y9986180D01*
X67117148Y9986180D01*
X67189720Y9949895D01*
X67226005Y9913609D01*
X67262291Y9841038D01*
X67262291Y9659609D01*
X67226005Y9587038D01*
X67189720Y9550752D01*
X67117148Y9514466D01*
X66935720Y9514466D01*
X66863148Y9550752D01*
X66826862Y9587038D01*
D15*
X72717380Y47466667D02*
X72241190Y47133334D01*
X72717380Y46895239D02*
X71717380Y46895239D01*
X71717380Y47276191D01*
X71765000Y47371429D01*
X71812619Y47419048D01*
X71907857Y47466667D01*
X72050714Y47466667D01*
X72145952Y47419048D01*
X72193571Y47371429D01*
X72241190Y47276191D01*
X72241190Y46895239D01*
X72193571Y47895239D02*
X72193571Y48228572D01*
X72717380Y48371429D02*
X72717380Y47895239D01*
X71717380Y47895239D01*
X71717380Y48371429D01*
X72193571Y49133334D02*
X72193571Y48800000D01*
X72717380Y48800000D02*
X71717380Y48800000D01*
X71717380Y49276191D01*
X71717380Y49800000D02*
X71955476Y49800000D01*
X71860238Y49561905D02*
X71955476Y49800000D01*
X71860238Y50038096D01*
X72145952Y49657143D02*
X71955476Y49800000D01*
X72145952Y49942858D01*
X71717380Y50561905D02*
X71955476Y50561905D01*
X71860238Y50323810D02*
X71955476Y50561905D01*
X71860238Y50800000D01*
X72145952Y50419048D02*
X71955476Y50561905D01*
X72145952Y50704762D01*
D13*
X57830142Y59765286D02*
X57576142Y60128143D01*
X57394714Y59765286D02*
X57394714Y60527286D01*
X57685000Y60527286D01*
X57757571Y60491000D01*
X57793857Y60454715D01*
X57830142Y60382143D01*
X57830142Y60273286D01*
X57793857Y60200715D01*
X57757571Y60164429D01*
X57685000Y60128143D01*
X57394714Y60128143D01*
X58519571Y60527286D02*
X58156714Y60527286D01*
X58120428Y60164429D01*
X58156714Y60200715D01*
X58229285Y60237000D01*
X58410714Y60237000D01*
X58483285Y60200715D01*
X58519571Y60164429D01*
X58555857Y60091858D01*
X58555857Y59910429D01*
X58519571Y59837858D01*
X58483285Y59801572D01*
X58410714Y59765286D01*
X58229285Y59765286D01*
X58156714Y59801572D01*
X58120428Y59837858D01*
X59209000Y60273286D02*
X59209000Y59765286D01*
X59027571Y60563572D02*
X58846142Y60019286D01*
X59317857Y60019286D01*
D15*
X35296560Y3553096D02*
X36106084Y3553096D01*
X36201322Y3600715D01*
X36248941Y3648334D01*
X36296560Y3743572D01*
X36296560Y3934048D01*
X36248941Y4029286D01*
X36201322Y4076905D01*
X36106084Y4124524D01*
X35296560Y4124524D01*
X35296560Y5076905D02*
X35296560Y4600715D01*
X35772751Y4553096D01*
X35725132Y4600715D01*
X35677513Y4695953D01*
X35677513Y4934048D01*
X35725132Y5029286D01*
X35772751Y5076905D01*
X35867989Y5124524D01*
X36106084Y5124524D01*
X36201322Y5076905D01*
X36248941Y5029286D01*
X36296560Y4934048D01*
X36296560Y4695953D01*
X36248941Y4600715D01*
X36201322Y4553096D01*
D13*
X9665982Y8587858D02*
X9629697Y8551572D01*
X9520840Y8515286D01*
X9448268Y8515286D01*
X9339411Y8551572D01*
X9266840Y8624143D01*
X9230554Y8696715D01*
X9194268Y8841858D01*
X9194268Y8950715D01*
X9230554Y9095858D01*
X9266840Y9168429D01*
X9339411Y9241000D01*
X9448268Y9277286D01*
X9520840Y9277286D01*
X9629697Y9241000D01*
X9665982Y9204715D01*
X9956268Y9204715D02*
X9992554Y9241000D01*
X10065125Y9277286D01*
X10246554Y9277286D01*
X10319125Y9241000D01*
X10355411Y9204715D01*
X10391697Y9132143D01*
X10391697Y9059572D01*
X10355411Y8950715D01*
X9919982Y8515286D01*
X10391697Y8515286D01*
X10754554Y8515286D02*
X10899697Y8515286D01*
X10972268Y8551572D01*
X11008554Y8587858D01*
X11081125Y8696715D01*
X11117411Y8841858D01*
X11117411Y9132143D01*
X11081125Y9204715D01*
X11044840Y9241000D01*
X10972268Y9277286D01*
X10827125Y9277286D01*
X10754554Y9241000D01*
X10718268Y9204715D01*
X10681982Y9132143D01*
X10681982Y8950715D01*
X10718268Y8878143D01*
X10754554Y8841858D01*
X10827125Y8805572D01*
X10972268Y8805572D01*
X11044840Y8841858D01*
X11081125Y8878143D01*
X11117411Y8950715D01*
X15165142Y9494466D02*
X14911142Y9857323D01*
X14729714Y9494466D02*
X14729714Y10256466D01*
X15020000Y10256466D01*
X15092571Y10220180D01*
X15128857Y10183895D01*
X15165142Y10111323D01*
X15165142Y10002466D01*
X15128857Y9929895D01*
X15092571Y9893609D01*
X15020000Y9857323D01*
X14729714Y9857323D01*
X15818285Y10002466D02*
X15818285Y9494466D01*
X15636857Y10292752D02*
X15455428Y9748466D01*
X15927142Y9748466D01*
X16144857Y10256466D02*
X16652857Y10256466D01*
X16326285Y9494466D01*
X41610142Y9555286D02*
X41356142Y9918143D01*
X41174714Y9555286D02*
X41174714Y10317286D01*
X41465000Y10317286D01*
X41537571Y10281000D01*
X41573857Y10244715D01*
X41610142Y10172143D01*
X41610142Y10063286D01*
X41573857Y9990715D01*
X41537571Y9954429D01*
X41465000Y9918143D01*
X41174714Y9918143D01*
X41900428Y10244715D02*
X41936714Y10281000D01*
X42009285Y10317286D01*
X42190714Y10317286D01*
X42263285Y10281000D01*
X42299571Y10244715D01*
X42335857Y10172143D01*
X42335857Y10099572D01*
X42299571Y9990715D01*
X41864142Y9555286D01*
X42335857Y9555286D01*
X42989000Y10317286D02*
X42843857Y10317286D01*
X42771285Y10281000D01*
X42735000Y10244715D01*
X42662428Y10135858D01*
X42626142Y9990715D01*
X42626142Y9700429D01*
X42662428Y9627858D01*
X42698714Y9591572D01*
X42771285Y9555286D01*
X42916428Y9555286D01*
X42989000Y9591572D01*
X43025285Y9627858D01*
X43061571Y9700429D01*
X43061571Y9881858D01*
X43025285Y9954429D01*
X42989000Y9990715D01*
X42916428Y10027000D01*
X42771285Y10027000D01*
X42698714Y9990715D01*
X42662428Y9954429D01*
X42626142Y9881858D01*
X47594714Y7300143D02*
X47231857Y7046143D01*
X47594714Y6864715D02*
X46832714Y6864715D01*
X46832714Y7155000D01*
X46869000Y7227572D01*
X46905285Y7263858D01*
X46977857Y7300143D01*
X47086714Y7300143D01*
X47159285Y7263858D01*
X47195571Y7227572D01*
X47231857Y7155000D01*
X47231857Y6864715D01*
X46832714Y7554143D02*
X46832714Y8025858D01*
X47123000Y7771858D01*
X47123000Y7880715D01*
X47159285Y7953286D01*
X47195571Y7989572D01*
X47268142Y8025858D01*
X47449571Y8025858D01*
X47522142Y7989572D01*
X47558428Y7953286D01*
X47594714Y7880715D01*
X47594714Y7663000D01*
X47558428Y7590429D01*
X47522142Y7554143D01*
X47159285Y8461286D02*
X47123000Y8388715D01*
X47086714Y8352429D01*
X47014142Y8316143D01*
X46977857Y8316143D01*
X46905285Y8352429D01*
X46869000Y8388715D01*
X46832714Y8461286D01*
X46832714Y8606429D01*
X46869000Y8679000D01*
X46905285Y8715286D01*
X46977857Y8751572D01*
X47014142Y8751572D01*
X47086714Y8715286D01*
X47123000Y8679000D01*
X47159285Y8606429D01*
X47159285Y8461286D01*
X47195571Y8388715D01*
X47231857Y8352429D01*
X47304428Y8316143D01*
X47449571Y8316143D01*
X47522142Y8352429D01*
X47558428Y8388715D01*
X47594714Y8461286D01*
X47594714Y8606429D01*
X47558428Y8679000D01*
X47522142Y8715286D01*
X47449571Y8751572D01*
X47304428Y8751572D01*
X47231857Y8715286D01*
X47195571Y8679000D01*
X47159285Y8606429D01*
X23055142Y9522115D02*
X22801142Y9884972D01*
X22619714Y9522115D02*
X22619714Y10284115D01*
X22910000Y10284115D01*
X22982571Y10247829D01*
X23018857Y10211544D01*
X23055142Y10138972D01*
X23055142Y10030115D01*
X23018857Y9957544D01*
X22982571Y9921258D01*
X22910000Y9884972D01*
X22619714Y9884972D01*
X23309142Y10284115D02*
X23780857Y10284115D01*
X23526857Y9993829D01*
X23635714Y9993829D01*
X23708285Y9957544D01*
X23744571Y9921258D01*
X23780857Y9848687D01*
X23780857Y9667258D01*
X23744571Y9594687D01*
X23708285Y9558401D01*
X23635714Y9522115D01*
X23418000Y9522115D01*
X23345428Y9558401D01*
X23309142Y9594687D01*
X24252571Y10284115D02*
X24325142Y10284115D01*
X24397714Y10247829D01*
X24434000Y10211544D01*
X24470285Y10138972D01*
X24506571Y9993829D01*
X24506571Y9812401D01*
X24470285Y9667258D01*
X24434000Y9594687D01*
X24397714Y9558401D01*
X24325142Y9522115D01*
X24252571Y9522115D01*
X24180000Y9558401D01*
X24143714Y9594687D01*
X24107428Y9667258D01*
X24071142Y9812401D01*
X24071142Y9993829D01*
X24107428Y10138972D01*
X24143714Y10211544D01*
X24180000Y10247829D01*
X24252571Y10284115D01*
X25405982Y8493759D02*
X25369697Y8457473D01*
X25260840Y8421187D01*
X25188268Y8421187D01*
X25079411Y8457473D01*
X25006840Y8530044D01*
X24970554Y8602616D01*
X24934268Y8747759D01*
X24934268Y8856616D01*
X24970554Y9001759D01*
X25006840Y9074330D01*
X25079411Y9146901D01*
X25188268Y9183187D01*
X25260840Y9183187D01*
X25369697Y9146901D01*
X25405982Y9110616D01*
X25659982Y9183187D02*
X26131697Y9183187D01*
X25877697Y8892901D01*
X25986554Y8892901D01*
X26059125Y8856616D01*
X26095411Y8820330D01*
X26131697Y8747759D01*
X26131697Y8566330D01*
X26095411Y8493759D01*
X26059125Y8457473D01*
X25986554Y8421187D01*
X25768840Y8421187D01*
X25696268Y8457473D01*
X25659982Y8493759D01*
X26603411Y9183187D02*
X26675982Y9183187D01*
X26748554Y9146901D01*
X26784840Y9110616D01*
X26821125Y9038044D01*
X26857411Y8892901D01*
X26857411Y8711473D01*
X26821125Y8566330D01*
X26784840Y8493759D01*
X26748554Y8457473D01*
X26675982Y8421187D01*
X26603411Y8421187D01*
X26530840Y8457473D01*
X26494554Y8493759D01*
X26458268Y8566330D01*
X26421982Y8711473D01*
X26421982Y8892901D01*
X26458268Y9038044D01*
X26494554Y9110616D01*
X26530840Y9146901D01*
X26603411Y9183187D01*
X40462142Y6910143D02*
X40498428Y6873858D01*
X40534714Y6765000D01*
X40534714Y6692429D01*
X40498428Y6583572D01*
X40425857Y6511000D01*
X40353285Y6474715D01*
X40208142Y6438429D01*
X40099285Y6438429D01*
X39954142Y6474715D01*
X39881571Y6511000D01*
X39809000Y6583572D01*
X39772714Y6692429D01*
X39772714Y6765000D01*
X39809000Y6873858D01*
X39845285Y6910143D01*
X39845285Y7200429D02*
X39809000Y7236715D01*
X39772714Y7309286D01*
X39772714Y7490715D01*
X39809000Y7563286D01*
X39845285Y7599572D01*
X39917857Y7635858D01*
X39990428Y7635858D01*
X40099285Y7599572D01*
X40534714Y7164143D01*
X40534714Y7635858D01*
X39772714Y7889858D02*
X39772714Y8397858D01*
X40534714Y8071286D01*
D11*
X54200904Y63681381D02*
X54200904Y62858905D01*
X54249285Y62762143D01*
X54297666Y62713762D01*
X54394428Y62665381D01*
X54587952Y62665381D01*
X54684714Y62713762D01*
X54733095Y62762143D01*
X54781476Y62858905D01*
X54781476Y63681381D01*
X55168523Y63681381D02*
X55845857Y63681381D01*
X55410428Y62665381D01*
D16*
X55954809Y68558953D02*
X55446809Y68558953D01*
X55446809Y68679905D01*
X55471000Y68752477D01*
X55519380Y68800858D01*
X55567761Y68825048D01*
X55664523Y68849239D01*
X55737095Y68849239D01*
X55833857Y68825048D01*
X55882238Y68800858D01*
X55930619Y68752477D01*
X55954809Y68679905D01*
X55954809Y68558953D01*
X55954809Y69066953D02*
X55446809Y69066953D01*
X55954809Y69357239D01*
X55446809Y69357239D01*
X55495190Y69574953D02*
X55471000Y69599143D01*
X55446809Y69647524D01*
X55446809Y69768477D01*
X55471000Y69816858D01*
X55495190Y69841048D01*
X55543571Y69865239D01*
X55591952Y69865239D01*
X55664523Y69841048D01*
X55954809Y69550762D01*
X55954809Y69865239D01*
X54454809Y66821048D02*
X53946809Y66821048D01*
X53946809Y66942000D01*
X53971000Y67014572D01*
X54019380Y67062953D01*
X54067761Y67087143D01*
X54164523Y67111334D01*
X54237095Y67111334D01*
X54333857Y67087143D01*
X54382238Y67062953D01*
X54430619Y67014572D01*
X54454809Y66942000D01*
X54454809Y66821048D01*
X54454809Y67329048D02*
X53946809Y67329048D01*
X53946809Y67522572D01*
X53971000Y67570953D01*
X53995190Y67595143D01*
X54043571Y67619334D01*
X54116142Y67619334D01*
X54164523Y67595143D01*
X54188714Y67570953D01*
X54212904Y67522572D01*
X54212904Y67329048D01*
X53995190Y67812858D02*
X53971000Y67837048D01*
X53946809Y67885429D01*
X53946809Y68006381D01*
X53971000Y68054762D01*
X53995190Y68078953D01*
X54043571Y68103143D01*
X54091952Y68103143D01*
X54164523Y68078953D01*
X54454809Y67788667D01*
X54454809Y68103143D01*
X54954809Y68558953D02*
X54446809Y68558953D01*
X54446809Y68679905D01*
X54471000Y68752477D01*
X54519380Y68800858D01*
X54567761Y68825048D01*
X54664523Y68849239D01*
X54737095Y68849239D01*
X54833857Y68825048D01*
X54882238Y68800858D01*
X54930619Y68752477D01*
X54954809Y68679905D01*
X54954809Y68558953D01*
X54954809Y69066953D02*
X54446809Y69066953D01*
X54954809Y69357239D01*
X54446809Y69357239D01*
X54954809Y69865239D02*
X54954809Y69574953D01*
X54954809Y69720096D02*
X54446809Y69720096D01*
X54519380Y69671715D01*
X54567761Y69623334D01*
X54591952Y69574953D01*
X56930619Y68542858D02*
X56954809Y68615429D01*
X56954809Y68736381D01*
X56930619Y68784762D01*
X56906428Y68808953D01*
X56858047Y68833143D01*
X56809666Y68833143D01*
X56761285Y68808953D01*
X56737095Y68784762D01*
X56712904Y68736381D01*
X56688714Y68639620D01*
X56664523Y68591239D01*
X56640333Y68567048D01*
X56591952Y68542858D01*
X56543571Y68542858D01*
X56495190Y68567048D01*
X56471000Y68591239D01*
X56446809Y68639620D01*
X56446809Y68760572D01*
X56471000Y68833143D01*
X56688714Y69220191D02*
X56712904Y69292762D01*
X56737095Y69316953D01*
X56785476Y69341143D01*
X56858047Y69341143D01*
X56906428Y69316953D01*
X56930619Y69292762D01*
X56954809Y69244381D01*
X56954809Y69050858D01*
X56446809Y69050858D01*
X56446809Y69220191D01*
X56471000Y69268572D01*
X56495190Y69292762D01*
X56543571Y69316953D01*
X56591952Y69316953D01*
X56640333Y69292762D01*
X56664523Y69268572D01*
X56688714Y69220191D01*
X56688714Y69050858D01*
X56446809Y69558858D02*
X56858047Y69558858D01*
X56906428Y69583048D01*
X56930619Y69607239D01*
X56954809Y69655620D01*
X56954809Y69752381D01*
X56930619Y69800762D01*
X56906428Y69824953D01*
X56858047Y69849143D01*
X56446809Y69849143D01*
X56495190Y70066858D02*
X56471000Y70091048D01*
X56446809Y70139429D01*
X56446809Y70260381D01*
X56471000Y70308762D01*
X56495190Y70332953D01*
X56543571Y70357143D01*
X56591952Y70357143D01*
X56664523Y70332953D01*
X56954809Y70042667D01*
X56954809Y70357143D01*
X51355500Y67062953D02*
X51331309Y67014572D01*
X51331309Y66942000D01*
X51355500Y66869429D01*
X51403880Y66821048D01*
X51452261Y66796858D01*
X51549023Y66772667D01*
X51621595Y66772667D01*
X51718357Y66796858D01*
X51766738Y66821048D01*
X51815119Y66869429D01*
X51839309Y66942000D01*
X51839309Y66990381D01*
X51815119Y67062953D01*
X51790928Y67087143D01*
X51621595Y67087143D01*
X51621595Y66990381D01*
X51839309Y67304858D02*
X51331309Y67304858D01*
X51839309Y67595143D01*
X51331309Y67595143D01*
X51839309Y67837048D02*
X51331309Y67837048D01*
X51331309Y67958000D01*
X51355500Y68030572D01*
X51403880Y68078953D01*
X51452261Y68103143D01*
X51549023Y68127334D01*
X51621595Y68127334D01*
X51718357Y68103143D01*
X51766738Y68078953D01*
X51815119Y68030572D01*
X51839309Y67958000D01*
X51839309Y67837048D01*
X57196809Y66768667D02*
X57704809Y66938000D01*
X57196809Y67107334D01*
X57438714Y67446000D02*
X57462904Y67518572D01*
X57487095Y67542762D01*
X57535476Y67566953D01*
X57608047Y67566953D01*
X57656428Y67542762D01*
X57680619Y67518572D01*
X57704809Y67470191D01*
X57704809Y67276667D01*
X57196809Y67276667D01*
X57196809Y67446000D01*
X57221000Y67494381D01*
X57245190Y67518572D01*
X57293571Y67542762D01*
X57341952Y67542762D01*
X57390333Y67518572D01*
X57414523Y67494381D01*
X57438714Y67446000D01*
X57438714Y67276667D01*
X57196809Y67784667D02*
X57608047Y67784667D01*
X57656428Y67808858D01*
X57680619Y67833048D01*
X57704809Y67881429D01*
X57704809Y67978191D01*
X57680619Y68026572D01*
X57656428Y68050762D01*
X57608047Y68074953D01*
X57196809Y68074953D01*
X57680619Y68292667D02*
X57704809Y68365239D01*
X57704809Y68486191D01*
X57680619Y68534572D01*
X57656428Y68558762D01*
X57608047Y68582953D01*
X57559666Y68582953D01*
X57511285Y68558762D01*
X57487095Y68534572D01*
X57462904Y68486191D01*
X57438714Y68389429D01*
X57414523Y68341048D01*
X57390333Y68316858D01*
X57341952Y68292667D01*
X57293571Y68292667D01*
X57245190Y68316858D01*
X57221000Y68341048D01*
X57196809Y68389429D01*
X57196809Y68510381D01*
X57221000Y68582953D01*
X56406428Y67111334D02*
X56430619Y67087143D01*
X56454809Y67014572D01*
X56454809Y66966191D01*
X56430619Y66893620D01*
X56382238Y66845239D01*
X56333857Y66821048D01*
X56237095Y66796858D01*
X56164523Y66796858D01*
X56067761Y66821048D01*
X56019380Y66845239D01*
X55971000Y66893620D01*
X55946809Y66966191D01*
X55946809Y67014572D01*
X55971000Y67087143D01*
X55995190Y67111334D01*
X56406428Y67619334D02*
X56430619Y67595143D01*
X56454809Y67522572D01*
X56454809Y67474191D01*
X56430619Y67401620D01*
X56382238Y67353239D01*
X56333857Y67329048D01*
X56237095Y67304858D01*
X56164523Y67304858D01*
X56067761Y67329048D01*
X56019380Y67353239D01*
X55971000Y67401620D01*
X55946809Y67474191D01*
X55946809Y67522572D01*
X55971000Y67595143D01*
X55995190Y67619334D01*
X56454809Y68103143D02*
X56454809Y67812858D01*
X56454809Y67958000D02*
X55946809Y67958000D01*
X56019380Y67909620D01*
X56067761Y67861239D01*
X56091952Y67812858D01*
X52196809Y66768667D02*
X52704809Y66938000D01*
X52196809Y67107334D01*
X52438714Y67446000D02*
X52462904Y67518572D01*
X52487095Y67542762D01*
X52535476Y67566953D01*
X52608047Y67566953D01*
X52656428Y67542762D01*
X52680619Y67518572D01*
X52704809Y67470191D01*
X52704809Y67276667D01*
X52196809Y67276667D01*
X52196809Y67446000D01*
X52221000Y67494381D01*
X52245190Y67518572D01*
X52293571Y67542762D01*
X52341952Y67542762D01*
X52390333Y67518572D01*
X52414523Y67494381D01*
X52438714Y67446000D01*
X52438714Y67276667D01*
X52196809Y67784667D02*
X52608047Y67784667D01*
X52656428Y67808858D01*
X52680619Y67833048D01*
X52704809Y67881429D01*
X52704809Y67978191D01*
X52680619Y68026572D01*
X52656428Y68050762D01*
X52608047Y68074953D01*
X52196809Y68074953D01*
X52680619Y68292667D02*
X52704809Y68365239D01*
X52704809Y68486191D01*
X52680619Y68534572D01*
X52656428Y68558762D01*
X52608047Y68582953D01*
X52559666Y68582953D01*
X52511285Y68558762D01*
X52487095Y68534572D01*
X52462904Y68486191D01*
X52438714Y68389429D01*
X52414523Y68341048D01*
X52390333Y68316858D01*
X52341952Y68292667D01*
X52293571Y68292667D01*
X52245190Y68316858D01*
X52221000Y68341048D01*
X52196809Y68389429D01*
X52196809Y68510381D01*
X52221000Y68582953D01*
X58086500Y67062953D02*
X58062309Y67014572D01*
X58062309Y66942000D01*
X58086500Y66869429D01*
X58134880Y66821048D01*
X58183261Y66796858D01*
X58280023Y66772667D01*
X58352595Y66772667D01*
X58449357Y66796858D01*
X58497738Y66821048D01*
X58546119Y66869429D01*
X58570309Y66942000D01*
X58570309Y66990381D01*
X58546119Y67062953D01*
X58521928Y67087143D01*
X58352595Y67087143D01*
X58352595Y66990381D01*
X58570309Y67304858D02*
X58062309Y67304858D01*
X58570309Y67595143D01*
X58062309Y67595143D01*
X58570309Y67837048D02*
X58062309Y67837048D01*
X58062309Y67958000D01*
X58086500Y68030572D01*
X58134880Y68078953D01*
X58183261Y68103143D01*
X58280023Y68127334D01*
X58352595Y68127334D01*
X58449357Y68103143D01*
X58497738Y68078953D01*
X58546119Y68030572D01*
X58570309Y67958000D01*
X58570309Y67837048D01*
X53930619Y68542858D02*
X53954809Y68615429D01*
X53954809Y68736381D01*
X53930619Y68784762D01*
X53906428Y68808953D01*
X53858047Y68833143D01*
X53809666Y68833143D01*
X53761285Y68808953D01*
X53737095Y68784762D01*
X53712904Y68736381D01*
X53688714Y68639620D01*
X53664523Y68591239D01*
X53640333Y68567048D01*
X53591952Y68542858D01*
X53543571Y68542858D01*
X53495190Y68567048D01*
X53471000Y68591239D01*
X53446809Y68639620D01*
X53446809Y68760572D01*
X53471000Y68833143D01*
X53688714Y69220191D02*
X53712904Y69292762D01*
X53737095Y69316953D01*
X53785476Y69341143D01*
X53858047Y69341143D01*
X53906428Y69316953D01*
X53930619Y69292762D01*
X53954809Y69244381D01*
X53954809Y69050858D01*
X53446809Y69050858D01*
X53446809Y69220191D01*
X53471000Y69268572D01*
X53495190Y69292762D01*
X53543571Y69316953D01*
X53591952Y69316953D01*
X53640333Y69292762D01*
X53664523Y69268572D01*
X53688714Y69220191D01*
X53688714Y69050858D01*
X53446809Y69558858D02*
X53858047Y69558858D01*
X53906428Y69583048D01*
X53930619Y69607239D01*
X53954809Y69655620D01*
X53954809Y69752381D01*
X53930619Y69800762D01*
X53906428Y69824953D01*
X53858047Y69849143D01*
X53446809Y69849143D01*
X53954809Y70357143D02*
X53954809Y70066858D01*
X53954809Y70212000D02*
X53446809Y70212000D01*
X53519380Y70163620D01*
X53567761Y70115239D01*
X53591952Y70066858D01*
X53406428Y67111334D02*
X53430619Y67087143D01*
X53454809Y67014572D01*
X53454809Y66966191D01*
X53430619Y66893620D01*
X53382238Y66845239D01*
X53333857Y66821048D01*
X53237095Y66796858D01*
X53164523Y66796858D01*
X53067761Y66821048D01*
X53019380Y66845239D01*
X52971000Y66893620D01*
X52946809Y66966191D01*
X52946809Y67014572D01*
X52971000Y67087143D01*
X52995190Y67111334D01*
X53406428Y67619334D02*
X53430619Y67595143D01*
X53454809Y67522572D01*
X53454809Y67474191D01*
X53430619Y67401620D01*
X53382238Y67353239D01*
X53333857Y67329048D01*
X53237095Y67304858D01*
X53164523Y67304858D01*
X53067761Y67329048D01*
X53019380Y67353239D01*
X52971000Y67401620D01*
X52946809Y67474191D01*
X52946809Y67522572D01*
X52971000Y67595143D01*
X52995190Y67619334D01*
X52995190Y67812858D02*
X52971000Y67837048D01*
X52946809Y67885429D01*
X52946809Y68006381D01*
X52971000Y68054762D01*
X52995190Y68078953D01*
X53043571Y68103143D01*
X53091952Y68103143D01*
X53164523Y68078953D01*
X53454809Y67788667D01*
X53454809Y68103143D01*
X55454809Y66821048D02*
X54946809Y66821048D01*
X54946809Y66942000D01*
X54971000Y67014572D01*
X55019380Y67062953D01*
X55067761Y67087143D01*
X55164523Y67111334D01*
X55237095Y67111334D01*
X55333857Y67087143D01*
X55382238Y67062953D01*
X55430619Y67014572D01*
X55454809Y66942000D01*
X55454809Y66821048D01*
X55454809Y67329048D02*
X54946809Y67329048D01*
X54946809Y67522572D01*
X54971000Y67570953D01*
X54995190Y67595143D01*
X55043571Y67619334D01*
X55116142Y67619334D01*
X55164523Y67595143D01*
X55188714Y67570953D01*
X55212904Y67522572D01*
X55212904Y67329048D01*
X55454809Y68103143D02*
X55454809Y67812858D01*
X55454809Y67958000D02*
X54946809Y67958000D01*
X55019380Y67909620D01*
X55067761Y67861239D01*
X55091952Y67812858D01*
D13*
X71204714Y7890143D02*
X70841857Y7636143D01*
X71204714Y7454715D02*
X70442714Y7454715D01*
X70442714Y7745000D01*
X70479000Y7817572D01*
X70515285Y7853858D01*
X70587857Y7890143D01*
X70696714Y7890143D01*
X70769285Y7853858D01*
X70805571Y7817572D01*
X70841857Y7745000D01*
X70841857Y7454715D01*
X70696714Y8543286D02*
X71204714Y8543286D01*
X70406428Y8361858D02*
X70950714Y8180429D01*
X70950714Y8652143D01*
X70442714Y9269000D02*
X70442714Y9123858D01*
X70479000Y9051286D01*
X70515285Y9015000D01*
X70624142Y8942429D01*
X70769285Y8906143D01*
X71059571Y8906143D01*
X71132142Y8942429D01*
X71168428Y8978715D01*
X71204714Y9051286D01*
X71204714Y9196429D01*
X71168428Y9269000D01*
X71132142Y9305286D01*
X71059571Y9341572D01*
X70878142Y9341572D01*
X70805571Y9305286D01*
X70769285Y9269000D01*
X70733000Y9196429D01*
X70733000Y9051286D01*
X70769285Y8978715D01*
X70805571Y8942429D01*
X70878142Y8906143D01*
X47431571Y60606000D02*
X47359000Y60642286D01*
X47250142Y60642286D01*
X47141285Y60606000D01*
X47068714Y60533429D01*
X47032428Y60460858D01*
X46996142Y60315715D01*
X46996142Y60206858D01*
X47032428Y60061715D01*
X47068714Y59989143D01*
X47141285Y59916572D01*
X47250142Y59880286D01*
X47322714Y59880286D01*
X47431571Y59916572D01*
X47467857Y59952858D01*
X47467857Y60206858D01*
X47322714Y60206858D01*
X47794428Y59880286D02*
X47794428Y60642286D01*
X48229857Y59880286D01*
X48229857Y60642286D01*
X48592714Y59880286D02*
X48592714Y60642286D01*
X48774142Y60642286D01*
X48883000Y60606000D01*
X48955571Y60533429D01*
X48991857Y60460858D01*
X49028142Y60315715D01*
X49028142Y60206858D01*
X48991857Y60061715D01*
X48955571Y59989143D01*
X48883000Y59916572D01*
X48774142Y59880286D01*
X48592714Y59880286D01*
X49753857Y59880286D02*
X49318428Y59880286D01*
X49536142Y59880286D02*
X49536142Y60642286D01*
X49463571Y60533429D01*
X49391000Y60460858D01*
X49318428Y60424572D01*
X10140142Y9519466D02*
X9886142Y9882323D01*
X9704714Y9519466D02*
X9704714Y10281466D01*
X9995000Y10281466D01*
X10067571Y10245180D01*
X10103857Y10208895D01*
X10140142Y10136323D01*
X10140142Y10027466D01*
X10103857Y9954895D01*
X10067571Y9918609D01*
X9995000Y9882323D01*
X9704714Y9882323D01*
X10793285Y10027466D02*
X10793285Y9519466D01*
X10611857Y10317752D02*
X10430428Y9773466D01*
X10902142Y9773466D01*
X11156142Y10208895D02*
X11192428Y10245180D01*
X11265000Y10281466D01*
X11446428Y10281466D01*
X11519000Y10245180D01*
X11555285Y10208895D01*
X11591571Y10136323D01*
X11591571Y10063752D01*
X11555285Y9954895D01*
X11119857Y9519466D01*
X11591571Y9519466D01*
X46010142Y20517858D02*
X45973857Y20481572D01*
X45865000Y20445286D01*
X45792428Y20445286D01*
X45683571Y20481572D01*
X45611000Y20554143D01*
X45574714Y20626715D01*
X45538428Y20771858D01*
X45538428Y20880715D01*
X45574714Y21025858D01*
X45611000Y21098429D01*
X45683571Y21171000D01*
X45792428Y21207286D01*
X45865000Y21207286D01*
X45973857Y21171000D01*
X46010142Y21134715D01*
X46735857Y20445286D02*
X46300428Y20445286D01*
X46518142Y20445286D02*
X46518142Y21207286D01*
X46445571Y21098429D01*
X46373000Y21025858D01*
X46300428Y20989572D01*
X47461571Y20445286D02*
X47026142Y20445286D01*
X47243857Y20445286D02*
X47243857Y21207286D01*
X47171285Y21098429D01*
X47098714Y21025858D01*
X47026142Y20989572D01*
D15*
D13*
X31570142Y9555286D02*
X31316142Y9918143D01*
X31134714Y9555286D02*
X31134714Y10317286D01*
X31425000Y10317286D01*
X31497571Y10281000D01*
X31533857Y10244715D01*
X31570142Y10172143D01*
X31570142Y10063286D01*
X31533857Y9990715D01*
X31497571Y9954429D01*
X31425000Y9918143D01*
X31134714Y9918143D01*
X31860428Y10244715D02*
X31896714Y10281000D01*
X31969285Y10317286D01*
X32150714Y10317286D01*
X32223285Y10281000D01*
X32259571Y10244715D01*
X32295857Y10172143D01*
X32295857Y10099572D01*
X32259571Y9990715D01*
X31824142Y9555286D01*
X32295857Y9555286D01*
X32985285Y10317286D02*
X32622428Y10317286D01*
X32586142Y9954429D01*
X32622428Y9990715D01*
X32695000Y10027000D01*
X32876428Y10027000D01*
X32949000Y9990715D01*
X32985285Y9954429D01*
X33021571Y9881858D01*
X33021571Y9700429D01*
X32985285Y9627858D01*
X32949000Y9591572D01*
X32876428Y9555286D01*
X32695000Y9555286D01*
X32622428Y9591572D01*
X32586142Y9627858D01*
X62990142Y9514578D02*
X62736142Y9877435D01*
X62554714Y9514578D02*
X62554714Y10276578D01*
X62845000Y10276578D01*
X62917571Y10240292D01*
X62953857Y10204007D01*
X62990142Y10131435D01*
X62990142Y10022578D01*
X62953857Y9950007D01*
X62917571Y9913721D01*
X62845000Y9877435D01*
X62554714Y9877435D01*
X63244142Y10276578D02*
X63715857Y10276578D01*
X63461857Y9986292D01*
X63570714Y9986292D01*
X63643285Y9950007D01*
X63679571Y9913721D01*
X63715857Y9841150D01*
X63715857Y9659721D01*
X63679571Y9587150D01*
X63643285Y9550864D01*
X63570714Y9514578D01*
X63353000Y9514578D01*
X63280428Y9550864D01*
X63244142Y9587150D01*
X64078714Y9514578D02*
X64223857Y9514578D01*
X64296428Y9550864D01*
X64332714Y9587150D01*
X64405285Y9696007D01*
X64441571Y9841150D01*
X64441571Y10131435D01*
X64405285Y10204007D01*
X64369000Y10240292D01*
X64296428Y10276578D01*
X64151285Y10276578D01*
X64078714Y10240292D01*
X64042428Y10204007D01*
X64006142Y10131435D01*
X64006142Y9950007D01*
X64042428Y9877435D01*
X64078714Y9841150D01*
X64151285Y9804864D01*
X64296428Y9804864D01*
X64369000Y9841150D01*
X64405285Y9877435D01*
X64441571Y9950007D01*
X47230142Y9535286D02*
X46976142Y9898143D01*
X46794714Y9535286D02*
X46794714Y10297286D01*
X47085000Y10297286D01*
X47157571Y10261000D01*
X47193857Y10224715D01*
X47230142Y10152143D01*
X47230142Y10043286D01*
X47193857Y9970715D01*
X47157571Y9934429D01*
X47085000Y9898143D01*
X46794714Y9898143D01*
X47484142Y10297286D02*
X47955857Y10297286D01*
X47701857Y10007000D01*
X47810714Y10007000D01*
X47883285Y9970715D01*
X47919571Y9934429D01*
X47955857Y9861858D01*
X47955857Y9680429D01*
X47919571Y9607858D01*
X47883285Y9571572D01*
X47810714Y9535286D01*
X47593000Y9535286D01*
X47520428Y9571572D01*
X47484142Y9607858D01*
X48681571Y9535286D02*
X48246142Y9535286D01*
X48463857Y9535286D02*
X48463857Y10297286D01*
X48391285Y10188429D01*
X48318714Y10115858D01*
X48246142Y10079572D01*
X70268333Y59239518D02*
X70220714Y59191899D01*
X70077857Y59144280D01*
X69982619Y59144280D01*
X69839761Y59191899D01*
X69744523Y59287137D01*
X69696904Y59382375D01*
X69649285Y59572851D01*
X69649285Y59715708D01*
X69696904Y59906184D01*
X69744523Y60001422D01*
X69839761Y60096660D01*
X69982619Y60144280D01*
X70077857Y60144280D01*
X70220714Y60096660D01*
X70268333Y60049041D01*
X71220714Y59144280D02*
X70649285Y59144280D01*
X70935000Y59144280D02*
X70935000Y60144280D01*
X70839761Y60001422D01*
X70744523Y59906184D01*
X70649285Y59858565D01*
D15*
X65456666Y55222620D02*
X65456666Y54508334D01*
X65409047Y54365477D01*
X65313809Y54270239D01*
X65170952Y54222620D01*
X65075714Y54222620D01*
X66456666Y54222620D02*
X65885238Y54222620D01*
X66170952Y54222620D02*
X66170952Y55222620D01*
X66075714Y55079762D01*
X65980476Y54984524D01*
X65885238Y54936905D01*
D13*
X42935142Y20517858D02*
X42898857Y20481572D01*
X42790000Y20445286D01*
X42717428Y20445286D01*
X42608571Y20481572D01*
X42536000Y20554143D01*
X42499714Y20626715D01*
X42463428Y20771858D01*
X42463428Y20880715D01*
X42499714Y21025858D01*
X42536000Y21098429D01*
X42608571Y21171000D01*
X42717428Y21207286D01*
X42790000Y21207286D01*
X42898857Y21171000D01*
X42935142Y21134715D01*
X43225428Y21134715D02*
X43261714Y21171000D01*
X43334285Y21207286D01*
X43515714Y21207286D01*
X43588285Y21171000D01*
X43624571Y21134715D01*
X43660857Y21062143D01*
X43660857Y20989572D01*
X43624571Y20880715D01*
X43189142Y20445286D01*
X43660857Y20445286D01*
X44386571Y20445286D02*
X43951142Y20445286D01*
X44168857Y20445286D02*
X44168857Y21207286D01*
X44096285Y21098429D01*
X44023714Y21025858D01*
X43951142Y20989572D01*
D17*
X36363720Y35613880D02*
X35764280Y35613880D01*
X36363720Y36010120D02*
X35764280Y36010120D01*
X36363720Y35613880D02*
X36363720Y36010120D01*
X35764280Y35613880D02*
X35764280Y36010120D01*
X34839720Y35613880D02*
X34240280Y35613880D01*
X34839720Y36010120D02*
X34240280Y36010120D01*
X34240280Y35613880D02*
X34240280Y36010120D01*
X34839720Y35613880D02*
X34839720Y36010120D01*
X36526280Y48329120D02*
X37125720Y48329120D01*
X36526280Y47932880D02*
X37125720Y47932880D01*
X36526280Y48329120D02*
X36526280Y47932880D01*
X37125720Y48329120D02*
X37125720Y47932880D01*
X39574280Y36137120D02*
X39574280Y35740880D01*
X39574280Y36137120D02*
X40173720Y36137120D01*
X40173720Y36137120D02*
X40173720Y35740880D01*
X39574280Y35740880D02*
X40173720Y35740880D01*
X28489720Y36010120D02*
X28489720Y35613880D01*
X27890280Y36010120D02*
X27890280Y35613880D01*
X27890280Y35613880D02*
X28489720Y35613880D01*
X27890280Y36010120D02*
X28489720Y36010120D01*
X34722880Y45291280D02*
X35119120Y45291280D01*
X34722880Y45890720D02*
X35119120Y45890720D01*
X35119120Y45291280D02*
X35119120Y45890720D01*
X34722880Y45291280D02*
X34722880Y45890720D01*
X24197120Y45255720D02*
X24197120Y44656280D01*
X24197120Y44656280D02*
X23800880Y44656280D01*
X24197120Y45255720D02*
X23800880Y45255720D01*
X23800880Y45255720D02*
X23800880Y44656280D01*
X24197120Y40302720D02*
X24197120Y39703280D01*
X24197120Y40302720D02*
X23800880Y40302720D01*
X23800880Y40302720D02*
X23800880Y39703280D01*
X24197120Y39703280D02*
X23800880Y39703280D01*
X23800880Y41826720D02*
X23800880Y41227280D01*
X24197120Y41826720D02*
X23800880Y41826720D01*
X24197120Y41826720D02*
X24197120Y41227280D01*
X24197120Y41227280D02*
X23800880Y41227280D01*
X36516120Y41445720D02*
X36516120Y40846280D01*
X36516120Y41445720D02*
X36119880Y41445720D01*
X36119880Y41445720D02*
X36119880Y40846280D01*
X36516120Y40846280D02*
X36119880Y40846280D01*
D16*
X37080000Y35761200D02*
X37080000Y36599400D01*
X38858000Y35761200D02*
X38858000Y36599400D01*
X17064800Y26160000D02*
X16226600Y26160000D01*
X17064800Y24382000D02*
X16226600Y24382000D01*
D11*
X47109200Y53934300D02*
X47248900Y54061300D01*
D16*
X47096500Y53870800D02*
X46080500Y53870800D01*
D18*
X45670300Y54230400D02*
X45540300Y54120400D01*
D19*
X45609500Y54345000D02*
X45709500Y54445000D01*
D18*
X45745700Y54100400D02*
X45745700Y54180400D01*
D11*
X47109200Y55026500D02*
X47261600Y54899500D01*
D19*
X45799500Y54565000D02*
X45799500Y54345000D01*
D18*
X45530300Y54100400D02*
X45530300Y54180400D01*
D16*
X46080500Y55090000D02*
X47096500Y55090000D01*
D19*
X45609500Y54565000D02*
X45719500Y54465000D01*
D18*
X45877300Y54209400D02*
X45747300Y54099400D01*
X45745700Y54100400D02*
X45825700Y54110400D01*
D11*
X47096500Y53972400D02*
X47096500Y55013800D01*
X47261600Y54899500D02*
X47261600Y54074000D01*
D19*
X45439500Y54455000D02*
X45959500Y54455000D01*
X45609500Y54565000D02*
X45609500Y54345000D01*
D18*
X45530300Y54100400D02*
X45610300Y54110400D01*
D17*
X12497880Y43767280D02*
X12497880Y44366720D01*
X12894120Y43767280D02*
X12894120Y44366720D01*
X12497880Y43767280D02*
X12894120Y43767280D01*
X12497880Y44366720D02*
X12894120Y44366720D01*
X22393720Y67236880D02*
X22393720Y67633120D01*
X22393720Y67236880D02*
X21794280Y67236880D01*
X21794280Y67236880D02*
X21794280Y67633120D01*
X22393720Y67633120D02*
X21794280Y67633120D01*
X41733280Y63061120D02*
X42332720Y63061120D01*
X41733280Y63061120D02*
X41733280Y62664880D01*
X42332720Y63061120D02*
X42332720Y62664880D01*
X41733280Y62664880D02*
X42332720Y62664880D01*
X29251720Y48329120D02*
X29251720Y47932880D01*
X28652280Y47932880D02*
X29251720Y47932880D01*
X28652280Y48329120D02*
X29251720Y48329120D01*
X28652280Y48329120D02*
X28652280Y47932880D01*
X26965720Y48329120D02*
X26965720Y47932880D01*
X26366280Y48329120D02*
X26366280Y47932880D01*
X26366280Y48329120D02*
X26965720Y48329120D01*
X26366280Y47932880D02*
X26965720Y47932880D01*
X32462280Y48329120D02*
X32462280Y47932880D01*
X32462280Y48329120D02*
X33061720Y48329120D01*
X33061720Y48329120D02*
X33061720Y47932880D01*
X32462280Y47932880D02*
X33061720Y47932880D01*
X30176280Y47932880D02*
X30775720Y47932880D01*
X30775720Y48329120D02*
X30775720Y47932880D01*
X30176280Y48329120D02*
X30775720Y48329120D01*
X30176280Y48329120D02*
X30176280Y47932880D01*
X32325120Y15001780D02*
X32325120Y15601220D01*
X31928880Y15001780D02*
X31928880Y15601220D01*
X31928880Y15001780D02*
X32325120Y15001780D01*
X31928880Y15601220D02*
X32325120Y15601220D01*
X36516120Y39325280D02*
X36516120Y39924720D01*
X36119880Y39325280D02*
X36516120Y39325280D01*
X36119880Y39924720D02*
X36516120Y39924720D01*
X36119880Y39325280D02*
X36119880Y39924720D01*
X24197120Y47033720D02*
X23800880Y47033720D01*
X24197120Y47033720D02*
X24197120Y46434280D01*
X23800880Y47033720D02*
X23800880Y46434280D01*
X24197120Y46434280D02*
X23800880Y46434280D01*
X40056880Y21125720D02*
X40453120Y21125720D01*
X40056880Y20526280D02*
X40056880Y21125720D01*
X40453120Y20526280D02*
X40453120Y21125720D01*
X40056880Y20526280D02*
X40453120Y20526280D01*
X25467120Y23157720D02*
X25070880Y23157720D01*
X25467120Y22558280D02*
X25070880Y22558280D01*
X25467120Y23157720D02*
X25467120Y22558280D01*
X25070880Y23157720D02*
X25070880Y22558280D01*
D11*
X23021100Y37285200D02*
X23021100Y34338800D01*
X23008400Y34338800D02*
X23224300Y34338800D01*
X23033800Y37285200D02*
X23211600Y37285200D01*
X26831100Y37285200D02*
X27021600Y37285200D01*
X27021600Y34338800D02*
X26805700Y34338800D01*
X27021600Y37285200D02*
X27021600Y34338800D01*
X33358900Y34338800D02*
X33358900Y37285200D01*
X29358400Y34338800D02*
X29358400Y37285200D01*
X33371600Y37285200D02*
X33155700Y37285200D01*
X29548900Y34338800D02*
X29358400Y34338800D01*
X29358400Y37285200D02*
X29574300Y37285200D01*
X33346200Y34338800D02*
X33168400Y34338800D01*
X19410000Y72692000D02*
X19410000Y66072000D01*
X1410000Y47192000D02*
X3910000Y47192000D01*
X1410000Y47192000D02*
X1410000Y47942000D01*
X3260000Y47192000D02*
X3910000Y47192000D01*
X1410000Y66692000D02*
X19410000Y66692000D01*
X17560000Y47192000D02*
X16960000Y47192000D01*
X19410000Y47192000D02*
X19410000Y47942000D01*
X19410000Y47192000D02*
X16960000Y47192000D01*
X1410000Y72692000D02*
X19410000Y72692000D01*
X1410000Y72692000D02*
X1410000Y66072000D01*
X27849640Y39682960D02*
X27849640Y39281640D01*
X32848360Y44280360D02*
X32447040Y44280360D01*
X32848360Y39281640D02*
X32848360Y39682960D01*
X28024900Y44280360D02*
X27849640Y44105100D01*
X32447040Y39281640D02*
X32848360Y39281640D01*
X27849640Y44105100D02*
X27849640Y43879040D01*
X32848360Y43879040D02*
X32848360Y44280360D01*
X28250960Y44280360D02*
X28024900Y44280360D01*
X27849640Y39281640D02*
X28250960Y39281640D01*
D20*
X27626873Y44679140D02*
G75*
G03*
X27626873Y44679140I-176013J0D01*
G01*
D11*
X7684580Y22972300D02*
X5977700Y21880100D01*
X1438720Y34239740D02*
X12375960Y34239740D01*
X1438720Y21880100D02*
X5957380Y21880100D01*
X12805220Y33807940D02*
X12805220Y33338040D01*
X12805220Y29799820D02*
X12805220Y27351260D01*
X1009460Y33797780D02*
X1009460Y22311900D01*
X12375960Y22972300D02*
X7684580Y22972300D01*
X12805220Y23701280D02*
X12805220Y23401560D01*
D17*
X16831120Y28654280D02*
X16434880Y28654280D01*
X16831120Y29253720D02*
X16434880Y29253720D01*
X16831120Y29253720D02*
X16831120Y28654280D01*
X16434880Y29253720D02*
X16434880Y28654280D01*
D11*
X4284000Y43270000D02*
X4284000Y42070000D01*
X8484000Y40570000D02*
X8484000Y44770000D01*
X2684000Y44770000D02*
X2684000Y40570000D01*
X2684000Y40570000D02*
X8484000Y40570000D01*
X6884000Y43270000D02*
X6884000Y42070000D01*
X6884000Y43270000D02*
X4284000Y43270000D01*
X8484000Y44770000D02*
X2684000Y44770000D01*
X6884000Y42070000D02*
X4284000Y42070000D01*
X8484000Y38928000D02*
X2684000Y38928000D01*
X8484000Y34728000D02*
X8484000Y38928000D01*
X4284000Y37428000D02*
X4284000Y36228000D01*
X2684000Y34728000D02*
X8484000Y34728000D01*
X6884000Y36228000D02*
X4284000Y36228000D01*
X6884000Y37428000D02*
X6884000Y36228000D01*
X2684000Y38928000D02*
X2684000Y34728000D01*
X6884000Y37428000D02*
X4284000Y37428000D01*
X36599940Y70965600D02*
X36798060Y70965600D01*
X25901460Y70965600D02*
X25901460Y70764940D01*
X27001280Y70465220D02*
X26602500Y70965600D01*
X29910000Y68606000D02*
X29390000Y72336000D01*
X35599180Y72464200D02*
X34598420Y66965100D01*
X24000000Y72466000D02*
X23000000Y72466000D01*
X24000000Y60216000D02*
X24000000Y72466000D01*
X29800360Y67663600D02*
X29000260Y72464200D01*
X29900000Y68026000D02*
X30570000Y72446000D01*
X36998720Y69263800D02*
X37798820Y70063900D01*
X34080000Y69946000D02*
X34270000Y72456000D01*
X36798060Y69263800D02*
X36099560Y69263800D01*
X30001020Y67663600D02*
X29800360Y67663600D01*
X26602500Y70965600D02*
X26800620Y70965600D01*
X30801120Y72464200D02*
X30001020Y67663600D01*
X29910000Y67856000D02*
X29190000Y72456000D01*
X33998980Y67663600D02*
X33198880Y72464200D01*
X34598420Y66965100D02*
X33597660Y66965100D01*
X33198880Y72464200D02*
X34999740Y72464200D01*
X40000000Y72466000D02*
X41000000Y72466000D01*
X24000000Y72466000D02*
X40000000Y72466000D01*
X23000000Y72466000D02*
X23000000Y65466000D01*
X37800000Y68466000D02*
X37800000Y70066000D01*
X25434100Y67236880D02*
X25434100Y69263800D01*
X34100000Y67666000D02*
X33450000Y72456000D01*
X37298440Y70965600D02*
X37499100Y70965600D01*
X36998720Y70465220D02*
X36599940Y70965600D01*
X31400560Y72464200D02*
X30402340Y66965100D01*
X27133360Y70063900D02*
X26333260Y69263800D01*
X36599940Y70965600D02*
X36599940Y70764940D01*
X40000000Y50466000D02*
X24000000Y50466000D01*
X29850000Y69076000D02*
X30330000Y72436000D01*
X30402340Y66965100D02*
X29401580Y66965100D01*
X34000000Y71596000D02*
X34140000Y72406000D01*
X36899660Y68463700D02*
X36899660Y70063900D01*
X27933460Y69263800D02*
X27933460Y67325780D01*
X27232420Y69263800D02*
X27933460Y69263800D01*
X25434100Y69263800D02*
X26132600Y69263800D01*
X25901460Y70965600D02*
X26102120Y70965600D01*
X34110000Y68716000D02*
X34520000Y72446000D01*
X29401580Y66965100D02*
X28400820Y72464200D01*
X38600000Y67266000D02*
X38600000Y69266000D01*
X29950000Y70246000D02*
X30100000Y72426000D01*
X29000260Y72464200D02*
X30801120Y72464200D01*
X26234200Y70063900D02*
X26234200Y68463700D01*
X34199640Y67663600D02*
X33998980Y67663600D01*
X37699760Y70465220D02*
X37298440Y70965600D01*
X24000000Y50466000D02*
X24000000Y56716000D01*
X29980000Y69826000D02*
X29580000Y72396000D01*
X41000000Y72466000D02*
X41000000Y65466000D01*
X34120000Y68426000D02*
X33560000Y72456000D01*
X30020000Y70856000D02*
X29740000Y72436000D01*
X26602500Y70965600D02*
X26602500Y70764940D01*
X40000000Y56716000D02*
X40000000Y50466000D01*
X36100000Y69266000D02*
X36100000Y67366000D01*
X33597660Y66965100D02*
X32599440Y72464200D01*
X34130000Y69236000D02*
X33770000Y72446000D01*
X34170000Y70826000D02*
X33970000Y72466000D01*
X34110000Y67816000D02*
X34760000Y72446000D01*
X26300240Y70465220D02*
X25901460Y70965600D01*
X37298440Y70965600D02*
X37298440Y70764940D01*
X37798820Y68463700D02*
X36998720Y69263800D01*
X38600000Y69266000D02*
X37900000Y69266000D01*
X27133360Y70063900D02*
X27133360Y68463700D01*
X29910000Y71566000D02*
X29910000Y72436000D01*
X34999740Y72464200D02*
X34199640Y67663600D01*
X40000000Y72466000D02*
X40000000Y60216000D01*
X26333260Y69263800D02*
X27133360Y68463700D01*
D17*
X22873780Y54806120D02*
X22873780Y54409880D01*
X22076220Y54409880D02*
X22873780Y54409880D01*
X22076220Y54806120D02*
X22873780Y54806120D01*
X22076220Y54806120D02*
X22076220Y54409880D01*
X22076220Y62029880D02*
X22076220Y62426120D01*
X22873780Y62029880D02*
X22873780Y62426120D01*
X22873780Y62029880D02*
X22076220Y62029880D01*
X22873780Y62426120D02*
X22076220Y62426120D01*
X45897620Y52976720D02*
X45897620Y52377280D01*
X45897620Y52377280D02*
X45501380Y52377280D01*
X45501380Y52976720D02*
X45501380Y52377280D01*
X45897620Y52976720D02*
X45501380Y52976720D01*
X25467120Y25225280D02*
X25070880Y25225280D01*
X25467120Y25824720D02*
X25070880Y25824720D01*
X25070880Y25824720D02*
X25070880Y25225280D01*
X25467120Y25824720D02*
X25467120Y25225280D01*
X40564880Y25225280D02*
X40564880Y25824720D01*
X40564880Y25225280D02*
X40961120Y25225280D01*
X40961120Y25225280D02*
X40961120Y25824720D01*
X40564880Y25824720D02*
X40961120Y25824720D01*
X25070880Y18966720D02*
X25070880Y18367280D01*
X25467120Y18966720D02*
X25467120Y18367280D01*
X25467120Y18966720D02*
X25070880Y18966720D01*
X25467120Y18367280D02*
X25070880Y18367280D01*
X40056880Y22649720D02*
X40453120Y22649720D01*
X40056880Y22050280D02*
X40056880Y22649720D01*
X40056880Y22050280D02*
X40453120Y22050280D01*
X40453120Y22050280D02*
X40453120Y22649720D01*
D11*
X46660000Y31795000D02*
X46660000Y34495000D01*
X48470000Y34495000D02*
X43470000Y34495000D01*
X47100000Y31795000D02*
X47100000Y34495000D01*
X43470000Y31795000D02*
X48470000Y31795000D01*
X47036800Y37463000D02*
X46325600Y37463000D01*
X49170400Y36624800D02*
X49170400Y37463000D01*
X46325600Y36624800D02*
X46325600Y37463000D01*
X49170400Y37463000D02*
X48459200Y37463000D01*
D15*
X28698000Y29716000D02*
X28063000Y29081000D01*
X27301000Y24890000D02*
X27301000Y26160000D01*
X38731000Y24890000D02*
X27301000Y24890000D01*
X37969000Y25779000D02*
X37969000Y26160000D01*
X37969000Y29081000D02*
X37969000Y28700000D01*
X28063000Y25779000D02*
X28063000Y26160000D01*
X27301000Y29970000D02*
X38731000Y29970000D01*
X28063000Y25779000D02*
X28698000Y25144000D01*
X28698000Y25144000D02*
X37334000Y25144000D01*
X37969000Y29081000D02*
X37334000Y29716000D01*
X27301000Y29970000D02*
X27301000Y28700000D01*
X38731000Y29970000D02*
X38731000Y28700000D01*
X37334000Y25144000D02*
X37969000Y25779000D01*
X37334000Y29716000D02*
X28698000Y29716000D01*
X38731000Y24890000D02*
X38731000Y26160000D01*
X28063000Y29081000D02*
X28063000Y28700000D01*
D11*
X20697000Y25042400D02*
X20697000Y24331200D01*
X20697000Y22908800D02*
X20697000Y22197600D01*
X21535200Y25042400D02*
X20697000Y25042400D01*
X21535200Y22197600D02*
X20697000Y22197600D01*
D17*
X43993880Y36238720D02*
X43993880Y35639280D01*
X44390120Y36238720D02*
X44390120Y35639280D01*
X44390120Y35639280D02*
X43993880Y35639280D01*
X44390120Y36238720D02*
X43993880Y36238720D01*
X25467120Y21379720D02*
X25070880Y21379720D01*
X25467120Y21379720D02*
X25467120Y20780280D01*
X25467120Y20780280D02*
X25070880Y20780280D01*
X25070880Y21379720D02*
X25070880Y20780280D01*
X12497880Y42842720D02*
X12497880Y42243280D01*
X12894120Y42243280D02*
X12497880Y42243280D01*
X12894120Y42842720D02*
X12894120Y42243280D01*
X12894120Y42842720D02*
X12497880Y42842720D01*
X12894120Y40719280D02*
X12894120Y41318720D01*
X12497880Y40719280D02*
X12894120Y40719280D01*
X12497880Y41318720D02*
X12894120Y41318720D01*
X12497880Y40719280D02*
X12497880Y41318720D01*
D11*
X29396500Y23874000D02*
X29396500Y16254000D01*
X29396500Y16635000D02*
X34857500Y16635000D01*
X34857500Y16254000D02*
X29396500Y16254000D01*
X29396500Y23874000D02*
X34857500Y23874000D01*
X34857500Y16254000D02*
X34857500Y23874000D01*
X12442000Y10539000D02*
X10410000Y10539000D01*
X20316000Y10793000D02*
X20062000Y10539000D01*
X9902000Y10539000D02*
X7870000Y10539000D01*
X45716000Y12825000D02*
X45970000Y13079000D01*
X22856000Y10793000D02*
X22602000Y10539000D01*
X18030000Y13079000D02*
X20062000Y13079000D01*
X30476000Y10793000D02*
X30222000Y10539000D01*
X40636000Y12825000D02*
X40890000Y13079000D01*
X18030000Y13079000D02*
X20062000Y13079000D01*
X7362000Y10539000D02*
X5330000Y10539000D01*
X5330000Y13079000D02*
X7362000Y13079000D01*
X20570000Y10539000D02*
X20316000Y10793000D01*
X12696000Y12825000D02*
X12950000Y13079000D01*
X25142000Y10539000D02*
X23110000Y10539000D01*
X12950000Y13079000D02*
X14982000Y13079000D01*
X43176000Y12825000D02*
X43430000Y13079000D01*
X20062000Y10539000D02*
X18030000Y10539000D01*
X40382000Y13079000D02*
X40636000Y12825000D01*
X50542000Y10539000D02*
X48510000Y10539000D01*
X17522000Y13079000D02*
X17776000Y12825000D01*
X43430000Y10539000D02*
X43176000Y10793000D01*
X40382000Y10539000D02*
X38350000Y10539000D01*
X14982000Y10539000D02*
X12950000Y10539000D01*
X28190000Y13079000D02*
X30222000Y13079000D01*
X40636000Y10793000D02*
X40382000Y10539000D01*
X18030000Y10539000D02*
X17776000Y10793000D01*
X30222000Y13079000D02*
X30476000Y12825000D01*
X20316000Y12825000D02*
X20570000Y13079000D01*
X45970000Y10539000D02*
X45716000Y10793000D01*
X48002000Y10539000D02*
X45970000Y10539000D01*
X50542000Y10539000D02*
X48510000Y10539000D01*
X40382000Y10539000D02*
X38350000Y10539000D01*
X30222000Y10539000D02*
X28190000Y10539000D01*
X12950000Y13079000D02*
X14982000Y13079000D01*
X30730000Y13079000D02*
X32762000Y13079000D01*
X12696000Y10793000D02*
X12442000Y10539000D01*
X25396000Y10793000D02*
X25142000Y10539000D01*
X7616000Y10793000D02*
X7362000Y10539000D01*
X33016000Y10793000D02*
X32762000Y10539000D01*
X7870000Y13079000D02*
X9902000Y13079000D01*
X27682000Y10539000D02*
X25650000Y10539000D01*
X22602000Y10539000D02*
X20570000Y10539000D01*
X25142000Y10539000D02*
X23110000Y10539000D01*
X35556000Y12825000D02*
X35810000Y13079000D01*
X25396000Y10793000D02*
X25142000Y10539000D01*
X50796000Y10793000D02*
X50542000Y10539000D01*
X48002000Y13079000D02*
X48256000Y12825000D01*
X43430000Y13079000D02*
X45462000Y13079000D01*
X40890000Y10539000D02*
X40636000Y10793000D01*
X48510000Y10539000D02*
X48256000Y10793000D01*
X43430000Y10539000D02*
X43176000Y10793000D01*
X43430000Y13079000D02*
X45462000Y13079000D01*
X4822000Y13079000D02*
X5076000Y12825000D01*
X27936000Y12825000D02*
X28190000Y13079000D01*
X38096000Y12825000D02*
X38350000Y13079000D01*
X2536000Y10793000D02*
X2282000Y10539000D01*
X35302000Y13079000D02*
X35556000Y12825000D01*
X-4000Y13079000D02*
X250000Y13079000D01*
X48510000Y13079000D02*
X50542000Y13079000D01*
X23110000Y13079000D02*
X25142000Y13079000D01*
X37842000Y10539000D02*
X35810000Y10539000D01*
X10156000Y10793000D02*
X9902000Y10539000D01*
X20062000Y13079000D02*
X20316000Y12825000D01*
X33016000Y12825000D02*
X33270000Y13079000D01*
X10410000Y10539000D02*
X10156000Y10793000D01*
X23110000Y10539000D02*
X22856000Y10793000D01*
X37842000Y13079000D02*
X38096000Y12825000D01*
X25396000Y12825000D02*
X25650000Y13079000D01*
X22856000Y12825000D02*
X23110000Y13079000D01*
X12442000Y13079000D02*
X12696000Y12825000D01*
X4822000Y10539000D02*
X5076000Y10793000D01*
X10156000Y12825000D02*
X10410000Y13079000D01*
X38350000Y13079000D02*
X40382000Y13079000D01*
X20570000Y13079000D02*
X22602000Y13079000D01*
X12696000Y12825000D02*
X12950000Y13079000D01*
X50542000Y13079000D02*
X50796000Y12825000D01*
X17776000Y12825000D02*
X18030000Y13079000D01*
X38096000Y12825000D02*
X38350000Y13079000D01*
X7870000Y10539000D02*
X7616000Y10793000D01*
X17776000Y10793000D02*
X17522000Y10539000D01*
X38350000Y13079000D02*
X40382000Y13079000D01*
X35556000Y10793000D02*
X35302000Y10539000D01*
X-4000Y13079000D02*
X-4000Y10539000D01*
X4822000Y10539000D02*
X2790000Y10539000D01*
X250000Y13079000D02*
X2282000Y13079000D01*
X15236000Y10793000D02*
X14982000Y10539000D01*
X30730000Y10539000D02*
X30476000Y10793000D01*
X27936000Y10793000D02*
X27682000Y10539000D01*
X27682000Y13079000D02*
X27936000Y12825000D01*
X14982000Y10539000D02*
X12950000Y10539000D01*
X15236000Y12825000D02*
X15490000Y13079000D01*
X40382000Y13079000D02*
X40636000Y12825000D01*
X2282000Y10539000D02*
X504000Y10539000D01*
X25142000Y13079000D02*
X25396000Y12825000D01*
X40636000Y10793000D02*
X40382000Y10539000D01*
X50542000Y13079000D02*
X50796000Y12825000D01*
X45462000Y10539000D02*
X43430000Y10539000D01*
X17522000Y10539000D02*
X15490000Y10539000D01*
X27936000Y12825000D02*
X28190000Y13079000D01*
X12950000Y10539000D02*
X12696000Y10793000D01*
X33270000Y13079000D02*
X35302000Y13079000D01*
X30222000Y13079000D02*
X30476000Y12825000D01*
X42922000Y13079000D02*
X43176000Y12825000D01*
X38350000Y10539000D02*
X38096000Y10793000D01*
X48510000Y10539000D02*
X48256000Y10793000D01*
X20062000Y10539000D02*
X18030000Y10539000D01*
X32762000Y13079000D02*
X33016000Y12825000D01*
X40890000Y13079000D02*
X42922000Y13079000D01*
X5076000Y12825000D02*
X5330000Y13079000D01*
X38350000Y10539000D02*
X38096000Y10793000D01*
X2282000Y13079000D02*
X2536000Y12825000D01*
X15236000Y10793000D02*
X14982000Y10539000D01*
X32762000Y10539000D02*
X30730000Y10539000D01*
X33016000Y12825000D02*
X33270000Y13079000D01*
X250000Y10539000D02*
X-4000Y10793000D01*
X28190000Y10539000D02*
X27936000Y10793000D01*
X43176000Y12825000D02*
X43430000Y13079000D01*
X15490000Y13079000D02*
X17522000Y13079000D01*
X48256000Y12825000D02*
X48510000Y13079000D01*
X38096000Y10793000D02*
X37842000Y10539000D01*
X-4000Y12825000D02*
X250000Y13079000D01*
X50796000Y12825000D02*
X50796000Y10793000D01*
X2790000Y10539000D02*
X2536000Y10793000D01*
X35302000Y10539000D02*
X33270000Y10539000D01*
X12950000Y10539000D02*
X12696000Y10793000D01*
X48256000Y10793000D02*
X48002000Y10539000D01*
X33270000Y10539000D02*
X33016000Y10793000D01*
X50796000Y10793000D02*
X50542000Y10539000D01*
X22602000Y13079000D02*
X22856000Y12825000D01*
X17776000Y12825000D02*
X18030000Y13079000D01*
X30476000Y12825000D02*
X30730000Y13079000D01*
X14982000Y13079000D02*
X15236000Y12825000D01*
X2536000Y12825000D02*
X2790000Y13079000D01*
X33270000Y13079000D02*
X35302000Y13079000D01*
X2790000Y13079000D02*
X4822000Y13079000D01*
X48510000Y13079000D02*
X50542000Y13079000D01*
X35810000Y10539000D02*
X35556000Y10793000D01*
X25650000Y10539000D02*
X25396000Y10793000D01*
X20062000Y13079000D02*
X20316000Y12825000D01*
X35302000Y10539000D02*
X33270000Y10539000D01*
X45970000Y13079000D02*
X48002000Y13079000D01*
X45462000Y13079000D02*
X45716000Y12825000D01*
X5076000Y10793000D02*
X5330000Y10539000D01*
X45716000Y10793000D02*
X45462000Y10539000D01*
X10410000Y13079000D02*
X12442000Y13079000D01*
X45462000Y13079000D02*
X45716000Y12825000D01*
X43176000Y10793000D02*
X42922000Y10539000D01*
X7362000Y13079000D02*
X7616000Y12825000D01*
X22856000Y12825000D02*
X23110000Y13079000D01*
X35556000Y10793000D02*
X35302000Y10539000D01*
X35302000Y13079000D02*
X35556000Y12825000D01*
X504000Y10539000D02*
X-4000Y10539000D01*
X30476000Y10793000D02*
X30222000Y10539000D01*
X18030000Y10539000D02*
X17776000Y10793000D01*
X28190000Y13079000D02*
X30222000Y13079000D01*
X42922000Y10539000D02*
X40890000Y10539000D01*
X25650000Y13079000D02*
X27682000Y13079000D01*
X20316000Y10793000D02*
X20062000Y10539000D01*
X45462000Y10539000D02*
X43430000Y10539000D01*
X23110000Y13079000D02*
X25142000Y13079000D01*
X28190000Y10539000D02*
X27936000Y10793000D01*
X14982000Y13079000D02*
X15236000Y12825000D01*
X7616000Y12825000D02*
X7870000Y13079000D01*
X30222000Y10539000D02*
X28190000Y10539000D01*
X15490000Y10539000D02*
X15236000Y10793000D01*
X45716000Y10793000D02*
X45462000Y10539000D01*
X25142000Y13079000D02*
X25396000Y12825000D01*
X23110000Y10539000D02*
X22856000Y10793000D01*
X33270000Y10539000D02*
X33016000Y10793000D01*
X48256000Y12825000D02*
X48510000Y13079000D01*
X9902000Y13079000D02*
X10156000Y12825000D01*
X35810000Y13079000D02*
X37842000Y13079000D01*
D19*
X45609500Y58790000D02*
X45709500Y58890000D01*
X45609500Y59010000D02*
X45719500Y58910000D01*
D18*
X45877300Y58654400D02*
X45747300Y58544400D01*
D19*
X45609500Y59010000D02*
X45609500Y58790000D01*
D16*
X47096500Y58315800D02*
X46080500Y58315800D01*
D18*
X45745700Y58545400D02*
X45825700Y58555400D01*
D19*
X45799500Y59010000D02*
X45799500Y58790000D01*
D11*
X47261600Y59344500D02*
X47261600Y58519000D01*
X47109200Y58379300D02*
X47248900Y58506300D01*
D18*
X45670300Y58675400D02*
X45540300Y58565400D01*
X45745700Y58545400D02*
X45745700Y58625400D01*
X45530300Y58545400D02*
X45610300Y58555400D01*
D11*
X47109200Y59471500D02*
X47261600Y59344500D01*
D19*
X45439500Y58900000D02*
X45959500Y58900000D01*
D11*
X47096500Y58417400D02*
X47096500Y59458800D01*
D18*
X45530300Y58545400D02*
X45530300Y58625400D01*
D16*
X46080500Y59535000D02*
X47096500Y59535000D01*
D17*
X45897620Y56822280D02*
X45897620Y57421720D01*
X45501380Y56822280D02*
X45501380Y57421720D01*
X45501380Y57421720D02*
X45897620Y57421720D01*
X45501380Y56822280D02*
X45897620Y56822280D01*
X11624120Y20236720D02*
X11624120Y19637280D01*
X11227880Y20236720D02*
X11227880Y19637280D01*
X11624120Y20236720D02*
X11227880Y20236720D01*
X11624120Y19637280D02*
X11227880Y19637280D01*
X17085120Y34877280D02*
X16688880Y34877280D01*
X16688880Y35476720D02*
X16688880Y34877280D01*
X17085120Y35476720D02*
X16688880Y35476720D01*
X17085120Y35476720D02*
X17085120Y34877280D01*
D11*
X45589000Y30478000D02*
X46605000Y29843000D01*
D21*
X47174000Y28368000D02*
X47174000Y31368000D01*
D11*
X45589000Y29208000D02*
X46605000Y29843000D01*
X48723360Y28240260D02*
X43724640Y28240260D01*
X46605000Y30478000D02*
X46605000Y29208000D01*
X43724640Y31445740D02*
X48723360Y31445740D01*
X45589000Y30478000D02*
X45589000Y29208000D01*
X18639600Y35685000D02*
X19350800Y35685000D01*
X20773200Y35685000D02*
X21484400Y35685000D01*
X18639600Y36523200D02*
X18639600Y35685000D01*
X21484400Y36523200D02*
X21484400Y35685000D01*
D17*
X19990880Y42588720D02*
X19990880Y41989280D01*
X20387120Y41989280D02*
X19990880Y41989280D01*
X20387120Y42588720D02*
X19990880Y42588720D01*
X20387120Y42588720D02*
X20387120Y41989280D01*
D16*
X16074200Y36955000D02*
X16912400Y36955000D01*
X16074200Y38733000D02*
X16912400Y38733000D01*
D17*
X19990879Y38941280D02*
X19990879Y39540720D01*
X19990879Y39540720D02*
X20387119Y39540720D01*
X19990879Y38941280D02*
X20387119Y38941280D01*
X20387119Y38941280D02*
X20387119Y39540720D01*
D11*
X19427000Y45413200D02*
X19427000Y46124400D01*
X18588800Y43279600D02*
X19427000Y43279600D01*
X18588800Y46124400D02*
X19427000Y46124400D01*
X19427000Y43279600D02*
X19427000Y43990800D01*
D17*
X19990879Y41064720D02*
X20387119Y41064720D01*
X20387119Y40465280D02*
X20387119Y41064720D01*
X19990879Y40465280D02*
X19990879Y41064720D01*
X19990879Y40465280D02*
X20387119Y40465280D01*
X8449120Y21760720D02*
X8449120Y21161280D01*
X8449120Y21760720D02*
X8052880Y21760720D01*
X8052880Y21760720D02*
X8052880Y21161280D01*
X8449120Y21161280D02*
X8052880Y21161280D01*
X17085120Y33952720D02*
X16688880Y33952720D01*
X16688880Y33952720D02*
X16688880Y33353280D01*
X17085120Y33353280D02*
X16688880Y33353280D01*
X17085120Y33952720D02*
X17085120Y33353280D01*
D11*
X16506000Y41679400D02*
X17293400Y41679400D01*
X17293400Y41679400D02*
X17293400Y41019000D01*
X17293400Y38834600D02*
X16506000Y38834600D01*
X17293400Y39495000D02*
X17293400Y38834600D01*
X15972600Y40460200D02*
X15972600Y40053800D01*
X38781800Y16304800D02*
X36876800Y16304800D01*
X38096000Y16889000D02*
X37461000Y16889000D01*
X38781800Y16304800D02*
X38781800Y16127000D01*
X37080000Y17524000D02*
X38604000Y17524000D01*
X37829300Y18260600D02*
X37829300Y15784100D01*
X38477000Y17397000D02*
X37207000Y17397000D01*
X37969000Y16762000D02*
X37588000Y16762000D01*
X38781800Y17676400D02*
X37867400Y16304800D01*
X37334000Y17270000D02*
X38477000Y17270000D01*
X38781800Y16127000D02*
X36876800Y16127000D01*
X38223000Y17143000D02*
X37334000Y17143000D01*
X37867400Y16304800D02*
X36876800Y17676400D01*
X36876800Y16304800D02*
X36876800Y16127000D01*
X38223000Y17016000D02*
X37461000Y17016000D01*
X38781800Y17676400D02*
X36876800Y17676400D01*
X39493000Y17016000D02*
X40255000Y17016000D01*
X40839200Y17727200D02*
X40839200Y17905000D01*
X39886700Y15771400D02*
X39886700Y18247900D01*
X38934200Y17727200D02*
X40839200Y17727200D01*
X39747000Y17270000D02*
X40128000Y17270000D01*
X39620000Y17143000D02*
X40255000Y17143000D01*
X38934200Y16355600D02*
X39848600Y17727200D01*
X39848600Y17727200D02*
X40839200Y16355600D01*
X40636000Y16508000D02*
X39112000Y16508000D01*
X40382000Y16762000D02*
X39239000Y16762000D01*
X38934200Y17905000D02*
X40839200Y17905000D01*
X39493000Y16889000D02*
X40382000Y16889000D01*
X38934200Y16355600D02*
X40839200Y16355600D01*
X38934200Y17727200D02*
X38934200Y17905000D01*
X39239000Y16635000D02*
X40509000Y16635000D01*
D17*
X35474720Y47932880D02*
X35474720Y48329120D01*
X35474720Y47932880D02*
X34875280Y47932880D01*
X35474720Y48329120D02*
X34875280Y48329120D01*
X34875280Y47932880D02*
X34875280Y48329120D01*
X16688880Y31575280D02*
X16688880Y32174720D01*
X16688880Y31575280D02*
X17085120Y31575280D01*
X16688880Y32174720D02*
X17085120Y32174720D01*
X17085120Y31575280D02*
X17085120Y32174720D01*
X11624120Y21760720D02*
X11624120Y21161280D01*
X11624120Y21760720D02*
X11227880Y21760720D01*
X11227880Y21760720D02*
X11227880Y21161280D01*
X11624120Y21161280D02*
X11227880Y21161280D01*
X8052880Y20236720D02*
X8052880Y19637280D01*
X8449120Y20236720D02*
X8052880Y20236720D01*
X8449120Y19637280D02*
X8052880Y19637280D01*
X8449120Y20236720D02*
X8449120Y19637280D01*
X18736120Y22014720D02*
X18339880Y22014720D01*
X18736120Y22014720D02*
X18736120Y21415280D01*
X18339880Y22014720D02*
X18339880Y21415280D01*
X18736120Y21415280D02*
X18339880Y21415280D01*
X16815880Y23665720D02*
X16815880Y23066280D01*
X17212120Y23665720D02*
X17212120Y23066280D01*
X17212120Y23066280D02*
X16815880Y23066280D01*
X17212120Y23665720D02*
X16815880Y23665720D01*
D11*
X20570000Y21486400D02*
X20570000Y20775200D01*
X21408200Y21486400D02*
X20570000Y21486400D01*
X21408200Y18641600D02*
X20570000Y18641600D01*
X20570000Y19352800D02*
X20570000Y18641600D01*
D17*
X17847120Y19764280D02*
X17450880Y19764280D01*
X17847120Y20363720D02*
X17450880Y20363720D01*
X17847120Y20363720D02*
X17847120Y19764280D01*
X17450880Y20363720D02*
X17450880Y19764280D01*
X12894120Y39540720D02*
X12497880Y39540720D01*
X12894120Y38941280D02*
X12497880Y38941280D01*
X12497880Y39540720D02*
X12497880Y38941280D01*
X12894120Y39540720D02*
X12894120Y38941280D01*
X12894120Y36238720D02*
X12894120Y35639280D01*
X12894120Y35639280D02*
X12497880Y35639280D01*
X12894120Y36238720D02*
X12497880Y36238720D01*
X12497880Y36238720D02*
X12497880Y35639280D01*
X27870280Y8584841D02*
X27870280Y8188601D01*
X27870280Y8584841D02*
X28469720Y8584841D01*
X27870280Y8188601D02*
X28469720Y8188601D01*
X28469720Y8584841D02*
X28469720Y8188601D01*
X38823120Y9518900D02*
X38426880Y9518900D01*
X38823120Y9518900D02*
X38823120Y8919460D01*
X38823120Y8919460D02*
X38426880Y8919460D01*
X38426880Y9518900D02*
X38426880Y8919460D01*
X17726880Y7187109D02*
X18123120Y7187109D01*
X17726880Y7187109D02*
X17726880Y7786549D01*
X18123120Y7187109D02*
X18123120Y7786549D01*
X17726880Y7786549D02*
X18123120Y7786549D01*
D22*
X8820000Y2725000D02*
X8820000Y5225000D01*
X9990000Y755000D02*
X13870000Y755000D01*
X15040000Y5225000D02*
X13990000Y5225000D01*
X8820000Y5225000D02*
X9870000Y5225000D01*
X9870000Y5225000D02*
X9870000Y6215000D01*
X15040000Y2725000D02*
X15040000Y5225000D01*
D17*
X65628440Y7285280D02*
X65628440Y7884720D01*
X66024680Y7285280D02*
X66024680Y7884720D01*
X65628440Y7884720D02*
X66024680Y7884720D01*
X65628440Y7285280D02*
X66024680Y7285280D01*
X4260280Y8190240D02*
X4859720Y8190240D01*
X4859720Y8586480D02*
X4859720Y8190240D01*
X4260280Y8586480D02*
X4859720Y8586480D01*
X4260280Y8586480D02*
X4260280Y8190240D01*
D22*
X2120000Y755000D02*
X6000000Y755000D01*
X7170000Y5225000D02*
X6120000Y5225000D01*
X2000000Y5225000D02*
X2000000Y6215000D01*
X950000Y2725000D02*
X950000Y5225000D01*
X950000Y5225000D02*
X2000000Y5225000D01*
X7170000Y2725000D02*
X7170000Y5225000D01*
D20*
X53360000Y22635000D02*
X53360000Y34135000D01*
D19*
X50210000Y30925000D02*
X50210000Y30925000D01*
D20*
X70860000Y34135000D02*
X70860000Y22635000D01*
D19*
X50310000Y30925000D02*
X50310000Y30925000D01*
D20*
X53360000Y34135000D02*
X70860000Y34135000D01*
X70860000Y22635000D02*
X53360000Y22635000D01*
D19*
X50310000Y30925000D02*
G75*
G03*
X50210000Y30925000I-50000J0D01*
G01*
X50210000Y30925000D02*
G75*
G03*
X50310000Y30925000I50000J0D01*
G01*
D17*
X2086880Y7290280D02*
X2086880Y7889720D01*
X2086880Y7290280D02*
X2483120Y7290280D01*
X2483120Y7290280D02*
X2483120Y7889720D01*
X2086880Y7889720D02*
X2483120Y7889720D01*
D22*
X54970000Y2719115D02*
X54970000Y5219115D01*
X49920000Y749115D02*
X53800000Y749115D01*
X48750000Y5219115D02*
X49800000Y5219115D01*
X48750000Y2719115D02*
X48750000Y5219115D01*
X49800000Y5219115D02*
X49800000Y6209115D01*
X54970000Y5219115D02*
X53920000Y5219115D01*
X56620000Y2720112D02*
X56620000Y5220112D01*
X56620000Y5220112D02*
X57670000Y5220112D01*
X57670000Y5220112D02*
X57670000Y6210112D01*
X62840000Y2720112D02*
X62840000Y5220112D01*
X57790000Y750112D02*
X61670000Y750112D01*
X62840000Y5220112D02*
X61790000Y5220112D01*
D17*
X21475280Y8585769D02*
X22074720Y8585769D01*
X21475280Y8585769D02*
X21475280Y8189529D01*
X22074720Y8585769D02*
X22074720Y8189529D01*
X21475280Y8189529D02*
X22074720Y8189529D01*
D22*
X24560000Y5221721D02*
X25610000Y5221721D01*
X25610000Y5221721D02*
X25610000Y6211721D01*
X24560000Y2721721D02*
X24560000Y5221721D01*
X30780000Y5221721D02*
X29730000Y5221721D01*
X30780000Y2721721D02*
X30780000Y5221721D01*
X25730000Y751721D02*
X29610000Y751721D01*
D17*
X53535280Y8582235D02*
X54134720Y8582235D01*
X54134720Y8582235D02*
X54134720Y8185995D01*
X53535280Y8185995D02*
X54134720Y8185995D01*
X53535280Y8582235D02*
X53535280Y8185995D01*
D19*
X50210000Y18850000D02*
X50210000Y18850000D01*
D20*
X53360000Y10560000D02*
X53360000Y22060000D01*
X70860000Y22060000D02*
X70860000Y10560000D01*
D19*
X50310000Y18850000D02*
X50310000Y18850000D01*
D20*
X70860000Y10560000D02*
X53360000Y10560000D01*
X53360000Y22060000D02*
X70860000Y22060000D01*
D19*
X50210000Y18850000D02*
G75*
G03*
X50310000Y18850000I50000J0D01*
G01*
X50310000Y18850000D02*
G75*
G03*
X50210000Y18850000I-50000J0D01*
G01*
D17*
X51051880Y61050280D02*
X51448120Y61050280D01*
X51448120Y61050280D02*
X51448120Y61649720D01*
X51051880Y61050280D02*
X51051880Y61649720D01*
X51051880Y61649720D02*
X51448120Y61649720D01*
X57757720Y7285392D02*
X57757720Y7884832D01*
X57757720Y7884832D02*
X58153960Y7884832D01*
X58153960Y7285392D02*
X58153960Y7884832D01*
X57757720Y7285392D02*
X58153960Y7285392D01*
D22*
X60025000Y22385000D02*
X60025000Y21145000D01*
X51165000Y22145000D02*
X51165000Y10525000D01*
X59785000Y22145000D02*
X51165000Y22145000D01*
X59785000Y22145000D02*
X59785000Y10525000D01*
X58785000Y22385000D02*
X60025000Y22385000D01*
X59785000Y10525000D02*
X51165000Y10525000D01*
D17*
X52659720Y8578955D02*
X52659720Y8182715D01*
X52060280Y8578955D02*
X52060280Y8182715D01*
X52060280Y8578955D02*
X52659720Y8578955D01*
X52060280Y8182715D02*
X52659720Y8182715D01*
X60529720Y8583232D02*
X60529720Y8186992D01*
X59930280Y8583232D02*
X60529720Y8583232D01*
X59930280Y8583232D02*
X59930280Y8186992D01*
X59930280Y8186992D02*
X60529720Y8186992D01*
D22*
X60017500Y34445000D02*
X60017500Y33205000D01*
X58777500Y34445000D02*
X60017500Y34445000D01*
X59777500Y22585000D02*
X51157500Y22585000D01*
X59777500Y34205000D02*
X51157500Y34205000D01*
X51157500Y34205000D02*
X51157500Y22585000D01*
X59777500Y34205000D02*
X59777500Y22585000D01*
D17*
X5735280Y8588120D02*
X6334720Y8588120D01*
X5735280Y8191880D02*
X6334720Y8191880D01*
X5735280Y8588120D02*
X5735280Y8191880D01*
X6334720Y8588120D02*
X6334720Y8191880D01*
X35543120Y9519720D02*
X35146880Y9519720D01*
X35146880Y9519720D02*
X35146880Y8920280D01*
X35543120Y8920280D02*
X35146880Y8920280D01*
X35543120Y9519720D02*
X35543120Y8920280D01*
X29345280Y8584841D02*
X29345280Y8188601D01*
X29345280Y8188601D02*
X29944720Y8188601D01*
X29944720Y8584841D02*
X29944720Y8188601D01*
X29345280Y8584841D02*
X29944720Y8584841D01*
X49886040Y7284395D02*
X49886040Y7883835D01*
X50282280Y7284395D02*
X50282280Y7883835D01*
X49886040Y7883835D02*
X50282280Y7883835D01*
X49886040Y7284395D02*
X50282280Y7284395D01*
D22*
X40880000Y5218893D02*
X41930000Y5218893D01*
X47100000Y2718893D02*
X47100000Y5218893D01*
X41930000Y5218893D02*
X41930000Y6208893D01*
X40880000Y2718893D02*
X40880000Y5218893D01*
X42050000Y748893D02*
X45930000Y748893D01*
X47100000Y5218893D02*
X46050000Y5218893D01*
D17*
X67801000Y8586400D02*
X67801000Y8190160D01*
X67801000Y8586400D02*
X68400440Y8586400D01*
X68400440Y8586400D02*
X68400440Y8190160D01*
X67801000Y8190160D02*
X68400440Y8190160D01*
D22*
X55055000Y51200000D02*
X53775000Y51200000D01*
X58165000Y49290000D02*
X58165000Y48310000D01*
X58155000Y52900000D02*
X58155000Y53710000D01*
X58155000Y53710000D02*
X71175000Y53710000D01*
X56865000Y53500000D02*
X57465000Y53500000D01*
X55055000Y46400000D02*
X53775000Y46400000D01*
X55055000Y50600000D02*
X53775000Y50600000D01*
X71175000Y53710000D02*
X71175000Y48800000D01*
X55055000Y47000000D02*
X53775000Y47000000D01*
X57465000Y53500000D02*
X57165000Y52900000D01*
X58155000Y44700000D02*
X58155000Y43890000D01*
X57165000Y52900000D02*
X56865000Y53500000D01*
X71175000Y43890000D02*
X71175000Y48800000D01*
X58155000Y43890000D02*
X71175000Y43890000D01*
D17*
X58523120Y61050280D02*
X58523120Y61649720D01*
X58126880Y61050280D02*
X58126880Y61649720D01*
X58126880Y61050280D02*
X58523120Y61050280D01*
X58126880Y61649720D02*
X58523120Y61649720D01*
D22*
X35850000Y280000D02*
X33650000Y280000D01*
X35850000Y8350000D02*
X38050000Y8350000D01*
X35850000Y8350000D02*
X32250000Y8350000D01*
X35850000Y280000D02*
X38050000Y280000D01*
D17*
X9957720Y7290280D02*
X10353960Y7290280D01*
X9957720Y7889720D02*
X10353960Y7889720D01*
X9957720Y7290280D02*
X9957720Y7889720D01*
X10353960Y7290280D02*
X10353960Y7889720D01*
X13605280Y8588120D02*
X14204720Y8588120D01*
X13605280Y8588120D02*
X13605280Y8191880D01*
X13605280Y8191880D02*
X14204720Y8191880D01*
X14204720Y8588120D02*
X14204720Y8191880D01*
X42298120Y9279720D02*
X42298120Y8680280D01*
X42298120Y9279720D02*
X41901880Y9279720D01*
X42298120Y8680280D02*
X41901880Y8680280D01*
X41901880Y9279720D02*
X41901880Y8680280D01*
X45665280Y8185773D02*
X46264720Y8185773D01*
X45665280Y8582013D02*
X46264720Y8582013D01*
X46264720Y8582013D02*
X46264720Y8185773D01*
X45665280Y8582013D02*
X45665280Y8185773D01*
X20000280Y8585769D02*
X20000280Y8189529D01*
X20000280Y8189529D02*
X20599720Y8189529D01*
X20599720Y8585769D02*
X20599720Y8189529D01*
X20000280Y8585769D02*
X20599720Y8585769D01*
X25697720Y7287001D02*
X25697720Y7886441D01*
X25697720Y7287001D02*
X26093960Y7287001D01*
X26093960Y7287001D02*
X26093960Y7886441D01*
X25697720Y7886441D02*
X26093960Y7886441D01*
D22*
X64500000Y2720000D02*
X64500000Y5220000D01*
X64500000Y5220000D02*
X65550000Y5220000D01*
X70720000Y5220000D02*
X69670000Y5220000D01*
X65550000Y5220000D02*
X65550000Y6210000D01*
X70720000Y2720000D02*
X70720000Y5220000D01*
X65670000Y750000D02*
X69550000Y750000D01*
D17*
X42017720Y7883613D02*
X42413960Y7883613D01*
X42017720Y7284173D02*
X42017720Y7883613D01*
X42017720Y7284173D02*
X42413960Y7284173D01*
X42413960Y7284173D02*
X42413960Y7883613D01*
D16*
X56225000Y65700000D02*
X56125000Y65950000D01*
X53725000Y68200000D02*
X53725000Y65700000D01*
X56225000Y65700000D02*
X56325000Y65950000D01*
X52575000Y65700000D02*
X52675000Y65950000D01*
X53225000Y65700000D02*
X53125000Y65950000D01*
X54725000Y65700000D02*
X54825000Y65950000D01*
X56725000Y68200000D02*
X56725000Y65700000D01*
X55725000Y65700000D02*
X55625000Y65950000D01*
D11*
X50505000Y72768000D02*
X50505000Y70900000D01*
D16*
X57375000Y66450000D02*
X57375000Y65700000D01*
D11*
X59445000Y66900000D02*
X59445000Y68200000D01*
D16*
X54225000Y65700000D02*
X54125000Y65950000D01*
X58325000Y66450000D02*
X58325000Y65700000D01*
X54225000Y66450000D02*
X54225000Y65700000D01*
X58325000Y65700000D02*
X58425000Y65950000D01*
X54725000Y65700000D02*
X54625000Y65950000D01*
X54725000Y68200000D02*
X54725000Y65700000D01*
X51625000Y65700000D02*
X51525000Y65950000D01*
X53725000Y65700000D02*
X53625000Y65950000D01*
X56225000Y66450000D02*
X56225000Y65700000D01*
X55225000Y65700000D02*
X55325000Y65950000D01*
X55725000Y68200000D02*
X55725000Y65700000D01*
X56725000Y65700000D02*
X56825000Y65950000D01*
X53225000Y66450000D02*
X53225000Y65700000D01*
D11*
X50505000Y66900000D02*
X50505000Y68200000D01*
D16*
X55225000Y66450000D02*
X55225000Y65700000D01*
X52575000Y65700000D02*
X52575000Y66450000D01*
X57375000Y65700000D02*
X57475000Y65950000D01*
X51625000Y66450000D02*
X51625000Y65700000D01*
X53225000Y65700000D02*
X53325000Y65950000D01*
D11*
X59445000Y72768000D02*
X50505000Y72768000D01*
D16*
X58325000Y65700000D02*
X58225000Y65950000D01*
X51625000Y65700000D02*
X51725000Y65950000D01*
X55725000Y65700000D02*
X55825000Y65950000D01*
D11*
X59445000Y70900000D02*
X59445000Y72768000D01*
D16*
X57375000Y65700000D02*
X57275000Y65950000D01*
X52575000Y65700000D02*
X52475000Y65950000D01*
X54225000Y65700000D02*
X54325000Y65950000D01*
X53725000Y65700000D02*
X53825000Y65950000D01*
X55225000Y65700000D02*
X55125000Y65950000D01*
X56725000Y65700000D02*
X56625000Y65950000D01*
D17*
X69276000Y8583120D02*
X69875440Y8583120D01*
X69276000Y8583120D02*
X69276000Y8186880D01*
X69875440Y8583120D02*
X69875440Y8186880D01*
X69276000Y8186880D02*
X69875440Y8186880D01*
X12729720Y8586480D02*
X12729720Y8190240D01*
X12130280Y8586480D02*
X12729720Y8586480D01*
X12130280Y8586480D02*
X12130280Y8190240D01*
X12130280Y8190240D02*
X12729720Y8190240D01*
X31871880Y8920280D02*
X31871880Y9519720D01*
X32268120Y8920280D02*
X32268120Y9519720D01*
X31871880Y8920280D02*
X32268120Y8920280D01*
X31871880Y9519720D02*
X32268120Y9519720D01*
X61405280Y8583232D02*
X62004720Y8583232D01*
X62004720Y8583232D02*
X62004720Y8186992D01*
X61405280Y8583232D02*
X61405280Y8186992D01*
X61405280Y8186992D02*
X62004720Y8186992D01*
X44190280Y8184133D02*
X44789720Y8184133D01*
X44190280Y8580373D02*
X44789720Y8580373D01*
X44789720Y8580373D02*
X44789720Y8184133D01*
X44190280Y8580373D02*
X44190280Y8184133D01*
D22*
X22910000Y2722649D02*
X22910000Y5222649D01*
X16690000Y2722649D02*
X16690000Y5222649D01*
X17860000Y752649D02*
X21740000Y752649D01*
X16690000Y5222649D02*
X17740000Y5222649D01*
X22910000Y5222649D02*
X21860000Y5222649D01*
X17740000Y5222649D02*
X17740000Y6212649D01*
X71170000Y61524437D02*
X71170000Y71180000D01*
X62425000Y59595000D02*
X63675000Y59595000D01*
X70105563Y60460000D02*
X67320000Y60460000D01*
X61514437Y60460000D02*
X60450000Y61524437D01*
X60450000Y71180000D02*
X64300000Y71180000D01*
X63050000Y58970000D02*
X63050000Y60220000D01*
X60450000Y61524437D02*
X60450000Y71180000D01*
X71170000Y71180000D02*
X67320000Y71180000D01*
X61514437Y60460000D02*
X64300000Y60460000D01*
X70105563Y60460000D02*
X71170000Y61524437D01*
X57165000Y52900000D02*
X56865000Y53500000D01*
X55055000Y50600000D02*
X53775000Y50600000D01*
X55055000Y51200000D02*
X53775000Y51200000D01*
X71175000Y48800000D02*
X71175000Y43890000D01*
X64575000Y43890000D02*
X64575000Y38890000D01*
X58155000Y58710000D02*
X58155000Y52900000D01*
X58165000Y49290000D02*
X58165000Y48310000D01*
X64575000Y58710000D02*
X58155000Y58710000D01*
X57465000Y53500000D02*
X57165000Y52900000D01*
X71175000Y48800000D02*
X71175000Y53710000D01*
X55055000Y47000000D02*
X53775000Y47000000D01*
X71175000Y53710000D02*
X64575000Y53710000D01*
X56865000Y53500000D02*
X57465000Y53500000D01*
X64575000Y38890000D02*
X58155000Y38890000D01*
X64575000Y53710000D02*
X64575000Y58710000D01*
X58155000Y38890000D02*
X58155000Y44700000D01*
X71175000Y43890000D02*
X64575000Y43890000D01*
X55055000Y46400000D02*
X53775000Y46400000D01*
D23*
X51610000Y30925000D03*
D24*
X51610000Y28385000D03*
X51610000Y25845000D03*
D23*
X51610000Y18850000D03*
D24*
X51610000Y16310000D03*
X51610000Y13770000D03*
%LPC*%
D25*
X5203000Y19175000D03*
X1901000Y15746000D03*
X5203000Y15873000D03*
X3552000Y15111000D03*
X1139000Y17524000D03*
X3552000Y19937000D03*
X5965000Y17524000D03*
X1901000Y19175000D03*
D26*
X3552000Y17524000D03*
D27*
X36064000Y34963640D03*
X36064000Y36660360D03*
X34540000Y34963640D03*
X34540000Y36660360D03*
D28*
X15733840Y27176000D03*
X17532160Y27176000D03*
D29*
X36826000Y48979360D03*
X36826000Y47282640D03*
X39874000Y36787360D03*
X39874000Y35090640D03*
X28190000Y36660360D03*
X28190000Y34963640D03*
D30*
X34072640Y45591000D03*
X35769360Y45591000D03*
D31*
X24847360Y44956000D03*
X23150640Y44956000D03*
X24847360Y40003000D03*
X23150640Y40003000D03*
X24847360Y41527000D03*
X23150640Y41527000D03*
X37166360Y41146000D03*
X35469640Y41146000D03*
D32*
X37969000Y35177000D03*
X37969000Y37209000D03*
D33*
X17649000Y25271000D03*
X15617000Y25271000D03*
D34*
X46461500Y54455000D03*
X44937500Y54455000D03*
D30*
X11847640Y44067000D03*
X13544360Y44067000D03*
D27*
X22094000Y66586640D03*
X22094000Y68283360D03*
D29*
X42033000Y63711360D03*
X42033000Y62014640D03*
X28952000Y48979360D03*
X28952000Y47282640D03*
X26666000Y48979360D03*
X26666000Y47282640D03*
X32762000Y48979360D03*
X32762000Y47282640D03*
X30476000Y48979360D03*
X30476000Y47282640D03*
D30*
X31278640Y15301500D03*
X32975360Y15301500D03*
X35469640Y39625000D03*
X37166360Y39625000D03*
D31*
X24847360Y46734000D03*
X23150640Y46734000D03*
D30*
X39406640Y20826000D03*
X41103360Y20826000D03*
D31*
X26117360Y22858000D03*
X24420640Y22858000D03*
D35*
X23745000Y35050000D03*
X23745000Y36574000D03*
D36*
X24634000Y35050000D03*
X24634000Y36574000D03*
X25396000Y35050000D03*
X25396000Y36574000D03*
D35*
X26285000Y35050000D03*
X26285000Y36574000D03*
D37*
X32635000Y36574000D03*
X32635000Y35050000D03*
D38*
X31746000Y36574000D03*
X31746000Y35050000D03*
X30984000Y36574000D03*
X30984000Y35050000D03*
D37*
X30095000Y36574000D03*
X30095000Y35050000D03*
D39*
X1910000Y65252000D03*
X1910000Y63982000D03*
X1910000Y62712000D03*
X1910000Y61442000D03*
X1910000Y60172000D03*
X1910000Y58902000D03*
X1910000Y57632000D03*
X1910000Y56362000D03*
X1910000Y55092000D03*
X1910000Y53822000D03*
X1910000Y52552000D03*
X1910000Y51282000D03*
X1910000Y50012000D03*
X1910000Y48742000D03*
D40*
X4710000Y47742000D03*
X5980000Y47742000D03*
X7250000Y47742000D03*
X8520000Y47742000D03*
X9790000Y47742000D03*
X11060000Y47742000D03*
X12330000Y47742000D03*
X13600000Y47742000D03*
X14870000Y47742000D03*
X16140000Y47742000D03*
D39*
X18910000Y48742000D03*
X18910000Y50012000D03*
X18910000Y51282000D03*
X18910000Y52552000D03*
X18910000Y53822000D03*
X18910000Y55092000D03*
X18910000Y56362000D03*
X18910000Y57632000D03*
X18910000Y58902000D03*
X18910000Y60172000D03*
X18910000Y61442000D03*
X18910000Y62712000D03*
X18910000Y63982000D03*
X18910000Y65252000D03*
D41*
X9410000Y57742000D03*
D42*
X9410000Y57742000D03*
D43*
X27899000Y43531000D03*
X27899000Y43031000D03*
X27899000Y42531000D03*
X27899000Y42031000D03*
X27899000Y41531000D03*
X27899000Y41031000D03*
X27899000Y40531000D03*
X27899000Y40031000D03*
D44*
X28599000Y39331000D03*
X29099000Y39331000D03*
X29599000Y39331000D03*
X30099000Y39331000D03*
X30599000Y39331000D03*
X31099000Y39331000D03*
X31599000Y39331000D03*
X32099000Y39331000D03*
D45*
X32799000Y40031000D03*
X32799000Y40531000D03*
X32799000Y41031000D03*
X32799000Y41531000D03*
X32799000Y42031000D03*
X32799000Y42531000D03*
X32799000Y43031000D03*
X32799000Y43531000D03*
D46*
X32099000Y44231000D03*
X31599000Y44231000D03*
X31099000Y44231000D03*
X30599000Y44231000D03*
X30099000Y44231000D03*
X29599000Y44231000D03*
X29099000Y44231000D03*
X28599000Y44231000D03*
D47*
X31649000Y42281000D03*
X30849000Y43081000D03*
X29849000Y43081000D03*
D48*
X30349000Y41781000D03*
D47*
X31649000Y41281000D03*
X29049000Y41281000D03*
X30849000Y40481000D03*
D49*
X30349000Y41781000D03*
D47*
X29049000Y42281000D03*
X29849000Y40481000D03*
D50*
X2727000Y24850000D03*
X2727000Y25950000D03*
X2727000Y27050000D03*
X2727000Y28150000D03*
X2727000Y29250000D03*
X2727000Y30350000D03*
X2727000Y31450000D03*
X2727000Y32550000D03*
D51*
X1007000Y21880000D03*
X12807000Y22970000D03*
X12807000Y34240000D03*
X1007000Y34240000D03*
D52*
X11977000Y31610000D03*
X11977000Y25550000D03*
D31*
X17481360Y28954000D03*
X15784640Y28954000D03*
D53*
X9521000Y42670000D03*
X1647000Y42670000D03*
X9521000Y36828000D03*
X1647000Y36828000D03*
D54*
X26285000Y61466000D03*
X37715000Y61466000D03*
D55*
X36455000Y54766000D03*
X35185000Y52226000D03*
X33915000Y54766000D03*
X32645000Y52226000D03*
X31375000Y54766000D03*
X30105000Y52226000D03*
X28835000Y54766000D03*
X27565000Y52226000D03*
D56*
X27930000Y66214500D03*
X38610000Y66214500D03*
D57*
X39800000Y58416000D03*
X24200000Y58416000D03*
D56*
X25390000Y66214500D03*
X36070000Y66214500D03*
D58*
X22475000Y56007540D03*
X22475000Y53208460D03*
D59*
X22475000Y60828460D03*
X22475000Y63627540D03*
D31*
X46547860Y52677000D03*
X44851140Y52677000D03*
X26117360Y25525000D03*
X24420640Y25525000D03*
D30*
X39914640Y25525000D03*
X41611360Y25525000D03*
D31*
X26117360Y18667000D03*
X24420640Y18667000D03*
D30*
X39406640Y22350000D03*
X41103360Y22350000D03*
D60*
X48470000Y33145000D03*
X43470000Y33145000D03*
D61*
X46798040Y35720560D03*
X48700500Y35720560D03*
X47745460Y37930360D03*
D62*
X28317000Y27430000D03*
X37715000Y27430000D03*
D63*
X22439440Y22670040D03*
X22439440Y24572500D03*
X20229640Y23617460D03*
D31*
X45040360Y35939000D03*
X43343640Y35939000D03*
X26117360Y21080000D03*
X24420640Y21080000D03*
X13544360Y42543000D03*
X11847640Y42543000D03*
D30*
X11847640Y41019000D03*
X13544360Y41019000D03*
D64*
X35746500Y17139000D03*
X35746500Y17789000D03*
X35746500Y18439000D03*
X35746500Y19089000D03*
X35746500Y19739000D03*
X35746500Y20389000D03*
X35746500Y21039000D03*
X35746500Y21689000D03*
X35746500Y22339000D03*
X35746500Y22989000D03*
X28507500Y22989000D03*
X28507500Y22339000D03*
X28507500Y21689000D03*
X28507500Y21039000D03*
X28507500Y20389000D03*
X28507500Y19739000D03*
X28507500Y19089000D03*
X28507500Y18439000D03*
X28507500Y17789000D03*
X28507500Y17139000D03*
D25*
X45081000Y70356000D03*
X45081000Y66927000D03*
X49145000Y68705000D03*
X48383000Y70356000D03*
X44319000Y68705000D03*
X48383000Y67054000D03*
X46732000Y71118000D03*
D26*
X46732000Y68705000D03*
D25*
X46732000Y66292000D03*
D65*
X1266000Y11809000D03*
D66*
X3806000Y11809000D03*
X6346000Y11809000D03*
X8886000Y11809000D03*
X11426000Y11809000D03*
X13966000Y11809000D03*
X16506000Y11809000D03*
X19046000Y11809000D03*
X21586000Y11809000D03*
X24126000Y11809000D03*
X26666000Y11809000D03*
X29206000Y11809000D03*
X31746000Y11809000D03*
X34286000Y11809000D03*
X36826000Y11809000D03*
X39366000Y11809000D03*
X41906000Y11809000D03*
X44446000Y11809000D03*
X46986000Y11809000D03*
X49526000Y11809000D03*
D34*
X46461500Y58900000D03*
X44937500Y58900000D03*
D30*
X44851140Y57122000D03*
X46547860Y57122000D03*
D31*
X12274360Y19937000D03*
X10577640Y19937000D03*
X17735360Y35177000D03*
X16038640Y35177000D03*
D67*
X48401000Y29843000D03*
X44047000Y29843000D03*
D68*
X21011960Y37427440D03*
X19109500Y37427440D03*
X20064540Y35217640D03*
D31*
X21037360Y42289000D03*
X19340640Y42289000D03*
D69*
X15490000Y37844000D03*
X17522000Y37844000D03*
D30*
X19340639Y39241000D03*
X21037359Y39241000D03*
D70*
X17684560Y45651960D03*
X17684560Y43749500D03*
X19894360Y44704540D03*
D30*
X19340639Y40765000D03*
X21037359Y40765000D03*
D31*
X9099360Y21461000D03*
X7402640Y21461000D03*
X17735360Y33653000D03*
X16038640Y33653000D03*
D71*
X15533000Y41207000D03*
X15533000Y39307000D03*
X17733000Y40257000D03*
D72*
X37842000Y15116000D03*
X37842000Y18916000D03*
D71*
X39874000Y18916000D03*
X39874000Y15116000D03*
D73*
X47825000Y63950000D03*
D27*
X35175000Y47282640D03*
X35175000Y48979360D03*
D30*
X16038640Y31875000D03*
X17735360Y31875000D03*
D31*
X12274360Y21461000D03*
X10577640Y21461000D03*
X9099360Y19937000D03*
X7402640Y19937000D03*
X19386360Y21715000D03*
X17689640Y21715000D03*
X17862360Y23366000D03*
X16165640Y23366000D03*
D63*
X22312440Y19114040D03*
X22312440Y21016500D03*
X20102640Y20061460D03*
D31*
X18497360Y20064000D03*
X16800640Y20064000D03*
X13544360Y39241000D03*
X11847640Y39241000D03*
X13544360Y35939000D03*
X11847640Y35939000D03*
D29*
X28170000Y9235081D03*
X28170000Y7538361D03*
D31*
X39473360Y9219180D03*
X37776640Y9219180D03*
D30*
X17076640Y7486829D03*
X18773360Y7486829D03*
D74*
X10430000Y5440000D03*
X11430000Y5440000D03*
X12430000Y5440000D03*
X13430000Y5440000D03*
D75*
X14730000Y1565000D03*
X9130000Y1565000D03*
D30*
X64978200Y7585000D03*
X66674920Y7585000D03*
D76*
X47977600Y26400000D03*
X44472400Y26400000D03*
D29*
X4560000Y9236720D03*
X4560000Y7540000D03*
D74*
X2560000Y5440000D03*
X3560000Y5440000D03*
X4560000Y5440000D03*
X5560000Y5440000D03*
D75*
X1260000Y1565000D03*
X6860000Y1565000D03*
D55*
X26300000Y54775000D03*
D77*
X51610000Y30925000D03*
D78*
X51610000Y28385000D03*
X51610000Y25845000D03*
D30*
X1436640Y7590000D03*
X3133360Y7590000D03*
D74*
X50360000Y5434115D03*
X51360000Y5434115D03*
X52360000Y5434115D03*
X53360000Y5434115D03*
D75*
X54660000Y1559115D03*
X49060000Y1559115D03*
D74*
X58230000Y5435112D03*
X59230000Y5435112D03*
X60230000Y5435112D03*
X61230000Y5435112D03*
D75*
X56930000Y1560112D03*
X62530000Y1560112D03*
D29*
X21775000Y9236009D03*
X21775000Y7539289D03*
D74*
X26170000Y5436721D03*
X27170000Y5436721D03*
X28170000Y5436721D03*
X29170000Y5436721D03*
D75*
X30470000Y1561721D03*
X24870000Y1561721D03*
D29*
X53835000Y9232475D03*
X53835000Y7535755D03*
D77*
X51610000Y18850000D03*
D78*
X51610000Y16310000D03*
X51610000Y13770000D03*
D30*
X50401640Y61350000D03*
X52098360Y61350000D03*
X57107480Y7585112D03*
X58804200Y7585112D03*
D79*
X57725000Y18875000D03*
D80*
X57725000Y16335000D03*
X57725000Y13795000D03*
D29*
X52360000Y9229195D03*
X52360000Y7532475D03*
X60230000Y9233472D03*
X60230000Y7536752D03*
D79*
X57717500Y30935000D03*
D80*
X57717500Y28395000D03*
X57717500Y25855000D03*
D29*
X6035000Y9238360D03*
X6035000Y7541640D03*
D31*
X36193360Y9220000D03*
X34496640Y9220000D03*
D29*
X29645000Y9235081D03*
X29645000Y7538361D03*
D30*
X49235800Y7584115D03*
X50932520Y7584115D03*
D74*
X42490000Y5433893D03*
X43490000Y5433893D03*
X44490000Y5433893D03*
X45490000Y5433893D03*
D75*
X46790000Y1558893D03*
X41190000Y1558893D03*
D29*
X68100720Y9236640D03*
X68100720Y7539920D03*
D81*
X64465000Y48800000D03*
D82*
X57165000Y50900000D03*
D83*
X57165000Y46700000D03*
X51665000Y50900000D03*
X51665000Y46700000D03*
D30*
X57476640Y61350000D03*
X59173360Y61350000D03*
D84*
X32987500Y7890000D03*
X32987500Y7240000D03*
X32987500Y6590000D03*
X32987500Y5940000D03*
X32987500Y5290000D03*
X32987500Y4640000D03*
X32987500Y3990000D03*
X32987500Y3340000D03*
X32987500Y2690000D03*
X32987500Y2040000D03*
X32987500Y1390000D03*
X32987500Y740000D03*
X38712500Y740000D03*
X38712500Y1390000D03*
X38712500Y2040000D03*
X38712500Y2690000D03*
X38712500Y3340000D03*
X38712500Y3990000D03*
X38712500Y4640000D03*
X38712500Y5290000D03*
X38712500Y5940000D03*
X38712500Y6590000D03*
X38712500Y7240000D03*
X38712500Y7890000D03*
D30*
X9307480Y7590000D03*
X11004200Y7590000D03*
D29*
X13905000Y9238360D03*
X13905000Y7541640D03*
D31*
X42948360Y8980000D03*
X41251640Y8980000D03*
D29*
X45965000Y9232253D03*
X45965000Y7535533D03*
X20300000Y9236009D03*
X20300000Y7539289D03*
D30*
X25047480Y7586721D03*
X26744200Y7586721D03*
D74*
X66110000Y5435000D03*
X67110000Y5435000D03*
X68110000Y5435000D03*
X69110000Y5435000D03*
D75*
X70410000Y1560000D03*
X64810000Y1560000D03*
D30*
X41367480Y7583893D03*
X43064200Y7583893D03*
D85*
X57865000Y65920000D03*
X52085000Y65920000D03*
D86*
X50047400Y69600000D03*
D87*
X59295000Y65420000D03*
D88*
X59902600Y65420000D03*
D89*
X59295000Y69600000D03*
D87*
X50655000Y65420000D03*
D86*
X59902600Y69600000D03*
D89*
X50655000Y69600000D03*
D88*
X50047400Y65420000D03*
D90*
X58300000Y64518000D03*
X57500000Y64518000D03*
D91*
X56225000Y64518000D03*
X55225000Y64518000D03*
X54725000Y64518000D03*
X53725000Y64518000D03*
D90*
X52450000Y64518000D03*
X51650000Y64518000D03*
X51900000Y64518000D03*
X52700000Y64518000D03*
D91*
X53225000Y64518000D03*
X54225000Y64518000D03*
X55725000Y64518000D03*
X56725000Y64518000D03*
D90*
X57250000Y64518000D03*
X58050000Y64518000D03*
D29*
X69575720Y9233360D03*
X69575720Y7536640D03*
D92*
X49225000Y61350000D03*
D29*
X12430000Y9236720D03*
X12430000Y7540000D03*
D93*
X46475000Y15975000D03*
X46475000Y19480200D03*
D55*
X37715000Y52225000D03*
D30*
X31221640Y9220000D03*
X32918360Y9220000D03*
D29*
X61705000Y9233472D03*
X61705000Y7536752D03*
X44490000Y9230613D03*
X44490000Y7533893D03*
D74*
X18300000Y5437649D03*
X19300000Y5437649D03*
X20300000Y5437649D03*
X21300000Y5437649D03*
D75*
X22600000Y1562649D03*
X17000000Y1562649D03*
D94*
X65810000Y61620000D03*
X65810000Y70020000D03*
D54*
X61365000Y42200000D03*
X61365000Y55400000D03*
D82*
X57165000Y50900000D03*
D83*
X57165000Y46700000D03*
X51665000Y50900000D03*
X51665000Y46700000D03*
D93*
X43425000Y15975000D03*
X43425000Y19480200D03*
D95*
X13760000Y26541000D03*
X13760000Y25525000D03*
X13760000Y24509000D03*
D96*
X35429000Y37590000D03*
X34540000Y37590000D03*
D95*
X39747000Y46734000D03*
X39747000Y47877000D03*
X39747000Y49020000D03*
X39747000Y42162000D03*
X39747000Y41019000D03*
X39747000Y39876000D03*
X39747000Y38733000D03*
X29587000Y30097000D03*
X32254000Y30097000D03*
X34032000Y30097000D03*
X35937000Y30097000D03*
X32254000Y28954000D03*
X30857000Y30097000D03*
X28317000Y30097000D03*
X29587000Y28954000D03*
X37715000Y30097000D03*
X25777000Y28954000D03*
X25777000Y30097000D03*
X27047000Y28954000D03*
X27047000Y30097000D03*
X45335000Y61085000D03*
X45335000Y62355000D03*
X45335000Y63625000D03*
X45335000Y64895000D03*
X38858000Y17016000D03*
X42795000Y64895000D03*
X44065000Y64895000D03*
X44065000Y63625000D03*
X44065000Y62355000D03*
X41652000Y65530000D03*
X41652000Y67435000D03*
X41652000Y69340000D03*
X41652000Y71245000D03*
X44050000Y61100000D03*
X46605000Y61085000D03*
X46605000Y62355000D03*
X37207000Y24382000D03*
X13585000Y61720000D03*
X20570000Y71626000D03*
X20570000Y70356000D03*
X20570000Y67816000D03*
X20570000Y69086000D03*
X20570000Y66546000D03*
X12442000Y37336000D03*
X11299000Y37336000D03*
X55150000Y28385000D03*
X13766000Y32622000D03*
X61490000Y30950000D03*
X60185000Y18845000D03*
X67805000Y17590000D03*
X65290000Y12515000D03*
X69090000Y11235000D03*
X69080000Y32220000D03*
X60205000Y16295000D03*
X4700000Y30350000D03*
X63985000Y20130000D03*
X12325000Y56625000D03*
X62760000Y12505000D03*
X65280000Y33500000D03*
X42895000Y48570000D03*
X8500000Y62945000D03*
X9770000Y62945000D03*
X5960000Y65485000D03*
X55185000Y23310000D03*
X60205000Y17565000D03*
X64005000Y15040000D03*
X64030000Y12505000D03*
X33524000Y37717000D03*
X14855000Y61720000D03*
X61455000Y21390000D03*
X24258000Y26561000D03*
X45650000Y44630000D03*
X43459261Y41080000D03*
X53915000Y23310000D03*
X13766000Y31606000D03*
X67830000Y29690000D03*
X8500000Y64215000D03*
X12305000Y65510000D03*
X45650000Y43360000D03*
X57655000Y21375000D03*
X39747000Y43305000D03*
X61490000Y29680000D03*
X20550000Y26550000D03*
X36826000Y44702000D03*
X69090000Y29680000D03*
X4568000Y37589848D03*
X61480000Y32220000D03*
X56400000Y21375000D03*
X27936000Y25652000D03*
D96*
X11426000Y45337000D03*
D95*
X69090000Y12505000D03*
X61490000Y13775000D03*
X12305000Y61700000D03*
X56430000Y11210000D03*
X35937000Y26033000D03*
X41450000Y41175000D03*
X64030000Y13775000D03*
X42895000Y51110000D03*
X62760000Y13775000D03*
X39747000Y44448000D03*
X13585000Y59165000D03*
D96*
X40174428Y9133880D03*
D95*
X31619000Y24382000D03*
X4695000Y45464000D03*
X17350000Y30575000D03*
X70355000Y33490000D03*
X69115000Y23335000D03*
X4695000Y49147000D03*
X61490000Y12505000D03*
X30349000Y25652000D03*
X56425000Y33475000D03*
X69090000Y28410000D03*
X66535000Y17590000D03*
X12305000Y62970000D03*
X43049000Y35050000D03*
X65290000Y13785000D03*
X69055000Y21390000D03*
X17776000Y42289000D03*
X67825000Y33510000D03*
X62735000Y16310000D03*
X42895000Y52375000D03*
X67855000Y24615000D03*
X35937000Y29081000D03*
X34032000Y28954000D03*
X64005000Y16310000D03*
X31492000Y22858000D03*
X70360000Y30950000D03*
X61465000Y16310000D03*
X16115000Y65500000D03*
X7230000Y65485000D03*
X65265000Y17590000D03*
X58220000Y4230000D03*
X13575000Y64240000D03*
X62755000Y32220000D03*
D96*
X12442010Y45337000D03*
D95*
X61515000Y25875000D03*
X61455000Y20120000D03*
X65315000Y23345000D03*
X70360000Y28410000D03*
X20550000Y28591000D03*
X60230000Y11220000D03*
X11035000Y61700000D03*
X4695000Y23874000D03*
X36826000Y45718000D03*
X58955000Y33475000D03*
X45650000Y42090000D03*
X39154589Y34345411D03*
X60230000Y28395000D03*
X64000000Y21400000D03*
X69055000Y20120000D03*
X65265000Y18860000D03*
X46920000Y40825000D03*
X14855000Y59165000D03*
X9765000Y65510000D03*
X66560000Y30960000D03*
X70385000Y24605000D03*
X70355000Y32220000D03*
X60230000Y27125000D03*
X46925000Y47165000D03*
D96*
X631000Y27557000D03*
D95*
X62755000Y33490000D03*
X64055000Y24605000D03*
X61515000Y24605000D03*
X67810000Y30970000D03*
X64030000Y28410000D03*
X64030000Y29680000D03*
X67810000Y32240000D03*
X14845000Y65500000D03*
X60210000Y30945000D03*
X10420000Y4215669D03*
X44700000Y28065000D03*
X8568500Y49401561D03*
X41625000Y53645000D03*
X25015000Y48067500D03*
X67830000Y11245000D03*
X66530000Y21400000D03*
X70330000Y21390000D03*
X70330000Y20120000D03*
X2560000Y4220000D03*
X24258000Y27577000D03*
X67855000Y23345000D03*
X63985000Y18860000D03*
X11035000Y62970000D03*
X55160000Y11210000D03*
X13575000Y65510000D03*
X70335000Y16310000D03*
X53890000Y11210000D03*
X57680000Y33475000D03*
X61515000Y23335000D03*
X42489227Y4220000D03*
X57690000Y11220000D03*
X11035000Y65510000D03*
X69065000Y18850000D03*
X66560000Y12515000D03*
X14855000Y60435000D03*
X66560000Y13785000D03*
X67785000Y18870000D03*
X13766000Y30590000D03*
X13585000Y55355000D03*
X65255000Y21400000D03*
X61490000Y27140000D03*
X13585000Y57895000D03*
X64030000Y27140000D03*
X62785000Y24605000D03*
X41450000Y39905000D03*
X13585000Y60435000D03*
X9765000Y64240000D03*
X23110000Y65149000D03*
X64025000Y33500000D03*
X69080000Y33490000D03*
X69090000Y27140000D03*
X57715000Y23320000D03*
X66535000Y16320000D03*
X66560000Y15055000D03*
X37715000Y29081000D03*
X55135000Y16285000D03*
X61465000Y18850000D03*
X8500000Y65485000D03*
X22957600Y51687000D03*
X65315000Y24615000D03*
X21332000Y35685000D03*
X61490000Y28410000D03*
X23070479Y45805479D03*
X35936992Y24382000D03*
X65290000Y29690000D03*
X70360000Y13775000D03*
X56455000Y23310000D03*
X62735000Y17580000D03*
X41625000Y52375000D03*
X62785000Y27145000D03*
X70335000Y17580000D03*
X17385000Y65500000D03*
X66585000Y25885000D03*
X66555000Y32230000D03*
X64005000Y17580000D03*
X22094000Y71626000D03*
X12325000Y55355000D03*
X60255000Y25860000D03*
X12315000Y60435000D03*
X60205000Y15025000D03*
X11035000Y64240000D03*
X12325000Y57895000D03*
X42895000Y47300000D03*
X34032000Y21334000D03*
D96*
X32761988Y44448000D03*
D95*
X43684000Y28065000D03*
X46920000Y44630000D03*
D96*
X33524000Y43940000D03*
D95*
X46470000Y51525000D03*
X62760000Y30950000D03*
X42895000Y53645000D03*
X62760000Y28410000D03*
X69090000Y30950000D03*
X12305000Y64240000D03*
X62785000Y23335000D03*
D96*
X631000Y23493000D03*
D95*
X16115000Y62975000D03*
X66530000Y20130000D03*
X45195000Y49010000D03*
X70360000Y12505000D03*
X42895000Y49840000D03*
X7489000Y49401000D03*
X20550000Y27575000D03*
X61480000Y33490000D03*
X41625000Y48570000D03*
X65255000Y20130000D03*
X43475000Y43575000D03*
X69115000Y25875000D03*
X61465000Y15040000D03*
X44812500Y56175000D03*
X50340000Y4230000D03*
X65280000Y32230000D03*
X43475000Y39825000D03*
X67830000Y12515000D03*
X62785000Y25875000D03*
X70360000Y29680000D03*
X21967000Y51687000D03*
X64030000Y11235000D03*
X29206000Y35177000D03*
X53880000Y28385000D03*
X60255000Y23320000D03*
X65290000Y11245000D03*
X60225000Y33485000D03*
X8500000Y61675000D03*
X46920000Y42090000D03*
X62760000Y11235000D03*
X67830000Y27150000D03*
X64010000Y30960000D03*
X70385000Y25875000D03*
X62760000Y15045000D03*
X33524000Y38860000D03*
X12325000Y59165000D03*
X16125000Y61705000D03*
X41625000Y51110000D03*
X66560000Y29690000D03*
X64010000Y32230000D03*
X65315000Y25885000D03*
X35774009Y5859842D03*
X65290000Y27150000D03*
X26170000Y4216721D03*
X24258000Y28593000D03*
X60230000Y29665000D03*
X37715000Y26098570D03*
X62730000Y21390000D03*
X14855000Y57895000D03*
X60200000Y21385000D03*
X14845000Y64250000D03*
X53880000Y33465000D03*
X67805000Y15050000D03*
X39747000Y45591000D03*
X69090000Y13775000D03*
X62760000Y29680000D03*
X60255000Y24590000D03*
X45200000Y51525000D03*
X62730000Y20120000D03*
X44940000Y20740000D03*
X67830000Y28420000D03*
X45650000Y39555000D03*
X69065000Y15040000D03*
X53855000Y21365000D03*
X58930000Y21375000D03*
X33143000Y27176000D03*
X69065000Y16310000D03*
X55130000Y21365000D03*
X70335000Y18850000D03*
X60230000Y13760000D03*
X55155000Y33465000D03*
X66555000Y33500000D03*
X60230000Y12490000D03*
X28317000Y28954000D03*
X41625000Y47300000D03*
X7230000Y61675000D03*
X20570000Y48131000D03*
X65290000Y28420000D03*
X41450000Y42445000D03*
X16115000Y64250000D03*
X70385000Y23335000D03*
X46920000Y45900000D03*
X61465000Y17580000D03*
X66585000Y24615000D03*
X66560000Y11245000D03*
X67830000Y13785000D03*
X67800000Y21410000D03*
X58960000Y11220000D03*
X69115000Y24605000D03*
X58985000Y23320000D03*
X66100000Y4230000D03*
X7230000Y64215000D03*
X60185000Y20115000D03*
X13585000Y56625000D03*
X45650000Y40825000D03*
X20323700Y65492519D03*
X14845000Y62975000D03*
X66585000Y27155000D03*
X70360000Y11235000D03*
X13575000Y62970000D03*
X67855000Y25885000D03*
X9765000Y61700000D03*
X7230000Y62945000D03*
X4680000Y65475000D03*
X46920000Y39555000D03*
X4695000Y44194000D03*
X61490000Y11235000D03*
X69065000Y17580000D03*
X64055000Y25875000D03*
X66535000Y18860000D03*
X22094000Y65149000D03*
X65265000Y16320000D03*
X67785000Y20140000D03*
X70360000Y15045000D03*
X66585000Y23345000D03*
X43459261Y42350000D03*
X67805000Y16320000D03*
X22094000Y70356000D03*
X62735000Y18850000D03*
X70385000Y27145000D03*
X18298234Y4212649D03*
X65290000Y30960000D03*
X41620000Y46035000D03*
X45650000Y45900000D03*
X64055000Y23335000D03*
X60210000Y32215000D03*
X45200000Y50275000D03*
X66560000Y28420000D03*
X46920000Y43360000D03*
X46470000Y50275000D03*
X30857000Y28954000D03*
D96*
X36318004Y37590000D03*
D95*
X65265000Y15050000D03*
X53865000Y16285000D03*
X41625000Y49840000D03*
X19173000Y25271000D03*
X14474000Y37082000D03*
D96*
X14474000Y42797000D03*
D95*
X40636000Y32256000D03*
X8180000Y50860000D03*
X19173000Y32256000D03*
X44300000Y13730000D03*
X19590000Y17440000D03*
X11545229Y18794000D03*
X19173000Y33272000D03*
X11540000Y16250000D03*
X43430000Y14603000D03*
D96*
X1373596Y35360000D03*
X7200000Y18910588D03*
X4550000Y62736000D03*
X36826000Y50544000D03*
X29714000Y49020000D03*
D95*
X33905000Y49020000D03*
X38477000Y49020000D03*
D97*
X25777000Y49274000D03*
D95*
X42159976Y37844020D03*
D96*
X57375000Y63700000D03*
D95*
X31870000Y17430000D03*
D96*
X52575000Y63700000D03*
X25559530Y50187798D03*
X24666301Y50321179D03*
X5107510Y31474918D03*
X5107510Y35406099D03*
X10029000Y40130000D03*
X12244828Y23431445D03*
X4550000Y57656000D03*
D95*
X45081000Y32764000D03*
X48775000Y17775000D03*
X45081000Y34796000D03*
X45081000Y33780000D03*
D96*
X12548555Y49657751D03*
X37630000Y7240000D03*
X32287950Y8614224D03*
X4550000Y60196000D03*
X10216058Y13140826D03*
X9313587Y13159216D03*
X4550000Y61466000D03*
X4550000Y56386000D03*
X35145630Y8547045D03*
D95*
X19046000Y35177000D03*
X17649000Y38987000D03*
D96*
X16633000Y39367980D03*
X16633000Y42289000D03*
X15620000Y17280000D03*
X10035100Y17276100D03*
X4550000Y58926000D03*
X27948670Y12640081D03*
X6746831Y42670000D03*
X2479143Y40610000D03*
X17014561Y46353561D03*
X28111100Y16449198D03*
X12401455Y50997029D03*
X11410000Y13987300D03*
X10600358Y51399500D03*
X13438190Y45337000D03*
X14452273Y35199848D03*
X7167885Y34790410D03*
X8249900Y33532100D03*
X9793926Y49269812D03*
X11397444Y51785274D03*
X12674333Y13641251D03*
X26284996Y37780500D03*
X5105254Y52853819D03*
X27174000Y37780500D03*
X5697844Y53500732D03*
X30692412Y37537485D03*
X4003187Y52061931D03*
X31566595Y37617220D03*
X16184289Y51771382D03*
X32443985Y37590000D03*
X7133800Y50463101D03*
X6154613Y29785387D03*
X8630900Y29790000D03*
X9394000Y45972000D03*
X9259800Y27241700D03*
X6600000Y23366000D03*
X9420000Y22310000D03*
X3622686Y48766000D03*
X5965000Y46226000D03*
X8630900Y24380000D03*
X5838000Y26540998D03*
X23110000Y31113000D03*
X38477000Y31113000D03*
X4550000Y55100000D03*
D95*
X43912500Y58900000D03*
D96*
X15427114Y55370000D03*
X35561367Y43637483D03*
X16150053Y52648526D03*
X34539439Y42796439D03*
X16116035Y53525679D03*
X35514546Y42711454D03*
X15418726Y56251734D03*
X36318000Y43178000D03*
X11808376Y50349872D03*
X22113803Y40711622D03*
X34090000Y5940000D03*
X4560000Y4290000D03*
X34790000Y5290000D03*
X5560000Y4290000D03*
X12430000Y4290000D03*
X34090000Y4640000D03*
X34790000Y3990000D03*
X13430000Y4290000D03*
X34090000Y3340000D03*
X20308234Y4290126D03*
X34790000Y2690000D03*
X21300000Y4290126D03*
X34090000Y2040000D03*
X28170000Y4286721D03*
X29170000Y4286721D03*
X34790000Y1390000D03*
X37600000Y740000D03*
X44490000Y4283893D03*
X36900000Y1390000D03*
X45490000Y4283893D03*
X52360000Y4284115D03*
X37600000Y2040000D03*
X53360000Y4284115D03*
X36900000Y2690000D03*
X37600000Y3340000D03*
X60230000Y4285112D03*
X61230000Y4285112D03*
X36900000Y3990000D03*
D95*
X33905000Y71245000D03*
X30095000Y71245000D03*
X28190000Y69340000D03*
X33905000Y67435000D03*
X33905000Y59815000D03*
X32000000Y69340000D03*
X30095000Y63625000D03*
X30095000Y67435000D03*
X32000000Y61720000D03*
X28190000Y57910000D03*
X35810000Y57910000D03*
X38350000Y69340000D03*
X32000000Y65530000D03*
X25650000Y69340000D03*
X36445000Y64260000D03*
X35810000Y69340000D03*
X32000000Y57910000D03*
X33905000Y63625000D03*
X27555000Y64260000D03*
X30095000Y59815000D03*
X26920000Y71245000D03*
X37080000Y71245000D03*
D96*
X34675000Y40000000D03*
X68110000Y4285000D03*
X37600000Y4640000D03*
X36900000Y5290000D03*
X69110000Y4285000D03*
X41993816Y44702000D03*
X42222957Y24410185D03*
X42032439Y43812439D03*
X41345655Y24408867D03*
D95*
X43912500Y54450000D03*
X47370700Y28090000D03*
D96*
X40366816Y6579635D03*
X34800000Y6590000D03*
M02*
