%TF.GenerationSoftware,KiCad,Pcbnew,(6.0.8)*%
%TF.CreationDate,2023-02-19T19:21:06+03:00*%
%TF.ProjectId,ESP32-GATEWAY_Rev_G,45535033-322d-4474-9154-455741595f52,0*%
%TF.SameCoordinates,PX4260300PY8558f68*%
%TF.FileFunction,OtherDrawing,Comment*%
%FSLAX46Y46*%
G04 Gerber Fmt 4.6, Leading zero omitted, Abs format (unit mm)*
G04 Created by KiCad (PCBNEW (6.0.8)) date 2023-02-19 19:21:06*
%MOMM*%
%LPD*%
G01*
G04 APERTURE LIST*
%TA.AperFunction,Profile*%
%ADD10C,0.254000*%
%TD*%
%ADD11C,0.150000*%
%ADD12C,0.066040*%
%ADD13C,0.101600*%
%ADD14C,0.127000*%
%ADD15C,0.254000*%
%ADD16C,0.120000*%
%ADD17C,0.480000*%
%ADD18C,0.100000*%
G04 APERTURE END LIST*
D10*
X48650000Y72773492D02*
X49770000Y71659000D01*
X48650000Y72773492D02*
X19554000Y72769000D01*
X-4000Y66673000D02*
X0Y0D01*
X61200000Y72675000D02*
X71675000Y72675000D01*
X19554000Y66673000D02*
X19554000Y72769000D01*
X60184000Y71659000D02*
X61200000Y72675000D01*
X49770000Y71659000D02*
X60184000Y71659000D01*
X71675000Y72675000D02*
X71675000Y0D01*
X-4000Y66673000D02*
X19554000Y66673000D01*
X0Y0D02*
X71675000Y0D01*
D11*
X3507142Y69194858D02*
X3554761Y69147239D01*
X3507142Y69099620D01*
X3459523Y69147239D01*
X3507142Y69194858D01*
X3507142Y69099620D01*
X3507142Y69480572D02*
X3459523Y70052000D01*
X3507142Y70099620D01*
X3554761Y70052000D01*
X3507142Y69480572D01*
X3507142Y70099620D01*
X4745238Y69099620D02*
X4745238Y70099620D01*
X5316666Y69099620D02*
X4888095Y69671048D01*
X5316666Y70099620D02*
X4745238Y69528191D01*
X6126190Y69147239D02*
X6030952Y69099620D01*
X5840476Y69099620D01*
X5745238Y69147239D01*
X5697619Y69242477D01*
X5697619Y69623429D01*
X5745238Y69718667D01*
X5840476Y69766286D01*
X6030952Y69766286D01*
X6126190Y69718667D01*
X6173809Y69623429D01*
X6173809Y69528191D01*
X5697619Y69432953D01*
X6983333Y69147239D02*
X6888095Y69099620D01*
X6697619Y69099620D01*
X6602380Y69147239D01*
X6554761Y69242477D01*
X6554761Y69623429D01*
X6602380Y69718667D01*
X6697619Y69766286D01*
X6888095Y69766286D01*
X6983333Y69718667D01*
X7030952Y69623429D01*
X7030952Y69528191D01*
X6554761Y69432953D01*
X7459523Y69766286D02*
X7459523Y68766286D01*
X7459523Y69718667D02*
X7554761Y69766286D01*
X7745238Y69766286D01*
X7840476Y69718667D01*
X7888095Y69671048D01*
X7935714Y69575810D01*
X7935714Y69290096D01*
X7888095Y69194858D01*
X7840476Y69147239D01*
X7745238Y69099620D01*
X7554761Y69099620D01*
X7459523Y69147239D01*
X9316666Y70099620D02*
X9507142Y70099620D01*
X9602380Y70052000D01*
X9697619Y69956762D01*
X9745238Y69766286D01*
X9745238Y69432953D01*
X9697619Y69242477D01*
X9602380Y69147239D01*
X9507142Y69099620D01*
X9316666Y69099620D01*
X9221428Y69147239D01*
X9126190Y69242477D01*
X9078571Y69432953D01*
X9078571Y69766286D01*
X9126190Y69956762D01*
X9221428Y70052000D01*
X9316666Y70099620D01*
X10602380Y69766286D02*
X10602380Y69099620D01*
X10173809Y69766286D02*
X10173809Y69242477D01*
X10221428Y69147239D01*
X10316666Y69099620D01*
X10459523Y69099620D01*
X10554761Y69147239D01*
X10602380Y69194858D01*
X10935714Y69766286D02*
X11316666Y69766286D01*
X11078571Y70099620D02*
X11078571Y69242477D01*
X11126190Y69147239D01*
X11221428Y69099620D01*
X11316666Y69099620D01*
X12316666Y70099620D02*
X12983333Y70099620D01*
X12316666Y69099620D01*
X12983333Y69099620D01*
X13507142Y69099620D02*
X13411904Y69147239D01*
X13364285Y69194858D01*
X13316666Y69290096D01*
X13316666Y69575810D01*
X13364285Y69671048D01*
X13411904Y69718667D01*
X13507142Y69766286D01*
X13650000Y69766286D01*
X13745238Y69718667D01*
X13792857Y69671048D01*
X13840476Y69575810D01*
X13840476Y69290096D01*
X13792857Y69194858D01*
X13745238Y69147239D01*
X13650000Y69099620D01*
X13507142Y69099620D01*
X14269047Y69766286D02*
X14269047Y69099620D01*
X14269047Y69671048D02*
X14316666Y69718667D01*
X14411904Y69766286D01*
X14554761Y69766286D01*
X14650000Y69718667D01*
X14697619Y69623429D01*
X14697619Y69099620D01*
X15554761Y69147239D02*
X15459523Y69099620D01*
X15269047Y69099620D01*
X15173809Y69147239D01*
X15126190Y69242477D01*
X15126190Y69623429D01*
X15173809Y69718667D01*
X15269047Y69766286D01*
X15459523Y69766286D01*
X15554761Y69718667D01*
X15602380Y69623429D01*
X15602380Y69528191D01*
X15126190Y69432953D01*
X16792857Y69194858D02*
X16840476Y69147239D01*
X16792857Y69099620D01*
X16745238Y69147239D01*
X16792857Y69194858D01*
X16792857Y69099620D01*
X16792857Y69480572D02*
X16745238Y70052000D01*
X16792857Y70099620D01*
X16840476Y70052000D01*
X16792857Y69480572D01*
X16792857Y70099620D01*
D12*
X36533900Y35474180D02*
X35583940Y35474180D01*
X35583940Y36142200D02*
X35583940Y36640040D01*
X35583940Y34973800D02*
X35583940Y35474180D01*
X36533900Y36142200D02*
X35583940Y36142200D01*
D13*
X35632200Y35456400D02*
X35632200Y36167600D01*
X36480560Y35456400D02*
X36480560Y36167600D01*
D12*
X36533900Y36142200D02*
X36533900Y36640040D01*
X36533900Y36640040D02*
X35583940Y36640040D01*
X36533900Y34973800D02*
X35583940Y34973800D01*
X36533900Y34973800D02*
X36533900Y35474180D01*
X35009900Y35474180D02*
X34059940Y35474180D01*
D13*
X34108200Y35456400D02*
X34108200Y36167600D01*
D12*
X35009900Y36640040D02*
X34059940Y36640040D01*
X35009900Y36142200D02*
X35009900Y36640040D01*
X35009900Y34973800D02*
X34059940Y34973800D01*
X35009900Y34973800D02*
X35009900Y35474180D01*
X34059940Y34973800D02*
X34059940Y35474180D01*
X35009900Y36142200D02*
X34059940Y36142200D01*
X34059940Y36142200D02*
X34059940Y36640040D01*
D13*
X34956560Y35456400D02*
X34956560Y36167600D01*
D12*
X36356100Y48969200D02*
X36356100Y48468820D01*
X36356100Y48969200D02*
X37306060Y48969200D01*
X36356100Y47800800D02*
X37306060Y47800800D01*
D13*
X36409440Y48486600D02*
X36409440Y47775400D01*
X37257800Y48486600D02*
X37257800Y47775400D01*
D12*
X36356100Y47800800D02*
X36356100Y47302960D01*
X37306060Y48969200D02*
X37306060Y48468820D01*
X36356100Y48468820D02*
X37306060Y48468820D01*
X37306060Y47800800D02*
X37306060Y47302960D01*
X36356100Y47302960D02*
X37306060Y47302960D01*
X39404100Y35608800D02*
X39404100Y35110960D01*
X40354060Y35608800D02*
X40354060Y35110960D01*
D13*
X39457440Y36294600D02*
X39457440Y35583400D01*
D12*
X39404100Y36276820D02*
X40354060Y36276820D01*
X40354060Y36777200D02*
X40354060Y36276820D01*
X39404100Y35608800D02*
X40354060Y35608800D01*
X39404100Y36777200D02*
X40354060Y36777200D01*
X39404100Y36777200D02*
X39404100Y36276820D01*
X39404100Y35110960D02*
X40354060Y35110960D01*
D13*
X40305800Y36294600D02*
X40305800Y35583400D01*
D12*
X27720100Y35481800D02*
X28670060Y35481800D01*
X27720100Y36650200D02*
X28670060Y36650200D01*
X27720100Y36650200D02*
X27720100Y36149820D01*
D13*
X28621800Y36167600D02*
X28621800Y35456400D01*
D12*
X28670060Y35481800D02*
X28670060Y34983960D01*
X27720100Y36149820D02*
X28670060Y36149820D01*
X28670060Y36650200D02*
X28670060Y36149820D01*
X27720100Y34983960D02*
X28670060Y34983960D01*
D13*
X27773440Y36167600D02*
X27773440Y35456400D01*
D12*
X27720100Y35481800D02*
X27720100Y34983960D01*
X35251200Y45121100D02*
X35749040Y45121100D01*
X35749040Y45121100D02*
X35749040Y46071060D01*
X34082800Y45121100D02*
X34583180Y45121100D01*
X34082800Y46071060D02*
X34583180Y46071060D01*
D13*
X34565400Y46022800D02*
X35276600Y46022800D01*
X34565400Y45174440D02*
X35276600Y45174440D01*
D12*
X35251200Y46071060D02*
X35749040Y46071060D01*
X34082800Y45121100D02*
X34082800Y46071060D01*
X35251200Y45121100D02*
X35251200Y46071060D01*
X34583180Y45121100D02*
X34583180Y46071060D01*
D13*
X24354600Y45372560D02*
X23643400Y45372560D01*
D12*
X24336820Y45425900D02*
X24336820Y44475940D01*
X24837200Y45425900D02*
X24837200Y44475940D01*
X24837200Y45425900D02*
X24336820Y45425900D01*
X23668800Y45425900D02*
X23668800Y44475940D01*
D13*
X24354600Y44524200D02*
X23643400Y44524200D01*
D12*
X23170960Y45425900D02*
X23170960Y44475940D01*
X23668800Y45425900D02*
X23170960Y45425900D01*
X23668800Y44475940D02*
X23170960Y44475940D01*
X24837200Y44475940D02*
X24336820Y44475940D01*
X23668800Y39522940D02*
X23170960Y39522940D01*
X24837200Y39522940D02*
X24336820Y39522940D01*
X23668800Y40472900D02*
X23668800Y39522940D01*
X24837200Y40472900D02*
X24336820Y40472900D01*
X24837200Y40472900D02*
X24837200Y39522940D01*
D13*
X24354600Y39571200D02*
X23643400Y39571200D01*
D12*
X23668800Y40472900D02*
X23170960Y40472900D01*
X23170960Y40472900D02*
X23170960Y39522940D01*
X24336820Y40472900D02*
X24336820Y39522940D01*
D13*
X24354600Y40419560D02*
X23643400Y40419560D01*
X24354600Y41095200D02*
X23643400Y41095200D01*
D12*
X23668800Y41046940D02*
X23170960Y41046940D01*
X24837200Y41996900D02*
X24336820Y41996900D01*
X23668800Y41996900D02*
X23668800Y41046940D01*
D13*
X24354600Y41943560D02*
X23643400Y41943560D01*
D12*
X24837200Y41046940D02*
X24336820Y41046940D01*
X23668800Y41996900D02*
X23170960Y41996900D01*
X23170960Y41996900D02*
X23170960Y41046940D01*
X24837200Y41996900D02*
X24837200Y41046940D01*
X24336820Y41996900D02*
X24336820Y41046940D01*
D13*
X36673600Y40714200D02*
X35962400Y40714200D01*
D12*
X37156200Y41615900D02*
X37156200Y40665940D01*
X35489960Y41615900D02*
X35489960Y40665940D01*
X37156200Y41615900D02*
X36655820Y41615900D01*
X37156200Y40665940D02*
X36655820Y40665940D01*
D13*
X36673600Y41562560D02*
X35962400Y41562560D01*
D12*
X35987800Y41615900D02*
X35489960Y41615900D01*
X35987800Y40665940D02*
X35489960Y40665940D01*
X36655820Y41615900D02*
X36655820Y40665940D01*
X35987800Y41615900D02*
X35987800Y40665940D01*
D14*
X37080000Y38275800D02*
X37080000Y36548600D01*
X38858000Y34110200D02*
X38858000Y35837400D01*
X37080000Y38275800D02*
X38858000Y38275800D01*
X38858000Y36548600D02*
X38858000Y38275800D01*
X37080000Y34110200D02*
X38858000Y34110200D01*
X37080000Y35837400D02*
X37080000Y34110200D01*
X16988600Y24382000D02*
X18715800Y24382000D01*
X14550200Y24382000D02*
X14550200Y26160000D01*
X18715800Y26160000D02*
X16988600Y26160000D01*
X18715800Y24382000D02*
X18715800Y26160000D01*
X14550200Y24382000D02*
X16277400Y24382000D01*
X16277400Y26160000D02*
X14550200Y26160000D01*
D13*
X12340400Y44498800D02*
X13051600Y44498800D01*
D12*
X12358180Y43597100D02*
X12358180Y44547060D01*
X13026200Y43597100D02*
X13524040Y43597100D01*
X13026200Y44547060D02*
X13524040Y44547060D01*
X13524040Y43597100D02*
X13524040Y44547060D01*
X13026200Y43597100D02*
X13026200Y44547060D01*
X11857800Y43597100D02*
X12358180Y43597100D01*
D13*
X12340400Y43650440D02*
X13051600Y43650440D01*
D12*
X11857800Y44547060D02*
X12358180Y44547060D01*
X11857800Y43597100D02*
X11857800Y44547060D01*
D13*
X21662200Y67079400D02*
X21662200Y67790600D01*
X22510560Y67079400D02*
X22510560Y67790600D01*
D12*
X21613940Y66596800D02*
X21613940Y67097180D01*
X22563900Y68263040D02*
X21613940Y68263040D01*
X21613940Y67765200D02*
X21613940Y68263040D01*
X22563900Y67097180D02*
X21613940Y67097180D01*
X22563900Y66596800D02*
X21613940Y66596800D01*
X22563900Y66596800D02*
X22563900Y67097180D01*
X22563900Y67765200D02*
X22563900Y68263040D01*
X22563900Y67765200D02*
X21613940Y67765200D01*
X41563100Y63701200D02*
X42513060Y63701200D01*
X41563100Y63701200D02*
X41563100Y63200820D01*
X41563100Y62532800D02*
X42513060Y62532800D01*
X41563100Y62532800D02*
X41563100Y62034960D01*
X41563100Y62034960D02*
X42513060Y62034960D01*
D13*
X42464800Y63218600D02*
X42464800Y62507400D01*
D12*
X42513060Y63701200D02*
X42513060Y63200820D01*
D13*
X41616440Y63218600D02*
X41616440Y62507400D01*
D12*
X41563100Y63200820D02*
X42513060Y63200820D01*
X42513060Y62532800D02*
X42513060Y62034960D01*
X28482100Y47302960D02*
X29432060Y47302960D01*
X28482100Y47800800D02*
X28482100Y47302960D01*
X29432060Y47800800D02*
X29432060Y47302960D01*
X28482100Y47800800D02*
X29432060Y47800800D01*
D13*
X28535440Y48486600D02*
X28535440Y47775400D01*
D12*
X28482100Y48468820D02*
X29432060Y48468820D01*
X28482100Y48969200D02*
X29432060Y48969200D01*
D13*
X29383800Y48486600D02*
X29383800Y47775400D01*
D12*
X29432060Y48969200D02*
X29432060Y48468820D01*
X28482100Y48969200D02*
X28482100Y48468820D01*
X27146060Y47800800D02*
X27146060Y47302960D01*
X26196100Y48468820D02*
X27146060Y48468820D01*
D13*
X26249440Y48486600D02*
X26249440Y47775400D01*
D12*
X26196100Y48969200D02*
X27146060Y48969200D01*
X26196100Y47800800D02*
X26196100Y47302960D01*
X26196100Y47302960D02*
X27146060Y47302960D01*
D13*
X27097800Y48486600D02*
X27097800Y47775400D01*
D12*
X26196100Y47800800D02*
X27146060Y47800800D01*
X26196100Y48969200D02*
X26196100Y48468820D01*
X27146060Y48969200D02*
X27146060Y48468820D01*
X32292100Y48969200D02*
X32292100Y48468820D01*
X33242060Y47800800D02*
X33242060Y47302960D01*
D13*
X33193800Y48486600D02*
X33193800Y47775400D01*
D12*
X32292100Y47800800D02*
X32292100Y47302960D01*
X33242060Y48969200D02*
X33242060Y48468820D01*
D13*
X32345440Y48486600D02*
X32345440Y47775400D01*
D12*
X32292100Y47800800D02*
X33242060Y47800800D01*
X32292100Y48969200D02*
X33242060Y48969200D01*
X32292100Y48468820D02*
X33242060Y48468820D01*
X32292100Y47302960D02*
X33242060Y47302960D01*
X30006100Y47800800D02*
X30956060Y47800800D01*
D13*
X30907800Y48486600D02*
X30907800Y47775400D01*
X30059440Y48486600D02*
X30059440Y47775400D01*
D12*
X30006100Y47302960D02*
X30956060Y47302960D01*
X30006100Y48969200D02*
X30956060Y48969200D01*
X30006100Y47800800D02*
X30006100Y47302960D01*
X30006100Y48969200D02*
X30006100Y48468820D01*
X30956060Y47800800D02*
X30956060Y47302960D01*
X30956060Y48969200D02*
X30956060Y48468820D01*
X30006100Y48468820D02*
X30956060Y48468820D01*
X31288800Y14831600D02*
X31789180Y14831600D01*
D13*
X31771400Y15733300D02*
X32482600Y15733300D01*
X31771400Y14884940D02*
X32482600Y14884940D01*
D12*
X31789180Y14831600D02*
X31789180Y15781560D01*
X32457200Y14831600D02*
X32457200Y15781560D01*
X32955040Y14831600D02*
X32955040Y15781560D01*
X31288800Y15781560D02*
X31789180Y15781560D01*
X32457200Y15781560D02*
X32955040Y15781560D01*
X31288800Y14831600D02*
X31288800Y15781560D01*
X32457200Y14831600D02*
X32955040Y14831600D01*
D13*
X35962400Y40056800D02*
X36673600Y40056800D01*
D12*
X36648200Y40105060D02*
X37146040Y40105060D01*
X35980180Y39155100D02*
X35980180Y40105060D01*
X35479800Y39155100D02*
X35980180Y39155100D01*
D13*
X35962400Y39208440D02*
X36673600Y39208440D01*
D12*
X35479800Y39155100D02*
X35479800Y40105060D01*
X37146040Y39155100D02*
X37146040Y40105060D01*
X35479800Y40105060D02*
X35980180Y40105060D01*
X36648200Y39155100D02*
X37146040Y39155100D01*
X36648200Y39155100D02*
X36648200Y40105060D01*
X23668800Y46253940D02*
X23170960Y46253940D01*
X23668800Y47203900D02*
X23170960Y47203900D01*
X24837200Y47203900D02*
X24837200Y46253940D01*
X23170960Y47203900D02*
X23170960Y46253940D01*
D13*
X24354600Y46302200D02*
X23643400Y46302200D01*
D12*
X24837200Y47203900D02*
X24336820Y47203900D01*
D13*
X24354600Y47150560D02*
X23643400Y47150560D01*
D12*
X24837200Y46253940D02*
X24336820Y46253940D01*
X23668800Y47203900D02*
X23668800Y46253940D01*
X24336820Y47203900D02*
X24336820Y46253940D01*
X40585200Y21306060D02*
X41083040Y21306060D01*
D13*
X39899400Y21257800D02*
X40610600Y21257800D01*
D12*
X41083040Y20356100D02*
X41083040Y21306060D01*
X40585200Y20356100D02*
X41083040Y20356100D01*
X39416800Y20356100D02*
X39917180Y20356100D01*
X39416800Y21306060D02*
X39917180Y21306060D01*
D13*
X39899400Y20409440D02*
X40610600Y20409440D01*
D12*
X39917180Y20356100D02*
X39917180Y21306060D01*
X40585200Y20356100D02*
X40585200Y21306060D01*
X39416800Y20356100D02*
X39416800Y21306060D01*
X26107200Y23327900D02*
X26107200Y22377940D01*
X24440960Y23327900D02*
X24440960Y22377940D01*
X24938800Y23327900D02*
X24440960Y23327900D01*
X24938800Y23327900D02*
X24938800Y22377940D01*
D13*
X25624600Y23274560D02*
X24913400Y23274560D01*
D12*
X26107200Y22377940D02*
X25606820Y22377940D01*
D13*
X25624600Y22426200D02*
X24913400Y22426200D01*
D12*
X25606820Y23327900D02*
X25606820Y22377940D01*
X24938800Y22377940D02*
X24440960Y22377940D01*
X26107200Y23327900D02*
X25606820Y23327900D01*
D11*
X23399560Y35156680D02*
X24006620Y35159220D01*
D15*
X23008400Y37285200D02*
X23008400Y34338800D01*
D11*
X25637300Y36594320D02*
X25637300Y35044920D01*
X24075200Y36434300D02*
X23376700Y36434300D01*
X25200420Y36457160D02*
X25566180Y36457160D01*
X23371620Y36330160D02*
X23986300Y36325080D01*
D15*
X23008400Y34338800D02*
X26958100Y34338800D01*
D11*
X26008140Y36452080D02*
X26589800Y36452080D01*
X26678700Y35055080D02*
X25916700Y35050000D01*
X25637300Y35044920D02*
X25169940Y35044920D01*
X24413020Y36444460D02*
X24801640Y36441920D01*
X25169940Y36591780D02*
X25639840Y36591780D01*
X25967500Y35278600D02*
X26622820Y35278600D01*
X26653300Y35164300D02*
X26023380Y35156680D01*
X24893080Y36589240D02*
X24890540Y35029680D01*
X23330980Y36574000D02*
X23330980Y35022060D01*
X25921780Y36589240D02*
X26683780Y36589240D01*
X24890540Y35029680D02*
X24392700Y35029680D01*
X25190260Y35151600D02*
X25568720Y35149060D01*
X24085360Y36574000D02*
X24085360Y35022060D01*
X23336060Y36568920D02*
X24082820Y36568920D01*
D15*
X27021600Y37285200D02*
X27021600Y34351500D01*
X23008400Y37285200D02*
X27021600Y37285200D01*
D11*
X26671080Y36589240D02*
X26678700Y35070320D01*
X24392700Y35029680D02*
X24392700Y36589240D01*
X25972580Y36309840D02*
X26615200Y36309840D01*
X24433340Y36330160D02*
X24829580Y36330160D01*
X24387620Y36584160D02*
X24893080Y36584160D01*
X25169940Y35044920D02*
X25169940Y36589240D01*
X24085360Y35022060D02*
X23376700Y35022060D01*
X25180100Y35260820D02*
X25599200Y35260820D01*
X25916700Y35050000D02*
X25911620Y36579080D01*
X24425720Y35250660D02*
X24834660Y35250660D01*
X24034560Y35304000D02*
X23397020Y35304000D01*
X24433340Y35166840D02*
X24776240Y35166840D01*
X25177560Y36314920D02*
X25609360Y36314920D01*
X31179580Y35166840D02*
X30813820Y35166840D01*
X31946660Y36457160D02*
X31603760Y36457160D01*
X31489460Y36594320D02*
X31987300Y36594320D01*
X31189740Y36472400D02*
X30811280Y36474940D01*
X30371860Y35171920D02*
X29790200Y35171920D01*
D15*
X33371600Y34338800D02*
X29358400Y34338800D01*
D11*
X32345440Y36320000D02*
X32982980Y36320000D01*
X30742700Y36579080D02*
X31210060Y36579080D01*
X29701300Y36568920D02*
X30463300Y36574000D01*
X31210060Y35032220D02*
X30740160Y35032220D01*
X33043940Y35055080D02*
X32297180Y35055080D01*
X31992380Y35039840D02*
X31486920Y35039840D01*
X31946660Y35293840D02*
X31550420Y35293840D01*
D15*
X33371600Y37285200D02*
X29421900Y37285200D01*
D11*
X31966980Y35179540D02*
X31578360Y35182080D01*
X31954280Y36373340D02*
X31545340Y36373340D01*
X31210060Y36579080D02*
X31210060Y35034760D01*
X31199900Y36363180D02*
X30780800Y36363180D01*
X30463300Y36574000D02*
X30468380Y35044920D01*
X29708920Y35034760D02*
X29701300Y36553680D01*
D15*
X29358400Y34338800D02*
X29358400Y37272500D01*
D11*
X29726700Y36459700D02*
X30356620Y36467320D01*
X32304800Y35189700D02*
X33003300Y35189700D01*
X31987300Y36594320D02*
X31987300Y35034760D01*
X31486920Y35034760D02*
X31489460Y36594320D01*
X31202440Y35309080D02*
X30770640Y35309080D01*
X32294640Y35050000D02*
X32294640Y36601940D01*
X33008380Y35293840D02*
X32393700Y35298920D01*
D15*
X33371600Y34338800D02*
X33371600Y37285200D01*
D11*
X33049020Y35050000D02*
X33049020Y36601940D01*
X30458220Y35034760D02*
X29696220Y35034760D01*
X30407420Y35314160D02*
X29764800Y35314160D01*
X30412500Y36345400D02*
X29757180Y36345400D01*
X30742700Y35029680D02*
X30742700Y36579080D01*
X32294640Y36601940D02*
X33003300Y36601940D01*
X32980440Y36467320D02*
X32373380Y36464780D01*
D16*
X1410000Y72692000D02*
X19410000Y47192000D01*
X19410000Y72692000D02*
X1410000Y47192000D01*
D13*
X16988600Y28522200D02*
X16277400Y28522200D01*
D12*
X16970820Y29423900D02*
X16970820Y28473940D01*
X16302800Y29423900D02*
X15804960Y29423900D01*
X17471200Y29423900D02*
X16970820Y29423900D01*
X17471200Y29423900D02*
X17471200Y28473940D01*
X15804960Y29423900D02*
X15804960Y28473940D01*
X16302800Y29423900D02*
X16302800Y28473940D01*
X16302800Y28473940D02*
X15804960Y28473940D01*
X17471200Y28473940D02*
X16970820Y28473940D01*
D13*
X16988600Y29370560D02*
X16277400Y29370560D01*
D12*
X21626640Y53658040D02*
X21626640Y52906200D01*
D13*
X23259860Y55570660D02*
X23259860Y53645340D01*
D12*
X21626640Y53658040D02*
X23325900Y53658040D01*
X23325900Y53658040D02*
X23325900Y52906200D01*
D13*
X21690140Y55570660D02*
X21690140Y53645340D01*
D12*
X21624100Y55557960D02*
X23323360Y55557960D01*
X21624100Y56309800D02*
X23323360Y56309800D01*
X21624100Y56309800D02*
X21624100Y55557960D01*
X23323360Y56309800D02*
X23323360Y55557960D01*
X21626640Y52906200D02*
X23325900Y52906200D01*
X23323360Y63177960D02*
X21624100Y63177960D01*
X23325900Y60526200D02*
X23325900Y61278040D01*
D13*
X23259860Y61265340D02*
X23259860Y63190660D01*
D12*
X23323360Y63929800D02*
X21624100Y63929800D01*
X23325900Y60526200D02*
X21626640Y60526200D01*
D13*
X21690140Y61265340D02*
X21690140Y63190660D01*
D12*
X23325900Y61278040D02*
X21626640Y61278040D01*
X23323360Y63177960D02*
X23323360Y63929800D01*
X21624100Y63177960D02*
X21624100Y63929800D01*
X21626640Y60526200D02*
X21626640Y61278040D01*
X46537700Y52196940D02*
X46037320Y52196940D01*
X44871460Y53146900D02*
X44871460Y52196940D01*
X46537700Y53146900D02*
X46037320Y53146900D01*
X46037320Y53146900D02*
X46037320Y52196940D01*
X45369300Y53146900D02*
X44871460Y53146900D01*
D13*
X46055100Y52245200D02*
X45343900Y52245200D01*
D12*
X45369300Y52196940D02*
X44871460Y52196940D01*
X45369300Y53146900D02*
X45369300Y52196940D01*
D13*
X46055100Y53093560D02*
X45343900Y53093560D01*
D12*
X46537700Y53146900D02*
X46537700Y52196940D01*
X25606820Y25994900D02*
X25606820Y25044940D01*
D13*
X25624600Y25093200D02*
X24913400Y25093200D01*
X25624600Y25941560D02*
X24913400Y25941560D01*
D12*
X26107200Y25044940D02*
X25606820Y25044940D01*
X26107200Y25994900D02*
X25606820Y25994900D01*
X26107200Y25994900D02*
X26107200Y25044940D01*
X24938800Y25994900D02*
X24440960Y25994900D01*
X24938800Y25044940D02*
X24440960Y25044940D01*
X24938800Y25994900D02*
X24938800Y25044940D01*
X24440960Y25994900D02*
X24440960Y25044940D01*
X41093200Y25055100D02*
X41093200Y26005060D01*
X41093200Y26005060D02*
X41591040Y26005060D01*
X39924800Y26005060D02*
X40425180Y26005060D01*
D13*
X40407400Y25108440D02*
X41118600Y25108440D01*
D12*
X40425180Y25055100D02*
X40425180Y26005060D01*
X41591040Y25055100D02*
X41591040Y26005060D01*
X39924800Y25055100D02*
X39924800Y26005060D01*
X39924800Y25055100D02*
X40425180Y25055100D01*
X41093200Y25055100D02*
X41591040Y25055100D01*
D13*
X40407400Y25956800D02*
X41118600Y25956800D01*
D12*
X26107200Y19136900D02*
X26107200Y18186940D01*
X26107200Y19136900D02*
X25606820Y19136900D01*
X24938800Y18186940D02*
X24440960Y18186940D01*
X26107200Y18186940D02*
X25606820Y18186940D01*
X25606820Y19136900D02*
X25606820Y18186940D01*
D13*
X25624600Y19083560D02*
X24913400Y19083560D01*
D12*
X24938800Y19136900D02*
X24440960Y19136900D01*
X24440960Y19136900D02*
X24440960Y18186940D01*
D13*
X25624600Y18235200D02*
X24913400Y18235200D01*
D12*
X24938800Y19136900D02*
X24938800Y18186940D01*
X39917180Y21880100D02*
X39917180Y22830060D01*
X40585200Y21880100D02*
X41083040Y21880100D01*
X39416800Y21880100D02*
X39416800Y22830060D01*
X40585200Y22830060D02*
X41083040Y22830060D01*
X39416800Y21880100D02*
X39917180Y21880100D01*
D13*
X39899400Y21933440D02*
X40610600Y21933440D01*
X39899400Y22781800D02*
X40610600Y22781800D01*
D12*
X41083040Y21880100D02*
X41083040Y22830060D01*
X40585200Y21880100D02*
X40585200Y22830060D01*
X39416800Y22830060D02*
X39917180Y22830060D01*
D17*
X46790420Y35629120D02*
X46790420Y35999960D01*
D11*
X49157700Y36175220D02*
X46338300Y36175220D01*
D17*
X47745460Y37638260D02*
X47745460Y38009100D01*
D11*
X47742920Y37478240D02*
X49165320Y37478240D01*
X49172940Y37483320D02*
X49172940Y36185380D01*
X47740380Y37478240D02*
X46391640Y37480780D01*
D17*
X48703040Y35636740D02*
X48703040Y36007580D01*
D11*
X46333220Y36175220D02*
X46333220Y37478240D01*
X21984780Y22205220D02*
X20681760Y22205220D01*
D17*
X20521740Y23617460D02*
X20150900Y23617460D01*
D11*
X20681760Y23612380D02*
X20679220Y22263640D01*
X20676680Y25044940D02*
X21974620Y25044940D01*
D17*
X22530880Y22662420D02*
X22160040Y22662420D01*
D11*
X20681760Y23614920D02*
X20681760Y25037320D01*
X21984780Y25029700D02*
X21984780Y22210300D01*
D17*
X22523260Y24575040D02*
X22152420Y24575040D01*
D13*
X44547600Y36355560D02*
X43836400Y36355560D01*
D12*
X43861800Y36408900D02*
X43363960Y36408900D01*
X45030200Y36408900D02*
X44529820Y36408900D01*
X44529820Y36408900D02*
X44529820Y35458940D01*
X43861800Y35458940D02*
X43363960Y35458940D01*
X43363960Y36408900D02*
X43363960Y35458940D01*
X45030200Y35458940D02*
X44529820Y35458940D01*
X43861800Y36408900D02*
X43861800Y35458940D01*
X45030200Y36408900D02*
X45030200Y35458940D01*
D13*
X44547600Y35507200D02*
X43836400Y35507200D01*
X25624600Y20648200D02*
X24913400Y20648200D01*
D12*
X24938800Y20599940D02*
X24440960Y20599940D01*
X24938800Y21549900D02*
X24440960Y21549900D01*
X26107200Y21549900D02*
X26107200Y20599940D01*
D13*
X25624600Y21496560D02*
X24913400Y21496560D01*
D12*
X24938800Y21549900D02*
X24938800Y20599940D01*
X26107200Y21549900D02*
X25606820Y21549900D01*
X26107200Y20599940D02*
X25606820Y20599940D01*
X24440960Y21549900D02*
X24440960Y20599940D01*
X25606820Y21549900D02*
X25606820Y20599940D01*
X13534200Y43012900D02*
X13033820Y43012900D01*
X12365800Y43012900D02*
X12365800Y42062940D01*
X13033820Y43012900D02*
X13033820Y42062940D01*
X11867960Y43012900D02*
X11867960Y42062940D01*
D13*
X13051600Y42111200D02*
X12340400Y42111200D01*
D12*
X13534200Y43012900D02*
X13534200Y42062940D01*
X12365800Y43012900D02*
X11867960Y43012900D01*
X13534200Y42062940D02*
X13033820Y42062940D01*
D13*
X13051600Y42959560D02*
X12340400Y42959560D01*
D12*
X12365800Y42062940D02*
X11867960Y42062940D01*
X11857800Y40549100D02*
X12358180Y40549100D01*
X12358180Y40549100D02*
X12358180Y41499060D01*
X11857800Y41499060D02*
X12358180Y41499060D01*
X11857800Y40549100D02*
X11857800Y41499060D01*
X13524040Y40549100D02*
X13524040Y41499060D01*
D13*
X12340400Y41450800D02*
X13051600Y41450800D01*
D12*
X13026200Y40549100D02*
X13026200Y41499060D01*
D13*
X12340400Y40602440D02*
X13051600Y40602440D01*
D12*
X13026200Y40549100D02*
X13524040Y40549100D01*
X13026200Y41499060D02*
X13524040Y41499060D01*
D13*
X45343900Y57553800D02*
X46055100Y57553800D01*
X45343900Y56705440D02*
X46055100Y56705440D01*
D12*
X45361680Y56652100D02*
X45361680Y57602060D01*
X46029700Y56652100D02*
X46029700Y57602060D01*
X44861300Y56652100D02*
X44861300Y57602060D01*
X46029700Y56652100D02*
X46527540Y56652100D01*
X44861300Y57602060D02*
X45361680Y57602060D01*
X46527540Y56652100D02*
X46527540Y57602060D01*
X46029700Y57602060D02*
X46527540Y57602060D01*
X44861300Y56652100D02*
X45361680Y56652100D01*
D13*
X11781600Y19505200D02*
X11070400Y19505200D01*
X11781600Y20353560D02*
X11070400Y20353560D01*
D12*
X12264200Y19456940D02*
X11763820Y19456940D01*
X11095800Y20406900D02*
X10597960Y20406900D01*
X11763820Y20406900D02*
X11763820Y19456940D01*
X11095800Y20406900D02*
X11095800Y19456940D01*
X11095800Y19456940D02*
X10597960Y19456940D01*
X12264200Y20406900D02*
X11763820Y20406900D01*
X12264200Y20406900D02*
X12264200Y19456940D01*
X10597960Y20406900D02*
X10597960Y19456940D01*
X17725200Y35646900D02*
X17224820Y35646900D01*
D13*
X17242600Y35593560D02*
X16531400Y35593560D01*
D12*
X16058960Y35646900D02*
X16058960Y34696940D01*
D13*
X17242600Y34745200D02*
X16531400Y34745200D01*
D12*
X17224820Y35646900D02*
X17224820Y34696940D01*
X17725200Y35646900D02*
X17725200Y34696940D01*
X16556800Y34696940D02*
X16058960Y34696940D01*
X16556800Y35646900D02*
X16556800Y34696940D01*
X17725200Y34696940D02*
X17224820Y34696940D01*
X16556800Y35646900D02*
X16058960Y35646900D01*
D11*
X21476780Y36972780D02*
X21476780Y35669760D01*
X20069620Y35669760D02*
X21418360Y35667220D01*
X20067080Y35669760D02*
X18644680Y35669760D01*
D17*
X21019580Y37518880D02*
X21019580Y37148040D01*
D11*
X18652300Y36972780D02*
X21471700Y36972780D01*
X18637060Y35664680D02*
X18637060Y36962620D01*
D17*
X20064540Y35509740D02*
X20064540Y35138900D01*
X19106960Y37511260D02*
X19106960Y37140420D01*
D12*
X20526820Y42758900D02*
X20526820Y41808940D01*
D13*
X20544600Y41857200D02*
X19833400Y41857200D01*
D12*
X21027200Y41808940D02*
X20526820Y41808940D01*
X19858800Y42758900D02*
X19858800Y41808940D01*
X19858800Y42758900D02*
X19360960Y42758900D01*
X19360960Y42758900D02*
X19360960Y41808940D01*
X19858800Y41808940D02*
X19360960Y41808940D01*
D13*
X20544600Y42705560D02*
X19833400Y42705560D01*
D12*
X21027200Y42758900D02*
X21027200Y41808940D01*
X21027200Y42758900D02*
X20526820Y42758900D01*
D14*
X14423200Y36955000D02*
X16150400Y36955000D01*
X18588800Y38733000D02*
X18588800Y36955000D01*
X18588800Y38733000D02*
X16861600Y38733000D01*
X16150400Y38733000D02*
X14423200Y38733000D01*
X14423200Y38733000D02*
X14423200Y36955000D01*
X16861600Y36955000D02*
X18588800Y36955000D01*
D12*
X20519199Y39721060D02*
X21017039Y39721060D01*
X19851179Y38771100D02*
X19851179Y39721060D01*
X20519199Y38771100D02*
X20519199Y39721060D01*
X19350799Y39721060D02*
X19851179Y39721060D01*
X19350799Y38771100D02*
X19350799Y39721060D01*
D13*
X19833399Y38824440D02*
X20544599Y38824440D01*
D12*
X21017039Y38771100D02*
X21017039Y39721060D01*
X20519199Y38771100D02*
X21017039Y38771100D01*
D13*
X19833399Y39672800D02*
X20544599Y39672800D01*
D12*
X19350799Y38771100D02*
X19851179Y38771100D01*
D17*
X17593120Y45659580D02*
X17963960Y45659580D01*
D11*
X18139220Y46116780D02*
X19442240Y46116780D01*
D17*
X19602260Y44704540D02*
X19973100Y44704540D01*
D11*
X19447320Y43277060D02*
X18149380Y43277060D01*
D17*
X17600740Y43746960D02*
X17971580Y43746960D01*
D11*
X19442240Y44709620D02*
X19444780Y46058360D01*
X19442240Y44707080D02*
X19442240Y43284680D01*
X18139220Y43292300D02*
X18139220Y46111700D01*
D12*
X19350799Y40295100D02*
X19350799Y41245060D01*
X20519199Y40295100D02*
X21017039Y40295100D01*
X20519199Y41245060D02*
X21017039Y41245060D01*
X19350799Y40295100D02*
X19851179Y40295100D01*
X19350799Y41245060D02*
X19851179Y41245060D01*
D13*
X19833399Y41196800D02*
X20544599Y41196800D01*
D12*
X19851179Y40295100D02*
X19851179Y41245060D01*
D13*
X19833399Y40348440D02*
X20544599Y40348440D01*
D12*
X20519199Y40295100D02*
X20519199Y41245060D01*
X21017039Y40295100D02*
X21017039Y41245060D01*
X9089200Y21930900D02*
X8588820Y21930900D01*
D13*
X8606600Y21877560D02*
X7895400Y21877560D01*
D12*
X8588820Y21930900D02*
X8588820Y20980940D01*
X7920800Y20980940D02*
X7422960Y20980940D01*
X7422960Y21930900D02*
X7422960Y20980940D01*
X9089200Y20980940D02*
X8588820Y20980940D01*
X7920800Y21930900D02*
X7920800Y20980940D01*
X7920800Y21930900D02*
X7422960Y21930900D01*
D13*
X8606600Y21029200D02*
X7895400Y21029200D01*
D12*
X9089200Y21930900D02*
X9089200Y20980940D01*
X16556800Y33172940D02*
X16058960Y33172940D01*
D13*
X17242600Y34069560D02*
X16531400Y34069560D01*
D12*
X16058960Y34122900D02*
X16058960Y33172940D01*
X17224820Y34122900D02*
X17224820Y33172940D01*
X16556800Y34122900D02*
X16556800Y33172940D01*
X17725200Y34122900D02*
X17224820Y34122900D01*
D13*
X17242600Y33221200D02*
X16531400Y33221200D01*
D12*
X16556800Y34122900D02*
X16058960Y34122900D01*
X17725200Y33172940D02*
X17224820Y33172940D01*
X17725200Y34122900D02*
X17725200Y33172940D01*
D15*
X36838700Y19848100D02*
X36838700Y18476500D01*
X38858000Y14222000D02*
X38858000Y15517400D01*
X38858000Y19848100D02*
X38858000Y18476500D01*
X36851400Y14196600D02*
X38845300Y14196600D01*
X36851400Y14209300D02*
X36851400Y15504700D01*
X36838700Y19848100D02*
X38858000Y19848100D01*
X38858000Y14183900D02*
X38858000Y15555500D01*
X40864600Y19835400D02*
X38870700Y19835400D01*
X40877300Y14183900D02*
X38858000Y14183900D01*
X40864600Y19822700D02*
X40864600Y18527300D01*
X40877300Y14183900D02*
X40877300Y15555500D01*
X38858000Y19810000D02*
X38858000Y18514600D01*
X49325000Y63950000D02*
G75*
G03*
X49325000Y63950000I-1500000J0D01*
G01*
D13*
X34743200Y47775400D02*
X34743200Y48486600D01*
D12*
X35644900Y48959040D02*
X34694940Y48959040D01*
X34694940Y47292800D02*
X34694940Y47793180D01*
X35644900Y47793180D02*
X34694940Y47793180D01*
X34694940Y48461200D02*
X34694940Y48959040D01*
X35644900Y47292800D02*
X34694940Y47292800D01*
X35644900Y47292800D02*
X35644900Y47793180D01*
X35644900Y48461200D02*
X34694940Y48461200D01*
D13*
X35591560Y47775400D02*
X35591560Y48486600D01*
D12*
X35644900Y48461200D02*
X35644900Y48959040D01*
D13*
X16531400Y32306800D02*
X17242600Y32306800D01*
D12*
X17715040Y31405100D02*
X17715040Y32355060D01*
X16549180Y31405100D02*
X16549180Y32355060D01*
X17217200Y31405100D02*
X17715040Y31405100D01*
D13*
X16531400Y31458440D02*
X17242600Y31458440D01*
D12*
X16048800Y31405100D02*
X16048800Y32355060D01*
X16048800Y32355060D02*
X16549180Y32355060D01*
X16048800Y31405100D02*
X16549180Y31405100D01*
X17217200Y32355060D02*
X17715040Y32355060D01*
X17217200Y31405100D02*
X17217200Y32355060D01*
D13*
X11781600Y21029200D02*
X11070400Y21029200D01*
D12*
X11763820Y21930900D02*
X11763820Y20980940D01*
X12264200Y21930900D02*
X11763820Y21930900D01*
X11095800Y20980940D02*
X10597960Y20980940D01*
D13*
X11781600Y21877560D02*
X11070400Y21877560D01*
D12*
X11095800Y21930900D02*
X10597960Y21930900D01*
X10597960Y21930900D02*
X10597960Y20980940D01*
X12264200Y20980940D02*
X11763820Y20980940D01*
X12264200Y21930900D02*
X12264200Y20980940D01*
X11095800Y21930900D02*
X11095800Y20980940D01*
D13*
X8606600Y19505200D02*
X7895400Y19505200D01*
D12*
X9089200Y20406900D02*
X8588820Y20406900D01*
X9089200Y20406900D02*
X9089200Y19456940D01*
X7920800Y20406900D02*
X7920800Y19456940D01*
X7920800Y20406900D02*
X7422960Y20406900D01*
X9089200Y19456940D02*
X8588820Y19456940D01*
X8588820Y20406900D02*
X8588820Y19456940D01*
X7422960Y20406900D02*
X7422960Y19456940D01*
X7920800Y19456940D02*
X7422960Y19456940D01*
D13*
X8606600Y20353560D02*
X7895400Y20353560D01*
D12*
X19376200Y21234940D02*
X18875820Y21234940D01*
X18207800Y21234940D02*
X17709960Y21234940D01*
X18207800Y22184900D02*
X18207800Y21234940D01*
X17709960Y22184900D02*
X17709960Y21234940D01*
X18207800Y22184900D02*
X17709960Y22184900D01*
X19376200Y22184900D02*
X19376200Y21234940D01*
D13*
X18893600Y21283200D02*
X18182400Y21283200D01*
X18893600Y22131560D02*
X18182400Y22131560D01*
D12*
X18875820Y22184900D02*
X18875820Y21234940D01*
X19376200Y22184900D02*
X18875820Y22184900D01*
X16683800Y23835900D02*
X16185960Y23835900D01*
X16185960Y23835900D02*
X16185960Y22885940D01*
D13*
X17369600Y22934200D02*
X16658400Y22934200D01*
D12*
X17852200Y22885940D02*
X17351820Y22885940D01*
X17351820Y23835900D02*
X17351820Y22885940D01*
X17852200Y23835900D02*
X17351820Y23835900D01*
X16683800Y22885940D02*
X16185960Y22885940D01*
X16683800Y23835900D02*
X16683800Y22885940D01*
X17852200Y23835900D02*
X17852200Y22885940D01*
D13*
X17369600Y23782560D02*
X16658400Y23782560D01*
D11*
X20549680Y21488940D02*
X21847620Y21488940D01*
X20554760Y20058920D02*
X20554760Y21481320D01*
D17*
X22403880Y19106420D02*
X22033040Y19106420D01*
X22396260Y21019040D02*
X22025420Y21019040D01*
D11*
X21857780Y18649220D02*
X20554760Y18649220D01*
X20554760Y20056380D02*
X20552220Y18707640D01*
X21857780Y21473700D02*
X21857780Y18654300D01*
D17*
X20394740Y20061460D02*
X20023900Y20061460D01*
D12*
X17318800Y19583940D02*
X16820960Y19583940D01*
X18487200Y19583940D02*
X17986820Y19583940D01*
X18487200Y20533900D02*
X18487200Y19583940D01*
X17318800Y20533900D02*
X17318800Y19583940D01*
D13*
X18004600Y19632200D02*
X17293400Y19632200D01*
D12*
X16820960Y20533900D02*
X16820960Y19583940D01*
X18487200Y20533900D02*
X17986820Y20533900D01*
D13*
X18004600Y20480560D02*
X17293400Y20480560D01*
D12*
X17318800Y20533900D02*
X16820960Y20533900D01*
X17986820Y20533900D02*
X17986820Y19583940D01*
D13*
X13051600Y38809200D02*
X12340400Y38809200D01*
D12*
X12365800Y39710900D02*
X12365800Y38760940D01*
X13033820Y39710900D02*
X13033820Y38760940D01*
X13534200Y39710900D02*
X13033820Y39710900D01*
X12365800Y38760940D02*
X11867960Y38760940D01*
X13534200Y39710900D02*
X13534200Y38760940D01*
D13*
X13051600Y39657560D02*
X12340400Y39657560D01*
D12*
X11867960Y39710900D02*
X11867960Y38760940D01*
X13534200Y38760940D02*
X13033820Y38760940D01*
X12365800Y39710900D02*
X11867960Y39710900D01*
X11867960Y36408900D02*
X11867960Y35458940D01*
D13*
X13051600Y36355560D02*
X12340400Y36355560D01*
D12*
X12365800Y36408900D02*
X12365800Y35458940D01*
X13033820Y36408900D02*
X13033820Y35458940D01*
D13*
X13051600Y35507200D02*
X12340400Y35507200D01*
D12*
X13534200Y35458940D02*
X13033820Y35458940D01*
X13534200Y36408900D02*
X13033820Y36408900D01*
X13534200Y36408900D02*
X13534200Y35458940D01*
X12365800Y35458940D02*
X11867960Y35458940D01*
X12365800Y36408900D02*
X11867960Y36408900D01*
X27700100Y8724541D02*
X28650060Y8724541D01*
X27700100Y9224921D02*
X28650060Y9224921D01*
X27700100Y8056521D02*
X27700100Y7558681D01*
D13*
X28601800Y8742321D02*
X28601800Y8031121D01*
D12*
X27700100Y7558681D02*
X28650060Y7558681D01*
D13*
X27753440Y8742321D02*
X27753440Y8031121D01*
D12*
X28650060Y8056521D02*
X28650060Y7558681D01*
X27700100Y8056521D02*
X28650060Y8056521D01*
X27700100Y9224921D02*
X27700100Y8724541D01*
X28650060Y9224921D02*
X28650060Y8724541D01*
X38962820Y9689080D02*
X38962820Y8739120D01*
D13*
X38980600Y9635740D02*
X38269400Y9635740D01*
D12*
X38294800Y9689080D02*
X37796960Y9689080D01*
X38294800Y9689080D02*
X38294800Y8739120D01*
X37796960Y9689080D02*
X37796960Y8739120D01*
X39463200Y9689080D02*
X38962820Y9689080D01*
X39463200Y8739120D02*
X38962820Y8739120D01*
X38294800Y8739120D02*
X37796960Y8739120D01*
X39463200Y9689080D02*
X39463200Y8739120D01*
D13*
X38980600Y8787380D02*
X38269400Y8787380D01*
D12*
X18255200Y7016929D02*
X18255200Y7966889D01*
X17086800Y7016929D02*
X17086800Y7966889D01*
X17587180Y7016929D02*
X17587180Y7966889D01*
D13*
X17569400Y7918629D02*
X18280600Y7918629D01*
D12*
X18255200Y7016929D02*
X18753040Y7016929D01*
X18255200Y7966889D02*
X18753040Y7966889D01*
D13*
X17569400Y7070269D02*
X18280600Y7070269D01*
D12*
X17086800Y7016929D02*
X17587180Y7016929D01*
X17086800Y7966889D02*
X17587180Y7966889D01*
X18753040Y7016929D02*
X18753040Y7966889D01*
X66654600Y7115100D02*
X66654600Y8065060D01*
X64988360Y7115100D02*
X65488740Y7115100D01*
X66156760Y8065060D02*
X66654600Y8065060D01*
X64988360Y7115100D02*
X64988360Y8065060D01*
X65488740Y7115100D02*
X65488740Y8065060D01*
X66156760Y7115100D02*
X66156760Y8065060D01*
X66156760Y7115100D02*
X66654600Y7115100D01*
X64988360Y8065060D02*
X65488740Y8065060D01*
D13*
X65470960Y7168440D02*
X66182160Y7168440D01*
X65470960Y8016800D02*
X66182160Y8016800D01*
D14*
X44690840Y27586180D02*
X47759160Y27586180D01*
X47759160Y25213820D02*
X44690840Y25213820D01*
X47759160Y27586180D02*
X47759160Y25213820D01*
X44690840Y25213820D02*
X44690840Y27586180D01*
D13*
X4143440Y8743960D02*
X4143440Y8032760D01*
D12*
X4090100Y7560320D02*
X5040060Y7560320D01*
X4090100Y9226560D02*
X4090100Y8726180D01*
D13*
X4991800Y8743960D02*
X4991800Y8032760D01*
D12*
X5040060Y8058160D02*
X5040060Y7560320D01*
X4090100Y9226560D02*
X5040060Y9226560D01*
X5040060Y9226560D02*
X5040060Y8726180D01*
X4090100Y8058160D02*
X4090100Y7560320D01*
X4090100Y8058160D02*
X5040060Y8058160D01*
X4090100Y8726180D02*
X5040060Y8726180D01*
D18*
X53360000Y22635000D02*
X53360000Y34135000D01*
X70860000Y22635000D02*
X53360000Y22635000D01*
X71860000Y21635000D02*
X49710000Y21635000D01*
X70860000Y34135000D02*
X70860000Y22635000D01*
X49710000Y35135000D02*
X71860000Y35135000D01*
X49710000Y21635000D02*
X49710000Y35135000D01*
X71860000Y35135000D02*
X71860000Y21635000D01*
X53360000Y34135000D02*
X70860000Y34135000D01*
D12*
X3113040Y7120100D02*
X3113040Y8070060D01*
X2615200Y7120100D02*
X2615200Y8070060D01*
X1446800Y7120100D02*
X1947180Y7120100D01*
X1446800Y8070060D02*
X1947180Y8070060D01*
X1947180Y7120100D02*
X1947180Y8070060D01*
D13*
X1929400Y8021800D02*
X2640600Y8021800D01*
D12*
X2615200Y8070060D02*
X3113040Y8070060D01*
D13*
X1929400Y7173440D02*
X2640600Y7173440D01*
D12*
X1446800Y7120100D02*
X1446800Y8070060D01*
X2615200Y7120100D02*
X3113040Y7120100D01*
X22255060Y8057449D02*
X22255060Y7559609D01*
X22255060Y9225849D02*
X22255060Y8725469D01*
X21305100Y8725469D02*
X22255060Y8725469D01*
X21305100Y9225849D02*
X22255060Y9225849D01*
X21305100Y7559609D02*
X22255060Y7559609D01*
D13*
X22206800Y8743249D02*
X22206800Y8032049D01*
D12*
X21305100Y8057449D02*
X22255060Y8057449D01*
X21305100Y8057449D02*
X21305100Y7559609D01*
X21305100Y9225849D02*
X21305100Y8725469D01*
D13*
X21358440Y8743249D02*
X21358440Y8032049D01*
D12*
X53365100Y8053915D02*
X54315060Y8053915D01*
D13*
X53418440Y8739715D02*
X53418440Y8028515D01*
X54266800Y8739715D02*
X54266800Y8028515D01*
D12*
X53365100Y9222315D02*
X53365100Y8721935D01*
X54315060Y8053915D02*
X54315060Y7556075D01*
X53365100Y8053915D02*
X53365100Y7556075D01*
X53365100Y9222315D02*
X54315060Y9222315D01*
X53365100Y8721935D02*
X54315060Y8721935D01*
X54315060Y9222315D02*
X54315060Y8721935D01*
X53365100Y7556075D02*
X54315060Y7556075D01*
D18*
X71860000Y23060000D02*
X71860000Y9560000D01*
X53360000Y22060000D02*
X70860000Y22060000D01*
X71860000Y9560000D02*
X49710000Y9560000D01*
X49710000Y9560000D02*
X49710000Y23060000D01*
X53360000Y10560000D02*
X53360000Y22060000D01*
X70860000Y10560000D02*
X53360000Y10560000D01*
X70860000Y22060000D02*
X70860000Y10560000D01*
X49710000Y23060000D02*
X71860000Y23060000D01*
D12*
X50411800Y60880100D02*
X50411800Y61830060D01*
X50411800Y61830060D02*
X50912180Y61830060D01*
D13*
X50894400Y61781800D02*
X51605600Y61781800D01*
X50894400Y60933440D02*
X51605600Y60933440D01*
D12*
X50411800Y60880100D02*
X50912180Y60880100D01*
X51580200Y61830060D02*
X52078040Y61830060D01*
X52078040Y60880100D02*
X52078040Y61830060D01*
X51580200Y60880100D02*
X51580200Y61830060D01*
X50912180Y60880100D02*
X50912180Y61830060D01*
X51580200Y60880100D02*
X52078040Y60880100D01*
D13*
X57600240Y7168552D02*
X58311440Y7168552D01*
D12*
X57117640Y8065172D02*
X57618020Y8065172D01*
X58783880Y7115212D02*
X58783880Y8065172D01*
X57117640Y7115212D02*
X57117640Y8065172D01*
X58286040Y7115212D02*
X58286040Y8065172D01*
X58286040Y7115212D02*
X58783880Y7115212D01*
X57117640Y7115212D02*
X57618020Y7115212D01*
X58286040Y8065172D02*
X58783880Y8065172D01*
D13*
X57600240Y8016912D02*
X58311440Y8016912D01*
D12*
X57618020Y7115212D02*
X57618020Y8065172D01*
X52840060Y8050635D02*
X52840060Y7552795D01*
D13*
X52791800Y8736435D02*
X52791800Y8025235D01*
X51943440Y8736435D02*
X51943440Y8025235D01*
D12*
X51890100Y9219035D02*
X52840060Y9219035D01*
X51890100Y7552795D02*
X52840060Y7552795D01*
X51890100Y9219035D02*
X51890100Y8718655D01*
X51890100Y8050635D02*
X51890100Y7552795D01*
X52840060Y9219035D02*
X52840060Y8718655D01*
X51890100Y8718655D02*
X52840060Y8718655D01*
X51890100Y8050635D02*
X52840060Y8050635D01*
X59760100Y9223312D02*
X60710060Y9223312D01*
D13*
X60661800Y8740712D02*
X60661800Y8029512D01*
D12*
X60710060Y9223312D02*
X60710060Y8722932D01*
D13*
X59813440Y8740712D02*
X59813440Y8029512D01*
D12*
X59760100Y8054912D02*
X60710060Y8054912D01*
X59760100Y8722932D02*
X60710060Y8722932D01*
X59760100Y8054912D02*
X59760100Y7557072D01*
X59760100Y9223312D02*
X59760100Y8722932D01*
X59760100Y7557072D02*
X60710060Y7557072D01*
X60710060Y8054912D02*
X60710060Y7557072D01*
X5565100Y9228200D02*
X6515060Y9228200D01*
X6515060Y8059800D02*
X6515060Y7561960D01*
X5565100Y9228200D02*
X5565100Y8727820D01*
X5565100Y7561960D02*
X6515060Y7561960D01*
D13*
X5618440Y8745600D02*
X5618440Y8034400D01*
D12*
X5565100Y8059800D02*
X5565100Y7561960D01*
X6515060Y9228200D02*
X6515060Y8727820D01*
D13*
X6466800Y8745600D02*
X6466800Y8034400D01*
D12*
X5565100Y8727820D02*
X6515060Y8727820D01*
X5565100Y8059800D02*
X6515060Y8059800D01*
D13*
X35700600Y8788200D02*
X34989400Y8788200D01*
X35700600Y9636560D02*
X34989400Y9636560D01*
D12*
X36183200Y8739940D02*
X35682820Y8739940D01*
X36183200Y9689900D02*
X36183200Y8739940D01*
X35682820Y9689900D02*
X35682820Y8739940D01*
X35014800Y9689900D02*
X35014800Y8739940D01*
X35014800Y9689900D02*
X34516960Y9689900D01*
X34516960Y9689900D02*
X34516960Y8739940D01*
X35014800Y8739940D02*
X34516960Y8739940D01*
X36183200Y9689900D02*
X35682820Y9689900D01*
X29175100Y8724541D02*
X30125060Y8724541D01*
X29175100Y9224921D02*
X30125060Y9224921D01*
X29175100Y8056521D02*
X29175100Y7558681D01*
X30125060Y9224921D02*
X30125060Y8724541D01*
D13*
X30076800Y8742321D02*
X30076800Y8031121D01*
X29228440Y8742321D02*
X29228440Y8031121D01*
D12*
X29175100Y9224921D02*
X29175100Y8724541D01*
X29175100Y8056521D02*
X30125060Y8056521D01*
X30125060Y8056521D02*
X30125060Y7558681D01*
X29175100Y7558681D02*
X30125060Y7558681D01*
X50414360Y7114215D02*
X50414360Y8064175D01*
X50912200Y7114215D02*
X50912200Y8064175D01*
X50414360Y8064175D02*
X50912200Y8064175D01*
X50414360Y7114215D02*
X50912200Y7114215D01*
X49245960Y7114215D02*
X49746340Y7114215D01*
X49245960Y7114215D02*
X49245960Y8064175D01*
X49245960Y8064175D02*
X49746340Y8064175D01*
D13*
X49728560Y7167555D02*
X50439760Y7167555D01*
D12*
X49746340Y7114215D02*
X49746340Y8064175D01*
D13*
X49728560Y8015915D02*
X50439760Y8015915D01*
D12*
X67630820Y9226480D02*
X68580780Y9226480D01*
X68580780Y9226480D02*
X68580780Y8726100D01*
X68580780Y8058080D02*
X68580780Y7560240D01*
X67630820Y8726100D02*
X68580780Y8726100D01*
X67630820Y9226480D02*
X67630820Y8726100D01*
X67630820Y8058080D02*
X68580780Y8058080D01*
D13*
X67684160Y8743880D02*
X67684160Y8032680D01*
D12*
X67630820Y7560240D02*
X68580780Y7560240D01*
D13*
X68532520Y8743880D02*
X68532520Y8032680D01*
D12*
X67630820Y8058080D02*
X67630820Y7560240D01*
X59153040Y60880100D02*
X59153040Y61830060D01*
X57486800Y60880100D02*
X57486800Y61830060D01*
X58655200Y60880100D02*
X58655200Y61830060D01*
D13*
X57969400Y60933440D02*
X58680600Y60933440D01*
D12*
X57486800Y61830060D02*
X57987180Y61830060D01*
D13*
X57969400Y61781800D02*
X58680600Y61781800D01*
D12*
X57486800Y60880100D02*
X57987180Y60880100D01*
X58655200Y61830060D02*
X59153040Y61830060D01*
X58655200Y60880100D02*
X59153040Y60880100D01*
X57987180Y60880100D02*
X57987180Y61830060D01*
X10983880Y7120100D02*
X10983880Y8070060D01*
D13*
X9800240Y8021800D02*
X10511440Y8021800D01*
D12*
X9818020Y7120100D02*
X9818020Y8070060D01*
X9317640Y8070060D02*
X9818020Y8070060D01*
X9317640Y7120100D02*
X9818020Y7120100D01*
X10486040Y7120100D02*
X10486040Y8070060D01*
X10486040Y7120100D02*
X10983880Y7120100D01*
X9317640Y7120100D02*
X9317640Y8070060D01*
D13*
X9800240Y7173440D02*
X10511440Y7173440D01*
D12*
X10486040Y8070060D02*
X10983880Y8070060D01*
D13*
X13488440Y8745600D02*
X13488440Y8034400D01*
D12*
X13435100Y9228200D02*
X13435100Y8727820D01*
X13435100Y8059800D02*
X14385060Y8059800D01*
X13435100Y8059800D02*
X13435100Y7561960D01*
X13435100Y7561960D02*
X14385060Y7561960D01*
X13435100Y8727820D02*
X14385060Y8727820D01*
X14385060Y8059800D02*
X14385060Y7561960D01*
X13435100Y9228200D02*
X14385060Y9228200D01*
X14385060Y9228200D02*
X14385060Y8727820D01*
D13*
X14336800Y8745600D02*
X14336800Y8034400D01*
D12*
X41769800Y9449900D02*
X41769800Y8499940D01*
X41769800Y8499940D02*
X41271960Y8499940D01*
X42938200Y9449900D02*
X42437820Y9449900D01*
X42938200Y8499940D02*
X42437820Y8499940D01*
X41271960Y9449900D02*
X41271960Y8499940D01*
X41769800Y9449900D02*
X41271960Y9449900D01*
D13*
X42455600Y8548200D02*
X41744400Y8548200D01*
D12*
X42437820Y9449900D02*
X42437820Y8499940D01*
X42938200Y9449900D02*
X42938200Y8499940D01*
D13*
X42455600Y9396560D02*
X41744400Y9396560D01*
X46396800Y8739493D02*
X46396800Y8028293D01*
D12*
X46445060Y9222093D02*
X46445060Y8721713D01*
X45495100Y7555853D02*
X46445060Y7555853D01*
X45495100Y9222093D02*
X46445060Y9222093D01*
X45495100Y8053693D02*
X45495100Y7555853D01*
X45495100Y8053693D02*
X46445060Y8053693D01*
X45495100Y8721713D02*
X46445060Y8721713D01*
D13*
X45548440Y8739493D02*
X45548440Y8028293D01*
D12*
X45495100Y9222093D02*
X45495100Y8721713D01*
X46445060Y8053693D02*
X46445060Y7555853D01*
X19830100Y9225849D02*
X20780060Y9225849D01*
X19830100Y8057449D02*
X19830100Y7559609D01*
D13*
X20731800Y8743249D02*
X20731800Y8032049D01*
D12*
X19830100Y9225849D02*
X19830100Y8725469D01*
X19830100Y7559609D02*
X20780060Y7559609D01*
X20780060Y9225849D02*
X20780060Y8725469D01*
X20780060Y8057449D02*
X20780060Y7559609D01*
X19830100Y8725469D02*
X20780060Y8725469D01*
X19830100Y8057449D02*
X20780060Y8057449D01*
D13*
X19883440Y8743249D02*
X19883440Y8032049D01*
D12*
X26226040Y7116821D02*
X26723880Y7116821D01*
X26226040Y8066781D02*
X26723880Y8066781D01*
X26723880Y7116821D02*
X26723880Y8066781D01*
X25057640Y7116821D02*
X25057640Y8066781D01*
X25057640Y8066781D02*
X25558020Y8066781D01*
X25558020Y7116821D02*
X25558020Y8066781D01*
X26226040Y7116821D02*
X26226040Y8066781D01*
D13*
X25540240Y7170161D02*
X26251440Y7170161D01*
D12*
X25057640Y7116821D02*
X25558020Y7116821D01*
D13*
X25540240Y8018521D02*
X26251440Y8018521D01*
D12*
X41377640Y8063953D02*
X41878020Y8063953D01*
X43043880Y7113993D02*
X43043880Y8063953D01*
X42546040Y7113993D02*
X43043880Y7113993D01*
D13*
X41860240Y7167333D02*
X42571440Y7167333D01*
D12*
X41377640Y7113993D02*
X41878020Y7113993D01*
X42546040Y8063953D02*
X43043880Y8063953D01*
X42546040Y7113993D02*
X42546040Y8063953D01*
X41377640Y7113993D02*
X41377640Y8063953D01*
X41878020Y7113993D02*
X41878020Y8063953D01*
D13*
X41860240Y8015693D02*
X42571440Y8015693D01*
X69159160Y8740600D02*
X69159160Y8029400D01*
D12*
X69105820Y9223200D02*
X70055780Y9223200D01*
X70055780Y9223200D02*
X70055780Y8722820D01*
X70055780Y8054800D02*
X70055780Y7556960D01*
D13*
X70007520Y8740600D02*
X70007520Y8029400D01*
D12*
X69105820Y8722820D02*
X70055780Y8722820D01*
X69105820Y9223200D02*
X69105820Y8722820D01*
X69105820Y7556960D02*
X70055780Y7556960D01*
X69105820Y8054800D02*
X70055780Y8054800D01*
X69105820Y8054800D02*
X69105820Y7556960D01*
X11960100Y8058160D02*
X11960100Y7560320D01*
X11960100Y7560320D02*
X12910060Y7560320D01*
X11960100Y9226560D02*
X12910060Y9226560D01*
X12910060Y9226560D02*
X12910060Y8726180D01*
X11960100Y8726180D02*
X12910060Y8726180D01*
X11960100Y9226560D02*
X11960100Y8726180D01*
X11960100Y8058160D02*
X12910060Y8058160D01*
X12910060Y8058160D02*
X12910060Y7560320D01*
D13*
X12013440Y8743960D02*
X12013440Y8032760D01*
X12861800Y8743960D02*
X12861800Y8032760D01*
D14*
X47661180Y19261760D02*
X47661180Y16193440D01*
X45288820Y16193440D02*
X45288820Y19261760D01*
X45288820Y19261760D02*
X47661180Y19261760D01*
X47661180Y16193440D02*
X45288820Y16193440D01*
D12*
X31231800Y9700060D02*
X31732180Y9700060D01*
X31231800Y8750100D02*
X31732180Y8750100D01*
X31732180Y8750100D02*
X31732180Y9700060D01*
X31231800Y8750100D02*
X31231800Y9700060D01*
D13*
X31714400Y9651800D02*
X32425600Y9651800D01*
X31714400Y8803440D02*
X32425600Y8803440D01*
D12*
X32400200Y8750100D02*
X32400200Y9700060D01*
X32400200Y8750100D02*
X32898040Y8750100D01*
X32400200Y9700060D02*
X32898040Y9700060D01*
X32898040Y8750100D02*
X32898040Y9700060D01*
X61235100Y9223312D02*
X61235100Y8722932D01*
X62185060Y8054912D02*
X62185060Y7557072D01*
D13*
X61288440Y8740712D02*
X61288440Y8029512D01*
X62136800Y8740712D02*
X62136800Y8029512D01*
D12*
X61235100Y8054912D02*
X62185060Y8054912D01*
X61235100Y8722932D02*
X62185060Y8722932D01*
X62185060Y9223312D02*
X62185060Y8722932D01*
X61235100Y7557072D02*
X62185060Y7557072D01*
X61235100Y8054912D02*
X61235100Y7557072D01*
X61235100Y9223312D02*
X62185060Y9223312D01*
D13*
X44921800Y8737853D02*
X44921800Y8026653D01*
D12*
X44970060Y9220453D02*
X44970060Y8720073D01*
X44020100Y8052053D02*
X44020100Y7554213D01*
X44970060Y8052053D02*
X44970060Y7554213D01*
X44020100Y9220453D02*
X44970060Y9220453D01*
X44020100Y9220453D02*
X44020100Y8720073D01*
D13*
X44073440Y8737853D02*
X44073440Y8026653D01*
D12*
X44020100Y7554213D02*
X44970060Y7554213D01*
X44020100Y8720073D02*
X44970060Y8720073D01*
X44020100Y8052053D02*
X44970060Y8052053D01*
D14*
X44611180Y16193440D02*
X42238820Y16193440D01*
X44611180Y19261760D02*
X44611180Y16193440D01*
X42238820Y16193440D02*
X42238820Y19261760D01*
X42238820Y19261760D02*
X44611180Y19261760D01*
D15*
X35475088Y38945900D02*
X35475088Y38641100D01*
X36795888Y39657100D02*
X36795888Y39961900D01*
X36795888Y38945900D02*
X35475088Y38945900D01*
X35576688Y38590300D02*
X36592688Y38590300D01*
X35475088Y38742700D02*
X36795888Y38742700D01*
X35475088Y38742700D02*
X36795888Y38742700D01*
X35576688Y38590300D02*
X36592688Y38590300D01*
X36795888Y39860300D02*
X35475088Y39860300D01*
X36795888Y39657100D02*
X35475088Y39657100D01*
X35475088Y38945900D02*
X35475088Y38641100D01*
X36135488Y38285500D02*
X36135488Y37777500D01*
X37024488Y39301500D02*
X35246488Y39301500D01*
X35475088Y39657100D02*
X35475088Y39961900D01*
X36795888Y38641100D02*
X36795888Y38945900D01*
X35627488Y40038100D02*
X36643488Y40038100D01*
X36795888Y38641100D02*
X36795888Y38945900D01*
X36795888Y38945900D02*
X35475088Y38945900D01*
X36135488Y40317500D02*
X36135488Y40825500D01*
X36795888Y39961900D02*
G75*
G03*
X35475088Y39961900I-660400J-660400D01*
G01*
X35475088Y38641100D02*
G75*
G03*
X36795888Y38641100I660400J660399D01*
G01*
X45814600Y53169400D02*
X45814600Y52864600D01*
X47135400Y53169400D02*
X45814600Y53169400D01*
X45967000Y54261600D02*
X46983000Y54261600D01*
X45814600Y53880600D02*
X45814600Y54185400D01*
X47135400Y53880600D02*
X47135400Y54185400D01*
X46475000Y54541000D02*
X46475000Y55049000D01*
X47135400Y53880600D02*
X45814600Y53880600D01*
X45814600Y53169400D02*
X45814600Y52864600D01*
X47135400Y52864600D02*
X47135400Y53169400D01*
X47135400Y52864600D02*
X47135400Y53169400D01*
X45814600Y52966200D02*
X47135400Y52966200D01*
X45916200Y52813800D02*
X46932200Y52813800D01*
X47135400Y53169400D02*
X45814600Y53169400D01*
X47364000Y53525000D02*
X45586000Y53525000D01*
X46475000Y52509000D02*
X46475000Y52001000D01*
X45814600Y52966200D02*
X47135400Y52966200D01*
X47135400Y54083800D02*
X45814600Y54083800D01*
X45916200Y52813800D02*
X46932200Y52813800D01*
X45814600Y52864600D02*
G75*
G03*
X47135400Y52864600I660400J660399D01*
G01*
X47135400Y54185400D02*
G75*
G03*
X45814600Y54185400I-660400J-660400D01*
G01*
M02*
