%TF.GenerationSoftware,KiCad,Pcbnew,(6.0.8)*%
%TF.CreationDate,2023-02-19T19:21:06+03:00*%
%TF.ProjectId,ESP32-GATEWAY_Rev_G,45535033-322d-4474-9154-455741595f52,0*%
%TF.SameCoordinates,PX4260300PY8558f68*%
%TF.FileFunction,Soldermask,Bot*%
%TF.FilePolarity,Negative*%
%FSLAX46Y46*%
G04 Gerber Fmt 4.6, Leading zero omitted, Abs format (unit mm)*
G04 Created by KiCad (PCBNEW (6.0.8)) date 2023-02-19 19:21:06*
%MOMM*%
%LPD*%
G01*
G04 APERTURE LIST*
G04 Aperture macros list*
%AMRoundRect*
0 Rectangle with rounded corners*
0 $1 Rounding radius*
0 $2 $3 $4 $5 $6 $7 $8 $9 X,Y pos of 4 corners*
0 Add a 4 corners polygon primitive as box body*
4,1,4,$2,$3,$4,$5,$6,$7,$8,$9,$2,$3,0*
0 Add four circle primitives for the rounded corners*
1,1,$1+$1,$2,$3*
1,1,$1+$1,$4,$5*
1,1,$1+$1,$6,$7*
1,1,$1+$1,$8,$9*
0 Add four rect primitives between the rounded corners*
20,1,$1+$1,$2,$3,$4,$5,0*
20,1,$1+$1,$4,$5,$6,$7,0*
20,1,$1+$1,$6,$7,$8,$9,0*
20,1,$1+$1,$8,$9,$2,$3,0*%
G04 Aperture macros list end*
%TA.AperFunction,Profile*%
%ADD10C,0.254000*%
%TD*%
%ADD11C,1.600000*%
%ADD12C,6.700000*%
%ADD13C,2.101600*%
%ADD14RoundRect,0.200000X-0.711200X0.711200X-0.711200X-0.711200X0.711200X-0.711200X0.711200X0.711200X0*%
%ADD15C,3.600000*%
%ADD16C,1.810000*%
%ADD17C,2.050000*%
%ADD18C,3.100000*%
%ADD19RoundRect,0.050800X-0.889000X-0.889000X0.889000X-0.889000X0.889000X0.889000X-0.889000X0.889000X0*%
%ADD20C,1.879600*%
%ADD21RoundRect,0.200000X0.900000X-0.900000X0.900000X0.900000X-0.900000X0.900000X-0.900000X-0.900000X0*%
%ADD22C,2.200000*%
%ADD23RoundRect,0.200000X-1.250000X0.850000X-1.250000X-0.850000X1.250000X-0.850000X1.250000X0.850000X0*%
%ADD24O,2.900000X2.100000*%
%ADD25C,3.400000*%
%ADD26RoundRect,0.450001X-1.599999X1.099999X-1.599999X-1.099999X1.599999X-1.099999X1.599999X1.099999X0*%
%ADD27O,4.100000X3.100000*%
%ADD28C,0.701600*%
%ADD29O,1.301600X2.301600*%
%ADD30O,1.401600X2.101600*%
%ADD31RoundRect,0.050800X0.800100X-0.584200X0.800100X0.584200X-0.800100X0.584200X-0.800100X-0.584200X0*%
%ADD32C,1.300000*%
%ADD33C,1.100000*%
%ADD34C,1.150000*%
G04 APERTURE END LIST*
D10*
X48650000Y72773492D02*
X49770000Y71659000D01*
X48650000Y72773492D02*
X19554000Y72769000D01*
X-4000Y66673000D02*
X0Y0D01*
X61200000Y72675000D02*
X71675000Y72675000D01*
X19554000Y66673000D02*
X19554000Y72769000D01*
X60184000Y71659000D02*
X61200000Y72675000D01*
X49770000Y71659000D02*
X60184000Y71659000D01*
X71675000Y72675000D02*
X71675000Y0D01*
X-4000Y66673000D02*
X19554000Y66673000D01*
X0Y0D02*
X71675000Y0D01*
X48650000Y72773492D02*
X49770000Y71659000D01*
X48650000Y72773492D02*
X19554000Y72769000D01*
X-4000Y66673000D02*
X0Y0D01*
X61200000Y72675000D02*
X71675000Y72675000D01*
X19554000Y66673000D02*
X19554000Y72769000D01*
X60184000Y71659000D02*
X61200000Y72675000D01*
X49770000Y71659000D02*
X60184000Y71659000D01*
X71675000Y72675000D02*
X71675000Y0D01*
X-4000Y66673000D02*
X19554000Y66673000D01*
X0Y0D02*
X71675000Y0D01*
D11*
X5203000Y19175000D03*
X1901000Y15746000D03*
X5203000Y15873000D03*
X3552000Y15111000D03*
X1139000Y17524000D03*
X3552000Y19937000D03*
X5965000Y17524000D03*
X1901000Y19175000D03*
D12*
X3552000Y17524000D03*
D13*
X9410000Y57742000D03*
D14*
X30349000Y41781000D03*
D15*
X26285000Y61466000D03*
X37715000Y61466000D03*
D16*
X36455000Y54766000D03*
X35185000Y52226000D03*
X33915000Y54766000D03*
X32645000Y52226000D03*
X31375000Y54766000D03*
X30105000Y52226000D03*
X28835000Y54766000D03*
X27565000Y52226000D03*
D17*
X27930000Y66214500D03*
X38610000Y66214500D03*
D18*
X39800000Y58416000D03*
X24200000Y58416000D03*
D17*
X25390000Y66214500D03*
X36070000Y66214500D03*
D11*
X45081000Y70356000D03*
X45081000Y66927000D03*
X49145000Y68705000D03*
X48383000Y70356000D03*
X44319000Y68705000D03*
X48383000Y67054000D03*
X46732000Y71118000D03*
D12*
X46732000Y68705000D03*
D11*
X46732000Y66292000D03*
D19*
X1266000Y11809000D03*
D20*
X3806000Y11809000D03*
X6346000Y11809000D03*
X8886000Y11809000D03*
X11426000Y11809000D03*
X13966000Y11809000D03*
X16506000Y11809000D03*
X19046000Y11809000D03*
X21586000Y11809000D03*
X24126000Y11809000D03*
X26666000Y11809000D03*
X29206000Y11809000D03*
X31746000Y11809000D03*
X34286000Y11809000D03*
X36826000Y11809000D03*
X39366000Y11809000D03*
X41906000Y11809000D03*
X44446000Y11809000D03*
X46986000Y11809000D03*
X49526000Y11809000D03*
D16*
X26300000Y54775000D03*
D21*
X51610000Y30925000D03*
D22*
X51610000Y28385000D03*
X51610000Y25845000D03*
D21*
X51610000Y18850000D03*
D22*
X51610000Y16310000D03*
X51610000Y13770000D03*
D23*
X57725000Y18875000D03*
D24*
X57725000Y16335000D03*
X57725000Y13795000D03*
D23*
X57717500Y30935000D03*
D24*
X57717500Y28395000D03*
X57717500Y25855000D03*
D25*
X64465000Y48800000D03*
D26*
X57165000Y50900000D03*
D27*
X57165000Y46700000D03*
X51665000Y50900000D03*
X51665000Y46700000D03*
D28*
X57865000Y65920000D03*
X52085000Y65920000D03*
D29*
X59295000Y65420000D03*
D30*
X59295000Y69600000D03*
D29*
X50655000Y65420000D03*
D30*
X50655000Y69600000D03*
D16*
X37715000Y52225000D03*
D15*
X61365000Y42200000D03*
X61365000Y55400000D03*
D26*
X57165000Y50900000D03*
D27*
X57165000Y46700000D03*
X51665000Y50900000D03*
X51665000Y46700000D03*
D31*
X36135488Y38539500D03*
X36135488Y38539500D03*
X36135488Y40063500D03*
X46475000Y52763000D03*
X46475000Y52763000D03*
X46475000Y54287000D03*
D32*
X13760000Y26541000D03*
X13760000Y25525000D03*
X13760000Y24509000D03*
D33*
X35429000Y37590000D03*
X34540000Y37590000D03*
D32*
X39747000Y46734000D03*
X39747000Y47877000D03*
X39747000Y49020000D03*
X39747000Y42162000D03*
X39747000Y41019000D03*
X39747000Y39876000D03*
X39747000Y38733000D03*
X29587000Y30097000D03*
X32254000Y30097000D03*
X34032000Y30097000D03*
X35937000Y30097000D03*
X32254000Y28954000D03*
X30857000Y30097000D03*
X28317000Y30097000D03*
X29587000Y28954000D03*
X37715000Y30097000D03*
X25777000Y28954000D03*
X25777000Y30097000D03*
X27047000Y28954000D03*
X27047000Y30097000D03*
X45335000Y61085000D03*
X45335000Y62355000D03*
X45335000Y63625000D03*
X45335000Y64895000D03*
X38858000Y17016000D03*
X42795000Y64895000D03*
X44065000Y64895000D03*
X44065000Y63625000D03*
X44065000Y62355000D03*
X41652000Y65530000D03*
X41652000Y67435000D03*
X41652000Y69340000D03*
X41652000Y71245000D03*
X44050000Y61100000D03*
X46605000Y61085000D03*
X46605000Y62355000D03*
X37207000Y24382000D03*
X13585000Y61720000D03*
X20570000Y71626000D03*
X20570000Y70356000D03*
X20570000Y67816000D03*
X20570000Y69086000D03*
X20570000Y66546000D03*
X12442000Y37336000D03*
X11299000Y37336000D03*
X55150000Y28385000D03*
X13766000Y32622000D03*
X61490000Y30950000D03*
X60185000Y18845000D03*
X67805000Y17590000D03*
X65290000Y12515000D03*
X69090000Y11235000D03*
X69080000Y32220000D03*
X60205000Y16295000D03*
X4700000Y30350000D03*
X63985000Y20130000D03*
X12325000Y56625000D03*
X62760000Y12505000D03*
X65280000Y33500000D03*
X42895000Y48570000D03*
X8500000Y62945000D03*
X9770000Y62945000D03*
X5960000Y65485000D03*
X55185000Y23310000D03*
X60205000Y17565000D03*
X64005000Y15040000D03*
X64030000Y12505000D03*
X33524000Y37717000D03*
X14855000Y61720000D03*
X61455000Y21390000D03*
X24258000Y26561000D03*
X45650000Y44630000D03*
X43459261Y41080000D03*
X53915000Y23310000D03*
X13766000Y31606000D03*
X67830000Y29690000D03*
X8500000Y64215000D03*
X12305000Y65510000D03*
X45650000Y43360000D03*
X57655000Y21375000D03*
X39747000Y43305000D03*
X61490000Y29680000D03*
X20550000Y26550000D03*
X36826000Y44702000D03*
X69090000Y29680000D03*
X4568000Y37589848D03*
X61480000Y32220000D03*
X56400000Y21375000D03*
X27936000Y25652000D03*
D33*
X11426000Y45337000D03*
D32*
X69090000Y12505000D03*
X61490000Y13775000D03*
X12305000Y61700000D03*
X56430000Y11210000D03*
X35937000Y26033000D03*
X41450000Y41175000D03*
X64030000Y13775000D03*
X42895000Y51110000D03*
X62760000Y13775000D03*
X39747000Y44448000D03*
X13585000Y59165000D03*
D33*
X40174428Y9133880D03*
D32*
X31619000Y24382000D03*
X4695000Y45464000D03*
X17350000Y30575000D03*
X70355000Y33490000D03*
X69115000Y23335000D03*
X4695000Y49147000D03*
X61490000Y12505000D03*
X30349000Y25652000D03*
X56425000Y33475000D03*
X69090000Y28410000D03*
X66535000Y17590000D03*
X12305000Y62970000D03*
X43049000Y35050000D03*
X65290000Y13785000D03*
X69055000Y21390000D03*
X17776000Y42289000D03*
X67825000Y33510000D03*
X62735000Y16310000D03*
X42895000Y52375000D03*
X67855000Y24615000D03*
X35937000Y29081000D03*
X34032000Y28954000D03*
X64005000Y16310000D03*
X31492000Y22858000D03*
X70360000Y30950000D03*
X61465000Y16310000D03*
X16115000Y65500000D03*
X7230000Y65485000D03*
X65265000Y17590000D03*
X58220000Y4230000D03*
X13575000Y64240000D03*
X62755000Y32220000D03*
D33*
X12442010Y45337000D03*
D32*
X61515000Y25875000D03*
X61455000Y20120000D03*
X65315000Y23345000D03*
X70360000Y28410000D03*
X20550000Y28591000D03*
X60230000Y11220000D03*
X11035000Y61700000D03*
X4695000Y23874000D03*
X36826000Y45718000D03*
X58955000Y33475000D03*
X45650000Y42090000D03*
X39154589Y34345411D03*
X60230000Y28395000D03*
X64000000Y21400000D03*
X69055000Y20120000D03*
X65265000Y18860000D03*
X46920000Y40825000D03*
X14855000Y59165000D03*
X9765000Y65510000D03*
X66560000Y30960000D03*
X70385000Y24605000D03*
X70355000Y32220000D03*
X60230000Y27125000D03*
X46925000Y47165000D03*
D33*
X631000Y27557000D03*
D32*
X62755000Y33490000D03*
X64055000Y24605000D03*
X61515000Y24605000D03*
X67810000Y30970000D03*
X64030000Y28410000D03*
X64030000Y29680000D03*
X67810000Y32240000D03*
X14845000Y65500000D03*
X60210000Y30945000D03*
X10420000Y4215669D03*
X44700000Y28065000D03*
X8568500Y49401561D03*
X41625000Y53645000D03*
X25015000Y48067500D03*
X67830000Y11245000D03*
X66530000Y21400000D03*
X70330000Y21390000D03*
X70330000Y20120000D03*
X2560000Y4220000D03*
X24258000Y27577000D03*
X67855000Y23345000D03*
X63985000Y18860000D03*
X11035000Y62970000D03*
X55160000Y11210000D03*
X13575000Y65510000D03*
X70335000Y16310000D03*
X53890000Y11210000D03*
X57680000Y33475000D03*
X61515000Y23335000D03*
X42489227Y4220000D03*
X57690000Y11220000D03*
X11035000Y65510000D03*
X69065000Y18850000D03*
X66560000Y12515000D03*
X14855000Y60435000D03*
X66560000Y13785000D03*
X67785000Y18870000D03*
X13766000Y30590000D03*
X13585000Y55355000D03*
X65255000Y21400000D03*
X61490000Y27140000D03*
X13585000Y57895000D03*
X64030000Y27140000D03*
X62785000Y24605000D03*
X41450000Y39905000D03*
X13585000Y60435000D03*
X9765000Y64240000D03*
X23110000Y65149000D03*
X64025000Y33500000D03*
X69080000Y33490000D03*
X69090000Y27140000D03*
X57715000Y23320000D03*
X66535000Y16320000D03*
X66560000Y15055000D03*
X37715000Y29081000D03*
X55135000Y16285000D03*
X61465000Y18850000D03*
X8500000Y65485000D03*
X22957600Y51687000D03*
X65315000Y24615000D03*
X21332000Y35685000D03*
X61490000Y28410000D03*
X23070479Y45805479D03*
X35936992Y24382000D03*
X65290000Y29690000D03*
X70360000Y13775000D03*
X56455000Y23310000D03*
X62735000Y17580000D03*
X41625000Y52375000D03*
X62785000Y27145000D03*
X70335000Y17580000D03*
X17385000Y65500000D03*
X66585000Y25885000D03*
X66555000Y32230000D03*
X64005000Y17580000D03*
X22094000Y71626000D03*
X12325000Y55355000D03*
X60255000Y25860000D03*
X12315000Y60435000D03*
X60205000Y15025000D03*
X11035000Y64240000D03*
X12325000Y57895000D03*
X42895000Y47300000D03*
X34032000Y21334000D03*
D33*
X32761988Y44448000D03*
D32*
X43684000Y28065000D03*
X46920000Y44630000D03*
D33*
X33524000Y43940000D03*
D32*
X46470000Y51525000D03*
X62760000Y30950000D03*
X42895000Y53645000D03*
X62760000Y28410000D03*
X69090000Y30950000D03*
X12305000Y64240000D03*
X62785000Y23335000D03*
D33*
X631000Y23493000D03*
D32*
X16115000Y62975000D03*
X66530000Y20130000D03*
X45195000Y49010000D03*
X70360000Y12505000D03*
X42895000Y49840000D03*
X7489000Y49401000D03*
X20550000Y27575000D03*
X61480000Y33490000D03*
X41625000Y48570000D03*
X65255000Y20130000D03*
X43475000Y43575000D03*
X69115000Y25875000D03*
X61465000Y15040000D03*
X44812500Y56175000D03*
X50340000Y4230000D03*
X65280000Y32230000D03*
X43475000Y39825000D03*
X67830000Y12515000D03*
X62785000Y25875000D03*
X70360000Y29680000D03*
X21967000Y51687000D03*
X64030000Y11235000D03*
X29206000Y35177000D03*
X53880000Y28385000D03*
X60255000Y23320000D03*
X65290000Y11245000D03*
X60225000Y33485000D03*
X8500000Y61675000D03*
X46920000Y42090000D03*
X62760000Y11235000D03*
X67830000Y27150000D03*
X64010000Y30960000D03*
X70385000Y25875000D03*
X62760000Y15045000D03*
X33524000Y38860000D03*
X12325000Y59165000D03*
X16125000Y61705000D03*
X41625000Y51110000D03*
X66560000Y29690000D03*
X64010000Y32230000D03*
X65315000Y25885000D03*
X35774009Y5859842D03*
X65290000Y27150000D03*
X26170000Y4216721D03*
X24258000Y28593000D03*
X60230000Y29665000D03*
X37715000Y26098570D03*
X62730000Y21390000D03*
X14855000Y57895000D03*
X60200000Y21385000D03*
X14845000Y64250000D03*
X53880000Y33465000D03*
X67805000Y15050000D03*
X39747000Y45591000D03*
X69090000Y13775000D03*
X62760000Y29680000D03*
X60255000Y24590000D03*
X45200000Y51525000D03*
X62730000Y20120000D03*
X44940000Y20740000D03*
X67830000Y28420000D03*
X45650000Y39555000D03*
X69065000Y15040000D03*
X53855000Y21365000D03*
X58930000Y21375000D03*
X33143000Y27176000D03*
X69065000Y16310000D03*
X55130000Y21365000D03*
X70335000Y18850000D03*
X60230000Y13760000D03*
X55155000Y33465000D03*
X66555000Y33500000D03*
X60230000Y12490000D03*
X28317000Y28954000D03*
X41625000Y47300000D03*
X7230000Y61675000D03*
X20570000Y48131000D03*
X65290000Y28420000D03*
X41450000Y42445000D03*
X16115000Y64250000D03*
X70385000Y23335000D03*
X46920000Y45900000D03*
X61465000Y17580000D03*
X66585000Y24615000D03*
X66560000Y11245000D03*
X67830000Y13785000D03*
X67800000Y21410000D03*
X58960000Y11220000D03*
X69115000Y24605000D03*
X58985000Y23320000D03*
X66100000Y4230000D03*
X7230000Y64215000D03*
X60185000Y20115000D03*
X13585000Y56625000D03*
X45650000Y40825000D03*
X20323700Y65492519D03*
X14845000Y62975000D03*
X66585000Y27155000D03*
X70360000Y11235000D03*
X13575000Y62970000D03*
X67855000Y25885000D03*
X9765000Y61700000D03*
X7230000Y62945000D03*
X4680000Y65475000D03*
X46920000Y39555000D03*
X4695000Y44194000D03*
X61490000Y11235000D03*
X69065000Y17580000D03*
X64055000Y25875000D03*
X66535000Y18860000D03*
X22094000Y65149000D03*
X65265000Y16320000D03*
X67785000Y20140000D03*
X70360000Y15045000D03*
X66585000Y23345000D03*
X43459261Y42350000D03*
X67805000Y16320000D03*
X22094000Y70356000D03*
X62735000Y18850000D03*
X70385000Y27145000D03*
X18298234Y4212649D03*
X65290000Y30960000D03*
X41620000Y46035000D03*
X45650000Y45900000D03*
X64055000Y23335000D03*
X60210000Y32215000D03*
X45200000Y50275000D03*
X66560000Y28420000D03*
X46920000Y43360000D03*
X46470000Y50275000D03*
X30857000Y28954000D03*
D33*
X36318004Y37590000D03*
D32*
X65265000Y15050000D03*
X53865000Y16285000D03*
X41625000Y49840000D03*
X19173000Y25271000D03*
X14474000Y37082000D03*
D33*
X14474000Y42797000D03*
D32*
X40636000Y32256000D03*
X8180000Y50860000D03*
X19173000Y32256000D03*
X44300000Y13730000D03*
X19590000Y17440000D03*
X11545229Y18794000D03*
X19173000Y33272000D03*
X11540000Y16250000D03*
X43430000Y14603000D03*
D33*
X1373596Y35360000D03*
X7200000Y18910588D03*
X4550000Y62736000D03*
X36826000Y50544000D03*
X29714000Y49020000D03*
D32*
X33905000Y49020000D03*
X38477000Y49020000D03*
D34*
X25777000Y49274000D03*
D32*
X42159976Y37844020D03*
D33*
X57375000Y63700000D03*
D32*
X31870000Y17430000D03*
D33*
X52575000Y63700000D03*
X25559530Y50187798D03*
X24666301Y50321179D03*
X5107510Y31474918D03*
X5107510Y35406099D03*
X10029000Y40130000D03*
X12244828Y23431445D03*
X4550000Y57656000D03*
D32*
X45081000Y32764000D03*
X48775000Y17775000D03*
X45081000Y34796000D03*
X45081000Y33780000D03*
D33*
X12548555Y49657751D03*
X37630000Y7240000D03*
X32287950Y8614224D03*
X4550000Y60196000D03*
X10216058Y13140826D03*
X9313587Y13159216D03*
X4550000Y61466000D03*
X4550000Y56386000D03*
X35145630Y8547045D03*
D32*
X19046000Y35177000D03*
X17649000Y38987000D03*
D33*
X16633000Y39367980D03*
X16633000Y42289000D03*
X15620000Y17280000D03*
X10035100Y17276100D03*
X4550000Y58926000D03*
X27948670Y12640081D03*
X6746831Y42670000D03*
X2479143Y40610000D03*
X17014561Y46353561D03*
X28111100Y16449198D03*
X12401455Y50997029D03*
X11410000Y13987300D03*
X10600358Y51399500D03*
X13438190Y45337000D03*
X14452273Y35199848D03*
X7167885Y34790410D03*
X8249900Y33532100D03*
X9793926Y49269812D03*
X11397444Y51785274D03*
X12674333Y13641251D03*
X26284996Y37780500D03*
X5105254Y52853819D03*
X27174000Y37780500D03*
X5697844Y53500732D03*
X30692412Y37537485D03*
X4003187Y52061931D03*
X31566595Y37617220D03*
X16184289Y51771382D03*
X32443985Y37590000D03*
X7133800Y50463101D03*
X6154613Y29785387D03*
X8630900Y29790000D03*
X9394000Y45972000D03*
X9259800Y27241700D03*
X6600000Y23366000D03*
X9420000Y22310000D03*
X3622686Y48766000D03*
X5965000Y46226000D03*
X8630900Y24380000D03*
X5838000Y26540998D03*
X23110000Y31113000D03*
X38477000Y31113000D03*
X4550000Y55100000D03*
D32*
X43912500Y58900000D03*
D33*
X15427114Y55370000D03*
X35561367Y43637483D03*
X16150053Y52648526D03*
X34539439Y42796439D03*
X16116035Y53525679D03*
X35514546Y42711454D03*
X15418726Y56251734D03*
X36318000Y43178000D03*
X11808376Y50349872D03*
X22113803Y40711622D03*
X34090000Y5940000D03*
X4560000Y4290000D03*
X34790000Y5290000D03*
X5560000Y4290000D03*
X12430000Y4290000D03*
X34090000Y4640000D03*
X34790000Y3990000D03*
X13430000Y4290000D03*
X34090000Y3340000D03*
X20308234Y4290126D03*
X34790000Y2690000D03*
X21300000Y4290126D03*
X34090000Y2040000D03*
X28170000Y4286721D03*
X29170000Y4286721D03*
X34790000Y1390000D03*
X37600000Y740000D03*
X44490000Y4283893D03*
X36900000Y1390000D03*
X45490000Y4283893D03*
X52360000Y4284115D03*
X37600000Y2040000D03*
X53360000Y4284115D03*
X36900000Y2690000D03*
X37600000Y3340000D03*
X60230000Y4285112D03*
X61230000Y4285112D03*
X36900000Y3990000D03*
D32*
X33905000Y71245000D03*
X30095000Y71245000D03*
X28190000Y69340000D03*
X33905000Y67435000D03*
X33905000Y59815000D03*
X32000000Y69340000D03*
X30095000Y63625000D03*
X30095000Y67435000D03*
X32000000Y61720000D03*
X28190000Y57910000D03*
X35810000Y57910000D03*
X38350000Y69340000D03*
X32000000Y65530000D03*
X25650000Y69340000D03*
X36445000Y64260000D03*
X35810000Y69340000D03*
X32000000Y57910000D03*
X33905000Y63625000D03*
X27555000Y64260000D03*
X30095000Y59815000D03*
X26920000Y71245000D03*
X37080000Y71245000D03*
D33*
X34675000Y40000000D03*
X68110000Y4285000D03*
X37600000Y4640000D03*
X36900000Y5290000D03*
X69110000Y4285000D03*
X41993816Y44702000D03*
X42222957Y24410185D03*
X42032439Y43812439D03*
X41345655Y24408867D03*
D32*
X43912500Y54450000D03*
X47370700Y28090000D03*
D33*
X40366816Y6579635D03*
X34800000Y6590000D03*
G36*
X36402868Y5691434D02*
G01*
X36403274Y5689918D01*
X36403086Y5688596D01*
X36412298Y5652718D01*
X36443810Y5634082D01*
X36479547Y5643258D01*
X36486566Y5650202D01*
X36488501Y5650709D01*
X36489908Y5649287D01*
X36489560Y5647562D01*
X36425432Y5563990D01*
X36370690Y5431828D01*
X36369150Y5420134D01*
X36367932Y5418547D01*
X36365949Y5418808D01*
X36365235Y5419877D01*
X36355834Y5454961D01*
X36324129Y5473267D01*
X36288499Y5463720D01*
X36280439Y5455403D01*
X36278516Y5454855D01*
X36277079Y5456247D01*
X36277379Y5457962D01*
X36341842Y5547671D01*
X36399438Y5690946D01*
X36401012Y5692180D01*
X36402868Y5691434D01*
G37*
G36*
X35332215Y6447345D02*
G01*
X35332611Y6445866D01*
X35332498Y6445007D01*
X35342085Y6409227D01*
X35373758Y6390941D01*
X35401361Y6399274D01*
X35403308Y6398817D01*
X35403716Y6398276D01*
X35404343Y6397062D01*
X35406597Y6398225D01*
X35408595Y6398131D01*
X35409512Y6396354D01*
X35408829Y6394941D01*
X35292461Y6293428D01*
X35202937Y6166048D01*
X35163006Y6063630D01*
X35161446Y6062380D01*
X35159582Y6063107D01*
X35159143Y6064315D01*
X35158378Y6100800D01*
X35131955Y6126140D01*
X35095048Y6125366D01*
X35088227Y6121332D01*
X35086227Y6121312D01*
X35085209Y6123033D01*
X35085991Y6124641D01*
X35187482Y6202518D01*
X35274568Y6316010D01*
X35328780Y6446892D01*
X35330367Y6448110D01*
X35332215Y6447345D01*
G37*
G36*
X28486529Y12540199D02*
G01*
X28487243Y12539130D01*
X28496644Y12504046D01*
X28528338Y12485747D01*
X28564493Y12495876D01*
X28566431Y12495380D01*
X28566971Y12493454D01*
X28566519Y12492612D01*
X28447314Y12360220D01*
X28349287Y12190433D01*
X28299155Y12036142D01*
X28297669Y12034804D01*
X28295767Y12035422D01*
X28295347Y12037365D01*
X28324282Y12128577D01*
X28321119Y12165485D01*
X28293116Y12189066D01*
X28256301Y12185911D01*
X28253385Y12184057D01*
X28251387Y12183972D01*
X28250314Y12185660D01*
X28251094Y12187332D01*
X28336152Y12252599D01*
X28423238Y12366091D01*
X28477980Y12498253D01*
X28483328Y12538873D01*
X28484546Y12540460D01*
X28486529Y12540199D01*
G37*
G36*
X27416727Y12515254D02*
G01*
X27417270Y12514127D01*
X27419360Y12498253D01*
X27474102Y12366091D01*
X27561188Y12252599D01*
X27617143Y12209663D01*
X27617908Y12207815D01*
X27616690Y12206228D01*
X27615407Y12206144D01*
X27580325Y12215544D01*
X27548620Y12197239D01*
X27539055Y12161541D01*
X27540641Y12154174D01*
X27566116Y12069794D01*
X27565659Y12067847D01*
X27563744Y12067269D01*
X27562299Y12068598D01*
X27522713Y12190433D01*
X27424686Y12360220D01*
X27311230Y12486227D01*
X27310814Y12488183D01*
X27312300Y12489521D01*
X27313991Y12489106D01*
X27335108Y12471636D01*
X27370512Y12460745D01*
X27402849Y12477865D01*
X27413365Y12514419D01*
X27414805Y12515807D01*
X27416727Y12515254D01*
G37*
G36*
X6661655Y18990367D02*
G01*
X6662292Y18988627D01*
X6652017Y18910588D01*
X6670690Y18768760D01*
X6725432Y18636598D01*
X6812518Y18523106D01*
X6847656Y18496143D01*
X6848421Y18494295D01*
X6847203Y18492708D01*
X6845920Y18492624D01*
X6810837Y18502025D01*
X6779132Y18483719D01*
X6769564Y18448011D01*
X6770650Y18442671D01*
X6770015Y18440774D01*
X6768055Y18440375D01*
X6766763Y18441738D01*
X6725126Y18591876D01*
X6591240Y18928317D01*
X6566016Y18975956D01*
X6566090Y18977955D01*
X6567857Y18978891D01*
X6569059Y18978433D01*
X6597761Y18954688D01*
X6634209Y18958134D01*
X6657765Y18986607D01*
X6658355Y18989314D01*
X6659701Y18990793D01*
X6661655Y18990367D01*
G37*
G36*
X38074726Y30744795D02*
G01*
X38089516Y30725519D01*
X38203010Y30638432D01*
X38243462Y30621677D01*
X38244680Y30620090D01*
X38243915Y30618242D01*
X38242697Y30617829D01*
X38206374Y30617829D01*
X38180487Y30591942D01*
X38180487Y30555140D01*
X38192109Y30538786D01*
X38192297Y30536794D01*
X38190667Y30535636D01*
X38189149Y30536134D01*
X38084818Y30629090D01*
X38008969Y30669250D01*
X38007906Y30670945D01*
X38008842Y30672712D01*
X38010093Y30673009D01*
X38046424Y30669575D01*
X38074634Y30692912D01*
X38078102Y30729602D01*
X38071362Y30742661D01*
X38071456Y30744659D01*
X38073233Y30745576D01*
X38074726Y30744795D01*
G37*
G36*
X4727017Y31082073D02*
G01*
X4833520Y31000350D01*
X4965682Y30945608D01*
X5107510Y30926935D01*
X5141558Y30931418D01*
X5143406Y30930653D01*
X5143667Y30928670D01*
X5142819Y30927703D01*
X5111363Y30909542D01*
X5101877Y30874138D01*
X5117333Y30844945D01*
X5117259Y30842946D01*
X5115492Y30842010D01*
X5114235Y30842516D01*
X5069818Y30882090D01*
X4932216Y30954946D01*
X4781214Y30992876D01*
X4691236Y30993347D01*
X4689509Y30994356D01*
X4689519Y30996356D01*
X4690490Y30997199D01*
X4724279Y31010988D01*
X4738466Y31044737D01*
X4724497Y31078968D01*
X4724476Y31078986D01*
X4724414Y31079171D01*
X4724320Y31079401D01*
X4724335Y31079407D01*
X4723839Y31080882D01*
X4725162Y31082382D01*
X4727017Y31082073D01*
G37*
G36*
X35285907Y40204995D02*
G01*
X35286588Y40203491D01*
X35286588Y39796511D01*
X35285588Y39794779D01*
X35283588Y39794779D01*
X35282740Y39795746D01*
X35268414Y39830333D01*
X35234590Y39844343D01*
X35200561Y39830248D01*
X35191276Y39816352D01*
X35189482Y39815467D01*
X35187819Y39816578D01*
X35187765Y39818228D01*
X35204310Y39858172D01*
X35222983Y40000000D01*
X35204310Y40141828D01*
X35187339Y40182801D01*
X35187600Y40184784D01*
X35189448Y40185549D01*
X35190601Y40184980D01*
X35216283Y40159298D01*
X35252895Y40159298D01*
X35278938Y40185341D01*
X35282626Y40203881D01*
X35283945Y40205385D01*
X35285907Y40204995D01*
G37*
G36*
X9206626Y49515060D02*
G01*
X9224541Y49483267D01*
X9259803Y49473422D01*
X9291948Y49491535D01*
X9296932Y49500064D01*
X9298669Y49501055D01*
X9300396Y49500046D01*
X9300507Y49498290D01*
X9264616Y49411640D01*
X9245943Y49269812D01*
X9262337Y49145289D01*
X9261572Y49143441D01*
X9259589Y49143180D01*
X9258622Y49144028D01*
X9240460Y49175485D01*
X9205097Y49184961D01*
X9173143Y49166512D01*
X9168008Y49157510D01*
X9166281Y49156501D01*
X9164544Y49157492D01*
X9164415Y49159247D01*
X9194406Y49233852D01*
X9216358Y49388099D01*
X9216499Y49401448D01*
X9202898Y49513838D01*
X9203683Y49515677D01*
X9205669Y49515918D01*
X9206626Y49515060D01*
G37*
G36*
X58764028Y49351001D02*
G01*
X58764028Y49349001D01*
X58762517Y49348013D01*
X58762508Y49348012D01*
X58762287Y49348000D01*
X55567713Y49348000D01*
X55565981Y49349000D01*
X55565981Y49351000D01*
X55567713Y49352000D01*
X58762296Y49352001D01*
X58764028Y49351001D01*
G37*
G36*
X58764019Y52451000D02*
G01*
X58764019Y52449000D01*
X58762287Y52448000D01*
X55567704Y52447999D01*
X55565972Y52448999D01*
X55565972Y52450999D01*
X55567483Y52451987D01*
X55567492Y52451988D01*
X55567713Y52452000D01*
X58762287Y52452000D01*
X58764019Y52451000D01*
G37*
G36*
X43295676Y54262555D02*
G01*
X43296438Y54261582D01*
X43335141Y54155820D01*
X43421978Y54026593D01*
X43537133Y53921810D01*
X43584102Y53896308D01*
X43585147Y53894602D01*
X43584193Y53892845D01*
X43582939Y53892561D01*
X43546646Y53896375D01*
X43518227Y53873363D01*
X43515514Y53833568D01*
X43514399Y53831908D01*
X43512404Y53832044D01*
X43511648Y53832997D01*
X43469246Y53945209D01*
X43381060Y54073522D01*
X43264818Y54177090D01*
X43224276Y54198556D01*
X43223213Y54200251D01*
X43224149Y54202018D01*
X43225400Y54202315D01*
X43261731Y54198880D01*
X43289916Y54222198D01*
X43292565Y54261031D01*
X43293680Y54262691D01*
X43295676Y54262555D01*
G37*
G36*
X10006326Y63640183D02*
G01*
X10007225Y63638396D01*
X10006742Y63637204D01*
X9982897Y63609578D01*
X9985584Y63572970D01*
X10005513Y63552620D01*
X10006010Y63550683D01*
X10004581Y63549284D01*
X10003148Y63549453D01*
X10002216Y63549946D01*
X9851214Y63587876D01*
X9695524Y63588691D01*
X9544128Y63552344D01*
X9529607Y63544849D01*
X9527610Y63544943D01*
X9526692Y63546720D01*
X9527162Y63547917D01*
X9550717Y63575790D01*
X9547644Y63612380D01*
X9527786Y63632659D01*
X9526233Y63633503D01*
X9525189Y63635208D01*
X9526143Y63636965D01*
X9527696Y63637195D01*
X9677060Y63598010D01*
X9832732Y63595565D01*
X9984498Y63630324D01*
X10004329Y63640298D01*
X10006326Y63640183D01*
G37*
G36*
X42290045Y65426294D02*
G01*
X42290748Y65425217D01*
X42299824Y65389869D01*
X42331298Y65371256D01*
X42369544Y65382586D01*
X42371489Y65382119D01*
X42372057Y65380201D01*
X42371427Y65379161D01*
X42313452Y65328586D01*
X42223928Y65201206D01*
X42167373Y65056148D01*
X42160020Y65000301D01*
X42158802Y64998714D01*
X42156819Y64998975D01*
X42156105Y65000044D01*
X42146660Y65035294D01*
X42114982Y65053584D01*
X42077661Y65042530D01*
X42075716Y65042997D01*
X42075148Y65044915D01*
X42075794Y65045969D01*
X42128981Y65091396D01*
X42219833Y65217829D01*
X42277906Y65362291D01*
X42286831Y65425002D01*
X42288065Y65426576D01*
X42290045Y65426294D01*
G37*
G36*
X45401471Y65636554D02*
G01*
X45477817Y65600792D01*
X45772626Y65499856D01*
X45773941Y65498349D01*
X45773293Y65496457D01*
X45772104Y65495968D01*
X45734927Y65493629D01*
X45710716Y65466167D01*
X45713029Y65429404D01*
X45723166Y65416049D01*
X45723417Y65414065D01*
X45721824Y65412856D01*
X45720243Y65413347D01*
X45704818Y65427090D01*
X45567216Y65499946D01*
X45416214Y65537876D01*
X45379674Y65538067D01*
X45377947Y65539076D01*
X45377957Y65541076D01*
X45378928Y65541919D01*
X45412716Y65555708D01*
X45426903Y65589457D01*
X45412978Y65623580D01*
X45399470Y65633109D01*
X45398631Y65634924D01*
X45399784Y65636559D01*
X45401471Y65636554D01*
G37*
G36*
X49955529Y69917130D02*
G01*
X49956200Y69915636D01*
X49956200Y69603403D01*
X49955200Y69601671D01*
X49953200Y69601671D01*
X49952273Y69602869D01*
X49905126Y69772876D01*
X49856020Y69896273D01*
X49856308Y69898252D01*
X49858167Y69898991D01*
X49859312Y69898406D01*
X49885280Y69871703D01*
X49921888Y69871192D01*
X49948287Y69896864D01*
X49952241Y69916040D01*
X49953570Y69917534D01*
X49955529Y69917130D01*
G37*
M02*
