%TF.GenerationSoftware,KiCad,Pcbnew,(6.0.8)*%
%TF.CreationDate,2023-02-19T19:21:13+03:00*%
%TF.ProjectId,ESP32-GATEWAY_Rev_G,45535033-322d-4474-9154-455741595f52,0*%
%TF.SameCoordinates,PX4260300PY8558f68*%
%TF.FileFunction,Plated,1,2,PTH,Mixed*%
%TF.FilePolarity,Positive*%
%FSLAX46Y46*%
G04 Gerber Fmt 4.6, Leading zero omitted, Abs format (unit mm)*
G04 Created by KiCad (PCBNEW (6.0.8)) date 2023-02-19 19:21:13*
%MOMM*%
%LPD*%
G01*
G04 APERTURE LIST*
%TA.AperFunction,ComponentDrill*%
%ADD10C,0.299720*%
%TD*%
%TA.AperFunction,ComponentDrill*%
%ADD11C,0.300000*%
%TD*%
%TA.AperFunction,ViaDrill*%
%ADD12C,0.400000*%
%TD*%
%TA.AperFunction,ViaDrill*%
%ADD13C,0.500000*%
%TD*%
%TA.AperFunction,ViaDrill*%
%ADD14C,0.600000*%
%TD*%
%TA.AperFunction,ComponentDrill*%
%ADD15C,0.600000*%
%TD*%
G04 aperture for slot hole*
%TA.AperFunction,ComponentDrill*%
%ADD16O,0.800000X1.400000*%
%TD*%
G04 aperture for slot hole*
%TA.AperFunction,ComponentDrill*%
%ADD17O,0.800000X1.700000*%
%TD*%
%TA.AperFunction,ComponentDrill*%
%ADD18C,0.900000*%
%TD*%
%TA.AperFunction,ComponentDrill*%
%ADD19C,1.000000*%
%TD*%
%TA.AperFunction,ComponentDrill*%
%ADD20C,1.100000*%
%TD*%
%TA.AperFunction,ComponentDrill*%
%ADD21C,1.200000*%
%TD*%
%TA.AperFunction,ComponentDrill*%
%ADD22C,1.300000*%
%TD*%
%TA.AperFunction,ComponentDrill*%
%ADD23C,1.800000*%
%TD*%
%TA.AperFunction,ComponentDrill*%
%ADD24C,3.300000*%
%TD*%
G04 APERTURE END LIST*
D10*
%TO.C,U3*%
X30849000Y40481000D03*
D11*
X29049000Y42281000D03*
X29049000Y41281000D03*
X29849000Y43081000D03*
X29849000Y40481000D03*
X30849000Y43081000D03*
X31649000Y42281000D03*
X31649000Y41281000D03*
%TD*%
D12*
X631000Y27557000D03*
X631000Y23493000D03*
X1373596Y35360000D03*
X2479143Y40610000D03*
X3622686Y48766000D03*
X4003187Y52061931D03*
X4550000Y62736000D03*
X4550000Y61466000D03*
X4550000Y60196000D03*
X4550000Y58926000D03*
X4550000Y57656000D03*
X4550000Y56386000D03*
X4550000Y55100000D03*
X4560000Y4290000D03*
X5105254Y52853819D03*
X5107510Y35406099D03*
X5107510Y31474918D03*
X5560000Y4290000D03*
X5697844Y53500732D03*
X5838000Y26540998D03*
X5965000Y46226000D03*
X6154613Y29785387D03*
X6600000Y23366000D03*
X6746831Y42670000D03*
X7133800Y50463101D03*
X7167885Y34790410D03*
X7200000Y18910588D03*
X8249900Y33532100D03*
X8630900Y29790000D03*
X8630900Y24380000D03*
X9259800Y27241700D03*
X9313587Y13159216D03*
X9394000Y45972000D03*
X9420000Y22310000D03*
X9793926Y49269812D03*
X10029000Y40130000D03*
X10035100Y17276100D03*
X10216058Y13140826D03*
X10600358Y51399500D03*
X11397444Y51785274D03*
X11410000Y13987300D03*
X11426000Y45337000D03*
X11808376Y50349872D03*
X12244828Y23431445D03*
X12401455Y50997029D03*
X12430000Y4290000D03*
X12442010Y45337000D03*
X12548555Y49657751D03*
X12674333Y13641251D03*
X13430000Y4290000D03*
X13438190Y45337000D03*
X14452273Y35199848D03*
X14474000Y42797000D03*
X15418726Y56251734D03*
X15427114Y55370000D03*
X15620000Y17280000D03*
X16116035Y53525679D03*
X16150053Y52648526D03*
X16184289Y51771382D03*
X16633000Y42289000D03*
X16633000Y39367980D03*
X17014561Y46353561D03*
X20308234Y4290126D03*
X21300000Y4290126D03*
X22113803Y40711622D03*
X23110000Y31113000D03*
X24666301Y50321179D03*
X25559530Y50187798D03*
X26284996Y37780500D03*
X27174000Y37780500D03*
X27948670Y12640081D03*
X28111100Y16449198D03*
X28170000Y4286721D03*
X29170000Y4286721D03*
X29714000Y49020000D03*
X30692412Y37537485D03*
X31566595Y37617220D03*
X32287950Y8614224D03*
X32443985Y37590000D03*
X32761988Y44448000D03*
X33524000Y43940000D03*
X34090000Y5940000D03*
X34090000Y4640000D03*
X34090000Y3340000D03*
X34090000Y2040000D03*
X34539439Y42796439D03*
X34540000Y37590000D03*
X34675000Y40000000D03*
X34790000Y5290000D03*
X34790000Y3990000D03*
X34790000Y2690000D03*
X34790000Y1390000D03*
X34800000Y6590000D03*
X35145630Y8547045D03*
X35429000Y37590000D03*
X35514546Y42711454D03*
X35561367Y43637483D03*
X36318000Y43178000D03*
X36318004Y37590000D03*
X36826000Y50544000D03*
X36900000Y5290000D03*
X36900000Y3990000D03*
X36900000Y2690000D03*
X36900000Y1390000D03*
X37600000Y4640000D03*
X37600000Y3340000D03*
X37600000Y2040000D03*
X37600000Y740000D03*
X37630000Y7240000D03*
X38477000Y31113000D03*
X40174428Y9133880D03*
X40366816Y6579635D03*
X41345655Y24408867D03*
X41993816Y44702000D03*
X42032439Y43812439D03*
X42222957Y24410185D03*
X44490000Y4283893D03*
X45490000Y4283893D03*
X52360000Y4284115D03*
X52575000Y63700000D03*
X53360000Y4284115D03*
X57375000Y63700000D03*
X60230000Y4285112D03*
X61230000Y4285112D03*
X68110000Y4285000D03*
X69110000Y4285000D03*
D13*
X25777000Y49274000D03*
D14*
X2560000Y4220000D03*
X4568000Y37589848D03*
X4680000Y65475000D03*
X4695000Y49147000D03*
X4695000Y45464000D03*
X4695000Y44194000D03*
X4695000Y23874000D03*
X4700000Y30350000D03*
X5960000Y65485000D03*
X7230000Y65485000D03*
X7230000Y64215000D03*
X7230000Y62945000D03*
X7230000Y61675000D03*
X7489000Y49401000D03*
X8180000Y50860000D03*
X8500000Y65485000D03*
X8500000Y64215000D03*
X8500000Y62945000D03*
X8500000Y61675000D03*
X8568500Y49401561D03*
X9765000Y65510000D03*
X9765000Y64240000D03*
X9765000Y61700000D03*
X9770000Y62945000D03*
X10420000Y4215669D03*
X11035000Y65510000D03*
X11035000Y64240000D03*
X11035000Y62970000D03*
X11035000Y61700000D03*
X11299000Y37336000D03*
X11540000Y16250000D03*
X11545229Y18794000D03*
X12305000Y65510000D03*
X12305000Y64240000D03*
X12305000Y62970000D03*
X12305000Y61700000D03*
X12315000Y60435000D03*
X12325000Y59165000D03*
X12325000Y57895000D03*
X12325000Y56625000D03*
X12325000Y55355000D03*
X12442000Y37336000D03*
X13575000Y65510000D03*
X13575000Y64240000D03*
X13575000Y62970000D03*
X13585000Y61720000D03*
X13585000Y60435000D03*
X13585000Y59165000D03*
X13585000Y57895000D03*
X13585000Y56625000D03*
X13585000Y55355000D03*
X13760000Y26541000D03*
X13760000Y25525000D03*
X13760000Y24509000D03*
X13766000Y32622000D03*
X13766000Y31606000D03*
X13766000Y30590000D03*
X14474000Y37082000D03*
X14845000Y65500000D03*
X14845000Y64250000D03*
X14845000Y62975000D03*
X14855000Y61720000D03*
X14855000Y60435000D03*
X14855000Y59165000D03*
X14855000Y57895000D03*
X16115000Y65500000D03*
X16115000Y64250000D03*
X16115000Y62975000D03*
X16125000Y61705000D03*
X17350000Y30575000D03*
X17385000Y65500000D03*
X17649000Y38987000D03*
X17776000Y42289000D03*
X18298234Y4212649D03*
X19046000Y35177000D03*
X19173000Y33272000D03*
X19173000Y32256000D03*
X19173000Y25271000D03*
X19590000Y17440000D03*
X20323700Y65492519D03*
X20550000Y28591000D03*
X20550000Y27575000D03*
X20550000Y26550000D03*
X20570000Y71626000D03*
X20570000Y70356000D03*
X20570000Y69086000D03*
X20570000Y67816000D03*
X20570000Y66546000D03*
X20570000Y48131000D03*
X21332000Y35685000D03*
X21967000Y51687000D03*
X22094000Y71626000D03*
X22094000Y70356000D03*
X22094000Y65149000D03*
X22957600Y51687000D03*
X23070479Y45805479D03*
X23110000Y65149000D03*
X24258000Y28593000D03*
X24258000Y27577000D03*
X24258000Y26561000D03*
X25015000Y48067500D03*
X25650000Y69340000D03*
X25777000Y30097000D03*
X25777000Y28954000D03*
X26170000Y4216721D03*
X26920000Y71245000D03*
X27047000Y30097000D03*
X27047000Y28954000D03*
X27555000Y64260000D03*
X27936000Y25652000D03*
X28190000Y69340000D03*
X28190000Y57910000D03*
X28317000Y30097000D03*
X28317000Y28954000D03*
X29206000Y35177000D03*
X29587000Y30097000D03*
X29587000Y28954000D03*
X30095000Y71245000D03*
X30095000Y67435000D03*
X30095000Y63625000D03*
X30095000Y59815000D03*
X30349000Y25652000D03*
X30857000Y30097000D03*
X30857000Y28954000D03*
X31492000Y22858000D03*
X31619000Y24382000D03*
X31870000Y17430000D03*
X32000000Y69340000D03*
X32000000Y65530000D03*
X32000000Y61720000D03*
X32000000Y57910000D03*
X32254000Y30097000D03*
X32254000Y28954000D03*
X33143000Y27176000D03*
X33524000Y38860000D03*
X33524000Y37717000D03*
X33905000Y71245000D03*
X33905000Y67435000D03*
X33905000Y63625000D03*
X33905000Y59815000D03*
X33905000Y49020000D03*
X34032000Y30097000D03*
X34032000Y28954000D03*
X34032000Y21334000D03*
X35774009Y5859842D03*
X35810000Y69340000D03*
X35810000Y57910000D03*
X35936992Y24382000D03*
X35937000Y30097000D03*
X35937000Y29081000D03*
X35937000Y26033000D03*
X36445000Y64260000D03*
X36826000Y45718000D03*
X36826000Y44702000D03*
X37080000Y71245000D03*
X37207000Y24382000D03*
X37715000Y30097000D03*
X37715000Y29081000D03*
X37715000Y26098570D03*
X38350000Y69340000D03*
X38477000Y49020000D03*
X38858000Y17016000D03*
X39154589Y34345411D03*
X39747000Y49020000D03*
X39747000Y47877000D03*
X39747000Y46734000D03*
X39747000Y45591000D03*
X39747000Y44448000D03*
X39747000Y43305000D03*
X39747000Y42162000D03*
X39747000Y41019000D03*
X39747000Y39876000D03*
X39747000Y38733000D03*
X40636000Y32256000D03*
X41450000Y42445000D03*
X41450000Y41175000D03*
X41450000Y39905000D03*
X41620000Y46035000D03*
X41625000Y53645000D03*
X41625000Y52375000D03*
X41625000Y51110000D03*
X41625000Y49840000D03*
X41625000Y48570000D03*
X41625000Y47300000D03*
X41652000Y71245000D03*
X41652000Y69340000D03*
X41652000Y67435000D03*
X41652000Y65530000D03*
X42159976Y37844020D03*
X42489227Y4220000D03*
X42795000Y64895000D03*
X42895000Y53645000D03*
X42895000Y52375000D03*
X42895000Y51110000D03*
X42895000Y49840000D03*
X42895000Y48570000D03*
X42895000Y47300000D03*
X43049000Y35050000D03*
X43430000Y14603000D03*
X43459261Y42350000D03*
X43459261Y41080000D03*
X43475000Y43575000D03*
X43475000Y39825000D03*
X43684000Y28065000D03*
X43912500Y58900000D03*
X43912500Y54450000D03*
X44050000Y61100000D03*
X44065000Y64895000D03*
X44065000Y63625000D03*
X44065000Y62355000D03*
X44300000Y13730000D03*
X44700000Y28065000D03*
X44812500Y56175000D03*
X44940000Y20740000D03*
X45081000Y34796000D03*
X45081000Y33780000D03*
X45081000Y32764000D03*
X45195000Y49010000D03*
X45200000Y51525000D03*
X45200000Y50275000D03*
X45335000Y64895000D03*
X45335000Y63625000D03*
X45335000Y62355000D03*
X45335000Y61085000D03*
X45650000Y45900000D03*
X45650000Y44630000D03*
X45650000Y43360000D03*
X45650000Y42090000D03*
X45650000Y40825000D03*
X45650000Y39555000D03*
X46470000Y51525000D03*
X46470000Y50275000D03*
X46605000Y62355000D03*
X46605000Y61085000D03*
X46920000Y45900000D03*
X46920000Y44630000D03*
X46920000Y43360000D03*
X46920000Y42090000D03*
X46920000Y40825000D03*
X46920000Y39555000D03*
X46925000Y47165000D03*
X47370700Y28090000D03*
X48775000Y17775000D03*
X50340000Y4230000D03*
X53855000Y21365000D03*
X53865000Y16285000D03*
X53880000Y33465000D03*
X53880000Y28385000D03*
X53890000Y11210000D03*
X53915000Y23310000D03*
X55130000Y21365000D03*
X55135000Y16285000D03*
X55150000Y28385000D03*
X55155000Y33465000D03*
X55160000Y11210000D03*
X55185000Y23310000D03*
X56400000Y21375000D03*
X56425000Y33475000D03*
X56430000Y11210000D03*
X56455000Y23310000D03*
X57655000Y21375000D03*
X57680000Y33475000D03*
X57690000Y11220000D03*
X57715000Y23320000D03*
X58220000Y4230000D03*
X58930000Y21375000D03*
X58955000Y33475000D03*
X58960000Y11220000D03*
X58985000Y23320000D03*
X60185000Y20115000D03*
X60185000Y18845000D03*
X60200000Y21385000D03*
X60205000Y17565000D03*
X60205000Y16295000D03*
X60205000Y15025000D03*
X60210000Y32215000D03*
X60210000Y30945000D03*
X60225000Y33485000D03*
X60230000Y29665000D03*
X60230000Y28395000D03*
X60230000Y27125000D03*
X60230000Y13760000D03*
X60230000Y12490000D03*
X60230000Y11220000D03*
X60255000Y25860000D03*
X60255000Y24590000D03*
X60255000Y23320000D03*
X61455000Y21390000D03*
X61455000Y20120000D03*
X61465000Y18850000D03*
X61465000Y17580000D03*
X61465000Y16310000D03*
X61465000Y15040000D03*
X61480000Y33490000D03*
X61480000Y32220000D03*
X61490000Y30950000D03*
X61490000Y29680000D03*
X61490000Y28410000D03*
X61490000Y27140000D03*
X61490000Y13775000D03*
X61490000Y12505000D03*
X61490000Y11235000D03*
X61515000Y25875000D03*
X61515000Y24605000D03*
X61515000Y23335000D03*
X62730000Y21390000D03*
X62730000Y20120000D03*
X62735000Y18850000D03*
X62735000Y17580000D03*
X62735000Y16310000D03*
X62755000Y33490000D03*
X62755000Y32220000D03*
X62760000Y30950000D03*
X62760000Y29680000D03*
X62760000Y28410000D03*
X62760000Y15045000D03*
X62760000Y13775000D03*
X62760000Y12505000D03*
X62760000Y11235000D03*
X62785000Y27145000D03*
X62785000Y25875000D03*
X62785000Y24605000D03*
X62785000Y23335000D03*
X63985000Y20130000D03*
X63985000Y18860000D03*
X64000000Y21400000D03*
X64005000Y17580000D03*
X64005000Y16310000D03*
X64005000Y15040000D03*
X64010000Y32230000D03*
X64010000Y30960000D03*
X64025000Y33500000D03*
X64030000Y29680000D03*
X64030000Y28410000D03*
X64030000Y27140000D03*
X64030000Y13775000D03*
X64030000Y12505000D03*
X64030000Y11235000D03*
X64055000Y25875000D03*
X64055000Y24605000D03*
X64055000Y23335000D03*
X65255000Y21400000D03*
X65255000Y20130000D03*
X65265000Y18860000D03*
X65265000Y17590000D03*
X65265000Y16320000D03*
X65265000Y15050000D03*
X65280000Y33500000D03*
X65280000Y32230000D03*
X65290000Y30960000D03*
X65290000Y29690000D03*
X65290000Y28420000D03*
X65290000Y27150000D03*
X65290000Y13785000D03*
X65290000Y12515000D03*
X65290000Y11245000D03*
X65315000Y25885000D03*
X65315000Y24615000D03*
X65315000Y23345000D03*
X66100000Y4230000D03*
X66530000Y21400000D03*
X66530000Y20130000D03*
X66535000Y18860000D03*
X66535000Y17590000D03*
X66535000Y16320000D03*
X66555000Y33500000D03*
X66555000Y32230000D03*
X66560000Y30960000D03*
X66560000Y29690000D03*
X66560000Y28420000D03*
X66560000Y15055000D03*
X66560000Y13785000D03*
X66560000Y12515000D03*
X66560000Y11245000D03*
X66585000Y27155000D03*
X66585000Y25885000D03*
X66585000Y24615000D03*
X66585000Y23345000D03*
X67785000Y20140000D03*
X67785000Y18870000D03*
X67800000Y21410000D03*
X67805000Y17590000D03*
X67805000Y16320000D03*
X67805000Y15050000D03*
X67810000Y32240000D03*
X67810000Y30970000D03*
X67825000Y33510000D03*
X67830000Y29690000D03*
X67830000Y28420000D03*
X67830000Y27150000D03*
X67830000Y13785000D03*
X67830000Y12515000D03*
X67830000Y11245000D03*
X67855000Y25885000D03*
X67855000Y24615000D03*
X67855000Y23345000D03*
X69055000Y21390000D03*
X69055000Y20120000D03*
X69065000Y18850000D03*
X69065000Y17580000D03*
X69065000Y16310000D03*
X69065000Y15040000D03*
X69080000Y33490000D03*
X69080000Y32220000D03*
X69090000Y30950000D03*
X69090000Y29680000D03*
X69090000Y28410000D03*
X69090000Y27140000D03*
X69090000Y13775000D03*
X69090000Y12505000D03*
X69090000Y11235000D03*
X69115000Y25875000D03*
X69115000Y24605000D03*
X69115000Y23335000D03*
X70330000Y21390000D03*
X70330000Y20120000D03*
X70335000Y18850000D03*
X70335000Y17580000D03*
X70335000Y16310000D03*
X70355000Y33490000D03*
X70355000Y32220000D03*
X70360000Y30950000D03*
X70360000Y29680000D03*
X70360000Y28410000D03*
X70360000Y15045000D03*
X70360000Y13775000D03*
X70360000Y12505000D03*
X70360000Y11235000D03*
X70385000Y27145000D03*
X70385000Y25875000D03*
X70385000Y24605000D03*
X70385000Y23335000D03*
D15*
%TO.C,MH2*%
X1139000Y17524000D03*
X1901000Y19175000D03*
X1901000Y15746000D03*
X3552000Y19937000D03*
X3552000Y15111000D03*
X5203000Y19175000D03*
X5203000Y15873000D03*
X5965000Y17524000D03*
%TO.C,U6*%
X7610000Y59542000D03*
X7610000Y57742000D03*
X7610000Y55942000D03*
X9410000Y59542000D03*
X9410000Y55942000D03*
X11210000Y59542000D03*
X11210000Y57742000D03*
X11210000Y55942000D03*
%TO.C,MH1*%
X44319000Y68705000D03*
X45081000Y70356000D03*
X45081000Y66927000D03*
X46732000Y71118000D03*
X46732000Y66292000D03*
X48383000Y70356000D03*
X48383000Y67054000D03*
X49145000Y68705000D03*
D16*
%TO.C,U7*%
X50655000Y69600000D03*
D17*
X50655000Y65420000D03*
D16*
X59295000Y69600000D03*
D17*
X59295000Y65420000D03*
D18*
%TO.C,*%
X26300000Y54775000D03*
%TO.C,LAN1*%
X27565000Y52226000D03*
X28835000Y54766000D03*
X30105000Y52226000D03*
X31375000Y54766000D03*
X32645000Y52226000D03*
X33915000Y54766000D03*
X35185000Y52226000D03*
X36455000Y54766000D03*
%TO.C,*%
X37715000Y52225000D03*
D19*
%TO.C,CON1*%
X1266000Y11809000D03*
X3806000Y11809000D03*
X6346000Y11809000D03*
X8886000Y11809000D03*
X11426000Y11809000D03*
X13966000Y11809000D03*
X16506000Y11809000D03*
X19046000Y11809000D03*
X21586000Y11809000D03*
X24126000Y11809000D03*
X26666000Y11809000D03*
X29206000Y11809000D03*
X31746000Y11809000D03*
X34286000Y11809000D03*
X36826000Y11809000D03*
X39366000Y11809000D03*
X41906000Y11809000D03*
X44446000Y11809000D03*
X46986000Y11809000D03*
X49526000Y11809000D03*
D20*
%TO.C,LAN1*%
X25390000Y66214500D03*
X27930000Y66214500D03*
X36070000Y66214500D03*
X38610000Y66214500D03*
D21*
%TO.C,U3*%
X30349000Y41781000D03*
%TO.C,U1*%
X51610000Y30925000D03*
X51610000Y28385000D03*
X51610000Y25845000D03*
%TO.C,U4*%
X51610000Y18850000D03*
X51610000Y16310000D03*
X51610000Y13770000D03*
%TO.C,REF\u002A\u002A*%
X57717500Y30935000D03*
X57717500Y28395000D03*
X57717500Y25855000D03*
X57725000Y18875000D03*
X57725000Y16335000D03*
X57725000Y13795000D03*
D22*
%TO.C,U6*%
X9410000Y57742000D03*
D23*
%TO.C,LAN1*%
X24200000Y58416000D03*
X39800000Y58416000D03*
%TO.C,REF\u002A\u002A*%
X51665000Y50900000D03*
%TO.C,J1*%
X51665000Y50900000D03*
X51665000Y46700000D03*
%TO.C,REF\u002A\u002A*%
X51665000Y46700000D03*
%TO.C,J1*%
X57165000Y50900000D03*
%TO.C,REF\u002A\u002A*%
X57165000Y50900000D03*
X57165000Y46700000D03*
%TO.C,J1*%
X57165000Y46700000D03*
D24*
%TO.C,MH2*%
X3552000Y17524000D03*
%TO.C,MH1*%
X46732000Y68705000D03*
M02*
