%TF.GenerationSoftware,KiCad,Pcbnew,(6.0.8)*%
%TF.CreationDate,2023-02-19T19:21:05+03:00*%
%TF.ProjectId,ESP32-GATEWAY_Rev_G,45535033-322d-4474-9154-455741595f52,0*%
%TF.SameCoordinates,PX4260300PY8558f68*%
%TF.FileFunction,Paste,Top*%
%TF.FilePolarity,Positive*%
%FSLAX46Y46*%
G04 Gerber Fmt 4.6, Leading zero omitted, Abs format (unit mm)*
G04 Created by KiCad (PCBNEW (6.0.8)) date 2023-02-19 19:21:05*
%MOMM*%
%LPD*%
G01*
G04 APERTURE LIST*
G04 Aperture macros list*
%AMRoundRect*
0 Rectangle with rounded corners*
0 $1 Rounding radius*
0 $2 $3 $4 $5 $6 $7 $8 $9 X,Y pos of 4 corners*
0 Add a 4 corners polygon primitive as box body*
4,1,4,$2,$3,$4,$5,$6,$7,$8,$9,$2,$3,0*
0 Add four circle primitives for the rounded corners*
1,1,$1+$1,$2,$3*
1,1,$1+$1,$4,$5*
1,1,$1+$1,$6,$7*
1,1,$1+$1,$8,$9*
0 Add four rect primitives between the rounded corners*
20,1,$1+$1,$2,$3,$4,$5,0*
20,1,$1+$1,$4,$5,$6,$7,0*
20,1,$1+$1,$6,$7,$8,$9,0*
20,1,$1+$1,$8,$9,$2,$3,0*%
G04 Aperture macros list end*
%ADD10C,0.254000*%
%TA.AperFunction,Profile*%
%ADD11C,0.254000*%
%TD*%
%ADD12C,0.200000*%
%ADD13R,0.998220X1.099820*%
%ADD14R,0.797560X1.198880*%
%ADD15R,1.099820X0.998220*%
%ADD16R,1.270000X1.524000*%
%ADD17R,1.524000X1.270000*%
%ADD18R,0.800000X0.800000*%
%ADD19R,0.635000X1.016000*%
%ADD20R,0.381000X1.016000*%
%ADD21R,1.200000X1.800000*%
%ADD22RoundRect,0.050800X-1.000000X-0.450000X1.000000X-0.450000X1.000000X0.450000X-1.000000X0.450000X0*%
%ADD23RoundRect,0.050800X-0.450000X-1.000000X0.450000X-1.000000X0.450000X1.000000X-0.450000X1.000000X0*%
%ADD24R,0.780000X0.230000*%
%ADD25R,0.230000X0.780000*%
%ADD26R,1.500000X0.800000*%
%ADD27R,1.500000X3.100000*%
%ADD28RoundRect,0.127000X-0.762000X0.508000X-0.762000X-0.508000X0.762000X-0.508000X0.762000X0.508000X0*%
%ADD29R,1.798320X1.597660*%
%ADD30R,2.000000X1.700000*%
%ADD31R,1.000000X1.400000*%
%ADD32R,4.826000X1.100000*%
%ADD33R,1.400000X1.000000*%
%ADD34R,1.270000X0.325000*%
%ADD35R,1.778000X2.286000*%
%ADD36RoundRect,0.150000X-0.150000X-0.625000X0.150000X-0.625000X0.150000X0.625000X-0.150000X0.625000X0*%
%ADD37RoundRect,0.250000X-0.350000X-0.650000X0.350000X-0.650000X0.350000X0.650000X-0.350000X0.650000X0*%
%ADD38R,1.270000X2.059940*%
%ADD39RoundRect,0.100000X-0.637500X-0.100000X0.637500X-0.100000X0.637500X0.100000X-0.637500X0.100000X0*%
%ADD40R,0.280000X1.130000*%
%ADD41R,0.230000X1.130000*%
%ADD42R,2.059940X1.270000*%
%ADD43RoundRect,0.250000X1.000000X-1.950000X1.000000X1.950000X-1.000000X1.950000X-1.000000X-1.950000X0*%
G04 APERTURE END LIST*
D10*
X1040000Y31720000D02*
X5090000Y31720000D01*
X5090000Y31720000D02*
X5090000Y31180000D01*
X5090000Y31180000D02*
X1040000Y31180000D01*
X1040000Y31180000D02*
X1040000Y31720000D01*
G36*
X1040000Y31720000D02*
G01*
X5090000Y31720000D01*
X5090000Y31180000D01*
X1040000Y31180000D01*
X1040000Y31720000D01*
G37*
X1050465Y25108198D02*
X5100465Y25108198D01*
X5100465Y25108198D02*
X5100465Y24568198D01*
X5100465Y24568198D02*
X1050465Y24568198D01*
X1050465Y24568198D02*
X1050465Y25108198D01*
G36*
X1050465Y25108198D02*
G01*
X5100465Y25108198D01*
X5100465Y24568198D01*
X1050465Y24568198D01*
X1050465Y25108198D01*
G37*
X1040465Y30618198D02*
X5090465Y30618198D01*
X5090465Y30618198D02*
X5090465Y30078198D01*
X5090465Y30078198D02*
X1040465Y30078198D01*
X1040465Y30078198D02*
X1040465Y30618198D01*
G36*
X1040465Y30618198D02*
G01*
X5090465Y30618198D01*
X5090465Y30078198D01*
X1040465Y30078198D01*
X1040465Y30618198D01*
G37*
X1040000Y29520000D02*
X5090000Y29520000D01*
X5090000Y29520000D02*
X5090000Y28980000D01*
X5090000Y28980000D02*
X1040000Y28980000D01*
X1040000Y28980000D02*
X1040000Y29520000D01*
G36*
X1040000Y29520000D02*
G01*
X5090000Y29520000D01*
X5090000Y28980000D01*
X1040000Y28980000D01*
X1040000Y29520000D01*
G37*
X1040465Y31718198D02*
X5090465Y31718198D01*
X5090465Y31718198D02*
X5090465Y31178198D01*
X5090465Y31178198D02*
X1040465Y31178198D01*
X1040465Y31178198D02*
X1040465Y31718198D01*
G36*
X1040465Y31718198D02*
G01*
X5090465Y31718198D01*
X5090465Y31178198D01*
X1040465Y31178198D01*
X1040465Y31718198D01*
G37*
X1590000Y34980000D02*
X3440000Y34980000D01*
X3440000Y34980000D02*
X3440000Y33330000D01*
X3440000Y33330000D02*
X1590000Y33330000D01*
X1590000Y33330000D02*
X1590000Y34980000D01*
G36*
X1590000Y34980000D02*
G01*
X3440000Y34980000D01*
X3440000Y33330000D01*
X1590000Y33330000D01*
X1590000Y34980000D01*
G37*
X1050000Y28420000D02*
X5100000Y28420000D01*
X5100000Y28420000D02*
X5100000Y27880000D01*
X5100000Y27880000D02*
X1050000Y27880000D01*
X1050000Y27880000D02*
X1050000Y28420000D01*
G36*
X1050000Y28420000D02*
G01*
X5100000Y28420000D01*
X5100000Y27880000D01*
X1050000Y27880000D01*
X1050000Y28420000D01*
G37*
X12750000Y26970000D02*
X13600000Y26970000D01*
X13600000Y26970000D02*
X13600000Y24130000D01*
X13600000Y24130000D02*
X12750000Y24130000D01*
X12750000Y24130000D02*
X12750000Y26970000D01*
G36*
X12750000Y26970000D02*
G01*
X13600000Y26970000D01*
X13600000Y24130000D01*
X12750000Y24130000D01*
X12750000Y26970000D01*
G37*
X12740000Y33030000D02*
X13590000Y33030000D01*
X13590000Y33030000D02*
X13590000Y30190000D01*
X13590000Y30190000D02*
X12740000Y30190000D01*
X12740000Y30190000D02*
X12740000Y33030000D01*
G36*
X12740000Y33030000D02*
G01*
X13590000Y33030000D01*
X13590000Y30190000D01*
X12740000Y30190000D01*
X12740000Y33030000D01*
G37*
X1040000Y30620000D02*
X5090000Y30620000D01*
X5090000Y30620000D02*
X5090000Y30080000D01*
X5090000Y30080000D02*
X1040000Y30080000D01*
X1040000Y30080000D02*
X1040000Y30620000D01*
G36*
X1040000Y30620000D02*
G01*
X5090000Y30620000D01*
X5090000Y30080000D01*
X1040000Y30080000D01*
X1040000Y30620000D01*
G37*
X1050000Y25110000D02*
X5100000Y25110000D01*
X5100000Y25110000D02*
X5100000Y24570000D01*
X5100000Y24570000D02*
X1050000Y24570000D01*
X1050000Y24570000D02*
X1050000Y25110000D01*
G36*
X1050000Y25110000D02*
G01*
X5100000Y25110000D01*
X5100000Y24570000D01*
X1050000Y24570000D01*
X1050000Y25110000D01*
G37*
X1050465Y27318198D02*
X5100465Y27318198D01*
X5100465Y27318198D02*
X5100465Y26778198D01*
X5100465Y26778198D02*
X1050465Y26778198D01*
X1050465Y26778198D02*
X1050465Y27318198D01*
G36*
X1050465Y27318198D02*
G01*
X5100465Y27318198D01*
X5100465Y26778198D01*
X1050465Y26778198D01*
X1050465Y27318198D01*
G37*
X1040000Y33660000D02*
X1590000Y33660000D01*
X1590000Y33660000D02*
X1590000Y33330000D01*
X1590000Y33330000D02*
X1040000Y33330000D01*
X1040000Y33330000D02*
X1040000Y33660000D01*
G36*
X1040000Y33660000D02*
G01*
X1590000Y33660000D01*
X1590000Y33330000D01*
X1040000Y33330000D01*
X1040000Y33660000D01*
G37*
X1050000Y27320000D02*
X5100000Y27320000D01*
X5100000Y27320000D02*
X5100000Y26780000D01*
X5100000Y26780000D02*
X1050000Y26780000D01*
X1050000Y26780000D02*
X1050000Y27320000D01*
G36*
X1050000Y27320000D02*
G01*
X5100000Y27320000D01*
X5100000Y26780000D01*
X1050000Y26780000D01*
X1050000Y27320000D01*
G37*
X1050465Y26218198D02*
X5100465Y26218198D01*
X5100465Y26218198D02*
X5100465Y25678198D01*
X5100465Y25678198D02*
X1050465Y25678198D01*
X1050465Y25678198D02*
X1050465Y26218198D01*
G36*
X1050465Y26218198D02*
G01*
X5100465Y26218198D01*
X5100465Y25678198D01*
X1050465Y25678198D01*
X1050465Y26218198D01*
G37*
X1050000Y24060000D02*
X5080000Y24060000D01*
X5080000Y24060000D02*
X5080000Y22460000D01*
X5080000Y22460000D02*
X1050000Y22460000D01*
X1050000Y22460000D02*
X1050000Y24060000D01*
G36*
X1050000Y24060000D02*
G01*
X5080000Y24060000D01*
X5080000Y22460000D01*
X1050000Y22460000D01*
X1050000Y24060000D01*
G37*
X1040465Y32818198D02*
X5090465Y32818198D01*
X5090465Y32818198D02*
X5090465Y32278198D01*
X5090465Y32278198D02*
X1040465Y32278198D01*
X1040465Y32278198D02*
X1040465Y32818198D01*
G36*
X1040465Y32818198D02*
G01*
X5090465Y32818198D01*
X5090465Y32278198D01*
X1040465Y32278198D01*
X1040465Y32818198D01*
G37*
X1040000Y32820000D02*
X5090000Y32820000D01*
X5090000Y32820000D02*
X5090000Y32280000D01*
X5090000Y32280000D02*
X1040000Y32280000D01*
X1040000Y32280000D02*
X1040000Y32820000D01*
G36*
X1040000Y32820000D02*
G01*
X5090000Y32820000D01*
X5090000Y32280000D01*
X1040000Y32280000D01*
X1040000Y32820000D01*
G37*
X1050465Y28418198D02*
X5100465Y28418198D01*
X5100465Y28418198D02*
X5100465Y27878198D01*
X5100465Y27878198D02*
X1050465Y27878198D01*
X1050465Y27878198D02*
X1050465Y28418198D01*
G36*
X1050465Y28418198D02*
G01*
X5100465Y28418198D01*
X5100465Y27878198D01*
X1050465Y27878198D01*
X1050465Y28418198D01*
G37*
X1040465Y29518198D02*
X5090465Y29518198D01*
X5090465Y29518198D02*
X5090465Y28978198D01*
X5090465Y28978198D02*
X1040465Y28978198D01*
X1040465Y28978198D02*
X1040465Y29518198D01*
G36*
X1040465Y29518198D02*
G01*
X5090465Y29518198D01*
X5090465Y28978198D01*
X1040465Y28978198D01*
X1040465Y29518198D01*
G37*
X1050000Y26220000D02*
X5100000Y26220000D01*
X5100000Y26220000D02*
X5100000Y25680000D01*
X5100000Y25680000D02*
X1050000Y25680000D01*
X1050000Y25680000D02*
X1050000Y26220000D01*
G36*
X1050000Y26220000D02*
G01*
X5100000Y26220000D01*
X5100000Y25680000D01*
X1050000Y25680000D01*
X1050000Y26220000D01*
G37*
D11*
X48650000Y72773492D02*
X49770000Y71659000D01*
X48650000Y72773492D02*
X19554000Y72769000D01*
X-4000Y66673000D02*
X0Y0D01*
X61200000Y72675000D02*
X71675000Y72675000D01*
X19554000Y66673000D02*
X19554000Y72769000D01*
X60184000Y71659000D02*
X61200000Y72675000D01*
X49770000Y71659000D02*
X60184000Y71659000D01*
X71675000Y72675000D02*
X71675000Y0D01*
X-4000Y66673000D02*
X19554000Y66673000D01*
X0Y0D02*
X71675000Y0D01*
D12*
X31949000Y43181000D02*
X31149000Y43181000D01*
X29549000Y40581000D02*
X28749000Y40581000D01*
X31949000Y41981000D02*
X31149000Y41981000D01*
X31949000Y40781000D02*
X31149000Y40781000D01*
X30449000Y40981000D02*
X30449000Y40181000D01*
X31949000Y40581000D02*
X31149000Y40581000D01*
X29549000Y41881000D02*
X28749000Y41881000D01*
X31949000Y42881000D02*
X31149000Y42881000D01*
X29549000Y40781000D02*
X28749000Y40781000D01*
X28749000Y40181000D02*
X29549000Y40181000D01*
X31949000Y43081000D02*
X31149000Y43081000D01*
X28749000Y43381000D02*
X28749000Y42581000D01*
X29549000Y40281000D02*
X28749000Y40281000D01*
X28749000Y41581000D02*
X29549000Y41581000D01*
X30349000Y43381000D02*
X30349000Y42581000D01*
X29549000Y43381000D02*
X28749000Y43381000D01*
X31949000Y42681000D02*
X31149000Y42681000D01*
X29549000Y40481000D02*
X28749000Y40481000D01*
X31949000Y40381000D02*
X31149000Y40381000D01*
X31949000Y42981000D02*
X31149000Y42981000D01*
X31949000Y40981000D02*
X31149000Y40981000D01*
X31949000Y43381000D02*
X31149000Y43381000D01*
X30549000Y40981000D02*
X30549000Y40181000D01*
X31949000Y40881000D02*
X31149000Y40881000D01*
X29549000Y42881000D02*
X28749000Y42881000D01*
X28749000Y41981000D02*
X28749000Y41581000D01*
X29549000Y43281000D02*
X28749000Y43281000D01*
X29549000Y41681000D02*
X28749000Y41681000D01*
X29549000Y42781000D02*
X28749000Y42781000D01*
X31149000Y40981000D02*
X31149000Y40181000D01*
X29549000Y42581000D02*
X29549000Y43381000D01*
X29549000Y40681000D02*
X28749000Y40681000D01*
X29549000Y40181000D02*
X29549000Y40981000D01*
X31949000Y40181000D02*
X31949000Y40981000D01*
X30549000Y40181000D02*
X30149000Y40181000D01*
X31949000Y42581000D02*
X31949000Y43381000D01*
X29549000Y40881000D02*
X28749000Y40881000D01*
X31949000Y40481000D02*
X31149000Y40481000D01*
X31149000Y41781000D02*
X31949000Y41781000D01*
X30249000Y43381000D02*
X30249000Y42581000D01*
X29549000Y43181000D02*
X28749000Y43181000D01*
X29549000Y40981000D02*
X28749000Y40981000D01*
X28749000Y40981000D02*
X28749000Y40181000D01*
X31149000Y42581000D02*
X31949000Y42581000D01*
X31949000Y42781000D02*
X31149000Y42781000D01*
X31149000Y41981000D02*
X31149000Y41581000D01*
X31949000Y41581000D02*
X31949000Y41981000D01*
X28749000Y42581000D02*
X29549000Y42581000D01*
X30349000Y40981000D02*
X30349000Y40181000D01*
X30449000Y43381000D02*
X30449000Y42581000D01*
X30249000Y40981000D02*
X30249000Y40181000D01*
X28749000Y41781000D02*
X29549000Y41781000D01*
X30149000Y43381000D02*
X30549000Y43381000D01*
X30149000Y40181000D02*
X30149000Y40981000D01*
X29549000Y42981000D02*
X28749000Y42981000D01*
X30149000Y42581000D02*
X30149000Y43381000D01*
X29549000Y41581000D02*
X29549000Y41981000D01*
X29549000Y40381000D02*
X28749000Y40381000D01*
X30149000Y40981000D02*
X30549000Y40981000D01*
X31949000Y40281000D02*
X31149000Y40281000D01*
X31149000Y40181000D02*
X31949000Y40181000D01*
X29549000Y43081000D02*
X28749000Y43081000D01*
X31949000Y41681000D02*
X31149000Y41681000D01*
X31149000Y43381000D02*
X31149000Y42581000D01*
X31149000Y41581000D02*
X31949000Y41581000D01*
X31949000Y43281000D02*
X31149000Y43281000D01*
X29549000Y41981000D02*
X28749000Y41981000D01*
X31949000Y41881000D02*
X31149000Y41881000D01*
X30549000Y43381000D02*
X30549000Y42581000D01*
X30549000Y42581000D02*
X30149000Y42581000D01*
X29549000Y42681000D02*
X28749000Y42681000D01*
X31949000Y40681000D02*
X31149000Y40681000D01*
D13*
X36064000Y34963640D03*
X36064000Y36660360D03*
X34540000Y34963640D03*
X34540000Y36660360D03*
D14*
X15733840Y27176000D03*
X17532160Y27176000D03*
D13*
X36826000Y48979360D03*
X36826000Y47282640D03*
X39874000Y36787360D03*
X39874000Y35090640D03*
X28190000Y36660360D03*
X28190000Y34963640D03*
D15*
X34072640Y45591000D03*
X35769360Y45591000D03*
X24847360Y44956000D03*
X23150640Y44956000D03*
X24847360Y40003000D03*
X23150640Y40003000D03*
X24847360Y41527000D03*
X23150640Y41527000D03*
X37166360Y41146000D03*
X35469640Y41146000D03*
D16*
X37969000Y35177000D03*
X37969000Y37209000D03*
D17*
X17649000Y25271000D03*
X15617000Y25271000D03*
D18*
X46461500Y54455000D03*
X44937500Y54455000D03*
D15*
X11847640Y44067000D03*
X13544360Y44067000D03*
D13*
X22094000Y66586640D03*
X22094000Y68283360D03*
X42033000Y63711360D03*
X42033000Y62014640D03*
X28952000Y48979360D03*
X28952000Y47282640D03*
X26666000Y48979360D03*
X26666000Y47282640D03*
X32762000Y48979360D03*
X32762000Y47282640D03*
X30476000Y48979360D03*
X30476000Y47282640D03*
D15*
X31278640Y15301500D03*
X32975360Y15301500D03*
X35469640Y39625000D03*
X37166360Y39625000D03*
X24847360Y46734000D03*
X23150640Y46734000D03*
X39406640Y20826000D03*
X41103360Y20826000D03*
X26117360Y22858000D03*
X24420640Y22858000D03*
D19*
X23745000Y35050000D03*
X23745000Y36574000D03*
D20*
X24634000Y35050000D03*
X24634000Y36574000D03*
X25396000Y35050000D03*
X25396000Y36574000D03*
D19*
X26285000Y35050000D03*
X26285000Y36574000D03*
X32635000Y36574000D03*
X32635000Y35050000D03*
D20*
X31746000Y36574000D03*
X31746000Y35050000D03*
X30984000Y36574000D03*
X30984000Y35050000D03*
D19*
X30095000Y36574000D03*
X30095000Y35050000D03*
D21*
X8510000Y59242000D03*
X8510000Y56242000D03*
X10310000Y56242000D03*
X10310000Y59242000D03*
D22*
X1910000Y65252000D03*
X1910000Y63982000D03*
X1910000Y62712000D03*
X1910000Y61442000D03*
X1910000Y60172000D03*
X1910000Y58902000D03*
X1910000Y57632000D03*
X1910000Y56362000D03*
X1910000Y55092000D03*
X1910000Y53822000D03*
X1910000Y52552000D03*
X1910000Y51282000D03*
X1910000Y50012000D03*
X1910000Y48742000D03*
D23*
X4710000Y47742000D03*
X5980000Y47742000D03*
X7250000Y47742000D03*
X8520000Y47742000D03*
X9790000Y47742000D03*
X11060000Y47742000D03*
X12330000Y47742000D03*
X13600000Y47742000D03*
X14870000Y47742000D03*
X16140000Y47742000D03*
D22*
X18910000Y48742000D03*
X18910000Y50012000D03*
X18910000Y51282000D03*
X18910000Y52552000D03*
X18910000Y53822000D03*
X18910000Y55092000D03*
X18910000Y56362000D03*
X18910000Y57632000D03*
X18910000Y58902000D03*
X18910000Y60172000D03*
X18910000Y61442000D03*
X18910000Y62712000D03*
X18910000Y63982000D03*
X18910000Y65252000D03*
D24*
X27899000Y43531000D03*
X27899000Y43031000D03*
X27899000Y42531000D03*
X27899000Y42031000D03*
X27899000Y41531000D03*
X27899000Y41031000D03*
X27899000Y40531000D03*
X27899000Y40031000D03*
D25*
X28599000Y39331000D03*
X29099000Y39331000D03*
X29599000Y39331000D03*
X30099000Y39331000D03*
X30599000Y39331000D03*
X31099000Y39331000D03*
X31599000Y39331000D03*
X32099000Y39331000D03*
D24*
X32799000Y40031000D03*
X32799000Y40531000D03*
X32799000Y41031000D03*
X32799000Y41531000D03*
X32799000Y42031000D03*
X32799000Y42531000D03*
X32799000Y43031000D03*
X32799000Y43531000D03*
D25*
X32099000Y44231000D03*
X31599000Y44231000D03*
X31099000Y44231000D03*
X30599000Y44231000D03*
X30099000Y44231000D03*
X29599000Y44231000D03*
X29099000Y44231000D03*
X28599000Y44231000D03*
D26*
X2727000Y24850000D03*
X2727000Y25950000D03*
X2727000Y27050000D03*
X2727000Y28150000D03*
X2727000Y29250000D03*
X2727000Y30350000D03*
X2727000Y31450000D03*
X2727000Y32550000D03*
D27*
X11977000Y31610000D03*
X11977000Y25550000D03*
D15*
X17481360Y28954000D03*
X15784640Y28954000D03*
D28*
X9521000Y42670000D03*
X1647000Y42670000D03*
X9521000Y36828000D03*
X1647000Y36828000D03*
D29*
X22475000Y56007540D03*
X22475000Y53208460D03*
X22475000Y60828460D03*
X22475000Y63627540D03*
D15*
X46547860Y52677000D03*
X44851140Y52677000D03*
X26117360Y25525000D03*
X24420640Y25525000D03*
X39914640Y25525000D03*
X41611360Y25525000D03*
X26117360Y18667000D03*
X24420640Y18667000D03*
X39406640Y22350000D03*
X41103360Y22350000D03*
D30*
X48470000Y33145000D03*
X43470000Y33145000D03*
D31*
X46798040Y35720560D03*
X48700500Y35720560D03*
X47745460Y37930360D03*
D32*
X28317000Y27430000D03*
X37715000Y27430000D03*
D33*
X22439440Y22670040D03*
X22439440Y24572500D03*
X20229640Y23617460D03*
D15*
X45040360Y35939000D03*
X43343640Y35939000D03*
X26117360Y21080000D03*
X24420640Y21080000D03*
X13544360Y42543000D03*
X11847640Y42543000D03*
X11847640Y41019000D03*
X13544360Y41019000D03*
D34*
X35746500Y17139000D03*
X35746500Y17789000D03*
X35746500Y18439000D03*
X35746500Y19089000D03*
X35746500Y19739000D03*
X35746500Y20389000D03*
X35746500Y21039000D03*
X35746500Y21689000D03*
X35746500Y22339000D03*
X35746500Y22989000D03*
X28507500Y22989000D03*
X28507500Y22339000D03*
X28507500Y21689000D03*
X28507500Y21039000D03*
X28507500Y20389000D03*
X28507500Y19739000D03*
X28507500Y19089000D03*
X28507500Y18439000D03*
X28507500Y17789000D03*
X28507500Y17139000D03*
D18*
X46461500Y58900000D03*
X44937500Y58900000D03*
D15*
X44851140Y57122000D03*
X46547860Y57122000D03*
X12274360Y19937000D03*
X10577640Y19937000D03*
X17735360Y35177000D03*
X16038640Y35177000D03*
D35*
X48401000Y29843000D03*
X44047000Y29843000D03*
D31*
X21011960Y37427440D03*
X19109500Y37427440D03*
X20064540Y35217640D03*
D15*
X21037360Y42289000D03*
X19340640Y42289000D03*
D17*
X15490000Y37844000D03*
X17522000Y37844000D03*
D15*
X19340639Y39241000D03*
X21037359Y39241000D03*
D33*
X17684560Y45651960D03*
X17684560Y43749500D03*
X19894360Y44704540D03*
D15*
X19340639Y40765000D03*
X21037359Y40765000D03*
X9099360Y21461000D03*
X7402640Y21461000D03*
X17735360Y33653000D03*
X16038640Y33653000D03*
D33*
X15533000Y41207000D03*
X15533000Y39307000D03*
X17733000Y40257000D03*
X37842000Y15116000D03*
X37842000Y18916000D03*
X39874000Y18916000D03*
X39874000Y15116000D03*
D13*
X35175000Y47282640D03*
X35175000Y48979360D03*
D15*
X16038640Y31875000D03*
X17735360Y31875000D03*
X12274360Y21461000D03*
X10577640Y21461000D03*
X9099360Y19937000D03*
X7402640Y19937000D03*
X19386360Y21715000D03*
X17689640Y21715000D03*
X17862360Y23366000D03*
X16165640Y23366000D03*
D33*
X22312440Y19114040D03*
X22312440Y21016500D03*
X20102640Y20061460D03*
D15*
X18497360Y20064000D03*
X16800640Y20064000D03*
X13544360Y39241000D03*
X11847640Y39241000D03*
X13544360Y35939000D03*
X11847640Y35939000D03*
D13*
X28170000Y9235081D03*
X28170000Y7538361D03*
D15*
X39473360Y9219180D03*
X37776640Y9219180D03*
X17076640Y7486829D03*
X18773360Y7486829D03*
D36*
X10430000Y5440000D03*
X11430000Y5440000D03*
X12430000Y5440000D03*
X13430000Y5440000D03*
D37*
X14730000Y1565000D03*
X9130000Y1565000D03*
D15*
X64978200Y7585000D03*
X66674920Y7585000D03*
D38*
X47977600Y26400000D03*
X44472400Y26400000D03*
D13*
X4560000Y9236720D03*
X4560000Y7540000D03*
D36*
X2560000Y5440000D03*
X3560000Y5440000D03*
X4560000Y5440000D03*
X5560000Y5440000D03*
D37*
X1260000Y1565000D03*
X6860000Y1565000D03*
D15*
X1436640Y7590000D03*
X3133360Y7590000D03*
D36*
X50360000Y5434115D03*
X51360000Y5434115D03*
X52360000Y5434115D03*
X53360000Y5434115D03*
D37*
X54660000Y1559115D03*
X49060000Y1559115D03*
D36*
X58230000Y5435112D03*
X59230000Y5435112D03*
X60230000Y5435112D03*
X61230000Y5435112D03*
D37*
X56930000Y1560112D03*
X62530000Y1560112D03*
D13*
X21775000Y9236009D03*
X21775000Y7539289D03*
D36*
X26170000Y5436721D03*
X27170000Y5436721D03*
X28170000Y5436721D03*
X29170000Y5436721D03*
D37*
X30470000Y1561721D03*
X24870000Y1561721D03*
D13*
X53835000Y9232475D03*
X53835000Y7535755D03*
D15*
X50401640Y61350000D03*
X52098360Y61350000D03*
X57107480Y7585112D03*
X58804200Y7585112D03*
D13*
X52360000Y9229195D03*
X52360000Y7532475D03*
X60230000Y9233472D03*
X60230000Y7536752D03*
X6035000Y9238360D03*
X6035000Y7541640D03*
D15*
X36193360Y9220000D03*
X34496640Y9220000D03*
D13*
X29645000Y9235081D03*
X29645000Y7538361D03*
D15*
X49235800Y7584115D03*
X50932520Y7584115D03*
D36*
X42490000Y5433893D03*
X43490000Y5433893D03*
X44490000Y5433893D03*
X45490000Y5433893D03*
D37*
X46790000Y1558893D03*
X41190000Y1558893D03*
D13*
X68100720Y9236640D03*
X68100720Y7539920D03*
D15*
X57476640Y61350000D03*
X59173360Y61350000D03*
D39*
X32987500Y7890000D03*
X32987500Y7240000D03*
X32987500Y6590000D03*
X32987500Y5940000D03*
X32987500Y5290000D03*
X32987500Y4640000D03*
X32987500Y3990000D03*
X32987500Y3340000D03*
X32987500Y2690000D03*
X32987500Y2040000D03*
X32987500Y1390000D03*
X32987500Y740000D03*
X38712500Y740000D03*
X38712500Y1390000D03*
X38712500Y2040000D03*
X38712500Y2690000D03*
X38712500Y3340000D03*
X38712500Y3990000D03*
X38712500Y4640000D03*
X38712500Y5290000D03*
X38712500Y5940000D03*
X38712500Y6590000D03*
X38712500Y7240000D03*
X38712500Y7890000D03*
D15*
X9307480Y7590000D03*
X11004200Y7590000D03*
D13*
X13905000Y9238360D03*
X13905000Y7541640D03*
D15*
X42948360Y8980000D03*
X41251640Y8980000D03*
D13*
X45965000Y9232253D03*
X45965000Y7535533D03*
X20300000Y9236009D03*
X20300000Y7539289D03*
D15*
X25047480Y7586721D03*
X26744200Y7586721D03*
D36*
X66110000Y5435000D03*
X67110000Y5435000D03*
X68110000Y5435000D03*
X69110000Y5435000D03*
D37*
X70410000Y1560000D03*
X64810000Y1560000D03*
D15*
X41367480Y7583893D03*
X43064200Y7583893D03*
D40*
X58300000Y64518000D03*
X57500000Y64518000D03*
D41*
X56225000Y64518000D03*
X55225000Y64518000D03*
X54725000Y64518000D03*
X53725000Y64518000D03*
D40*
X52450000Y64518000D03*
X51650000Y64518000D03*
X51900000Y64518000D03*
X52700000Y64518000D03*
D41*
X53225000Y64518000D03*
X54225000Y64518000D03*
X55725000Y64518000D03*
X56725000Y64518000D03*
D40*
X57250000Y64518000D03*
X58050000Y64518000D03*
D13*
X69575720Y9233360D03*
X69575720Y7536640D03*
X12430000Y9236720D03*
X12430000Y7540000D03*
D42*
X46475000Y15975000D03*
X46475000Y19480200D03*
D15*
X31221640Y9220000D03*
X32918360Y9220000D03*
D13*
X61705000Y9233472D03*
X61705000Y7536752D03*
X44490000Y9230613D03*
X44490000Y7533893D03*
D36*
X18300000Y5437649D03*
X19300000Y5437649D03*
X20300000Y5437649D03*
X21300000Y5437649D03*
D37*
X22600000Y1562649D03*
X17000000Y1562649D03*
D43*
X65810000Y61620000D03*
X65810000Y70020000D03*
D42*
X43425000Y15975000D03*
X43425000Y19480200D03*
M02*
